P3
16 16
255
169 152 70 169 152 70 169 152 70 187 168 76 187 168 76 169 152 70 153 135 65 153 135 65 153 135 65 169 152 70 169 152 70 187 168 76 187 168 76 169 152 70 153 135 65 169 152 70 
153 135 65 200 177 77 227 204 106 217 194 94 227 204 106 217 194 94 217 194 94 227 204 106 227 204 106 227 204 106 217 194 94 217 194 94 227 204 106 227 204 106 200 177 77 153 135 65 
169 152 70 217 194 94 200 177 77 211 187 80 200 177 77 200 177 77 200 177 77 200 177 77 200 177 77 211 187 80 200 177 77 211 187 80 211 187 80 200 177 77 217 194 94 169 152 70 
169 152 70 217 194 94 211 187 80 153 135 65 153 135 65 153 135 65 153 135 65 153 135 65 169 152 70 153 135 65 169 152 70 153 135 65 153 135 65 211 187 80 217 194 94 153 135 65 
239 217 126 217 194 94 211 187 80 153 135 65 0 0 0 227 204 106 0 0 0 0 0 0 0 0 0 0 0 0 227 204 106 0 0 0 153 135 65 200 177 77 217 194 94 153 135 65 
239 217 126 227 204 106 200 177 77 169 152 70 183 171 73 211 187 80 183 171 73 194 181 78 194 181 78 183 171 73 211 187 80 183 171 73 169 152 70 200 177 77 227 204 106 169 152 70 
187 168 76 239 217 126 227 204 106 187 168 76 0 0 0 217 194 94 0 0 0 0 0 0 0 0 0 0 0 0 217 194 94 0 0 0 187 168 76 227 204 106 239 217 126 187 168 76 
169 152 70 217 194 94 183 171 73 153 135 65 183 171 73 227 204 106 0 0 0 0 0 0 0 0 0 0 0 0 227 204 106 183 171 73 153 135 65 183 171 73 217 194 94 153 135 65 
169 152 70 227 204 106 200 177 77 169 152 70 0 0 0 227 204 106 0 0 0 0 0 0 0 0 0 0 0 0 227 204 106 0 0 0 169 152 70 200 177 77 217 194 94 169 152 70 
153 135 65 227 204 106 200 177 77 153 135 65 183 171 73 227 204 106 0 0 0 0 0 0 0 0 0 0 0 0 227 204 106 183 171 73 169 152 70 200 177 77 227 204 106 153 135 65 
153 135 65 217 194 94 211 187 80 153 135 65 0 0 0 227 204 106 0 0 0 0 0 0 0 0 0 0 0 0 227 204 106 0 0 0 153 135 65 211 187 80 227 204 106 153 135 65 
153 135 65 217 194 94 200 177 77 169 152 70 194 181 78 227 204 106 0 0 0 0 0 0 0 0 0 0 0 0 227 204 106 183 171 73 153 135 65 211 187 80 217 194 94 153 135 65 
169 152 70 217 194 94 200 177 77 153 135 65 0 0 0 227 204 106 0 0 0 0 0 0 0 0 0 0 0 0 227 204 106 0 0 0 153 135 65 200 177 77 217 194 94 153 135 65 
169 152 70 227 204 106 200 177 77 153 135 65 183 171 73 211 187 80 183 171 73 194 181 78 194 181 78 183 171 73 211 187 80 183 171 73 169 152 70 200 177 77 227 204 106 153 135 65 
153 135 65 227 204 106 211 187 80 153 135 65 0 0 0 217 194 94 0 0 0 0 0 0 0 0 0 0 0 0 217 194 94 0 0 0 169 152 70 200 177 77 227 204 106 153 135 65 
248 231 162 217 194 94 200 177 77 153 135 65 153 135 65 153 135 65 169 152 70 169 152 70 153 135 65 169 152 70 153 135 65 153 135 65 169 152 70 200 177 77 217 194 94 169 152 70 
