P3
16 16
255
117 131 51 152 177 69 128 144 56 90 103 42 112 133 53 152 177 69 138 154 61 101 112 48 128 144 56 145 166 67 138 154 61 90 103 42 112 133 53 152 177 69 138 154 61 90 103 42 
117 131 51 145 166 67 128 144 56 101 112 48 128 144 56 152 177 69 145 166 67 101 112 48 112 133 53 145 166 67 128 144 56 90 103 42 112 133 53 145 166 67 138 154 61 101 112 48 
130 143 56 145 166 67 128 144 56 136 141 54 173 190 77 185 219 95 173 190 77 136 141 54 112 133 53 152 177 69 128 144 56 90 103 42 112 133 53 145 166 67 138 154 61 101 112 48 
130 143 56 152 177 69 128 144 56 90 103 42 117 131 51 138 154 61 117 131 51 90 103 42 112 133 53 152 177 69 128 144 56 101 112 48 128 144 56 152 177 69 145 166 67 101 112 48 
130 143 56 152 177 69 138 154 61 90 103 42 112 133 53 145 166 67 128 144 56 101 112 48 128 144 56 145 166 67 138 154 61 136 141 54 173 190 77 185 219 95 173 190 77 136 141 54 
130 143 56 145 166 67 138 154 61 90 103 42 128 144 56 145 166 67 130 143 56 90 103 42 128 144 56 145 166 67 138 154 61 90 103 42 117 131 51 138 154 61 117 131 51 90 103 42 
117 131 51 145 166 67 138 154 61 101 112 48 128 144 56 152 177 69 130 143 56 90 103 42 128 144 56 145 166 67 128 144 56 90 103 42 128 144 56 145 166 67 130 143 56 101 112 48 
117 131 51 152 177 69 138 154 61 101 112 48 128 144 56 152 177 69 128 144 56 90 103 42 112 133 53 145 166 67 130 143 56 101 112 48 128 144 56 145 166 67 130 143 56 90 103 42 
130 143 56 152 177 69 145 166 67 101 112 48 128 144 56 145 166 67 128 144 56 101 112 48 128 144 56 145 166 67 130 143 56 101 112 48 130 143 56 145 166 67 128 144 56 90 103 42 
173 190 77 185 219 95 173 190 77 136 141 54 112 133 53 145 166 67 138 154 61 101 112 48 112 133 53 152 177 69 128 144 56 101 112 48 130 143 56 152 177 69 128 144 56 101 112 48 
117 131 51 138 154 61 117 131 51 90 103 42 112 133 53 152 177 69 138 154 61 101 112 48 112 133 53 152 177 69 138 154 61 101 112 48 112 133 53 152 177 69 128 144 56 90 103 42 
117 131 51 152 177 69 138 154 61 90 103 42 128 144 56 152 177 69 138 154 61 101 112 48 128 144 56 152 177 69 145 166 67 101 112 48 112 133 53 152 177 69 138 154 61 90 103 42 
130 143 56 152 177 69 138 154 61 101 112 48 128 144 56 145 166 67 138 154 61 136 141 54 173 190 77 185 219 95 173 190 77 136 141 54 112 133 53 145 166 67 138 154 61 90 103 42 
130 143 56 152 177 69 128 144 56 101 112 48 112 133 53 145 166 67 128 144 56 90 103 42 117 131 51 138 154 61 117 131 51 90 103 42 128 144 56 145 166 67 138 154 61 101 112 48 
117 131 51 145 166 67 128 144 56 90 103 42 112 133 53 145 166 67 138 154 61 90 103 42 112 133 53 145 166 67 130 143 56 101 112 48 128 144 56 145 166 67 128 144 56 101 112 48 
117 131 51 145 166 67 138 154 61 90 103 42 112 133 53 152 177 69 128 144 56 101 112 48 128 144 56 145 166 67 128 144 56 101 112 48 112 133 53 152 177 69 128 144 56 90 103 42 
