P3
16 16
255
187 168 76 217 194 94 200 177 77 146 128 59 187 168 76 217 194 94 200 177 77 146 128 59 183 171 73 194 181 78 194 181 78 194 181 78 183 171 73 183 171 73 194 181 78 183 171 73 
187 168 76 227 204 106 200 177 77 153 135 65 187 168 76 217 194 94 200 177 77 153 135 65 211 187 80 217 194 94 227 204 106 227 204 106 227 204 106 217 194 94 217 194 94 217 194 94 
187 168 76 217 194 94 200 177 77 153 135 65 200 177 77 227 204 106 211 187 80 153 135 65 183 171 73 200 177 77 200 177 77 211 187 80 211 187 80 211 187 80 200 177 77 200 177 77 
200 177 77 217 194 94 211 187 80 153 135 65 200 177 77 227 204 106 200 177 77 153 135 65 146 128 59 153 135 65 153 135 65 153 135 65 153 135 65 153 135 65 153 135 65 153 135 65 
187 168 76 217 194 94 211 187 80 153 135 65 187 168 76 227 204 106 211 187 80 153 135 65 183 171 73 187 168 76 187 168 76 200 177 77 187 168 76 200 177 77 200 177 77 187 168 76 
187 168 76 227 204 106 211 187 80 153 135 65 183 171 73 217 194 94 211 187 80 153 135 65 211 187 80 217 194 94 217 194 94 227 204 106 227 204 106 227 204 106 217 194 94 217 194 94 
183 171 73 227 204 106 200 177 77 153 135 65 183 171 73 217 194 94 200 177 77 153 135 65 183 171 73 183 171 73 200 177 77 211 187 80 211 187 80 200 177 77 200 177 77 200 177 77 
183 171 73 211 187 80 183 171 73 146 128 59 183 171 73 211 187 80 183 171 73 146 128 59 146 128 59 153 135 65 146 128 59 146 128 59 146 128 59 153 135 65 153 135 65 153 135 65 
194 181 78 194 181 78 183 171 73 183 171 73 183 171 73 183 171 73 194 181 78 183 171 73 187 168 76 211 187 80 183 171 73 146 128 59 183 171 73 211 187 80 183 171 73 146 128 59 
227 204 106 217 194 94 227 204 106 227 204 106 217 194 94 217 194 94 227 204 106 200 177 77 187 168 76 217 194 94 200 177 77 146 128 59 200 177 77 217 194 94 183 171 73 146 128 59 
200 177 77 211 187 80 211 187 80 211 187 80 211 187 80 200 177 77 200 177 77 183 171 73 187 168 76 227 204 106 200 177 77 153 135 65 200 177 77 227 204 106 200 177 77 146 128 59 
153 135 65 153 135 65 146 128 59 146 128 59 146 128 59 153 135 65 153 135 65 146 128 59 200 177 77 227 204 106 200 177 77 146 128 59 187 168 76 227 204 106 194 181 78 146 128 59 
200 177 77 200 177 77 187 168 76 187 168 76 200 177 77 187 168 76 187 168 76 183 171 73 200 177 77 217 194 94 200 177 77 146 128 59 187 168 76 217 194 94 211 187 80 153 135 65 
217 194 94 217 194 94 217 194 94 227 204 106 227 204 106 227 204 106 217 194 94 200 177 77 187 168 76 227 204 106 200 177 77 153 135 65 200 177 77 217 194 94 200 177 77 153 135 65 
211 187 80 200 177 77 200 177 77 200 177 77 211 187 80 211 187 80 211 187 80 183 171 73 187 168 76 217 194 94 200 177 77 153 135 65 200 177 77 227 204 106 200 177 77 146 128 59 
153 135 65 146 128 59 146 128 59 153 135 65 146 128 59 146 128 59 153 135 65 146 128 59 200 177 77 227 204 106 200 177 77 146 128 59 200 177 77 217 194 94 211 187 80 146 128 59 
