P3
16 16
255
239 217 126 217 194 94 211 187 80 200 177 77 217 194 94 227 204 106 227 204 106 227 204 106 217 194 94 217 194 94 227 204 106 248 231 162 248 231 162 211 187 80 217 194 94 169 152 70 
153 135 65 217 194 94 200 177 77 200 177 77 211 187 80 211 187 80 200 177 77 200 177 77 200 177 77 211 187 80 248 231 162 200 177 77 187 168 76 239 217 126 217 194 94 153 135 65 
153 135 65 227 204 106 200 177 77 153 135 65 169 152 70 187 168 76 187 168 76 169 152 70 187 168 76 187 168 76 248 231 162 169 152 70 187 168 76 239 217 126 217 194 94 169 152 70 
169 152 70 227 204 106 200 177 77 153 135 65 187 168 76 217 194 94 227 204 106 227 204 106 227 204 106 217 194 94 211 187 80 239 217 126 239 217 126 200 177 77 217 194 94 169 152 70 
153 135 65 227 204 106 211 187 80 169 152 70 200 177 77 187 168 76 183 171 73 194 181 78 183 171 73 183 171 73 187 168 76 200 177 77 153 135 65 211 187 80 227 204 106 153 135 65 
153 135 65 217 194 94 211 187 80 187 168 76 200 177 77 217 194 94 200 177 77 217 194 94 217 194 94 200 177 77 217 194 94 200 177 77 169 152 70 200 177 77 227 204 106 153 135 65 
169 152 70 217 194 94 211 187 80 169 152 70 211 187 80 217 194 94 211 187 80 217 194 94 217 194 94 211 187 80 217 194 94 211 187 80 169 152 70 200 177 77 217 194 94 169 152 70 
169 152 70 227 204 106 200 177 77 169 152 70 211 187 80 217 194 94 211 187 80 217 194 94 227 204 106 211 187 80 227 204 106 211 187 80 169 152 70 211 187 80 227 204 106 169 152 70 
187 168 76 239 217 126 227 204 106 187 168 76 211 187 80 227 204 106 211 187 80 227 204 106 227 204 106 211 187 80 227 204 106 211 187 80 187 168 76 227 204 106 239 217 126 187 168 76 
169 152 70 217 194 94 183 171 73 187 168 76 200 177 77 217 194 94 183 171 73 200 177 77 200 177 77 183 171 73 217 194 94 200 177 77 187 168 76 183 171 73 217 194 94 153 135 65 
248 231 162 227 204 106 211 187 80 169 152 70 200 177 77 183 171 73 227 204 106 217 194 94 217 194 94 227 204 106 183 171 73 211 187 80 169 152 70 200 177 77 227 204 106 153 135 65 
239 217 126 227 204 106 200 177 77 169 152 70 183 171 73 200 177 77 200 177 77 211 187 80 200 177 77 200 177 77 200 177 77 183 171 73 153 135 65 211 187 80 227 204 106 169 152 70 
153 135 65 227 204 106 200 177 77 153 135 65 169 152 70 187 168 76 187 168 76 169 152 70 169 152 70 153 135 65 169 152 70 153 135 65 153 135 65 211 187 80 217 194 94 169 152 70 
169 152 70 227 204 106 211 187 80 153 135 65 217 194 94 227 204 106 227 204 106 227 204 106 217 194 94 217 194 94 227 204 106 217 194 94 153 135 65 200 177 77 217 194 94 169 152 70 
169 152 70 227 204 106 211 187 80 169 152 70 211 187 80 211 187 80 200 177 77 200 177 77 200 177 77 211 187 80 211 187 80 200 177 77 169 152 70 200 177 77 227 204 106 153 135 65 
169 152 70 217 194 94 200 177 77 169 152 70 169 152 70 187 168 76 187 168 76 169 152 70 169 152 70 153 135 65 153 135 65 169 152 70 169 152 70 211 187 80 217 194 94 169 152 70 
