P3
16 16
255
194 181 78 211 187 80 0 0 0 0 0 0 0 0 0 0 0 0 0 0 0 0 0 0 0 0 0 0 0 0 0 0 0 0 0 0 0 0 0 0 0 0 194 181 78 211 187 80 
200 177 77 187 168 76 217 194 94 217 194 94 227 204 106 217 194 94 194 181 78 211 187 80 194 181 78 211 187 80 217 194 94 217 194 94 227 204 106 217 194 94 200 177 77 187 168 76 
227 204 106 200 177 77 187 168 76 194 181 78 194 181 78 200 177 77 200 177 77 187 168 76 200 177 77 187 168 76 187 168 76 194 181 78 194 181 78 200 177 77 227 204 106 200 177 77 
239 217 126 227 204 106 187 168 76 194 181 78 194 181 78 183 171 73 227 204 106 200 177 77 217 194 94 183 171 73 187 168 76 194 181 78 194 181 78 183 171 73 239 217 126 227 204 106 
211 187 80 183 171 73 217 194 94 227 204 106 227 204 106 217 194 94 217 194 94 200 177 77 227 204 106 183 171 73 217 194 94 227 204 106 227 204 106 217 194 94 211 187 80 183 171 73 
217 194 94 187 168 76 187 168 76 200 177 77 187 168 76 187 168 76 217 194 94 211 187 80 217 194 94 194 181 78 187 168 76 200 177 77 187 168 76 187 168 76 217 194 94 187 168 76 
217 194 94 200 177 77 0 0 0 0 0 0 0 0 0 0 0 0 227 204 106 211 187 80 227 204 106 183 171 73 0 0 0 0 0 0 0 0 0 0 0 0 217 194 94 200 177 77 
227 204 106 187 168 76 0 0 0 0 0 0 0 0 0 0 0 0 239 217 126 227 204 106 239 217 126 227 204 106 0 0 0 0 0 0 0 0 0 0 0 0 227 204 106 187 168 76 
227 204 106 200 177 77 0 0 0 0 0 0 0 0 0 0 0 0 217 194 94 183 171 73 217 194 94 183 171 73 0 0 0 0 0 0 0 0 0 0 0 0 227 204 106 200 177 77 
217 194 94 200 177 77 187 168 76 200 177 77 187 168 76 187 168 76 217 194 94 200 177 77 227 204 106 194 181 78 187 168 76 200 177 77 187 168 76 187 168 76 217 194 94 200 177 77 
227 204 106 217 194 94 217 194 94 227 204 106 227 204 106 217 194 94 227 204 106 200 177 77 217 194 94 194 181 78 217 194 94 227 204 106 227 204 106 217 194 94 227 204 106 217 194 94 
239 217 126 227 204 106 200 177 77 200 177 77 211 187 80 200 177 77 227 204 106 211 187 80 217 194 94 183 171 73 200 177 77 200 177 77 211 187 80 200 177 77 239 217 126 227 204 106 
211 187 80 183 171 73 217 194 94 217 194 94 227 204 106 217 194 94 194 181 78 211 187 80 194 181 78 211 187 80 217 194 94 217 194 94 227 204 106 217 194 94 211 187 80 183 171 73 
194 181 78 211 187 80 187 168 76 194 181 78 194 181 78 200 177 77 200 177 77 187 168 76 200 177 77 187 168 76 187 168 76 194 181 78 194 181 78 200 177 77 194 181 78 211 187 80 
200 177 77 187 168 76 0 0 0 0 0 0 0 0 0 0 0 0 0 0 0 0 0 0 0 0 0 0 0 0 0 0 0 0 0 0 0 0 0 0 0 0 200 177 77 187 168 76 
0 0 0 0 0 0 0 0 0 0 0 0 0 0 0 0 0 0 0 0 0 0 0 0 0 0 0 0 0 0 0 0 0 0 0 0 0 0 0 0 0 0 0 0 0 0 0 0 
