P3
16 16
255
153 135 65 169 152 70 169 152 70 169 152 70 187 168 76 169 152 70 153 135 65 248 231 162 239 217 126 153 135 65 169 152 70 187 168 76 187 168 76 169 152 70 153 135 65 153 135 65 
169 152 70 200 177 77 227 204 106 227 204 106 239 217 126 211 187 80 217 194 94 239 217 126 227 204 106 217 194 94 211 187 80 239 217 126 227 204 106 227 204 106 200 177 77 153 135 65 
187 168 76 217 194 94 169 152 70 200 177 77 227 204 106 183 171 73 183 171 73 183 171 73 200 177 77 200 177 77 183 171 73 227 204 106 200 177 77 169 152 70 217 194 94 169 152 70 
187 168 76 227 204 106 194 181 78 0 0 0 183 171 73 0 0 0 217 194 94 0 0 0 0 0 0 217 194 94 0 0 0 183 171 73 0 0 0 194 181 78 217 194 94 153 135 65 
169 152 70 227 204 106 194 181 78 211 187 80 194 181 78 211 187 80 227 204 106 211 187 80 211 187 80 227 204 106 211 187 80 194 181 78 211 187 80 194 181 78 227 204 106 169 152 70 
153 135 65 227 204 106 183 171 73 0 0 0 194 181 78 0 0 0 227 204 106 0 0 0 0 0 0 227 204 106 0 0 0 194 181 78 0 0 0 183 171 73 227 204 106 187 168 76 
153 135 65 217 194 94 194 181 78 217 194 94 227 204 106 227 204 106 239 217 126 0 0 0 0 0 0 239 217 126 227 204 106 227 204 106 217 194 94 183 171 73 227 204 106 169 152 70 
153 135 65 217 194 94 183 171 73 0 0 0 183 171 73 0 0 0 0 0 0 0 0 0 0 0 0 0 0 0 0 0 0 183 171 73 0 0 0 200 177 77 227 204 106 169 152 70 
169 152 70 217 194 94 183 171 73 0 0 0 194 181 78 0 0 0 0 0 0 0 0 0 0 0 0 0 0 0 0 0 0 194 181 78 0 0 0 200 177 77 217 194 94 187 168 76 
187 168 76 227 204 106 194 181 78 217 194 94 227 204 106 227 204 106 239 217 126 0 0 0 0 0 0 239 217 126 227 204 106 227 204 106 217 194 94 183 171 73 217 194 94 187 168 76 
187 168 76 227 204 106 194 181 78 0 0 0 183 171 73 0 0 0 227 204 106 0 0 0 0 0 0 227 204 106 0 0 0 183 171 73 0 0 0 194 181 78 227 204 106 187 168 76 
187 168 76 217 194 94 183 171 73 211 187 80 194 181 78 211 187 80 227 204 106 211 187 80 211 187 80 227 204 106 211 187 80 194 181 78 211 187 80 194 181 78 227 204 106 169 152 70 
169 152 70 217 194 94 183 171 73 0 0 0 194 181 78 0 0 0 217 194 94 0 0 0 0 0 0 217 194 94 0 0 0 194 181 78 0 0 0 183 171 73 217 194 94 169 152 70 
153 135 65 227 204 106 169 152 70 211 187 80 227 204 106 183 171 73 211 187 80 200 177 77 183 171 73 200 177 77 183 171 73 227 204 106 183 171 73 169 152 70 217 194 94 169 152 70 
153 135 65 200 177 77 227 204 106 227 204 106 239 217 126 211 187 80 227 204 106 227 204 106 227 204 106 217 194 94 211 187 80 239 217 126 227 204 106 217 194 94 200 177 77 153 135 65 
169 152 70 153 135 65 153 135 65 169 152 70 187 168 76 153 135 65 169 152 70 169 152 70 187 168 76 169 152 70 153 135 65 187 168 76 169 152 70 153 135 65 153 135 65 153 135 65 
