P3
16 16
255
0 0 0 0 0 0 0 0 0 0 0 0 0 0 0 0 0 0 0 0 0 0 0 0 0 0 0 0 0 0 0 0 0 0 0 0 0 0 0 0 0 0 0 0 0 0 0 0 
0 0 0 0 0 0 0 0 0 0 0 0 0 0 0 0 0 0 0 0 0 0 0 0 0 0 0 0 0 0 0 0 0 0 0 0 0 0 0 0 0 0 0 0 0 0 0 0 
0 0 0 0 0 0 0 0 0 0 0 0 0 0 0 0 0 0 0 0 0 0 0 0 0 0 0 0 0 0 0 0 0 0 0 0 0 0 0 0 0 0 0 0 0 0 0 0 
0 0 0 0 0 0 0 0 0 0 0 0 0 0 0 0 0 0 0 0 0 0 0 0 0 0 0 0 0 0 0 0 0 0 0 0 0 0 0 0 0 0 0 0 0 0 0 0 
0 0 0 0 0 0 0 0 0 0 0 0 0 0 0 0 0 0 0 0 0 0 0 0 0 0 0 0 0 0 0 0 0 0 0 0 0 0 0 0 0 0 0 0 0 0 0 0 
0 0 0 0 0 0 0 0 0 0 0 0 0 0 0 0 0 0 0 0 0 0 0 0 0 0 0 0 0 0 0 0 0 0 0 0 0 0 0 0 0 0 0 0 0 0 0 0 
0 0 0 0 0 0 0 0 0 0 0 0 0 0 0 0 0 0 0 0 0 0 0 0 0 0 0 0 0 0 0 0 0 0 0 0 0 0 0 0 0 0 0 0 0 0 0 0 
0 0 0 0 0 0 0 0 0 0 0 0 0 0 0 0 0 0 0 0 0 0 0 0 0 0 0 0 0 0 0 0 0 0 0 0 0 0 0 0 0 0 0 0 0 0 0 0 
0 0 0 0 0 0 0 0 0 0 0 0 0 0 0 85 171 45 85 171 45 0 0 0 0 0 0 0 0 0 0 0 0 0 0 0 0 0 0 0 0 0 74 143 40 85 171 45 
0 0 0 74 143 40 0 0 0 0 0 0 85 171 45 74 143 40 85 171 45 43 112 42 0 0 0 38 99 37 43 112 42 0 0 0 0 0 0 74 143 40 85 171 45 85 171 45 
74 143 40 85 171 45 0 0 0 43 112 42 74 143 40 85 171 45 74 143 40 85 171 45 38 99 37 43 112 42 85 171 45 43 112 42 0 0 0 85 171 45 43 112 42 74 143 40 
85 171 45 85 171 45 38 99 37 43 112 42 43 112 42 85 171 45 74 143 40 74 143 40 38 99 37 85 171 45 74 143 40 43 112 42 74 143 40 74 143 40 74 143 40 38 99 37 
85 171 45 74 143 40 85 171 45 85 171 45 38 99 37 74 143 40 85 171 45 43 112 42 74 143 40 74 143 40 43 112 42 38 99 37 43 112 42 74 143 40 85 171 45 0 0 0 
0 0 0 74 143 40 43 112 42 74 143 40 0 0 0 0 0 0 74 143 40 85 171 45 74 143 40 43 112 42 0 0 0 74 143 40 43 112 42 85 171 45 74 143 40 0 0 0 
0 0 0 74 143 40 74 143 40 0 0 0 0 0 0 0 0 0 0 0 0 43 112 42 43 112 42 0 0 0 0 0 0 43 112 42 74 143 40 74 143 40 0 0 0 0 0 0 
0 0 0 116 35 3 43 112 42 38 99 37 0 0 0 0 0 0 38 99 37 38 99 37 155 34 26 116 35 3 0 0 0 116 35 3 43 112 42 155 34 26 116 35 3 0 0 0 
