P3
16 16
255
0 0 0 0 0 0 0 0 0 0 0 0 0 0 0 0 0 0 0 0 0 0 0 0 0 0 0 0 0 0 0 0 0 0 0 0 0 0 0 0 0 0 0 0 0 0 0 0 
0 0 0 0 0 0 0 0 0 0 0 0 0 0 0 0 0 0 0 0 0 0 0 0 0 0 0 0 0 0 0 0 0 0 0 0 0 0 0 0 0 0 0 0 0 0 0 0 
0 0 0 0 0 0 0 0 0 0 0 0 0 0 0 0 0 0 0 0 0 0 0 0 0 0 0 0 0 0 0 0 0 0 0 0 0 0 0 0 0 0 0 0 0 0 0 0 
0 0 0 0 0 0 0 0 0 0 0 0 0 0 0 0 0 0 0 0 0 0 0 0 0 0 0 0 0 0 0 0 0 0 0 0 0 0 0 0 0 0 0 0 0 0 0 0 
0 0 0 0 0 0 0 0 0 0 0 0 0 0 0 0 0 0 0 0 0 0 0 0 0 0 0 0 0 0 0 0 0 0 0 0 0 0 0 0 0 0 0 0 0 0 0 0 
0 0 0 0 0 0 0 0 0 0 0 0 0 0 0 0 0 0 0 0 0 0 0 0 0 0 0 0 0 0 0 0 0 0 0 0 0 0 0 0 0 0 0 0 0 0 0 0 
0 0 0 0 0 0 0 0 0 0 0 0 0 0 0 0 0 0 0 0 0 0 0 0 0 0 0 0 0 0 0 0 0 0 0 0 0 0 0 0 0 0 0 0 0 0 0 0 
0 0 0 0 0 0 0 0 0 0 0 0 0 0 0 0 0 0 0 0 0 0 0 0 0 0 0 0 0 0 0 0 0 0 0 0 0 0 0 0 0 0 0 0 0 0 0 0 
3 65 80 7 72 87 7 72 87 7 72 87 3 65 80 84 100 155 84 100 155 254 203 230 207 160 243 84 100 155 3 65 80 3 65 80 3 65 80 7 72 87 3 65 80 3 65 80 
3 65 80 6 46 55 3 65 80 6 46 55 6 46 55 7 72 87 207 160 243 254 203 230 179 142 243 84 100 155 6 46 55 6 46 55 0 146 149 6 46 55 6 46 55 3 65 80 
6 46 55 3 65 80 6 46 55 6 46 55 6 46 55 6 46 55 84 100 155 254 203 230 179 142 243 179 142 243 11 33 42 6 46 55 6 46 55 3 65 80 6 46 55 6 46 55 
17 27 33 17 27 33 11 33 42 17 27 33 3 65 80 179 142 243 207 160 243 254 203 230 207 160 243 207 160 243 179 142 243 141 106 204 17 27 33 11 33 42 17 27 33 11 33 42 
11 33 42 13 18 23 0 146 149 17 27 33 13 18 23 76 61 113 141 106 204 254 203 230 254 203 230 141 106 204 76 61 113 17 27 33 17 27 33 13 18 23 13 18 23 17 27 33 
11 33 42 13 18 23 13 18 23 58 45 92 141 106 204 179 142 243 207 160 243 100 71 158 118 86 178 207 160 243 141 106 204 58 45 92 13 18 23 11 33 42 41 223 235 13 18 23 
13 18 23 13 18 23 11 33 42 11 33 42 13 18 23 58 45 92 141 106 204 118 86 178 100 71 158 141 106 204 58 45 92 11 33 42 13 18 23 13 18 23 13 18 23 13 18 23 
13 18 23 13 18 23 13 18 23 13 18 23 13 18 23 100 71 158 100 71 158 141 106 204 141 106 204 58 45 92 13 18 23 13 18 23 13 18 23 13 18 23 13 18 23 13 18 23 
