P3
16 16
255
79 50 24 73 47 23 79 50 24 83 56 26 83 56 26 83 56 26 83 56 26 83 56 26 79 50 24 83 56 26 83 56 26 83 56 26 83 56 26 83 56 26 79 50 24 58 36 17 
79 50 24 79 50 24 73 47 23 58 36 17 58 36 17 62 41 18 73 47 23 79 50 24 79 50 24 79 50 24 73 47 23 73 47 23 79 50 24 79 50 24 62 41 18 62 41 18 
73 47 23 62 41 18 197 197 197 197 197 197 171 172 171 156 156 156 79 50 24 62 41 18 62 41 18 62 41 18 83 56 26 188 161 96 188 161 96 188 161 96 133 110 54 58 36 17 
58 36 17 48 30 14 197 197 197 75 43 24 190 38 51 114 121 110 41 26 12 41 26 12 83 56 26 188 161 96 188 161 96 249 232 191 252 252 242 249 232 191 188 161 96 41 26 12 
79 50 24 58 36 17 171 172 171 190 38 51 56 33 22 156 156 156 83 56 26 62 41 18 188 161 96 249 232 191 252 252 242 252 252 242 190 38 51 252 252 242 133 110 54 79 50 24 
73 47 23 79 50 24 104 104 104 156 156 156 114 121 110 104 104 104 62 41 18 58 36 17 188 161 96 249 232 191 188 161 96 252 252 242 252 252 242 249 232 191 133 110 54 73 47 23 
62 41 18 62 41 18 73 47 23 79 50 24 73 47 23 73 47 23 73 47 23 58 36 17 188 161 96 252 252 242 252 252 242 252 252 242 252 252 242 252 252 242 133 110 54 62 41 18 
41 26 12 41 26 12 48 30 14 48 30 14 58 36 17 48 30 14 41 26 12 41 26 12 188 161 96 252 252 242 188 161 96 252 252 242 249 232 191 252 252 242 133 110 54 41 26 12 
79 50 24 83 56 26 83 56 26 79 50 24 73 47 23 73 47 23 83 56 26 83 56 26 188 161 96 252 252 242 249 232 191 252 252 242 133 110 54 249 232 191 133 110 54 62 41 18 
79 50 24 73 47 23 79 50 24 79 50 24 79 50 24 79 50 24 73 47 23 62 41 18 188 161 96 249 232 191 249 232 191 249 232 191 249 232 191 249 232 191 133 110 54 58 36 17 
48 30 14 48 30 14 48 30 14 41 26 12 48 30 14 48 30 14 62 41 18 62 41 18 188 161 96 249 232 191 249 232 191 249 232 191 188 161 96 133 110 54 83 56 26 62 41 18 
54 54 216 0 104 0 0 85 0 63 63 250 44 44 176 48 30 14 41 26 12 41 26 12 83 56 26 133 110 54 133 110 54 133 110 54 83 56 26 48 30 14 41 26 12 41 26 12 
44 44 176 0 104 0 107 150 47 87 123 38 63 63 250 41 26 12 79 50 24 62 41 18 83 56 26 83 56 26 73 47 23 62 41 18 73 47 23 79 50 24 83 56 26 83 56 26 
54 54 216 63 63 250 87 123 38 124 175 55 87 123 38 41 26 12 73 47 23 62 41 18 62 41 18 79 50 24 79 50 24 73 47 23 79 50 24 73 47 23 73 47 23 73 47 23 
63 63 250 63 63 250 63 63 250 0 104 0 0 85 0 48 30 14 62 41 18 58 36 17 79 50 24 79 50 24 73 47 23 62 41 18 62 41 18 62 41 18 62 41 18 62 41 18 
0 85 0 0 85 0 63 63 250 63 63 250 0 104 0 48 30 14 58 36 17 58 36 17 58 36 17 48 30 14 41 26 12 48 30 14 41 26 12 41 26 12 41 26 12 41 26 12 
