P3
16 16
255
83 56 26 106 70 30 106 70 30 106 70 30 83 56 26 106 70 30 106 70 30 106 70 30 83 56 26 106 70 30 106 70 30 106 70 30 83 56 26 106 70 30 106 70 30 106 70 30 
48 30 14 62 41 18 73 47 23 62 41 18 41 26 12 79 50 24 73 47 23 83 56 26 41 26 12 62 41 18 79 50 24 83 56 26 48 30 14 79 50 24 79 50 24 73 47 23 
48 30 14 62 41 18 79 50 24 79 50 24 48 30 14 73 47 23 79 50 24 83 56 26 48 30 14 73 47 23 79 50 24 62 41 18 48 30 14 79 50 24 73 47 23 79 50 24 
41 26 12 73 47 23 79 50 24 83 56 26 58 36 17 73 47 23 79 50 24 79 50 24 48 30 14 79 50 24 73 47 23 83 56 26 58 36 17 79 50 24 73 47 23 83 56 26 
41 26 12 79 50 24 62 41 18 83 56 26 58 36 17 62 41 18 79 50 24 73 47 23 58 36 17 73 47 23 62 41 18 83 56 26 58 36 17 73 47 23 58 36 17 83 56 26 
48 30 14 73 47 23 62 41 18 79 50 24 48 30 14 62 41 18 79 50 24 73 47 23 48 30 14 73 47 23 73 47 23 83 56 26 48 30 14 79 50 24 62 41 18 83 56 26 
58 36 17 62 41 18 73 47 23 79 50 24 41 26 12 62 41 18 73 47 23 83 56 26 41 26 12 73 47 23 62 41 18 83 56 26 41 26 12 73 47 23 73 47 23 83 56 26 
58 36 17 58 36 17 62 41 18 62 41 18 41 26 12 62 41 18 62 41 18 83 56 26 41 26 12 58 36 17 58 36 17 62 41 18 41 26 12 62 41 18 79 50 24 83 56 26 
58 36 17 79 50 24 62 41 18 83 56 26 41 26 12 73 47 23 62 41 18 83 56 26 41 26 12 79 50 24 62 41 18 83 56 26 48 30 14 62 41 18 79 50 24 79 50 24 
48 30 14 79 50 24 79 50 24 83 56 26 48 30 14 73 47 23 62 41 18 83 56 26 41 26 12 79 50 24 73 47 23 83 56 26 48 30 14 62 41 18 79 50 24 83 56 26 
41 26 12 73 47 23 79 50 24 83 56 26 58 36 17 73 47 23 73 47 23 83 56 26 48 30 14 79 50 24 73 47 23 83 56 26 41 26 12 62 41 18 73 47 23 83 56 26 
48 30 14 62 41 18 73 47 23 62 41 18 48 30 14 73 47 23 62 41 18 83 56 26 48 30 14 73 47 23 79 50 24 79 50 24 48 30 14 73 47 23 73 47 23 83 56 26 
41 26 12 62 41 18 79 50 24 83 56 26 48 30 14 62 41 18 73 47 23 83 56 26 48 30 14 73 47 23 79 50 24 73 47 23 41 26 12 73 47 23 79 50 24 83 56 26 
41 26 12 62 41 18 73 47 23 79 50 24 41 26 12 62 41 18 62 41 18 83 56 26 58 36 17 62 41 18 79 50 24 73 47 23 41 26 12 79 50 24 79 50 24 83 56 26 
41 26 12 62 41 18 73 47 23 83 56 26 41 26 12 79 50 24 62 41 18 79 50 24 48 30 14 62 41 18 79 50 24 62 41 18 48 30 14 79 50 24 62 41 18 79 50 24 
41 26 12 48 30 14 48 30 14 48 30 14 41 26 12 48 30 14 48 30 14 48 30 14 41 26 12 48 30 14 48 30 14 48 30 14 41 26 12 48 30 14 48 30 14 48 30 14 
