P3
16 16
255
48 29 41 59 35 45 70 44 57 70 44 57 59 35 45 59 35 45 48 29 41 48 29 41 48 29 41 59 35 45 59 35 45 48 29 41 48 29 41 59 35 45 59 35 45 48 29 41 
59 35 45 48 29 41 48 29 41 48 29 41 48 29 41 70 44 57 70 44 57 70 44 57 59 35 45 59 35 45 48 29 41 39 22 32 39 22 32 39 22 32 48 29 41 48 29 41 
39 22 32 39 22 32 48 29 41 59 35 45 59 35 45 59 35 45 70 44 57 84 53 67 84 53 67 84 53 67 70 44 57 70 44 57 48 29 41 39 22 32 39 22 32 48 29 41 
59 35 45 59 35 45 59 35 45 48 29 41 39 22 32 39 22 32 39 22 32 48 29 41 59 35 45 59 35 45 59 35 45 70 44 57 70 44 57 70 44 57 59 35 45 48 29 41 
59 35 45 48 29 41 48 29 41 48 29 41 48 29 41 59 35 45 59 35 45 48 29 41 39 22 32 39 22 32 39 22 32 39 22 32 39 22 32 39 22 32 48 29 41 48 29 41 
70 44 57 70 44 57 70 44 57 59 35 45 59 35 45 48 29 41 48 29 41 48 29 41 48 29 41 39 22 32 39 22 32 48 29 41 59 35 45 59 35 45 70 44 57 70 44 57 
70 44 57 59 35 45 48 29 41 48 29 41 48 29 41 39 22 32 39 22 32 39 22 32 59 35 45 70 44 57 70 44 57 70 44 57 59 35 45 48 29 41 48 29 41 70 44 57 
48 29 41 48 29 41 48 29 41 59 35 45 59 35 45 48 29 41 39 22 32 48 29 41 59 35 45 59 35 45 48 29 41 39 22 32 39 22 32 39 22 32 48 29 41 48 29 41 
39 22 32 39 22 32 70 44 57 70 44 57 84 53 67 84 53 67 70 44 57 70 44 57 48 29 41 48 29 41 48 29 41 59 35 45 59 35 45 48 29 41 39 22 32 39 22 32 
39 22 32 39 22 32 48 29 41 48 29 41 59 35 45 70 44 57 70 44 57 48 29 41 39 22 32 39 22 32 39 22 32 48 29 41 39 22 32 39 22 32 39 22 32 48 29 41 
48 29 41 48 29 41 39 22 32 39 22 32 39 22 32 39 22 32 48 29 41 48 29 41 39 22 32 48 29 41 48 29 41 59 35 45 48 29 41 39 22 32 48 29 41 59 35 45 
70 44 57 59 35 45 39 22 32 48 29 41 59 35 45 59 35 45 59 35 45 48 29 41 59 35 45 70 44 57 70 44 57 70 44 57 84 53 67 84 53 67 84 53 67 70 44 57 
59 35 45 48 29 41 48 29 41 59 35 45 70 44 57 84 53 67 84 53 67 70 44 57 70 44 57 70 44 57 59 35 45 48 29 41 48 29 41 48 29 41 59 35 45 59 35 45 
48 29 41 39 22 32 39 22 32 48 29 41 48 29 41 48 29 41 48 29 41 59 35 45 70 44 57 70 44 57 70 44 57 59 35 45 59 35 45 48 29 41 48 29 41 48 29 41 
48 29 41 48 29 41 59 35 45 59 35 45 59 35 45 39 22 32 39 22 32 48 29 41 48 29 41 48 29 41 59 35 45 59 35 45 59 35 45 59 35 45 70 44 57 70 44 57 
70 44 57 70 44 57 70 44 57 70 44 57 59 35 45 59 35 45 48 29 41 39 22 32 39 22 32 70 44 57 84 53 67 84 53 67 70 44 57 59 35 45 59 35 45 59 35 45 
