P3
16 16
255
221 217 203 231 186 180 230 179 173 211 145 141 227 169 162 0 0 0 205 133 128 205 133 128 227 169 162 227 169 162 0 0 0 205 133 128 211 145 141 231 186 180 230 179 173 205 133 128 
231 194 187 230 179 173 230 179 173 231 202 197 231 194 187 231 194 187 231 194 187 231 194 187 231 202 197 231 202 197 231 194 187 231 194 187 230 179 173 231 186 180 230 179 173 205 133 128 
231 202 197 230 179 173 231 186 180 231 194 187 230 179 173 231 186 180 231 186 180 230 179 173 230 179 173 230 179 173 230 179 173 231 186 180 221 157 151 231 186 180 231 186 180 205 133 128 
231 202 197 230 179 173 231 194 187 231 194 187 231 186 180 231 186 180 230 179 173 238 230 222 221 217 203 230 179 173 231 186 180 231 186 180 221 157 151 231 194 187 231 186 180 211 145 141 
231 194 187 231 186 180 231 194 187 221 157 151 211 145 141 211 145 141 238 230 222 211 145 141 211 145 141 212 202 186 211 145 141 211 145 141 216 151 145 231 194 187 230 179 173 211 145 141 
231 194 187 231 186 180 231 194 187 205 133 128 229 174 168 229 174 168 221 217 203 229 174 168 229 174 168 212 202 186 229 174 168 229 174 168 205 133 128 231 194 187 230 179 173 221 157 151 
231 194 187 231 194 187 231 194 187 221 157 151 231 186 180 231 186 180 211 145 141 212 202 186 212 202 186 211 145 141 230 179 173 230 179 173 221 157 151 231 194 187 231 186 180 221 157 151 
231 194 187 231 194 187 231 186 180 221 157 151 230 179 173 231 186 180 221 157 151 230 179 173 230 179 173 223 163 155 230 179 173 231 186 180 221 157 151 231 186 180 231 186 180 221 157 151 
231 194 187 231 194 187 230 179 173 221 157 151 230 179 173 230 179 173 223 163 155 231 186 180 231 186 180 221 157 151 231 186 180 231 194 187 221 157 151 231 186 180 231 186 180 211 145 141 
231 202 197 230 179 173 230 179 173 223 163 155 230 179 173 230 179 173 223 163 155 231 186 180 230 179 173 221 157 151 231 186 180 231 194 187 223 163 155 230 179 173 231 186 180 211 145 141 
238 230 222 230 179 173 230 179 173 223 163 155 230 179 173 230 179 173 221 157 151 231 194 187 230 179 173 223 163 155 231 194 187 231 194 187 223 163 155 230 179 173 231 186 180 211 145 141 
221 217 203 231 186 180 230 179 173 223 163 155 231 194 187 230 179 173 221 157 151 231 194 187 231 186 180 223 163 155 231 194 187 231 194 187 223 163 155 231 186 180 230 179 173 211 145 141 
231 194 187 231 186 180 230 179 173 221 157 151 231 194 187 230 179 173 221 157 151 231 194 187 231 186 180 223 163 155 231 194 187 231 194 187 223 163 155 231 186 180 230 179 173 205 133 128 
231 194 187 231 186 180 231 186 180 221 157 151 231 194 187 231 186 180 223 163 155 230 179 173 231 186 180 221 157 151 231 194 187 231 186 180 221 157 151 231 186 180 230 179 173 205 133 128 
231 194 187 230 179 173 231 186 180 221 157 151 230 179 173 231 186 180 221 157 151 230 179 173 230 179 173 221 157 151 231 186 180 231 186 180 221 157 151 230 179 173 230 179 173 205 133 128 
230 179 173 225 168 161 225 168 161 211 145 141 225 168 161 225 168 161 211 145 141 225 168 161 225 168 161 211 145 141 225 168 161 225 168 161 216 151 145 211 145 141 211 145 141 208 138 133 
