P3
16 16
255
204 166 108 204 166 108 204 166 108 179 140 81 179 140 81 204 166 108 204 166 108 204 166 108 204 166 108 204 166 108 159 132 77 159 132 77 159 132 77 179 140 81 179 140 81 159 132 77 
159 132 77 25 19 10 25 19 10 25 19 10 25 19 10 25 19 10 25 19 10 25 19 10 25 19 10 25 19 10 25 19 10 25 19 10 25 19 10 25 19 10 25 19 10 124 98 62 
188 152 98 25 19 10 29 23 13 39 30 17 39 30 17 39 30 17 39 30 17 39 30 17 39 30 17 39 30 17 39 30 17 39 30 17 39 30 17 39 30 17 25 19 10 124 98 62 
179 140 81 25 19 10 39 30 17 65 49 26 65 49 26 96 74 44 39 30 17 65 49 26 65 49 26 65 49 26 96 74 44 39 30 17 65 49 26 65 49 26 39 30 17 155 119 66 
179 140 81 25 19 10 39 30 17 65 49 26 65 49 26 96 74 44 25 19 10 65 49 26 65 49 26 65 49 26 96 74 44 25 19 10 65 49 26 65 49 26 39 30 17 155 119 66 
179 140 81 25 19 10 39 30 17 65 49 26 65 49 26 39 30 17 25 19 10 65 49 26 65 49 26 65 49 26 39 30 17 25 19 10 65 49 26 65 49 26 39 30 17 155 119 66 
124 98 62 25 19 10 39 30 17 65 49 26 65 49 26 39 30 17 25 19 10 65 49 26 65 49 26 65 49 26 39 30 17 25 19 10 65 49 26 65 49 26 39 30 17 124 98 62 
188 152 98 179 140 81 179 140 81 188 152 98 188 152 98 204 166 108 204 166 108 204 166 108 188 152 98 188 152 98 188 152 98 179 140 81 179 140 81 159 132 77 159 132 77 159 132 77 
179 140 81 179 140 81 155 119 66 155 119 66 159 132 77 159 132 77 159 132 77 179 140 81 179 140 81 159 132 77 159 132 77 159 132 77 155 119 66 155 119 66 155 119 66 155 119 66 
155 119 66 25 19 10 25 19 10 25 19 10 25 19 10 25 19 10 25 19 10 25 19 10 25 19 10 25 19 10 25 19 10 25 19 10 25 19 10 25 19 10 25 19 10 124 98 62 
204 166 108 25 19 10 29 23 13 39 30 17 39 30 17 39 30 17 39 30 17 39 30 17 39 30 17 39 30 17 39 30 17 39 30 17 39 30 17 39 30 17 25 19 10 155 119 66 
204 166 108 25 19 10 39 30 17 65 49 26 65 49 26 96 74 44 39 30 17 65 49 26 65 49 26 65 49 26 96 74 44 39 30 17 65 49 26 65 49 26 39 30 17 179 140 81 
179 140 81 25 19 10 39 30 17 65 49 26 65 49 26 96 74 44 25 19 10 65 49 26 65 49 26 65 49 26 96 74 44 25 19 10 65 49 26 65 49 26 39 30 17 179 140 81 
179 140 81 25 19 10 39 30 17 65 49 26 65 49 26 39 30 17 25 19 10 65 49 26 65 49 26 65 49 26 39 30 17 25 19 10 65 49 26 65 49 26 39 30 17 179 140 81 
159 132 77 25 19 10 39 30 17 65 49 26 65 49 26 39 30 17 25 19 10 65 49 26 65 49 26 65 49 26 39 30 17 25 19 10 65 49 26 65 49 26 39 30 17 155 119 66 
179 140 81 188 152 98 188 152 98 204 166 108 204 166 108 204 166 108 188 152 98 179 140 81 179 140 81 188 152 98 188 152 98 188 152 98 188 152 98 155 119 66 179 140 81 179 140 81 
