P3
16 16
255
206 170 113 206 170 113 206 170 113 194 157 98 194 157 98 206 170 113 206 170 113 206 170 113 194 157 98 194 157 98 194 157 98 206 170 113 206 170 113 194 157 98 194 157 98 194 157 98 
206 170 113 159 132 77 159 132 77 159 132 77 150 116 65 150 116 65 150 116 65 150 116 65 150 116 65 150 116 65 150 116 65 159 132 77 159 132 77 150 116 65 150 116 65 194 157 98 
206 170 113 159 132 77 206 170 113 206 170 113 194 157 98 159 132 77 206 170 113 206 170 113 194 157 98 184 148 95 150 116 65 206 170 113 206 170 113 194 157 98 159 132 77 184 148 95 
206 170 113 150 116 65 194 157 98 184 148 95 175 143 85 159 132 77 194 157 98 184 148 95 184 148 95 175 143 85 150 116 65 194 157 98 184 148 95 175 143 85 159 132 77 184 148 95 
194 157 98 150 116 65 194 157 98 184 148 95 175 143 85 150 116 65 194 157 98 184 148 95 184 148 95 175 143 85 150 116 65 194 157 98 184 148 95 175 143 85 150 116 65 194 157 98 
194 157 98 150 116 65 184 148 95 175 143 85 159 132 77 150 116 65 184 148 95 175 143 85 175 143 85 159 132 77 150 116 65 184 148 95 175 143 85 159 132 77 150 116 65 194 157 98 
194 157 98 159 132 77 150 116 65 150 116 65 150 116 65 150 116 65 159 132 77 159 132 77 150 116 65 150 116 65 150 116 65 159 132 77 150 116 65 150 116 65 150 116 65 194 157 98 
206 170 113 206 170 113 194 157 98 194 157 98 206 170 113 206 170 113 206 170 113 194 157 98 194 157 98 184 148 95 184 148 95 184 148 95 194 157 98 194 157 98 194 157 98 206 170 113 
194 157 98 175 143 85 175 143 85 184 148 95 184 148 95 184 148 95 184 148 95 184 148 95 175 143 85 175 143 85 175 143 85 175 143 85 175 143 85 184 148 95 184 148 95 184 148 95 
206 170 113 159 132 77 159 132 77 159 132 77 150 116 65 150 116 65 159 132 77 159 132 77 159 132 77 150 116 65 150 116 65 150 116 65 159 132 77 159 132 77 159 132 77 184 148 95 
206 170 113 150 116 65 206 170 113 206 170 113 194 157 98 150 116 65 206 170 113 206 170 113 194 157 98 184 148 95 150 116 65 206 170 113 206 170 113 194 157 98 159 132 77 184 148 95 
206 170 113 150 116 65 194 157 98 184 148 95 175 143 85 150 116 65 194 157 98 184 148 95 184 148 95 175 143 85 150 116 65 194 157 98 184 148 95 175 143 85 159 132 77 184 148 95 
194 157 98 150 116 65 194 157 98 184 148 95 175 143 85 159 132 77 194 157 98 184 148 95 184 148 95 175 143 85 159 132 77 194 157 98 184 148 95 175 143 85 150 116 65 175 143 85 
194 157 98 159 132 77 184 148 95 175 143 85 159 132 77 150 116 65 184 148 95 175 143 85 175 143 85 159 132 77 159 132 77 184 148 95 175 143 85 159 132 77 150 116 65 175 143 85 
194 157 98 150 116 65 150 116 65 150 116 65 150 116 65 150 116 65 159 132 77 159 132 77 150 116 65 150 116 65 150 116 65 159 132 77 150 116 65 150 116 65 150 116 65 159 132 77 
175 143 85 175 143 85 159 132 77 159 132 77 159 132 77 159 132 77 175 143 85 175 143 85 175 143 85 175 143 85 175 143 85 175 143 85 159 132 77 159 132 77 159 132 77 159 132 77 
