P3
16 16
255
239 135 55 239 135 55 227 98 22 179 62 19 239 163 55 239 163 55 239 163 55 239 163 55 239 135 55 236 114 20 236 114 20 199 73 10 239 163 55 239 135 55 239 135 55 239 135 55 
199 73 10 227 98 22 227 98 22 179 62 19 239 135 55 227 98 22 199 73 10 199 73 10 199 73 10 199 73 10 227 98 22 199 73 10 227 98 22 199 73 10 199 73 10 227 98 22 
227 98 22 227 98 22 199 73 10 166 54 25 166 54 25 166 54 25 166 54 25 166 54 25 166 54 25 166 54 25 166 54 25 166 54 25 166 54 25 179 62 19 227 98 22 199 73 10 
166 54 25 166 54 25 179 62 19 166 54 25 179 62 19 179 62 19 179 62 19 179 62 19 179 62 19 239 163 55 166 54 25 179 62 19 179 62 19 166 54 25 166 54 25 166 54 25 
239 163 55 239 135 55 239 135 55 236 114 20 166 54 25 239 163 55 179 62 19 239 163 55 179 62 19 239 135 55 239 135 55 179 62 19 179 62 19 166 54 25 236 114 20 179 62 19 
199 73 10 199 73 10 199 73 10 236 114 20 166 54 25 239 135 55 239 135 55 239 163 55 239 163 55 227 98 22 239 135 55 179 62 19 179 62 19 166 54 25 236 114 20 179 62 19 
227 98 22 227 98 22 227 98 22 227 98 22 166 54 25 239 135 55 179 62 19 199 73 10 227 98 22 227 98 22 227 98 22 179 62 19 179 62 19 166 54 25 227 98 22 179 62 19 
179 62 19 166 54 25 166 54 25 166 54 25 179 62 19 239 135 55 227 98 22 227 98 22 239 163 55 239 135 55 227 98 22 179 62 19 179 62 19 166 54 25 179 62 19 179 62 19 
239 135 55 239 135 55 166 54 25 179 62 19 179 62 19 239 135 55 227 98 22 227 98 22 179 62 19 199 73 10 227 98 22 166 54 25 239 163 55 239 163 55 239 135 55 227 98 22 
199 73 10 227 98 22 166 54 25 179 62 19 179 62 19 239 135 55 239 163 55 239 135 55 227 98 22 227 98 22 227 98 22 166 54 25 239 135 55 199 73 10 199 73 10 199 73 10 
199 73 10 199 73 10 166 54 25 179 62 19 179 62 19 227 98 22 179 62 19 199 73 10 227 98 22 227 98 22 199 73 10 166 54 25 227 98 22 227 98 22 199 73 10 199 73 10 
179 62 19 166 54 25 166 54 25 179 62 19 179 62 19 199 73 10 199 73 10 227 98 22 227 98 22 199 73 10 199 73 10 179 62 19 179 62 19 166 54 25 179 62 19 179 62 19 
239 135 55 227 98 22 199 73 10 166 54 25 179 62 19 179 62 19 166 54 25 166 54 25 166 54 25 166 54 25 179 62 19 179 62 19 179 62 19 166 54 25 227 98 22 179 62 19 
199 73 10 199 73 10 199 73 10 199 73 10 199 73 10 227 98 22 227 98 22 179 62 19 239 135 55 199 73 10 199 73 10 199 73 10 199 73 10 199 73 10 227 98 22 179 62 19 
236 114 20 236 114 20 227 98 22 199 73 10 199 73 10 199 73 10 227 98 22 199 73 10 227 98 22 227 98 22 199 73 10 199 73 10 199 73 10 227 98 22 227 98 22 179 62 19 
179 62 19 179 62 19 166 54 25 166 54 25 166 54 25 166 54 25 179 62 19 199 73 10 199 73 10 179 62 19 166 54 25 166 54 25 166 54 25 166 54 25 166 54 25 166 54 25 
