P3
16 16
255
51 51 51 194 107 76 200 116 86 200 116 86 154 80 56 200 116 86 214 123 91 214 123 91 214 123 91 214 123 91 200 116 86 51 51 51 51 51 51 194 107 76 194 107 76 178 98 71 
214 123 91 194 107 76 154 80 56 167 90 64 178 98 71 214 123 91 214 123 91 227 130 108 178 98 71 194 107 76 77 80 70 154 80 56 154 80 56 77 80 70 194 107 76 178 98 71 
227 130 108 178 98 71 154 80 56 200 116 86 214 123 91 227 130 108 214 123 91 178 98 71 154 80 56 194 107 76 77 80 70 178 98 71 154 80 56 77 80 70 194 107 76 178 98 71 
227 130 108 178 98 71 154 80 56 214 123 91 227 130 108 214 123 91 200 116 86 200 116 86 194 107 76 194 107 76 51 51 51 167 90 64 154 80 56 51 51 51 200 116 86 178 98 71 
227 130 108 194 107 76 154 80 56 227 130 108 214 123 91 200 116 86 200 116 86 194 107 76 194 107 76 167 90 64 104 104 104 104 104 104 104 104 104 77 80 70 194 107 76 178 98 71 
227 130 108 200 116 86 154 80 56 214 123 91 200 116 86 200 116 86 194 107 76 194 107 76 167 90 64 154 80 56 77 80 70 77 80 70 77 80 70 77 80 70 194 107 76 178 98 71 
227 130 108 214 123 91 154 80 56 200 116 86 200 116 86 194 107 76 178 98 71 167 90 64 154 80 56 167 90 64 167 90 64 154 80 56 154 80 56 167 90 64 200 116 86 178 98 71 
227 130 108 214 123 91 154 80 56 200 116 86 194 107 76 178 98 71 178 98 71 167 90 64 167 90 64 194 107 76 194 107 76 194 107 76 178 98 71 178 98 71 214 123 91 178 98 71 
227 130 108 200 116 86 154 80 56 194 107 76 178 98 71 178 98 71 167 90 64 178 98 71 194 107 76 194 107 76 194 107 76 200 116 86 200 116 86 178 98 71 214 123 91 167 90 64 
214 123 91 200 116 86 154 80 56 178 98 71 178 98 71 178 98 71 178 98 71 194 107 76 194 107 76 178 98 71 200 116 86 200 116 86 214 123 91 178 98 71 200 116 86 154 80 56 
77 80 70 200 116 86 167 90 64 200 116 86 227 130 108 178 98 71 194 107 76 194 107 76 178 98 71 200 116 86 227 130 108 178 98 71 200 116 86 178 98 71 200 116 86 167 90 64 
51 51 51 178 98 71 167 90 64 200 116 86 178 98 71 154 80 56 178 98 71 178 98 71 200 116 86 200 116 86 178 98 71 154 80 56 200 116 86 178 98 71 200 116 86 154 80 56 
227 130 108 178 98 71 178 98 71 200 116 86 194 107 76 178 98 71 178 98 71 200 116 86 200 116 86 214 123 91 214 123 91 214 123 91 200 116 86 200 116 86 200 116 86 154 80 56 
214 123 91 178 98 71 194 107 76 214 123 91 227 130 108 227 130 108 227 130 108 227 130 108 227 130 108 227 130 108 227 130 108 227 130 108 227 130 108 214 123 91 200 116 86 154 80 56 
214 123 91 178 98 71 194 107 76 194 107 76 178 98 71 194 107 76 194 107 76 200 116 86 214 123 91 214 123 91 200 116 86 200 116 86 200 116 86 200 116 86 200 116 86 154 80 56 
200 116 86 194 107 76 178 98 71 167 90 64 167 90 64 154 80 56 167 90 64 154 80 56 154 80 56 154 80 56 154 80 56 154 80 56 154 80 56 154 80 56 154 80 56 154 80 56 
