P3
16 16
255
161 161 161 161 161 161 143 143 143 143 143 143 161 161 161 161 161 161 161 161 161 161 161 161 161 161 161 161 161 161 143 143 143 161 161 161 143 143 143 143 143 143 161 161 161 161 161 161 
123 123 123 143 143 143 143 143 143 143 143 143 143 143 143 143 143 143 143 143 143 143 143 143 143 143 143 123 123 123 106 106 106 106 106 106 123 123 123 143 143 143 143 143 143 143 143 143 
71 71 71 71 71 71 71 71 71 56 56 56 56 56 56 71 71 71 106 106 106 143 143 143 106 106 106 84 84 84 84 84 84 84 84 84 71 71 71 56 56 56 56 56 56 56 56 56 
71 71 71 71 71 71 126 98 55 103 80 44 80 61 30 80 61 30 56 56 56 96 96 96 106 106 106 84 84 84 80 61 30 80 61 30 103 80 44 103 80 44 71 71 71 71 71 71 
123 123 123 106 106 106 159 132 77 175 143 85 59 43 18 126 98 55 56 56 56 56 56 56 71 71 71 84 84 84 126 98 55 59 43 18 175 143 85 159 132 77 106 106 106 143 143 143 
123 123 123 123 123 123 175 143 85 194 157 98 59 43 18 159 132 77 175 143 85 194 157 98 194 157 98 194 157 98 159 132 77 59 43 18 194 157 98 175 143 85 123 123 123 143 143 143 
143 143 143 123 123 123 159 132 77 150 116 65 150 116 65 150 116 65 150 116 65 159 132 77 159 132 77 150 116 65 150 116 65 150 116 65 150 116 65 150 116 65 123 123 123 161 161 161 
143 143 143 123 123 123 126 98 55 80 61 30 45 32 12 56 56 56 84 84 84 84 84 84 84 84 84 84 84 84 56 56 56 45 32 12 80 61 30 126 98 55 123 123 123 161 161 161 
143 143 143 123 123 123 80 61 30 45 32 12 45 32 12 45 32 12 45 32 12 45 32 12 45 32 12 45 32 12 45 32 12 45 32 12 45 32 12 80 61 30 123 123 123 143 143 143 
143 143 143 123 123 123 80 61 30 45 32 12 45 32 12 45 32 12 45 32 12 45 32 12 45 32 12 45 32 12 45 32 12 45 32 12 45 32 12 80 61 30 123 123 123 123 123 123 
143 143 143 106 106 106 80 61 30 45 32 12 45 32 12 45 32 12 45 32 12 45 32 12 45 32 12 45 32 12 45 32 12 45 32 12 45 32 12 80 61 30 106 106 106 123 123 123 
71 71 71 71 71 71 80 61 30 45 32 12 59 43 18 59 43 18 59 43 18 59 43 18 59 43 18 59 43 18 59 43 18 59 43 18 45 32 12 80 61 30 71 71 71 71 71 71 
161 161 161 143 143 143 56 56 56 84 84 84 106 106 106 59 43 18 80 61 30 80 61 30 80 61 30 80 61 30 59 43 18 106 106 106 84 84 84 56 56 56 143 143 143 161 161 161 
123 123 123 123 123 123 143 143 143 143 143 143 161 161 161 161 161 161 161 161 161 161 161 161 161 161 161 161 161 161 161 161 161 161 161 161 161 161 161 143 143 143 123 123 123 123 123 123 
84 84 84 106 106 106 106 106 106 123 123 123 123 123 123 123 123 123 106 106 106 106 106 106 106 106 106 123 123 123 123 123 123 106 106 106 106 106 106 106 106 106 84 84 84 84 84 84 
84 84 84 84 84 84 71 71 71 71 71 71 84 84 84 84 84 84 84 84 84 71 71 71 56 56 56 56 56 56 56 56 56 56 56 56 71 71 71 71 71 71 84 84 84 84 84 84 
