P3
16 16
255
217 35 35 138 24 24 106 106 106 143 143 143 161 161 161 161 161 161 161 161 161 161 161 161 161 161 161 161 161 161 143 143 143 161 161 161 143 143 143 106 106 106 138 24 24 217 35 35 
138 24 24 112 15 15 84 84 84 123 123 123 123 123 123 143 143 143 143 143 143 143 143 143 143 143 143 123 123 123 106 106 106 106 106 106 123 123 123 84 84 84 112 15 15 138 24 24 
71 71 71 71 71 71 71 71 71 56 56 56 56 56 56 71 71 71 106 106 106 143 143 143 106 106 106 84 84 84 84 84 84 84 84 84 71 71 71 56 56 56 56 56 56 56 56 56 
71 71 71 71 71 71 126 98 55 103 80 44 80 61 30 80 61 30 56 56 56 96 96 96 106 106 106 84 84 84 80 61 30 80 61 30 103 80 44 103 80 44 71 71 71 71 71 71 
143 143 143 106 106 106 150 116 65 159 132 77 159 132 77 150 116 65 56 56 56 56 56 56 71 71 71 84 84 84 150 116 65 150 116 65 159 132 77 150 116 65 106 106 106 123 123 123 
143 143 143 123 123 123 150 116 65 194 157 98 184 148 95 159 132 77 84 84 84 71 71 71 71 71 71 71 71 71 150 116 65 194 157 98 194 157 98 175 143 85 123 123 123 123 123 123 
143 143 143 123 123 123 150 116 65 159 132 77 159 132 77 159 132 77 106 106 106 143 143 143 123 123 123 106 106 106 150 116 65 159 132 77 175 143 85 159 132 77 123 123 123 143 143 143 
143 143 143 123 123 123 126 98 55 150 116 65 126 98 55 126 98 55 123 123 123 161 161 161 123 123 123 123 123 123 126 98 55 126 98 55 150 116 65 126 98 55 123 123 123 143 143 143 
143 143 143 123 123 123 150 116 65 194 157 98 184 148 95 159 132 77 143 143 143 161 161 161 143 143 143 123 123 123 150 116 65 194 157 98 194 157 98 159 132 77 123 123 123 143 143 143 
123 123 123 123 123 123 150 116 65 159 132 77 184 148 95 159 132 77 143 143 143 161 161 161 161 161 161 123 123 123 150 116 65 159 132 77 184 148 95 175 143 85 123 123 123 143 143 143 
123 123 123 106 106 106 150 116 65 184 148 95 159 132 77 159 132 77 143 143 143 161 161 161 161 161 161 123 123 123 150 116 65 184 148 95 184 148 95 159 132 77 106 106 106 143 143 143 
71 71 71 71 71 71 126 98 55 126 98 55 150 116 65 126 98 55 123 123 123 161 161 161 143 143 143 106 106 106 126 98 55 126 98 55 150 116 65 126 98 55 71 71 71 84 84 84 
161 161 161 143 143 143 150 116 65 184 148 95 175 143 85 159 132 77 106 106 106 84 84 84 71 71 71 71 71 71 150 116 65 175 143 85 184 148 95 159 132 77 143 143 143 161 161 161 
123 123 123 123 123 123 143 143 143 161 161 161 143 143 143 161 161 161 161 161 161 161 161 161 161 161 161 161 161 161 161 161 161 161 161 161 143 143 143 143 143 143 123 123 123 123 123 123 
84 84 84 84 84 84 106 106 106 106 106 106 106 106 106 106 106 106 123 123 123 123 123 123 106 106 106 106 106 106 123 123 123 123 123 123 123 123 123 106 106 106 106 106 106 84 84 84 
84 84 84 71 71 71 56 56 56 71 71 71 71 71 71 84 84 84 84 84 84 71 71 71 56 56 56 56 56 56 56 56 56 56 56 56 71 71 71 71 71 71 84 84 84 84 84 84 
