P3
16 16
255
94 83 80 118 95 90 78 67 64 118 95 90 94 83 80 94 83 80 118 95 90 118 95 90 94 83 80 94 83 80 78 67 64 110 100 98 118 95 90 94 83 80 110 100 98 94 83 80 
118 95 90 118 95 90 110 43 23 130 110 107 94 83 80 118 95 90 130 54 31 110 43 23 118 95 90 118 95 90 118 95 90 130 110 107 110 43 23 130 110 107 110 100 98 78 67 64 
130 110 107 110 43 23 110 43 23 130 110 107 94 83 80 118 95 90 175 75 22 110 43 23 118 95 90 110 43 23 110 43 23 118 95 90 110 43 23 118 95 90 94 83 80 78 67 64 
118 95 90 175 75 22 110 43 23 118 95 90 130 110 107 175 75 22 175 75 22 175 75 22 110 43 23 175 75 22 130 54 31 110 43 23 130 54 31 130 110 107 118 95 90 110 100 98 
118 95 90 130 54 31 175 75 22 110 43 23 130 54 31 175 75 22 236 114 20 175 75 22 130 54 31 175 75 22 175 75 22 175 75 22 130 54 31 130 110 107 130 110 107 94 83 80 
130 54 31 175 75 22 236 114 20 130 54 31 110 43 23 236 114 20 239 163 55 236 114 20 130 54 31 175 75 22 236 114 20 175 75 22 130 54 31 130 54 31 130 110 107 118 95 90 
130 54 31 236 114 20 239 163 55 130 54 31 130 54 31 239 163 55 239 163 55 236 114 20 175 75 22 130 54 31 236 114 20 236 114 20 130 54 31 175 75 22 130 54 31 175 75 22 
188 85 33 239 163 55 239 163 55 188 85 33 236 114 20 239 163 55 236 114 20 188 85 33 236 114 20 188 85 33 236 114 20 188 85 33 236 114 20 188 85 33 236 114 20 236 114 20 
188 85 33 239 163 55 236 114 20 236 114 20 188 85 33 236 114 20 188 85 33 188 85 33 236 114 20 188 85 33 188 85 33 239 163 55 239 163 55 188 85 33 188 85 33 236 114 20 
130 54 31 236 114 20 236 114 20 188 85 33 130 54 31 188 85 33 236 114 20 188 85 33 130 54 31 130 54 31 130 54 31 239 163 55 236 114 20 236 114 20 188 85 33 130 54 31 
175 75 22 130 54 31 236 114 20 130 54 31 130 54 31 130 54 31 175 75 22 130 54 31 175 75 22 110 43 23 130 54 31 236 114 20 236 114 20 175 75 22 110 43 23 236 114 20 
175 75 22 110 43 23 175 75 22 110 43 23 130 110 107 118 95 90 130 54 31 236 114 20 175 75 22 130 54 31 175 75 22 175 75 22 175 75 22 175 75 22 130 54 31 175 75 22 
130 54 31 110 43 23 110 43 23 130 110 107 94 83 80 118 95 90 110 43 23 175 75 22 175 75 22 110 43 23 175 75 22 236 114 20 130 54 31 175 75 22 110 43 23 175 75 22 
130 110 107 130 110 107 110 43 23 118 95 90 94 83 80 118 95 90 110 43 23 110 43 23 188 85 33 110 43 23 130 54 31 188 85 33 130 110 107 110 43 23 110 43 23 175 75 22 
118 95 90 94 83 80 118 95 90 118 95 90 94 83 80 94 83 80 110 43 23 130 110 107 110 43 23 130 110 107 130 110 107 130 110 107 118 95 90 110 43 23 118 95 90 130 110 107 
94 83 80 94 83 80 94 83 80 118 95 90 94 83 80 94 83 80 118 95 90 94 83 80 130 110 107 94 83 80 78 67 64 118 95 90 94 83 80 118 95 90 94 83 80 118 95 90 
