P3
16 16
255
94 83 80 125 114 112 94 83 80 67 59 57 110 100 98 48 41 39 94 83 80 110 100 98 94 83 80 48 41 39 94 83 80 110 100 98 94 83 80 48 41 39 94 83 80 94 83 80 
94 83 80 94 83 80 110 100 98 56 43 38 56 43 38 70 53 46 77 60 52 56 43 38 94 83 80 67 59 57 70 53 46 77 60 52 70 53 46 56 43 38 56 43 38 125 114 112 
48 41 39 67 59 57 47 35 31 47 35 31 56 43 38 70 53 46 77 60 52 70 53 46 56 43 38 94 83 80 56 43 38 77 60 52 56 43 38 47 35 31 70 53 46 94 83 80 
94 83 80 56 43 38 47 35 31 77 60 52 56 43 38 56 43 38 77 60 52 77 60 52 89 70 61 89 70 61 77 60 52 77 60 52 77 60 52 47 35 31 70 53 46 67 59 57 
110 100 98 110 100 98 56 43 38 77 60 52 70 53 46 56 43 38 77 60 52 70 53 46 70 53 46 70 53 46 70 53 46 70 53 46 89 70 61 94 83 80 110 100 98 110 100 98 
94 83 80 94 83 80 94 83 80 77 60 52 70 53 46 47 35 31 47 35 31 56 43 38 56 43 38 47 35 31 47 35 31 70 53 46 89 70 61 47 35 31 94 83 80 48 41 39 
48 41 39 70 53 46 56 43 38 89 70 61 70 53 46 47 35 31 77 60 52 89 70 61 70 53 46 70 53 46 47 35 31 70 53 46 77 60 52 47 35 31 77 60 52 94 83 80 
94 83 80 77 60 52 89 70 61 77 60 52 70 53 46 47 35 31 89 70 61 56 43 38 56 43 38 70 53 46 56 43 38 77 60 52 89 70 61 56 43 38 70 53 46 110 100 98 
110 100 98 70 53 46 56 43 38 56 43 38 70 53 46 56 43 38 77 60 52 56 43 38 47 35 31 77 60 52 47 35 31 70 53 46 77 60 52 47 35 31 70 53 46 94 83 80 
94 83 80 47 35 31 56 43 38 77 60 52 70 53 46 47 35 31 70 53 46 70 53 46 77 60 52 77 60 52 56 43 38 70 53 46 70 53 46 47 35 31 67 59 57 48 41 39 
48 41 39 67 59 57 47 35 31 77 60 52 70 53 46 47 35 31 47 35 31 47 35 31 47 35 31 56 43 38 56 43 38 70 53 46 56 43 38 56 43 38 56 43 38 94 83 80 
110 100 98 94 83 80 94 83 80 89 70 61 70 53 46 70 53 46 77 60 52 70 53 46 70 53 46 70 53 46 77 60 52 70 53 46 77 60 52 47 35 31 56 43 38 110 100 98 
67 59 57 67 59 57 56 43 38 89 70 61 89 70 61 89 70 61 77 60 52 56 43 38 77 60 52 77 60 52 89 70 61 89 70 61 77 60 52 47 35 31 94 83 80 94 83 80 
94 83 80 70 53 46 56 43 38 47 35 31 56 43 38 77 60 52 56 43 38 47 35 31 94 83 80 47 35 31 47 35 31 77 60 52 47 35 31 47 35 31 70 53 46 48 41 39 
125 114 112 70 53 46 77 60 52 77 60 52 110 100 98 94 83 80 56 43 38 70 53 46 94 83 80 67 59 57 56 43 38 70 53 46 77 60 52 70 53 46 70 53 46 94 83 80 
94 83 80 94 83 80 48 41 39 94 83 80 110 100 98 94 83 80 48 41 39 94 83 80 110 100 98 94 83 80 48 41 39 110 100 98 67 59 57 94 83 80 125 114 112 110 100 98 
