P3
16 16
255
0 0 0 0 0 0 0 0 0 0 0 0 0 0 0 0 0 0 0 0 0 0 0 0 0 0 0 0 0 0 0 0 0 0 0 0 0 0 0 0 0 0 0 0 0 0 0 0 
0 0 0 0 0 0 0 0 0 0 0 0 0 0 0 0 0 0 0 0 0 0 0 0 0 0 0 0 0 0 0 0 0 0 0 0 0 0 0 0 0 0 0 0 0 0 0 0 
0 0 0 0 0 0 126 6 47 0 0 0 0 0 0 0 0 0 0 0 0 0 0 0 0 0 0 0 0 0 0 0 0 0 0 0 0 0 0 0 0 0 0 0 0 0 0 0 
0 0 0 0 0 0 0 0 0 126 6 47 0 0 0 0 0 0 0 0 0 0 0 0 0 0 0 0 0 0 0 0 0 0 0 0 0 0 0 0 0 0 0 0 0 0 0 0 
0 0 0 0 0 0 0 0 0 0 0 0 146 6 54 102 6 39 0 0 0 0 0 0 102 6 39 0 0 0 146 6 54 102 6 39 0 0 0 0 0 0 0 0 0 0 0 0 
0 0 0 0 0 0 0 0 0 0 0 0 173 16 28 0 0 0 102 6 39 0 0 0 102 6 39 0 0 0 173 16 28 0 0 0 0 0 0 0 0 0 0 0 0 0 0 0 
0 0 0 0 0 0 0 0 0 0 0 0 173 16 28 173 16 28 146 6 54 0 0 0 102 6 39 0 0 0 0 0 0 173 16 28 0 0 0 0 0 0 0 0 0 0 0 0 
0 0 0 0 0 0 0 0 0 0 0 0 0 0 0 146 6 54 173 16 28 0 0 0 146 6 54 0 0 0 102 6 39 0 0 0 0 0 0 0 0 0 0 0 0 0 0 0 
0 0 0 0 0 0 0 0 0 0 0 0 146 6 54 102 6 39 173 16 28 80 6 42 146 6 54 0 0 0 146 6 54 0 0 0 0 0 0 0 0 0 0 0 0 0 0 0 
0 0 0 0 0 0 0 0 0 0 0 0 102 6 39 173 16 28 173 16 28 146 6 54 102 6 39 0 0 0 102 6 39 146 6 54 0 0 0 0 0 0 0 0 0 0 0 0 
0 0 0 0 0 0 0 0 0 0 0 0 80 6 42 173 16 28 102 6 39 0 0 0 146 6 54 102 6 39 173 16 28 80 6 42 0 0 0 0 0 0 0 0 0 0 0 0 
0 0 0 0 0 0 0 0 0 0 0 0 0 0 0 146 6 54 80 6 42 0 0 0 173 16 28 0 0 0 173 16 28 0 0 0 0 0 0 0 0 0 0 0 0 0 0 0 
0 0 0 0 0 0 0 0 0 0 0 0 0 0 0 0 0 0 146 6 54 0 0 0 173 16 28 0 0 0 146 6 54 0 0 0 0 0 0 0 0 0 0 0 0 0 0 0 
0 0 0 0 0 0 0 0 0 0 0 0 0 0 0 0 0 0 102 6 39 102 6 39 146 6 54 0 0 0 102 6 39 0 0 0 0 0 0 0 0 0 0 0 0 0 0 0 
0 0 0 0 0 0 0 0 0 0 0 0 146 6 54 80 6 42 102 6 39 80 6 42 0 0 0 102 6 39 80 6 42 146 6 54 0 0 0 0 0 0 0 0 0 0 0 0 
0 0 0 0 0 0 0 0 0 0 0 0 146 6 54 80 6 42 0 0 0 80 6 42 0 0 0 80 6 42 0 0 0 80 6 42 0 0 0 0 0 0 0 0 0 0 0 0 
