P3
16 16
255
112 109 112 112 109 112 0 0 0 183 185 183 0 0 0 152 153 152 152 153 152 0 0 0 152 153 152 183 185 183 125 123 125 183 185 183 0 0 0 0 0 0 183 185 183 125 123 125 
152 153 152 0 0 0 0 0 0 0 0 0 112 109 112 112 109 112 125 123 125 152 153 152 0 0 0 183 185 183 152 153 152 183 185 183 0 0 0 183 185 183 152 153 152 183 185 183 
0 0 0 0 0 0 152 153 152 152 153 152 0 0 0 152 153 152 152 153 152 125 123 125 183 185 183 0 0 0 183 185 183 0 0 0 0 0 0 183 185 183 183 185 183 183 185 183 
0 0 0 183 185 183 125 123 125 112 109 112 112 109 112 0 0 0 183 185 183 152 153 152 183 185 183 112 109 112 0 0 0 0 0 0 0 0 0 0 0 0 183 185 183 0 0 0 
183 185 183 152 153 152 183 185 183 152 153 152 0 0 0 0 0 0 152 153 152 183 185 183 0 0 0 0 0 0 112 109 112 0 0 0 152 153 152 152 153 152 0 0 0 0 0 0 
183 185 183 183 185 183 183 185 183 0 0 0 0 0 0 183 185 183 125 123 125 112 109 112 112 109 112 112 109 112 0 0 0 112 109 112 112 109 112 125 123 125 152 153 152 0 0 0 
152 153 152 152 153 152 0 0 0 112 109 112 183 185 183 152 153 152 183 185 183 152 153 152 0 0 0 152 153 152 152 153 152 0 0 0 152 153 152 152 153 152 125 123 125 183 185 183 
125 123 125 112 109 112 112 109 112 0 0 0 183 185 183 183 185 183 183 185 183 0 0 0 112 109 112 112 109 112 125 123 125 183 185 183 0 0 0 183 185 183 125 123 125 152 153 152 
183 185 183 152 153 152 0 0 0 112 109 112 112 109 112 183 185 183 152 153 152 152 153 152 0 0 0 152 153 152 183 185 183 152 153 152 183 185 183 112 109 112 152 153 152 125 123 125 
183 185 183 0 0 0 0 0 0 0 0 0 112 109 112 112 109 112 112 109 112 125 123 125 152 153 152 0 0 0 183 185 183 183 185 183 183 185 183 112 109 112 183 185 183 152 153 152 
0 0 0 152 153 152 152 153 152 0 0 0 112 109 112 0 0 0 152 153 152 152 153 152 125 123 125 183 185 183 0 0 0 183 185 183 112 109 112 112 109 112 112 109 112 183 185 183 
152 153 152 125 123 125 112 109 112 112 109 112 0 0 0 0 0 0 0 0 0 183 185 183 152 153 152 183 185 183 0 0 0 152 153 152 152 153 152 112 109 112 0 0 0 0 0 0 
125 123 125 152 153 152 152 153 152 0 0 0 152 153 152 152 153 152 0 0 0 0 0 0 183 185 183 0 0 0 112 109 112 112 109 112 125 123 125 183 185 183 0 0 0 152 153 152 
152 153 152 183 185 183 0 0 0 183 185 183 125 123 125 112 109 112 112 109 112 0 0 0 0 0 0 112 109 112 0 0 0 152 153 152 183 185 183 125 123 125 152 153 152 183 185 183 
183 185 183 0 0 0 183 185 183 152 153 152 183 185 183 152 153 152 0 0 0 0 0 0 152 153 152 152 153 152 0 0 0 0 0 0 183 185 183 152 153 152 183 185 183 0 0 0 
152 153 152 0 0 0 183 185 183 183 185 183 183 185 183 0 0 0 0 0 0 112 109 112 112 109 112 125 123 125 152 153 152 0 0 0 0 0 0 183 185 183 0 0 0 152 153 152 
