P3
16 16
255
0 0 0 0 0 0 0 0 0 0 0 0 0 0 0 0 0 0 0 0 0 0 0 0 0 0 0 0 0 0 0 0 0 0 0 0 0 0 0 0 0 0 0 0 0 0 0 0 
0 0 0 0 0 0 0 0 0 0 0 0 0 0 0 0 0 0 0 0 0 0 0 0 0 0 0 0 0 0 0 0 0 0 0 0 0 0 0 0 0 0 0 0 0 0 0 0 
0 0 0 0 0 0 0 0 0 0 0 0 0 0 0 153 147 141 153 147 141 0 0 0 0 0 0 0 0 0 153 147 141 153 147 141 0 0 0 0 0 0 0 0 0 0 0 0 
0 0 0 0 0 0 0 0 0 0 0 0 0 0 0 153 147 141 164 160 156 153 147 141 0 0 0 0 0 0 153 147 141 138 128 123 0 0 0 0 0 0 0 0 0 0 0 0 
0 0 0 0 0 0 0 0 0 0 0 0 0 0 0 0 0 0 153 147 141 164 160 156 153 147 141 153 147 141 153 147 141 123 114 110 0 0 0 0 0 0 0 0 0 0 0 0 
0 0 0 0 0 0 0 0 0 0 0 0 0 0 0 0 0 0 0 0 0 123 114 110 153 147 141 134 123 119 138 128 123 0 0 0 0 0 0 153 147 141 153 147 141 0 0 0 
0 0 0 0 0 0 0 0 0 153 147 141 153 147 141 0 0 0 0 0 0 0 0 0 123 114 110 153 147 141 0 0 0 138 128 123 153 147 141 164 160 156 138 128 123 0 0 0 
0 0 0 0 0 0 0 0 0 138 128 123 164 160 156 138 128 123 0 0 0 0 0 0 0 0 0 138 128 123 153 147 141 153 147 141 164 160 156 153 147 141 0 0 0 0 0 0 
0 0 0 153 147 141 153 147 141 0 0 0 153 147 141 138 128 123 0 0 0 138 128 123 0 0 0 123 114 110 134 123 119 153 147 141 0 0 0 0 0 0 0 0 0 0 0 0 
0 0 0 123 114 110 164 160 156 153 147 141 153 147 141 153 147 141 138 128 123 138 128 123 0 0 0 0 0 0 123 114 110 138 128 123 0 0 0 0 0 0 0 0 0 0 0 0 
0 0 0 0 0 0 123 114 110 138 128 123 153 147 141 164 160 156 153 147 141 123 114 110 0 0 0 0 0 0 123 114 110 138 128 123 153 147 141 164 160 156 153 147 141 0 0 0 
0 0 0 0 0 0 0 0 0 0 0 0 123 114 110 138 128 123 153 147 141 0 0 0 0 0 0 0 0 0 123 114 110 153 147 141 153 147 141 153 147 141 123 114 110 0 0 0 
0 0 0 0 0 0 138 128 123 123 114 110 0 0 0 123 114 110 138 128 123 138 128 123 123 114 110 0 0 0 123 114 110 138 128 123 123 114 110 0 0 0 0 0 0 0 0 0 
0 0 0 0 0 0 0 0 0 138 128 123 123 114 110 123 114 110 123 114 110 123 114 110 138 128 123 123 114 110 138 128 123 138 128 123 153 147 141 164 160 156 0 0 0 0 0 0 
0 0 0 0 0 0 0 0 0 0 0 0 0 0 0 0 0 0 0 0 0 123 114 110 153 147 141 138 128 123 138 128 123 0 0 0 0 0 0 0 0 0 0 0 0 0 0 0 
0 0 0 0 0 0 0 0 0 0 0 0 0 0 0 0 0 0 0 0 0 0 0 0 153 147 141 153 147 141 123 114 110 0 0 0 0 0 0 0 0 0 0 0 0 0 0 0 
