P3
16 16
255
134 123 119 104 100 99 164 160 156 164 160 156 134 123 119 116 106 102 116 106 102 164 160 156 164 160 156 134 123 119 116 106 102 116 106 102 164 160 156 164 160 156 116 106 102 164 160 156 
116 106 102 116 106 102 164 160 156 164 160 156 153 147 141 116 106 102 153 147 141 164 160 156 164 160 156 134 123 119 134 123 119 116 106 102 164 160 156 104 100 99 164 160 156 164 160 156 
93 90 89 134 123 119 116 106 102 153 147 141 153 147 141 164 160 156 153 147 141 153 147 141 134 123 119 164 160 156 164 160 156 116 106 102 93 90 89 134 123 119 164 160 156 164 160 156 
116 106 102 93 90 89 93 90 89 134 123 119 134 123 119 116 106 102 153 147 141 116 106 102 153 147 141 164 160 156 164 160 156 104 100 99 93 90 89 116 106 102 116 106 102 116 106 102 
134 123 119 134 123 119 153 147 141 164 160 156 134 123 119 134 123 119 116 106 102 116 106 102 153 147 141 134 123 119 104 100 99 116 106 102 134 123 119 164 160 156 153 147 141 116 106 102 
134 123 119 153 147 141 164 160 156 153 147 141 134 123 119 134 123 119 134 123 119 134 123 119 116 106 102 134 123 119 116 106 102 116 106 102 134 123 119 153 147 141 164 160 156 153 147 141 
116 106 102 153 147 141 153 147 141 116 106 102 153 147 141 164 160 156 134 123 119 104 100 99 116 106 102 134 123 119 116 106 102 164 160 156 164 160 156 116 106 102 153 147 141 153 147 141 
134 123 119 104 100 99 153 147 141 153 147 141 164 160 156 153 147 141 134 123 119 134 123 119 104 100 99 104 100 99 134 123 119 153 147 141 164 160 156 153 147 141 116 106 102 153 147 141 
164 160 156 164 160 156 104 100 99 134 123 119 93 90 89 104 100 99 116 106 102 116 106 102 104 100 99 93 90 89 116 106 102 116 106 102 153 147 141 153 147 141 134 123 119 104 100 99 
164 160 156 164 160 156 153 147 141 93 90 89 134 123 119 164 160 156 164 160 156 116 106 102 93 90 89 93 90 89 134 123 119 116 106 102 116 106 102 116 106 102 93 90 89 116 106 102 
116 106 102 164 160 156 116 106 102 134 123 119 153 147 141 164 160 156 164 160 156 134 123 119 134 123 119 116 106 102 134 123 119 116 106 102 93 90 89 134 123 119 134 123 119 93 90 89 
116 106 102 116 106 102 134 123 119 134 123 119 116 106 102 116 106 102 134 123 119 134 123 119 93 90 89 164 160 156 164 160 156 93 90 89 134 123 119 153 147 141 164 160 156 134 123 119 
116 106 102 153 147 141 164 160 156 134 123 119 116 106 102 116 106 102 164 160 156 164 160 156 116 106 102 164 160 156 164 160 156 104 100 99 153 147 141 164 160 156 153 147 141 134 123 119 
153 147 141 164 160 156 153 147 141 134 123 119 104 100 99 134 123 119 164 160 156 116 106 102 104 100 99 153 147 141 164 160 156 116 106 102 153 147 141 153 147 141 116 106 102 116 106 102 
153 147 141 153 147 141 104 100 99 116 106 102 134 123 119 134 123 119 116 106 102 134 123 119 93 90 89 134 123 119 153 147 141 153 147 141 116 106 102 116 106 102 116 106 102 116 106 102 
116 106 102 104 100 99 116 106 102 116 106 102 153 147 141 116 106 102 116 106 102 93 90 89 116 106 102 93 90 89 116 106 102 116 106 102 164 160 156 164 160 156 116 106 102 116 106 102 
