P3
16 16
255
0 0 0 0 0 0 0 0 0 0 0 0 0 0 0 0 0 0 0 0 0 0 0 0 0 0 0 0 0 0 0 0 0 0 0 0 0 0 0 0 0 0 0 0 0 0 0 0 
0 0 0 0 0 0 0 0 0 0 0 0 0 0 0 164 160 156 0 0 0 0 0 0 0 0 0 164 160 156 0 0 0 0 0 0 0 0 0 0 0 0 0 0 0 0 0 0 
0 0 0 0 0 0 0 0 0 0 0 0 0 0 0 116 106 102 164 160 156 0 0 0 164 160 156 0 0 0 0 0 0 0 0 0 0 0 0 0 0 0 0 0 0 0 0 0 
153 147 141 0 0 0 164 160 156 0 0 0 0 0 0 0 0 0 0 0 0 138 128 123 153 147 141 0 0 0 164 160 156 0 0 0 123 114 110 0 0 0 0 0 0 0 0 0 
134 123 119 164 160 156 134 123 119 0 0 0 134 123 119 0 0 0 116 106 102 134 123 119 138 128 123 116 106 102 134 123 119 0 0 0 0 0 0 164 160 156 0 0 0 134 123 119 
0 0 0 164 160 156 164 160 156 134 123 119 0 0 0 0 0 0 0 0 0 0 0 0 123 114 110 134 123 119 0 0 0 116 106 102 123 114 110 138 128 123 116 106 102 0 0 0 
134 123 119 116 106 102 153 147 141 0 0 0 0 0 0 0 0 0 0 0 0 116 106 102 123 114 110 0 0 0 0 0 0 0 0 0 0 0 0 116 106 102 134 123 119 0 0 0 
0 0 0 0 0 0 164 160 156 0 0 0 116 106 102 0 0 0 164 160 156 123 114 110 164 160 156 0 0 0 164 160 156 116 106 102 0 0 0 134 123 119 0 0 0 0 0 0 
0 0 0 0 0 0 134 123 119 123 114 110 0 0 0 0 0 0 116 106 102 164 160 156 164 160 156 134 123 119 116 106 102 0 0 0 116 106 102 123 114 110 0 0 0 0 0 0 
0 0 0 134 123 119 0 0 0 134 123 119 116 106 102 116 106 102 0 0 0 0 0 0 134 123 119 164 160 156 0 0 0 0 0 0 123 114 110 0 0 0 0 0 0 134 123 119 
0 0 0 0 0 0 164 160 156 0 0 0 134 123 119 153 147 141 116 106 102 0 0 0 0 0 0 123 114 110 138 128 123 116 106 102 0 0 0 116 106 102 123 114 110 116 106 102 
0 0 0 134 123 119 123 114 110 164 160 156 0 0 0 123 114 110 153 147 141 0 0 0 0 0 0 0 0 0 164 160 156 123 114 110 0 0 0 0 0 0 134 123 119 0 0 0 
0 0 0 0 0 0 0 0 0 134 123 119 0 0 0 0 0 0 123 114 110 116 106 102 0 0 0 0 0 0 134 123 119 116 106 102 0 0 0 164 160 156 116 106 102 134 123 119 
0 0 0 0 0 0 0 0 0 116 106 102 134 123 119 0 0 0 164 160 156 123 114 110 0 0 0 116 106 102 134 123 119 116 106 102 134 123 119 116 106 102 0 0 0 0 0 0 
0 0 0 0 0 0 116 106 102 0 0 0 123 114 110 116 106 102 138 128 123 116 106 102 116 106 102 134 123 119 123 114 110 123 114 110 0 0 0 0 0 0 0 0 0 0 0 0 
0 0 0 0 0 0 0 0 0 0 0 0 0 0 0 116 106 102 123 114 110 0 0 0 116 106 102 134 123 119 116 106 102 0 0 0 0 0 0 0 0 0 0 0 0 0 0 0 
