P3
16 16
255
0 255 255 0 255 255 0 255 255 0 255 255 0 255 255 0 255 255 0 255 255 0 255 255 0 255 255 0 255 255 0 255 255 0 255 255 0 255 255 0 255 255 0 255 255 0 255 255 
0 0 0 17 253 255 0 0 0 19 255 255 0 0 0 23 255 255 0 0 0 28 255 255 0 0 0 36 255 255 0 0 0 51 255 255 0 0 0 85 255 255 0 0 0 255 255 255 
32 223 255 34 236 255 36 253 255 39 255 255 42 255 255 46 255 255 51 255 255 56 255 255 63 255 255 72 255 255 85 255 255 102 255 255 127 255 255 170 255 255 255 255 255 255 255 237 
0 0 0 51 219 255 0 0 0 58 253 255 0 0 0 69 255 255 0 0 0 85 255 255 0 0 0 109 255 255 0 0 0 153 255 255 0 0 0 255 255 255 0 0 0 255 255 220 
64 191 255 68 202 255 72 217 255 78 234 255 85 253 255 92 255 255 102 255 255 113 255 255 127 255 255 145 255 255 170 255 255 204 255 255 255 255 255 255 255 235 255 255 218 255 255 203 
0 0 0 85 185 255 0 0 0 98 214 255 0 0 0 115 253 255 0 0 0 141 255 255 0 0 0 182 255 255 0 0 0 255 255 255 0 0 0 255 255 215 0 0 0 255 255 186 
96 159 255 102 168 255 109 181 255 117 194 255 127 211 255 139 230 255 153 253 255 170 255 255 191 255 255 218 255 255 255 255 255 255 255 231 255 255 212 255 255 195 255 255 181 255 255 169 
0 0 0 119 151 255 0 0 0 137 175 255 0 0 0 162 207 255 0 0 0 198 253 255 0 0 0 255 255 255 0 0 0 255 255 208 0 0 0 255 255 176 0 0 0 255 255 152 
128 127 255 136 134 255 145 144 255 156 155 255 170 168 255 185 184 255 204 202 255 226 224 255 255 253 255 255 255 226 255 255 203 255 255 185 255 255 169 255 255 156 255 255 145 255 255 135 
0 0 0 153 117 255 0 0 0 176 136 255 0 0 0 208 160 255 0 0 0 255 196 255 0 0 0 255 252 197 0 0 0 255 255 161 0 0 0 255 255 136 0 0 0 255 255 118 
160 95 255 170 100 255 182 108 255 196 116 255 212 126 255 231 137 255 255 151 255 255 168 218 255 189 190 255 216 169 255 252 152 255 255 138 255 255 126 255 255 117 255 255 108 255 255 101 
0 0 0 187 83 255 0 0 0 215 96 255 0 0 0 255 114 255 0 0 0 255 139 181 0 0 0 255 179 140 0 0 0 255 251 115 0 0 0 255 255 97 0 0 0 255 255 84 
192 63 255 204 66 255 218 71 255 235 77 255 255 83 255 255 91 203 255 100 169 255 111 144 255 125 126 255 143 112 255 167 101 255 200 91 255 251 84 255 255 77 255 255 72 255 255 67 
0 0 0 221 49 255 0 0 0 255 57 255 0 0 0 255 68 151 0 0 0 255 83 107 0 0 0 255 107 83 0 0 0 255 149 68 0 0 0 255 249 57 0 0 0 255 255 50 
224 31 255 238 32 255 255 35 255 255 38 168 255 41 125 255 44 100 255 49 83 255 54 71 255 61 62 255 70 55 255 82 49 255 98 45 255 123 41 255 164 38 255 247 35 255 255 33 
0 0 0 255 15 255 0 0 0 255 18 81 0 0 0 255 21 48 0 0 0 255 26 34 0 0 0 255 34 26 0 0 0 255 47 21 0 0 0 255 79 18 0 0 0 255 239 16 
