P3
16 16
255
206 141 131 206 141 131 206 141 131 186 130 119 206 141 131 186 130 119 186 130 119 206 141 131 206 141 131 206 141 131 206 141 131 206 141 131 186 130 119 186 130 119 186 130 119 150 117 97 
206 141 131 168 119 98 168 119 98 155 138 106 210 126 32 210 126 32 210 126 32 186 130 119 168 119 98 210 126 32 210 126 32 210 126 32 155 138 106 130 113 87 130 113 87 123 99 84 
206 141 131 155 138 106 206 141 131 168 119 98 238 155 50 252 179 103 238 155 50 150 117 97 168 119 98 238 155 50 252 179 103 238 155 50 206 141 131 168 119 98 130 113 87 123 99 84 
206 141 131 155 138 106 168 119 98 130 113 87 238 155 50 247 204 136 252 179 103 150 117 97 186 130 119 252 179 103 247 204 136 238 155 50 168 119 98 130 113 87 168 119 98 123 99 84 
206 141 131 210 126 32 238 155 50 238 155 50 252 179 103 255 225 169 255 225 169 186 130 119 155 138 106 255 225 169 255 225 169 252 179 103 238 155 50 238 155 50 210 126 32 123 99 84 
206 141 131 210 126 32 252 179 103 247 204 136 255 225 169 255 225 169 255 225 169 168 119 98 168 119 98 255 225 169 255 225 169 255 225 169 247 204 136 252 179 103 210 126 32 130 113 87 
206 141 131 210 126 32 238 155 50 252 179 103 255 225 169 255 225 169 247 203 124 127 114 87 127 114 87 247 203 124 255 225 169 255 225 169 252 179 103 238 155 50 210 126 32 130 113 87 
206 141 131 150 117 97 150 117 97 168 119 98 186 130 119 152 140 105 127 114 87 115 95 80 115 95 80 186 130 119 168 119 98 186 130 119 186 130 119 186 130 119 168 119 98 123 99 84 
206 141 131 150 117 97 168 119 98 186 130 119 155 138 106 168 119 98 127 114 87 115 95 80 115 95 80 186 130 119 152 140 105 129 149 105 155 138 106 168 119 98 168 119 98 123 99 84 
206 141 131 210 126 32 238 155 50 252 179 103 255 225 169 255 225 169 247 203 124 186 130 119 186 130 119 247 203 124 255 225 169 255 225 169 252 179 103 238 155 50 210 126 32 130 113 87 
206 141 131 210 126 32 252 179 103 247 204 136 255 225 169 255 225 169 255 225 169 168 119 98 168 119 98 255 225 169 255 225 169 255 225 169 247 204 136 252 179 103 210 126 32 130 113 87 
206 141 131 210 126 32 238 155 50 238 155 50 252 179 103 255 225 169 255 225 169 168 119 98 186 130 119 255 225 169 255 225 169 252 179 103 238 155 50 238 155 50 210 126 32 130 113 87 
206 141 131 130 113 87 206 141 131 168 119 98 238 155 50 247 204 136 252 179 103 168 119 98 168 119 98 252 179 103 247 204 136 238 155 50 206 141 131 168 119 98 155 138 106 123 99 84 
206 141 131 130 113 87 168 119 98 130 113 87 238 155 50 252 179 103 238 155 50 186 130 119 168 119 98 238 155 50 252 179 103 238 155 50 168 119 98 123 99 84 130 113 87 123 99 84 
206 141 131 150 117 97 130 113 87 123 99 84 210 126 32 210 126 32 210 126 32 155 138 106 186 130 119 210 126 32 210 126 32 210 126 32 150 117 97 130 113 87 130 113 87 130 113 87 
186 130 119 130 113 87 130 113 87 130 113 87 130 113 87 123 99 84 130 113 87 123 99 84 130 113 87 130 113 87 130 113 87 130 113 87 130 113 87 123 99 84 130 113 87 130 113 87 
