P3
16 16
255
206 141 131 206 141 131 206 141 131 206 141 131 206 141 131 206 141 131 206 141 131 206 141 131 206 141 131 206 141 131 206 141 131 206 141 131 206 141 131 206 141 131 186 130 119 186 130 119 
206 141 131 186 130 119 186 130 119 186 130 119 186 130 119 186 130 119 176 124 108 176 124 108 186 130 119 176 124 108 152 140 105 152 140 105 176 124 108 176 124 108 176 124 108 186 130 119 
206 141 131 186 130 119 148 118 97 127 114 87 121 100 84 121 100 84 121 100 84 121 100 84 121 100 84 121 100 84 121 100 84 127 114 87 121 100 84 127 114 87 176 124 108 176 124 108 
186 130 119 186 130 119 127 114 87 176 124 108 186 130 119 0 0 0 0 0 0 0 0 0 0 0 0 0 0 0 0 0 0 176 124 108 176 124 108 148 118 97 186 130 119 168 119 98 
77 80 70 176 124 108 127 114 87 148 118 97 176 124 108 206 141 131 0 0 0 0 0 0 0 0 0 0 0 0 206 141 131 176 124 108 148 118 97 148 118 97 186 130 119 148 118 97 
51 51 51 176 124 108 121 100 84 0 0 0 121 100 84 176 124 108 206 141 131 0 0 0 0 0 0 206 141 131 176 124 108 121 100 84 0 0 0 148 118 97 176 124 108 148 118 97 
206 141 131 176 124 108 121 100 84 0 0 0 0 0 0 121 100 84 176 124 108 206 141 131 206 141 131 176 124 108 121 100 84 0 0 0 0 0 0 148 118 97 186 130 119 148 118 97 
206 141 131 176 124 108 121 100 84 0 0 0 0 0 0 0 0 0 148 118 97 186 130 119 152 140 105 148 118 97 0 0 0 0 0 0 0 0 0 148 118 97 152 140 105 148 118 97 
206 141 131 176 124 108 121 100 84 0 0 0 0 0 0 0 0 0 186 130 119 176 124 108 152 140 105 122 152 105 0 0 0 0 0 0 0 0 0 148 118 97 152 140 105 148 118 97 
206 141 131 176 124 108 121 100 84 0 0 0 0 0 0 206 141 131 176 124 108 121 100 84 121 100 84 152 140 105 206 141 131 0 0 0 0 0 0 148 118 97 186 130 119 148 118 97 
206 141 131 176 124 108 127 114 87 0 0 0 186 130 119 152 140 105 121 100 84 0 0 0 0 0 0 121 100 84 176 124 108 186 130 119 0 0 0 148 118 97 186 130 119 148 118 97 
206 141 131 176 124 108 127 114 87 176 124 108 152 140 105 127 114 87 0 0 0 0 0 0 0 0 0 0 0 0 121 100 84 176 124 108 152 140 105 148 118 97 186 130 119 148 118 97 
206 141 131 186 130 119 148 118 97 176 124 108 148 118 97 0 0 0 0 0 0 0 0 0 0 0 0 0 0 0 0 0 0 148 118 97 152 140 105 148 118 97 176 124 108 148 118 97 
206 141 131 186 130 119 176 124 108 186 130 119 206 141 131 206 141 131 206 141 131 206 141 131 206 141 131 206 141 131 186 130 119 186 130 119 186 130 119 176 124 108 176 124 108 148 118 97 
186 130 119 168 119 98 148 118 97 168 119 98 168 119 98 168 119 98 176 124 108 176 124 108 176 124 108 152 140 105 152 140 105 152 140 105 176 124 108 176 124 108 168 119 98 148 118 97 
77 80 70 148 118 97 152 140 105 168 119 98 121 100 84 121 100 84 121 100 84 121 100 84 121 100 84 121 100 84 121 100 84 104 104 104 77 80 70 168 119 98 152 140 105 148 118 97 
