P3
16 16
255
206 141 131 206 141 131 206 141 131 186 130 119 206 141 131 186 130 119 186 130 119 206 141 131 206 141 131 206 141 131 206 141 131 206 141 131 186 130 119 186 130 119 186 130 119 148 118 97 
206 141 131 168 119 98 168 119 98 152 140 105 152 140 105 168 119 98 152 140 105 186 130 119 168 119 98 168 119 98 152 140 105 186 130 119 152 140 105 125 111 90 125 111 90 117 97 82 
206 141 131 152 140 105 206 141 131 148 118 97 168 119 98 148 118 97 125 111 90 125 111 90 117 97 82 117 97 82 117 97 82 168 119 98 206 141 131 148 118 97 125 111 90 117 97 82 
206 141 131 152 140 105 148 118 97 125 111 90 168 119 98 186 130 119 148 118 97 125 111 90 117 97 82 117 97 82 186 130 119 168 119 98 148 118 97 125 111 90 168 119 98 117 97 82 
206 141 131 168 119 98 148 118 97 168 119 98 168 119 98 168 119 98 206 141 131 148 118 97 148 118 97 206 141 131 168 119 98 168 119 98 168 119 98 148 118 97 152 140 105 117 97 82 
206 141 131 168 119 98 117 97 82 148 118 97 168 119 98 168 119 98 168 119 98 206 141 131 206 141 131 168 119 98 168 119 98 168 119 98 148 118 97 117 97 82 152 140 105 125 111 90 
206 141 131 168 119 98 125 111 90 117 97 82 148 118 97 168 119 98 125 111 90 117 97 82 117 97 82 117 97 82 168 119 98 148 118 97 117 97 82 117 97 82 186 130 119 125 111 90 
206 141 131 148 118 97 125 111 90 117 97 82 117 97 82 148 118 97 125 111 90 168 119 98 168 119 98 117 97 82 148 118 97 117 97 82 125 111 90 117 97 82 168 119 98 117 97 82 
206 141 131 148 118 97 125 111 90 125 111 90 117 97 82 148 118 97 148 118 97 168 119 98 168 119 98 125 111 90 148 118 97 148 118 97 125 111 90 117 97 82 168 119 98 117 97 82 
206 141 131 168 119 98 125 111 90 148 118 97 186 130 119 168 119 98 148 118 97 148 118 97 148 118 97 148 118 97 168 119 98 206 141 131 148 118 97 125 111 90 186 130 119 125 111 90 
206 141 131 168 119 98 148 118 97 206 141 131 168 119 98 168 119 98 186 130 119 206 141 131 206 141 131 186 130 119 168 119 98 168 119 98 206 141 131 148 118 97 148 118 97 125 111 90 
206 141 131 152 140 105 206 141 131 168 119 98 168 119 98 168 119 98 148 118 97 117 97 82 117 97 82 148 118 97 168 119 98 168 119 98 168 119 98 186 130 119 152 140 105 125 111 90 
206 141 131 125 111 90 186 130 119 148 118 97 168 119 98 148 118 97 125 111 90 125 111 90 117 97 82 117 97 82 148 118 97 168 119 98 206 141 131 148 118 97 152 140 105 117 97 82 
206 141 131 125 111 90 148 118 97 125 111 90 148 118 97 125 111 90 148 118 97 148 118 97 148 118 97 125 111 90 117 97 82 148 118 97 148 118 97 125 111 90 125 111 90 117 97 82 
206 141 131 148 118 97 125 111 90 117 97 82 152 140 105 152 140 105 186 130 119 186 130 119 186 130 119 152 140 105 148 118 97 148 118 97 148 118 97 148 118 97 148 118 97 125 111 90 
186 130 119 125 111 90 125 111 90 125 111 90 125 111 90 117 97 82 125 111 90 117 97 82 125 111 90 125 111 90 125 111 90 125 111 90 125 111 90 117 97 82 125 111 90 125 111 90 
