P3
16 16
255
80 105 44 0 0 0 58 76 38 80 105 44 80 105 44 108 128 49 112 146 45 80 105 44 80 105 44 0 0 0 58 76 38 58 76 38 58 76 38 0 0 0 80 105 44 108 128 49 
108 128 49 0 0 0 0 0 0 58 76 38 58 76 38 112 146 45 112 146 45 80 105 44 80 105 44 0 0 0 108 128 49 108 128 49 112 146 45 0 0 0 0 0 0 108 128 49 
58 76 38 0 0 0 80 105 44 80 105 44 80 105 44 80 105 44 0 0 0 0 0 0 112 146 45 108 128 49 108 128 49 186 98 206 208 123 227 186 98 206 0 0 0 58 76 38 
112 146 45 108 128 49 80 105 44 112 146 45 108 128 49 80 105 44 58 76 38 0 0 0 112 146 45 112 146 45 80 105 44 208 123 227 58 76 38 208 123 227 0 0 0 58 76 38 
112 146 45 112 146 45 0 0 0 112 146 45 112 146 45 58 76 38 58 76 38 0 0 0 58 76 38 80 105 44 80 105 44 186 98 206 208 123 227 158 80 136 0 0 0 0 0 0 
0 0 0 0 0 0 0 0 0 80 105 44 80 105 44 58 76 38 0 0 0 58 76 38 58 76 38 58 76 38 0 0 0 0 0 0 112 146 45 112 146 45 108 128 49 108 128 49 
112 146 45 80 105 44 58 76 38 0 0 0 0 0 0 0 0 0 108 128 49 112 146 45 112 146 45 112 146 45 80 105 44 58 76 38 0 0 0 80 105 44 108 128 49 108 128 49 
112 146 45 186 98 206 208 123 227 158 80 136 0 0 0 0 0 0 80 105 44 112 146 45 112 146 45 112 146 45 108 128 49 58 76 38 58 76 38 80 105 44 80 105 44 112 146 45 
58 76 38 208 123 227 58 76 38 186 98 206 108 128 49 80 105 44 108 128 49 80 105 44 80 105 44 112 146 45 112 146 45 80 105 44 58 76 38 58 76 38 80 105 44 80 105 44 
80 105 44 158 80 136 186 98 206 158 80 136 112 146 45 80 105 44 112 146 45 108 128 49 80 105 44 112 146 45 108 128 49 108 128 49 112 146 45 0 0 0 108 128 49 108 128 49 
108 128 49 80 105 44 80 105 44 112 146 45 80 105 44 0 0 0 112 146 45 112 146 45 108 128 49 0 0 0 0 0 0 112 146 45 112 146 45 0 0 0 108 128 49 108 128 49 
108 128 49 0 0 0 0 0 0 58 76 38 58 76 38 80 105 44 108 128 49 80 105 44 0 0 0 158 80 136 186 98 206 158 80 136 80 105 44 80 105 44 0 0 0 108 128 49 
0 0 0 58 76 38 80 105 44 80 105 44 58 76 38 80 105 44 80 105 44 0 0 0 80 105 44 186 98 206 58 76 38 186 98 206 108 128 49 80 105 44 58 76 38 58 76 38 
0 0 0 108 128 49 108 128 49 112 146 45 108 128 49 108 128 49 58 76 38 0 0 0 80 105 44 158 80 136 186 98 206 158 80 136 108 128 49 80 105 44 58 76 38 58 76 38 
80 105 44 108 128 49 112 146 45 108 128 49 112 146 45 108 128 49 58 76 38 58 76 38 0 0 0 0 0 0 80 105 44 80 105 44 58 76 38 108 128 49 108 128 49 0 0 0 
80 105 44 80 105 44 80 105 44 112 146 45 112 146 45 0 0 0 0 0 0 58 76 38 0 0 0 0 0 0 0 0 0 58 76 38 58 76 38 108 128 49 108 128 49 80 105 44 
