P3
16 16
255
128 173 251 128 173 251 128 173 251 128 173 251 146 185 254 206 224 255 161 195 255 146 185 254 146 185 254 128 173 251 128 173 251 128 173 251 161 195 255 161 195 255 161 195 255 128 173 251 
128 173 251 128 173 251 128 173 251 146 185 254 161 195 255 161 195 255 146 185 254 146 185 254 128 173 251 128 173 251 128 173 251 146 185 254 161 195 255 146 185 254 128 173 251 128 173 251 
128 173 251 128 173 251 146 185 254 161 195 255 146 185 254 146 185 254 146 185 254 146 185 254 146 185 254 128 173 251 146 185 254 161 195 255 146 185 254 128 173 251 128 173 251 128 173 251 
146 185 254 146 185 254 128 173 251 146 185 254 146 185 254 146 185 254 146 185 254 146 185 254 128 173 251 146 185 254 146 185 254 146 185 254 128 173 251 128 173 251 128 173 251 128 173 251 
146 185 254 128 173 251 128 173 251 128 173 251 146 185 254 146 185 254 146 185 254 128 173 251 128 173 251 128 173 251 116 166 251 128 173 251 128 173 251 128 173 251 146 185 254 146 185 254 
128 173 251 128 173 251 128 173 251 146 185 254 146 185 254 146 185 254 128 173 251 112 164 252 112 164 252 128 173 251 116 166 251 146 185 254 146 185 254 146 185 254 161 195 255 161 195 255 
128 173 251 128 173 251 146 185 254 146 185 254 128 173 251 128 173 251 112 164 252 112 164 252 128 173 251 100 153 243 146 185 254 146 185 254 161 195 255 161 195 255 146 185 254 128 173 251 
128 173 251 128 173 251 128 173 251 128 173 251 128 173 251 128 173 251 142 182 253 154 190 254 100 153 243 157 192 254 146 185 254 161 195 255 206 224 255 161 195 255 146 185 254 128 173 251 
128 173 251 146 185 254 146 185 254 128 173 251 128 173 251 146 185 254 128 173 251 128 173 251 100 153 243 100 153 243 161 195 255 206 224 255 161 195 255 146 185 254 146 185 254 128 173 251 
146 185 254 146 185 254 146 185 254 146 185 254 146 185 254 146 185 254 128 173 251 100 153 243 154 190 254 150 188 255 200 220 255 161 195 255 146 185 254 146 185 254 128 173 251 128 173 251 
146 185 254 146 185 254 146 185 254 161 195 255 146 185 254 128 173 251 116 166 251 154 190 254 146 185 254 161 195 255 146 185 254 146 185 254 146 185 254 128 173 251 128 173 251 146 185 254 
146 185 254 161 195 255 161 195 255 146 185 254 128 173 251 128 173 251 142 182 253 146 185 254 161 195 255 146 185 254 128 173 251 146 185 254 146 185 254 128 173 251 128 173 251 146 185 254 
161 195 255 161 195 255 146 185 254 128 173 251 128 173 251 112 164 252 128 173 251 146 185 254 128 173 251 128 173 251 128 173 251 146 185 254 128 173 251 128 173 251 146 185 254 146 185 254 
200 220 255 161 195 255 128 173 251 128 173 251 112 164 252 112 164 252 128 173 251 128 173 251 128 173 251 146 185 254 128 173 251 128 173 251 128 173 251 146 185 254 146 185 254 146 185 254 
161 195 255 128 173 251 128 173 251 112 164 252 112 164 252 128 173 251 128 173 251 146 185 254 161 195 255 146 185 254 128 173 251 128 173 251 128 173 251 128 173 251 161 195 255 200 220 255 
128 173 251 128 173 251 128 173 251 128 173 251 128 173 251 146 185 254 206 224 255 161 195 255 146 185 254 128 173 251 128 173 251 128 173 251 128 173 251 161 195 255 206 224 255 161 195 255 
