P3
16 16
255
0 0 0 115 146 133 113 134 126 110 126 120 0 0 0 0 0 0 0 0 0 0 0 0 110 126 120 0 0 0 99 117 110 0 0 0 113 134 126 110 126 120 0 0 0 0 0 0 
0 0 0 110 126 120 99 117 110 110 126 120 0 0 0 0 0 0 0 0 0 0 0 0 0 0 0 110 126 120 115 146 133 113 134 126 0 0 0 113 134 126 99 117 110 0 0 0 
99 117 110 99 117 110 0 0 0 174 175 140 115 146 133 113 134 126 0 0 0 0 0 0 0 0 0 113 134 126 110 126 120 99 117 110 0 0 0 110 126 120 174 175 140 110 126 120 
0 0 0 0 0 0 113 134 126 115 146 133 0 0 0 110 126 120 0 0 0 0 0 0 0 0 0 0 0 0 0 0 0 110 126 120 0 0 0 0 0 0 113 134 126 0 0 0 
110 126 120 110 126 120 0 0 0 113 134 126 0 0 0 99 117 110 110 126 120 0 0 0 0 0 0 0 0 0 0 0 0 113 134 126 110 126 120 0 0 0 0 0 0 0 0 0 
0 0 0 0 0 0 0 0 0 0 0 0 0 0 0 115 146 133 113 134 126 99 117 110 110 126 120 0 0 0 0 0 0 115 146 133 113 134 126 0 0 0 0 0 0 0 0 0 
0 0 0 0 0 0 0 0 0 0 0 0 0 0 0 113 134 126 0 0 0 0 0 0 174 175 140 113 134 126 110 126 120 0 0 0 0 0 0 110 126 120 113 134 126 0 0 0 
0 0 0 0 0 0 99 117 110 99 117 110 0 0 0 110 126 120 0 0 0 0 0 0 99 117 110 0 0 0 0 0 0 0 0 0 0 0 0 0 0 0 113 134 126 110 126 120 
0 0 0 110 126 120 0 0 0 0 0 0 0 0 0 0 0 0 110 126 120 99 117 110 99 117 110 0 0 0 0 0 0 0 0 0 0 0 0 0 0 0 0 0 0 99 117 110 
0 0 0 174 175 140 110 126 120 0 0 0 0 0 0 0 0 0 0 0 0 0 0 0 110 126 120 0 0 0 0 0 0 113 134 126 110 126 120 0 0 0 0 0 0 0 0 0 
0 0 0 0 0 0 113 134 126 0 0 0 115 146 133 0 0 0 0 0 0 0 0 0 113 134 126 115 146 133 0 0 0 110 126 120 99 117 110 110 126 120 0 0 0 0 0 0 
0 0 0 0 0 0 110 126 120 115 146 133 0 0 0 113 134 126 110 126 120 0 0 0 0 0 0 113 134 126 113 134 126 174 175 140 99 117 110 113 134 126 0 0 0 0 0 0 
0 0 0 0 0 0 0 0 0 113 134 126 0 0 0 0 0 0 0 0 0 99 117 110 0 0 0 0 0 0 110 126 120 110 126 120 99 117 110 0 0 0 0 0 0 0 0 0 
110 126 120 0 0 0 0 0 0 174 175 140 99 117 110 0 0 0 0 0 0 0 0 0 0 0 0 110 126 120 0 0 0 0 0 0 0 0 0 0 0 0 0 0 0 110 126 120 
0 0 0 0 0 0 0 0 0 99 117 110 0 0 0 0 0 0 99 117 110 110 126 120 99 117 110 0 0 0 0 0 0 0 0 0 113 134 126 115 146 133 0 0 0 110 126 120 
0 0 0 0 0 0 110 126 120 0 0 0 0 0 0 99 117 110 0 0 0 99 117 110 110 126 120 0 0 0 0 0 0 0 0 0 0 0 0 113 134 126 110 126 120 0 0 0 
