P3
16 16
255
167 167 167 180 180 180 167 167 167 167 167 167 180 180 180 180 180 180 167 167 167 167 167 167 154 154 154 154 154 154 154 154 154 180 180 180 0 0 0 0 0 0 0 0 0 0 0 0 
167 167 167 127 127 127 127 127 127 143 143 143 143 143 143 143 143 143 127 127 127 127 127 127 116 116 116 116 116 116 127 127 127 180 180 180 0 0 0 0 0 0 0 0 0 0 0 0 
167 167 167 116 116 116 143 143 143 127 127 127 116 116 116 127 127 127 127 127 127 143 143 143 143 143 143 143 143 143 116 116 116 180 180 180 0 0 0 0 0 0 0 0 0 0 0 0 
167 167 167 116 116 116 143 143 143 116 116 116 143 143 143 143 143 143 127 127 127 127 127 127 116 116 116 127 127 127 143 143 143 180 180 180 0 0 0 0 0 0 0 0 0 0 0 0 
167 167 167 143 143 143 127 127 127 116 116 116 127 127 127 116 116 116 116 116 116 127 127 127 143 143 143 116 116 116 143 143 143 154 154 154 0 0 0 0 0 0 0 0 0 0 0 0 
180 180 180 143 143 143 127 127 127 127 127 127 116 116 116 104 104 104 104 104 104 116 116 116 143 143 143 116 116 116 143 143 143 154 154 154 0 0 0 0 0 0 0 0 0 0 0 0 
154 154 154 143 143 143 116 116 116 143 143 143 116 116 116 104 104 104 104 104 104 116 116 116 143 143 143 127 127 127 116 116 116 154 154 154 0 0 0 0 0 0 0 0 0 0 0 0 
167 167 167 127 127 127 116 116 116 143 143 143 127 127 127 116 116 116 116 116 116 127 127 127 127 127 127 143 143 143 116 116 116 180 180 180 0 0 0 0 0 0 0 0 0 0 0 0 
154 154 154 143 143 143 127 127 127 116 116 116 143 143 143 127 127 127 143 143 143 143 143 143 116 116 116 143 143 143 116 116 116 167 167 167 0 0 0 0 0 0 0 0 0 0 0 0 
154 154 154 116 116 116 143 143 143 143 143 143 127 127 127 116 116 116 116 116 116 116 116 116 127 127 127 143 143 143 127 127 127 167 167 167 0 0 0 0 0 0 0 0 0 0 0 0 
154 154 154 127 127 127 116 116 116 116 116 116 116 116 116 127 127 127 143 143 143 127 127 127 143 143 143 127 127 127 116 116 116 180 180 180 0 0 0 0 0 0 0 0 0 0 0 0 
167 167 167 167 167 167 180 180 180 180 180 180 167 167 167 167 167 167 167 167 167 180 180 180 154 154 154 154 154 154 167 167 167 167 167 167 0 0 0 0 0 0 0 0 0 0 0 0 
0 0 0 0 0 0 0 0 0 0 0 0 0 0 0 0 0 0 0 0 0 0 0 0 0 0 0 0 0 0 0 0 0 0 0 0 0 0 0 0 0 0 0 0 0 0 0 0 
0 0 0 0 0 0 0 0 0 0 0 0 0 0 0 0 0 0 0 0 0 0 0 0 0 0 0 0 0 0 0 0 0 0 0 0 0 0 0 0 0 0 0 0 0 0 0 0 
0 0 0 0 0 0 0 0 0 0 0 0 0 0 0 0 0 0 0 0 0 0 0 0 0 0 0 0 0 0 0 0 0 0 0 0 0 0 0 0 0 0 0 0 0 0 0 0 
0 0 0 0 0 0 0 0 0 0 0 0 0 0 0 0 0 0 0 0 0 0 0 0 0 0 0 0 0 0 0 0 0 0 0 0 0 0 0 0 0 0 0 0 0 0 0 0 
