P3
16 16
255
146 153 171 146 153 171 124 130 147 146 153 171 146 153 171 124 130 147 124 130 147 146 153 171 61 63 67 61 63 67 61 63 67 49 52 54 49 52 54 61 63 67 49 52 54 49 52 54 
146 153 171 78 82 89 61 63 67 61 63 67 78 82 89 78 82 89 78 82 89 124 130 147 61 63 67 94 101 111 78 82 89 78 82 89 94 101 111 94 101 111 78 82 89 41 41 41 
146 153 171 61 63 67 146 153 171 146 153 171 146 153 171 124 130 147 61 63 67 94 101 111 61 63 67 78 82 89 61 63 67 61 63 67 61 63 67 61 63 67 49 52 54 41 41 41 
146 153 171 78 82 89 146 153 171 124 130 147 124 130 147 94 101 111 49 52 54 124 130 147 49 52 54 94 101 111 61 63 67 32 32 32 32 32 32 61 63 67 49 52 54 41 41 41 
124 130 147 78 82 89 146 153 171 124 130 147 94 101 111 78 82 89 41 41 41 94 101 111 49 52 54 94 101 111 61 63 67 32 32 32 41 41 41 61 63 67 49 52 54 41 41 41 
146 153 171 78 82 89 94 101 111 78 82 89 78 82 89 78 82 89 49 52 54 94 101 111 61 63 67 78 82 89 61 63 67 61 63 67 61 63 67 61 63 67 49 52 54 41 41 41 
124 130 147 61 63 67 49 52 54 41 41 41 49 52 54 41 41 41 41 41 41 94 101 111 49 52 54 61 63 67 49 52 54 49 52 54 49 52 54 49 52 54 49 52 54 41 41 41 
94 101 111 94 101 111 124 130 147 94 101 111 124 130 147 94 101 111 94 101 111 94 101 111 41 41 41 41 41 41 41 41 41 41 41 41 41 41 41 41 41 41 32 32 32 32 32 32 
146 153 171 146 153 171 146 153 171 124 130 147 146 153 171 124 130 147 146 153 171 124 130 147 0 0 0 0 0 0 0 0 0 0 0 0 0 0 0 0 0 0 0 0 0 0 0 0 
146 153 171 124 130 147 61 63 67 61 63 67 78 82 89 61 63 67 124 130 147 94 101 111 0 0 0 0 0 0 0 0 0 0 0 0 0 0 0 0 0 0 0 0 0 0 0 0 
146 153 171 124 130 147 61 63 67 32 32 32 32 32 32 78 82 89 94 101 111 78 82 89 0 0 0 0 0 0 0 0 0 0 0 0 0 0 0 0 0 0 0 0 0 0 0 0 
146 153 171 94 101 111 61 63 67 32 32 32 32 32 32 124 130 147 94 101 111 78 82 89 0 0 0 0 0 0 0 0 0 0 0 0 0 0 0 0 0 0 0 0 0 0 0 0 
124 130 147 94 101 111 61 63 67 32 32 32 41 41 41 146 153 171 94 101 111 78 82 89 0 0 0 0 0 0 0 0 0 0 0 0 0 0 0 0 0 0 0 0 0 0 0 0 
124 130 147 94 101 111 78 82 89 32 32 32 41 41 41 146 153 171 94 101 111 61 63 67 0 0 0 0 0 0 0 0 0 0 0 0 0 0 0 0 0 0 0 0 0 0 0 0 
94 101 111 78 82 89 94 101 111 124 130 147 146 153 171 146 153 171 78 82 89 61 63 67 0 0 0 0 0 0 0 0 0 0 0 0 0 0 0 0 0 0 0 0 0 0 0 0 
78 82 89 61 63 67 61 63 67 78 82 89 78 82 89 61 63 67 61 63 67 41 41 41 0 0 0 0 0 0 0 0 0 0 0 0 0 0 0 0 0 0 0 0 0 0 0 0 
