P3
16 16
255
250 171 28 250 171 28 250 171 28 250 171 28 253 193 52 253 193 52 250 171 28 253 193 52 250 171 28 247 153 9 235 127 17 247 153 9 250 171 28 250 171 28 253 193 52 253 193 52 
250 171 28 253 193 52 253 193 52 247 153 9 247 153 9 247 153 9 235 127 17 247 153 9 247 153 9 235 127 17 235 127 17 235 127 17 247 153 9 235 127 17 250 171 28 253 193 52 
253 193 52 253 193 52 253 193 52 247 153 9 247 153 9 235 127 17 235 127 17 235 127 17 235 127 17 228 117 3 247 153 9 235 127 17 247 153 9 247 153 9 247 153 9 250 171 28 
253 193 52 235 127 17 247 153 9 247 153 9 247 153 9 235 127 17 228 117 3 228 117 3 235 127 17 247 153 9 247 153 9 235 127 17 235 127 17 235 127 17 247 153 9 247 153 9 
250 171 28 247 153 9 235 127 17 235 127 17 235 127 17 235 127 17 228 117 3 228 117 3 228 117 3 235 127 17 235 127 17 235 127 17 235 127 17 247 153 9 247 153 9 235 127 17 
253 193 52 247 153 9 235 127 17 228 117 3 228 117 3 228 117 3 228 117 3 228 117 3 228 117 3 228 117 3 228 117 3 235 127 17 235 127 17 247 153 9 250 171 28 247 153 9 
250 171 28 235 127 17 235 127 17 228 117 3 228 117 3 228 117 3 228 117 3 228 117 3 235 127 17 247 153 9 228 117 3 247 153 9 235 127 17 247 153 9 250 171 28 247 153 9 
250 171 28 235 127 17 247 153 9 228 117 3 235 127 17 235 127 17 228 117 3 228 117 3 228 117 3 235 127 17 228 117 3 235 127 17 235 127 17 250 171 28 250 171 28 235 127 17 
247 153 9 235 127 17 235 127 17 235 127 17 247 153 9 247 153 9 235 127 17 228 117 3 228 117 3 228 117 3 228 117 3 235 127 17 247 153 9 250 171 28 250 171 28 235 127 17 
250 171 28 235 127 17 235 127 17 228 117 3 247 153 9 235 127 17 228 117 3 228 117 3 228 117 3 235 127 17 235 127 17 235 127 17 247 153 9 253 193 52 250 171 28 247 153 9 
247 153 9 247 153 9 235 127 17 228 117 3 235 127 17 228 117 3 228 117 3 228 117 3 228 117 3 235 127 17 235 127 17 250 171 28 250 171 28 253 193 52 250 171 28 247 153 9 
235 127 17 235 127 17 235 127 17 228 117 3 235 127 17 235 127 17 228 117 3 235 127 17 235 127 17 247 153 9 247 153 9 250 171 28 250 171 28 253 193 52 247 153 9 235 127 17 
247 153 9 235 127 17 247 153 9 235 127 17 235 127 17 235 127 17 228 117 3 235 127 17 235 127 17 247 153 9 250 171 28 250 171 28 253 193 52 250 171 28 247 153 9 235 127 17 
250 171 28 247 153 9 250 171 28 247 153 9 235 127 17 247 153 9 247 153 9 250 171 28 250 171 28 250 171 28 253 193 52 253 193 52 253 193 52 247 153 9 235 127 17 235 127 17 
253 193 52 250 171 28 253 193 52 250 171 28 247 153 9 247 153 9 247 153 9 247 153 9 247 153 9 250 171 28 250 171 28 250 171 28 247 153 9 235 127 17 235 127 17 247 153 9 
253 193 52 253 193 52 250 171 28 247 153 9 250 171 28 250 171 28 250 171 28 235 127 17 235 127 17 247 153 9 247 153 9 247 153 9 235 127 17 235 127 17 247 153 9 250 171 28 
