P3
16 16
255
250 171 28 250 171 28 250 171 28 253 193 52 248 227 138 248 227 138 246 219 112 255 206 93 255 206 93 253 193 52 253 193 52 250 171 28 247 153 9 247 153 9 253 193 52 253 193 52 
250 171 28 253 193 52 253 193 52 246 219 112 246 219 112 246 219 112 246 219 112 255 206 93 255 206 93 246 219 112 255 206 93 253 193 52 250 171 28 250 171 28 250 171 28 250 171 28 
253 193 52 250 171 28 255 206 93 246 219 112 246 219 112 255 206 93 255 206 93 246 219 112 255 206 93 253 193 52 253 193 52 250 171 28 250 171 28 247 153 9 247 153 9 253 193 52 
250 171 28 255 206 93 255 206 93 246 219 112 253 193 52 250 171 28 253 193 52 255 206 93 255 206 93 253 193 52 253 193 52 250 171 28 247 153 9 247 153 9 247 153 9 250 171 28 
250 171 28 253 193 52 253 193 52 255 206 93 250 171 28 250 171 28 250 171 28 250 171 28 247 153 9 250 171 28 247 153 9 247 153 9 247 153 9 250 171 28 247 153 9 247 153 9 
250 171 28 253 193 52 253 193 52 250 171 28 250 171 28 247 153 9 247 153 9 247 153 9 247 153 9 247 153 9 250 171 28 255 206 93 255 206 93 253 193 52 250 171 28 247 153 9 
247 153 9 250 171 28 250 171 28 250 171 28 250 171 28 250 171 28 250 171 28 247 153 9 250 171 28 253 193 52 255 206 93 255 206 93 255 206 93 253 193 52 253 193 52 250 171 28 
250 171 28 247 153 9 250 171 28 253 193 52 255 206 93 255 206 93 255 206 93 253 193 52 250 171 28 255 206 93 253 193 52 250 171 28 247 153 9 247 153 9 250 171 28 253 193 52 
253 193 52 250 171 28 250 171 28 250 171 28 253 193 52 255 206 93 255 206 93 253 193 52 253 193 52 250 171 28 247 153 9 247 153 9 250 171 28 253 193 52 253 193 52 253 193 52 
250 171 28 253 193 52 250 171 28 247 153 9 247 153 9 247 153 9 247 153 9 250 171 28 250 171 28 250 171 28 253 193 52 253 193 52 246 219 112 248 227 138 248 227 138 246 219 112 
255 206 93 253 193 52 253 193 52 253 193 52 253 193 52 250 171 28 247 153 9 247 153 9 247 153 9 250 171 28 250 171 28 246 219 112 248 227 138 248 227 138 246 219 112 246 219 112 
246 219 112 255 206 93 255 206 93 253 193 52 253 193 52 253 193 52 253 193 52 250 171 28 250 171 28 250 171 28 246 219 112 246 219 112 246 219 112 255 206 93 255 206 93 246 219 112 
246 219 112 246 219 112 255 206 93 255 206 93 246 219 112 246 219 112 246 219 112 253 193 52 255 206 93 255 206 93 255 206 93 255 206 93 253 193 52 253 193 52 255 206 93 246 219 112 
246 219 112 246 219 112 246 219 112 255 206 93 255 206 93 246 219 112 246 219 112 246 219 112 255 206 93 253 193 52 255 206 93 253 193 52 253 193 52 253 193 52 255 206 93 255 206 93 
255 206 93 246 219 112 246 219 112 253 193 52 253 193 52 255 206 93 255 206 93 255 206 93 253 193 52 250 171 28 250 171 28 250 171 28 250 171 28 253 193 52 253 193 52 255 206 93 
255 206 93 255 206 93 253 193 52 250 171 28 253 193 52 255 206 93 255 206 93 253 193 52 250 171 28 250 171 28 250 171 28 247 153 9 247 153 9 247 153 9 247 153 9 250 171 28 
