P3
16 16
255
0 0 0 0 0 0 0 0 0 0 0 0 0 0 0 0 0 0 0 0 0 0 0 0 0 0 0 0 0 0 0 0 0 0 0 0 0 0 0 0 0 0 0 0 0 0 0 0 
0 0 0 0 0 0 0 0 0 0 0 0 0 0 0 0 0 0 0 0 0 0 0 0 0 0 0 0 0 0 0 0 0 0 0 0 0 0 0 0 0 0 0 0 0 0 0 0 
0 0 0 0 0 0 0 0 0 0 0 0 0 0 0 0 0 0 0 0 0 0 0 0 0 0 0 0 0 0 0 0 0 0 0 0 0 0 0 0 0 0 0 0 0 0 0 0 
0 0 0 0 0 0 0 0 0 0 0 0 0 0 0 0 0 0 0 0 0 0 0 0 0 0 0 0 0 0 0 0 0 0 0 0 0 0 0 0 0 0 0 0 0 0 0 0 
0 0 0 0 0 0 0 0 0 0 0 0 0 0 0 0 0 0 0 0 0 0 0 0 0 0 0 0 0 0 0 0 0 0 0 0 0 0 0 0 0 0 0 0 0 0 0 0 
0 0 0 0 0 0 0 0 0 0 0 0 0 0 0 0 0 0 0 0 0 0 0 0 0 0 0 0 0 0 0 0 0 0 0 0 0 0 0 0 0 0 0 0 0 0 0 0 
0 0 0 0 0 0 0 0 0 0 0 0 0 0 0 0 0 0 0 0 0 0 0 0 190 160 53 0 0 0 0 0 0 0 0 0 0 0 0 0 0 0 0 0 0 0 0 0 
0 0 0 0 0 0 0 0 0 182 137 48 190 160 53 0 0 0 0 0 0 209 179 65 213 203 62 190 160 53 0 0 0 190 160 53 0 0 0 0 0 0 0 0 0 0 0 0 
0 0 0 0 0 0 0 0 0 0 0 0 190 160 53 209 179 65 0 0 0 213 203 62 237 236 76 0 0 0 0 0 0 209 179 65 190 160 53 0 0 0 0 0 0 0 0 0 
0 0 0 190 160 53 190 160 53 0 0 0 209 179 65 213 203 62 0 0 0 209 179 65 237 236 76 209 179 65 0 0 0 209 179 65 209 179 65 0 0 0 190 160 53 0 0 0 
213 203 62 209 179 65 0 0 0 190 160 53 213 203 62 237 236 76 209 179 65 0 0 0 213 203 62 213 203 62 0 0 0 213 203 62 209 179 65 0 0 0 209 179 65 190 160 53 
209 179 65 237 236 76 0 0 0 0 0 0 209 179 65 237 236 76 0 0 0 209 179 65 213 203 62 0 0 0 209 179 65 237 236 76 209 179 65 0 0 0 213 203 62 209 179 65 
0 0 0 213 203 62 237 236 76 0 0 0 190 160 53 213 203 62 237 236 76 213 203 62 209 179 65 0 0 0 237 236 76 213 203 62 0 0 0 209 179 65 213 203 62 213 203 62 
190 160 53 0 0 0 213 203 62 209 179 65 0 0 0 213 203 62 213 203 62 209 179 65 0 0 0 209 179 65 213 203 62 209 179 65 0 0 0 213 203 62 237 236 76 209 179 65 
209 179 65 0 0 0 209 179 65 190 160 53 0 0 0 190 160 53 209 179 65 190 160 53 182 137 48 190 160 53 182 137 48 190 160 53 0 0 0 190 160 53 213 203 62 0 0 0 
0 0 0 213 203 62 190 160 53 182 137 48 190 160 53 0 0 0 190 160 53 190 160 53 182 137 48 182 137 48 190 160 53 209 179 65 190 160 53 0 0 0 190 160 53 0 0 0 
