P3
16 16
255
0 0 0 0 0 0 112 109 112 136 135 135 0 0 0 136 135 135 112 109 112 152 153 152 0 0 0 183 185 183 152 153 152 183 185 183 183 185 183 112 109 112 112 109 112 136 135 135 
152 153 152 152 153 152 112 109 112 136 135 135 0 0 0 136 135 135 152 153 152 136 135 135 152 153 152 152 153 152 183 185 183 183 185 183 0 0 0 136 135 135 136 135 135 112 109 112 
183 185 183 136 135 135 152 153 152 152 153 152 0 0 0 0 0 0 152 153 152 152 153 152 136 135 135 0 0 0 0 0 0 0 0 0 0 0 0 0 0 0 136 135 135 183 185 183 
136 135 135 183 185 183 152 153 152 152 153 152 0 0 0 0 0 0 136 135 135 136 135 135 0 0 0 0 0 0 0 0 0 136 135 135 152 153 152 169 139 34 0 0 0 183 185 183 
183 185 183 152 153 152 152 153 152 0 0 0 136 135 135 136 135 135 112 109 112 136 135 135 0 0 0 0 0 0 136 135 135 169 139 34 222 194 95 222 194 95 136 135 135 152 153 152 
152 153 152 0 0 0 0 0 0 152 153 152 152 153 152 112 109 112 136 135 135 0 0 0 0 0 0 0 0 0 0 0 0 169 139 34 222 194 95 222 194 95 183 185 183 0 0 0 
0 0 0 0 0 0 183 185 183 183 185 183 136 135 135 152 153 152 0 0 0 0 0 0 136 135 135 136 135 135 136 135 135 0 0 0 152 153 152 183 185 183 136 135 135 183 185 183 
0 0 0 0 0 0 183 185 183 136 135 135 169 139 34 192 158 39 0 0 0 152 153 152 152 153 152 112 109 112 136 135 135 0 0 0 136 135 135 183 185 183 152 153 152 183 185 183 
0 0 0 136 135 135 183 185 183 189 155 38 236 220 165 225 200 112 183 185 183 183 185 183 136 135 135 152 153 152 0 0 0 0 0 0 0 0 0 183 185 183 183 185 183 183 185 183 
136 135 135 112 109 112 183 185 183 169 139 34 225 200 112 222 194 95 183 185 183 152 153 152 183 185 183 152 153 152 0 0 0 0 0 0 136 135 135 0 0 0 183 185 183 0 0 0 
136 135 135 136 135 135 136 135 135 169 139 34 222 194 95 222 194 95 152 153 152 136 135 135 183 185 183 0 0 0 0 0 0 136 135 135 112 109 112 152 153 152 152 153 152 152 153 152 
183 185 183 136 135 135 0 0 0 183 185 183 0 0 0 0 0 0 152 153 152 152 153 152 112 109 112 152 153 152 0 0 0 136 135 135 112 109 112 112 109 112 136 135 135 183 185 183 
183 185 183 183 185 183 0 0 0 0 0 0 0 0 0 152 153 152 0 0 0 152 153 152 152 153 152 136 135 135 0 0 0 0 0 0 0 0 0 136 135 135 183 185 183 152 153 152 
152 153 152 183 185 183 0 0 0 0 0 0 152 153 152 136 135 135 0 0 0 0 0 0 0 0 0 0 0 0 0 0 0 0 0 0 136 135 135 0 0 0 183 185 183 183 185 183 
152 153 152 183 185 183 0 0 0 0 0 0 152 153 152 112 109 112 152 153 152 0 0 0 0 0 0 0 0 0 183 185 183 183 185 183 136 135 135 152 153 152 0 0 0 183 185 183 
183 185 183 0 0 0 136 135 135 0 0 0 136 135 135 112 109 112 136 135 135 152 153 152 0 0 0 152 153 152 183 185 183 152 153 152 183 185 183 152 153 152 136 135 135 0 0 0 
