P3
16 16
255
0 0 0 0 0 0 150 116 65 81 61 36 0 0 0 0 0 0 0 0 0 0 0 0 0 0 0 0 0 0 0 0 0 0 0 0 150 116 65 81 61 36 0 0 0 0 0 0 
0 0 0 126 98 55 181 141 80 126 98 55 150 116 65 181 141 80 150 116 65 181 141 80 181 141 80 181 141 80 181 141 80 150 116 65 181 141 80 126 98 55 181 141 80 0 0 0 
0 0 0 103 80 44 126 98 55 103 80 44 81 61 36 103 80 44 103 80 44 103 80 44 103 80 44 103 80 44 103 80 44 81 61 36 126 98 55 103 80 44 103 80 44 0 0 0 
0 0 0 0 0 0 81 61 36 58 47 30 0 0 0 0 0 0 0 0 0 0 0 0 0 0 0 0 0 0 0 0 0 0 0 0 81 61 36 58 47 30 0 0 0 0 0 0 
0 0 0 0 0 0 150 116 65 81 61 36 0 0 0 0 0 0 0 0 0 0 0 0 0 0 0 0 0 0 0 0 0 0 0 0 150 116 65 81 61 36 0 0 0 0 0 0 
0 0 0 181 141 80 181 141 80 126 98 55 150 116 65 181 141 80 181 141 80 181 141 80 150 116 65 181 141 80 150 116 65 150 116 65 181 141 80 126 98 55 181 141 80 0 0 0 
0 0 0 103 80 44 126 98 55 103 80 44 81 61 36 103 80 44 103 80 44 103 80 44 103 80 44 103 80 44 103 80 44 81 61 36 126 98 55 103 80 44 103 80 44 0 0 0 
0 0 0 0 0 0 81 61 36 58 47 30 0 0 0 0 0 0 0 0 0 0 0 0 0 0 0 0 0 0 0 0 0 0 0 0 81 61 36 58 47 30 0 0 0 0 0 0 
0 0 0 0 0 0 150 116 65 81 61 36 0 0 0 0 0 0 0 0 0 0 0 0 0 0 0 0 0 0 0 0 0 0 0 0 150 116 65 81 61 36 0 0 0 0 0 0 
0 0 0 181 141 80 181 141 80 126 98 55 150 116 65 181 141 80 181 141 80 181 141 80 181 141 80 181 141 80 181 141 80 150 116 65 181 141 80 126 98 55 126 98 55 0 0 0 
0 0 0 103 80 44 126 98 55 103 80 44 81 61 36 103 80 44 103 80 44 103 80 44 103 80 44 103 80 44 103 80 44 81 61 36 126 98 55 103 80 44 103 80 44 0 0 0 
0 0 0 0 0 0 81 61 36 58 47 30 0 0 0 0 0 0 0 0 0 0 0 0 0 0 0 0 0 0 0 0 0 0 0 0 81 61 36 58 47 30 0 0 0 0 0 0 
0 0 0 0 0 0 150 116 65 81 61 36 0 0 0 0 0 0 0 0 0 0 0 0 0 0 0 0 0 0 0 0 0 0 0 0 150 116 65 81 61 36 0 0 0 0 0 0 
0 0 0 181 141 80 181 141 80 126 98 55 150 116 65 181 141 80 150 116 65 181 141 80 181 141 80 181 141 80 181 141 80 150 116 65 181 141 80 126 98 55 181 141 80 0 0 0 
0 0 0 103 80 44 126 98 55 103 80 44 81 61 36 103 80 44 103 80 44 103 80 44 103 80 44 103 80 44 103 80 44 81 61 36 126 98 55 103 80 44 103 80 44 0 0 0 
0 0 0 0 0 0 81 61 36 58 47 30 0 0 0 0 0 0 0 0 0 0 0 0 0 0 0 0 0 0 0 0 0 0 0 0 81 61 36 58 47 30 0 0 0 0 0 0 
