P3
16 48
255
0 0 0 62 68 83 73 80 101 73 80 101 62 68 83 0 0 0 0 0 0 0 0 0 0 0 0 0 0 0 0 0 0 0 0 0 0 0 0 0 0 0 0 0 0 0 0 0 
0 0 0 139 82 48 129 64 35 129 64 35 139 82 48 0 0 0 0 0 0 0 0 0 0 0 0 0 0 0 0 0 0 73 80 101 62 68 83 62 68 83 0 0 0 0 0 0 
62 68 83 73 80 101 73 80 101 73 80 101 73 80 101 62 68 83 0 0 0 0 0 0 0 0 0 0 0 0 0 0 0 62 68 83 0 0 0 37 44 61 0 0 0 0 0 0 
129 64 35 195 99 34 240 145 73 240 145 73 195 99 34 129 64 35 0 0 0 0 0 0 0 0 0 0 0 0 0 0 0 62 68 83 0 0 0 37 44 61 0 0 0 0 0 0 
139 82 48 240 145 73 249 201 102 249 201 102 240 145 73 139 82 48 0 0 0 0 0 0 0 0 0 0 0 0 0 0 0 37 44 61 62 68 83 37 44 61 0 0 0 0 0 0 
139 82 48 249 201 102 255 255 213 253 253 139 249 201 102 139 82 48 0 0 0 0 0 0 0 0 0 0 0 0 0 0 0 0 0 0 0 0 0 0 0 0 0 0 0 0 0 0 
139 82 48 249 201 102 253 253 139 255 255 213 249 201 102 139 82 48 0 0 0 0 0 0 0 0 0 0 0 0 0 0 0 62 68 83 0 0 0 37 44 61 0 0 0 0 0 0 
129 64 35 240 145 73 249 201 102 249 201 102 240 145 73 129 64 35 0 0 0 0 0 0 0 0 0 0 0 0 0 0 0 37 44 61 62 68 83 37 44 61 0 0 0 0 0 0 
62 68 83 73 80 101 73 80 101 73 80 101 73 80 101 62 68 83 0 0 0 0 0 0 0 0 0 0 0 0 0 0 0 0 0 0 0 0 0 0 0 0 0 0 0 0 0 0 
62 68 83 62 68 83 66 74 94 66 74 94 62 68 83 62 68 83 0 0 0 0 0 0 0 0 0 0 0 0 0 0 0 0 0 0 0 0 0 0 0 0 0 0 0 0 0 0 
62 68 83 66 74 94 73 80 101 73 80 101 66 74 94 62 68 83 0 0 0 0 0 0 0 0 0 0 0 0 0 0 0 73 80 101 62 68 83 62 68 83 0 0 0 0 0 0 
66 74 94 73 80 101 73 80 101 73 80 101 73 80 101 66 74 94 0 0 0 0 0 0 0 0 0 0 0 0 0 0 0 62 68 83 0 0 0 37 44 61 0 0 0 0 0 0 
66 74 94 73 80 101 73 80 101 73 80 101 73 80 101 66 74 94 0 0 0 0 0 0 0 0 0 0 0 0 0 0 0 0 0 0 0 0 0 0 0 0 0 0 0 0 0 0 
62 68 83 66 74 94 73 80 101 73 80 101 66 74 94 62 68 83 0 0 0 0 0 0 0 0 0 0 0 0 0 0 0 0 0 0 0 0 0 0 0 0 0 0 0 0 0 0 
62 68 83 62 68 83 66 74 94 66 74 94 62 68 83 62 68 83 0 0 0 0 0 0 0 0 0 0 0 0 0 0 0 0 0 0 0 0 0 0 0 0 0 0 0 0 0 0 
0 0 0 0 0 0 0 0 0 0 0 0 0 0 0 0 0 0 0 0 0 0 0 0 0 0 0 0 0 0 0 0 0 0 0 0 0 0 0 0 0 0 0 0 0 0 0 0 
0 0 0 62 68 83 73 80 101 73 80 101 62 68 83 0 0 0 0 0 0 0 0 0 0 0 0 0 0 0 0 0 0 0 0 0 0 0 0 0 0 0 0 0 0 0 0 0 
0 0 0 139 82 48 129 64 35 129 64 35 139 82 48 0 0 0 0 0 0 0 0 0 0 0 0 0 0 0 0 0 0 73 80 101 62 68 83 62 68 83 0 0 0 0 0 0 
62 68 83 73 80 101 73 80 101 73 80 101 73 80 101 62 68 83 0 0 0 0 0 0 0 0 0 0 0 0 0 0 0 62 68 83 0 0 0 37 44 61 0 0 0 0 0 0 
129 64 35 189 95 31 236 129 68 236 129 68 189 95 31 129 64 35 0 0 0 0 0 0 0 0 0 0 0 0 0 0 0 62 68 83 0 0 0 37 44 61 0 0 0 0 0 0 
139 82 48 236 129 68 246 197 98 246 197 98 236 129 68 139 82 48 0 0 0 0 0 0 0 0 0 0 0 0 0 0 0 37 44 61 62 68 83 37 44 61 0 0 0 0 0 0 
139 82 48 246 197 98 255 255 213 248 248 127 246 197 98 139 82 48 0 0 0 0 0 0 0 0 0 0 0 0 0 0 0 0 0 0 0 0 0 0 0 0 0 0 0 0 0 0 
139 82 48 246 197 98 248 248 127 255 255 213 246 197 98 139 82 48 0 0 0 0 0 0 0 0 0 0 0 0 0 0 0 62 68 83 0 0 0 37 44 61 0 0 0 0 0 0 
129 64 35 239 132 71 246 197 98 246 197 98 239 132 71 129 64 35 0 0 0 0 0 0 0 0 0 0 0 0 0 0 0 37 44 61 62 68 83 37 44 61 0 0 0 0 0 0 
62 68 83 73 80 101 73 80 101 73 80 101 73 80 101 62 68 83 0 0 0 0 0 0 0 0 0 0 0 0 0 0 0 0 0 0 0 0 0 0 0 0 0 0 0 0 0 0 
62 68 83 62 68 83 66 74 94 66 74 94 62 68 83 62 68 83 0 0 0 0 0 0 0 0 0 0 0 0 0 0 0 0 0 0 0 0 0 0 0 0 0 0 0 0 0 0 
62 68 83 66 74 94 73 80 101 73 80 101 66 74 94 62 68 83 0 0 0 0 0 0 0 0 0 0 0 0 0 0 0 73 80 101 62 68 83 62 68 83 0 0 0 0 0 0 
66 74 94 73 80 101 73 80 101 73 80 101 73 80 101 66 74 94 0 0 0 0 0 0 0 0 0 0 0 0 0 0 0 62 68 83 0 0 0 37 44 61 0 0 0 0 0 0 
66 74 94 73 80 101 73 80 101 73 80 101 73 80 101 66 74 94 0 0 0 0 0 0 0 0 0 0 0 0 0 0 0 0 0 0 0 0 0 0 0 0 0 0 0 0 0 0 
62 68 83 66 74 94 73 80 101 73 80 101 66 74 94 62 68 83 0 0 0 0 0 0 0 0 0 0 0 0 0 0 0 0 0 0 0 0 0 0 0 0 0 0 0 0 0 0 
62 68 83 62 68 83 66 74 94 66 74 94 62 68 83 62 68 83 0 0 0 0 0 0 0 0 0 0 0 0 0 0 0 0 0 0 0 0 0 0 0 0 0 0 0 0 0 0 
0 0 0 0 0 0 0 0 0 0 0 0 0 0 0 0 0 0 0 0 0 0 0 0 0 0 0 0 0 0 0 0 0 0 0 0 0 0 0 0 0 0 0 0 0 0 0 0 
0 0 0 62 68 83 73 80 101 73 80 101 62 68 83 0 0 0 0 0 0 0 0 0 0 0 0 0 0 0 0 0 0 0 0 0 0 0 0 0 0 0 0 0 0 0 0 0 
0 0 0 139 82 48 129 64 35 129 64 35 139 82 48 0 0 0 0 0 0 0 0 0 0 0 0 0 0 0 0 0 0 73 80 101 62 68 83 62 68 83 0 0 0 0 0 0 
62 68 83 73 80 101 73 80 101 73 80 101 73 80 101 62 68 83 0 0 0 0 0 0 0 0 0 0 0 0 0 0 0 62 68 83 0 0 0 37 44 61 0 0 0 0 0 0 
129 64 35 186 92 28 236 129 68 236 129 68 186 92 28 129 64 35 0 0 0 0 0 0 0 0 0 0 0 0 0 0 0 62 68 83 0 0 0 37 44 61 0 0 0 0 0 0 
139 82 48 236 129 68 243 192 89 243 192 89 236 129 68 139 82 48 0 0 0 0 0 0 0 0 0 0 0 0 0 0 0 37 44 61 62 68 83 37 44 61 0 0 0 0 0 0 
139 82 48 243 192 89 255 255 213 248 248 127 243 192 89 139 82 48 0 0 0 0 0 0 0 0 0 0 0 0 0 0 0 0 0 0 0 0 0 0 0 0 0 0 0 0 0 0 
139 82 48 243 192 89 248 248 127 255 255 213 243 192 89 139 82 48 0 0 0 0 0 0 0 0 0 0 0 0 0 0 0 62 68 83 0 0 0 37 44 61 0 0 0 0 0 0 
129 64 35 236 129 68 243 192 89 243 192 89 236 129 68 129 64 35 0 0 0 0 0 0 0 0 0 0 0 0 0 0 0 37 44 61 62 68 83 37 44 61 0 0 0 0 0 0 
62 68 83 73 80 101 73 80 101 73 80 101 73 80 101 62 68 83 0 0 0 0 0 0 0 0 0 0 0 0 0 0 0 0 0 0 0 0 0 0 0 0 0 0 0 0 0 0 
62 68 83 62 68 83 66 74 94 66 74 94 62 68 83 62 68 83 0 0 0 0 0 0 0 0 0 0 0 0 0 0 0 0 0 0 0 0 0 0 0 0 0 0 0 0 0 0 
62 68 83 66 74 94 73 80 101 73 80 101 66 74 94 62 68 83 0 0 0 0 0 0 0 0 0 0 0 0 0 0 0 73 80 101 62 68 83 62 68 83 0 0 0 0 0 0 
66 74 94 73 80 101 73 80 101 73 80 101 73 80 101 66 74 94 0 0 0 0 0 0 0 0 0 0 0 0 0 0 0 62 68 83 0 0 0 37 44 61 0 0 0 0 0 0 
66 74 94 73 80 101 73 80 101 73 80 101 73 80 101 66 74 94 0 0 0 0 0 0 0 0 0 0 0 0 0 0 0 0 0 0 0 0 0 0 0 0 0 0 0 0 0 0 
62 68 83 66 74 94 73 80 101 73 80 101 66 74 94 62 68 83 0 0 0 0 0 0 0 0 0 0 0 0 0 0 0 0 0 0 0 0 0 0 0 0 0 0 0 0 0 0 
62 68 83 62 68 83 66 74 94 66 74 94 62 68 83 62 68 83 0 0 0 0 0 0 0 0 0 0 0 0 0 0 0 0 0 0 0 0 0 0 0 0 0 0 0 0 0 0 
0 0 0 0 0 0 0 0 0 0 0 0 0 0 0 0 0 0 0 0 0 0 0 0 0 0 0 0 0 0 0 0 0 0 0 0 0 0 0 0 0 0 0 0 0 0 0 0 
