P3
16 16
255
0 0 0 0 0 0 0 0 0 182 107 178 211 128 211 182 107 178 0 0 0 23 124 4 82 154 46 0 0 0 0 0 0 182 107 178 211 128 211 211 128 211 0 0 0 0 0 0 
0 0 0 0 0 0 0 0 0 182 107 178 23 124 4 158 97 159 0 0 0 85 171 45 74 143 40 0 0 0 158 97 159 211 128 211 222 147 241 0 0 0 0 0 0 0 0 0 
0 0 0 0 0 0 0 0 0 0 0 0 158 97 159 23 124 4 85 171 45 82 154 46 23 124 4 74 143 40 23 124 4 158 97 159 0 0 0 0 0 0 0 0 0 0 0 0 
0 0 0 0 0 0 0 0 0 0 0 0 0 0 0 0 0 0 211 128 211 222 147 241 74 143 40 0 0 0 158 97 159 0 0 0 0 0 0 0 0 0 0 0 0 0 0 0 
0 0 0 0 0 0 0 0 0 0 0 0 0 0 0 0 0 0 182 107 178 158 97 159 182 107 178 0 0 0 0 0 0 0 0 0 0 0 0 0 0 0 0 0 0 0 0 0 
0 0 0 0 0 0 0 0 0 0 0 0 0 0 0 0 0 0 0 0 0 158 97 159 158 97 159 0 0 0 0 0 0 182 107 178 211 128 211 222 147 241 211 128 211 0 0 0 
0 0 0 0 0 0 0 0 0 0 0 0 211 128 211 222 147 241 0 0 0 0 0 0 74 143 40 0 0 0 23 124 4 158 97 159 182 107 178 211 128 211 0 0 0 0 0 0 
0 0 0 0 0 0 0 0 0 0 0 0 182 107 178 23 124 4 182 107 178 0 0 0 85 171 45 23 124 4 158 97 159 158 97 159 0 0 0 0 0 0 0 0 0 0 0 0 
0 0 0 211 128 211 211 128 211 182 107 178 0 0 0 158 97 159 74 143 40 74 143 40 82 154 46 0 0 0 0 0 0 0 0 0 0 0 0 0 0 0 0 0 0 0 0 0 
211 128 211 211 128 211 222 147 241 158 97 159 23 124 4 0 0 0 0 0 0 85 171 45 74 143 40 0 0 0 0 0 0 0 0 0 0 0 0 0 0 0 0 0 0 0 0 0 
0 0 0 0 0 0 182 107 178 182 107 178 158 97 159 23 124 4 74 143 40 85 171 45 0 0 0 0 0 0 0 0 0 0 0 0 0 0 0 0 0 0 0 0 0 0 0 0 
0 0 0 0 0 0 0 0 0 0 0 0 158 97 159 158 97 159 0 0 0 82 154 46 0 0 0 0 0 0 182 107 178 211 128 211 211 128 211 0 0 0 0 0 0 0 0 0 
0 0 0 0 0 0 0 0 0 0 0 0 0 0 0 0 0 0 0 0 0 82 154 46 74 143 40 158 97 159 158 97 159 182 107 178 222 147 241 211 128 211 0 0 0 0 0 0 
0 0 0 0 0 0 0 0 0 0 0 0 0 0 0 0 0 0 0 0 0 74 143 40 23 124 4 23 124 4 158 97 159 0 0 0 0 0 0 0 0 0 0 0 0 0 0 0 
0 0 0 0 0 0 0 0 0 0 0 0 0 0 0 0 0 0 0 0 0 0 0 0 23 124 4 0 0 0 0 0 0 0 0 0 0 0 0 0 0 0 0 0 0 0 0 0 
0 0 0 0 0 0 0 0 0 0 0 0 0 0 0 0 0 0 0 0 0 0 0 0 23 124 4 0 0 0 0 0 0 0 0 0 0 0 0 0 0 0 0 0 0 0 0 0 
