P3
16 16
255
0 0 0 0 0 0 0 0 0 0 0 0 0 0 0 0 0 0 0 0 0 0 0 0 0 0 0 0 0 0 0 0 0 0 0 0 0 0 0 0 0 0 0 0 0 0 0 0 
0 0 0 0 0 0 0 0 0 0 0 0 0 0 0 0 0 0 0 0 0 0 0 0 0 0 0 0 0 0 0 0 0 0 0 0 0 0 0 0 0 0 0 0 0 0 0 0 
0 0 0 0 0 0 211 128 211 222 147 241 0 0 0 0 0 0 0 0 0 0 0 0 0 0 0 0 0 0 0 0 0 182 107 178 211 128 211 0 0 0 0 0 0 0 0 0 
0 0 0 0 0 0 182 107 178 211 128 211 182 107 178 0 0 0 0 0 0 0 0 0 0 0 0 0 0 0 222 147 241 211 128 211 182 107 178 0 0 0 0 0 0 0 0 0 
0 0 0 0 0 0 0 0 0 222 147 241 182 107 178 158 97 159 0 0 0 0 0 0 0 0 0 182 107 178 211 128 211 182 107 178 0 0 0 0 0 0 0 0 0 0 0 0 
0 0 0 0 0 0 0 0 0 0 0 0 158 97 159 182 107 178 0 0 0 0 0 0 0 0 0 158 97 159 182 107 178 0 0 0 0 0 0 0 0 0 0 0 0 0 0 0 
0 0 0 0 0 0 0 0 0 0 0 0 0 0 0 82 154 46 85 171 45 0 0 0 158 97 159 74 143 40 0 0 0 0 0 0 0 0 0 0 0 0 0 0 0 0 0 0 
0 0 0 0 0 0 0 0 0 0 0 0 0 0 0 0 0 0 74 143 40 23 124 4 74 143 40 0 0 0 0 0 0 0 0 0 0 0 0 0 0 0 0 0 0 0 0 0 
0 0 0 0 0 0 0 0 0 0 0 0 0 0 0 0 0 0 82 154 46 85 171 45 0 0 0 0 0 0 158 97 159 182 107 178 222 147 241 211 128 211 0 0 0 0 0 0 
0 0 0 211 128 211 222 147 241 211 128 211 0 0 0 0 0 0 0 0 0 85 171 45 0 0 0 74 143 40 23 124 4 222 147 241 182 107 178 0 0 0 0 0 0 0 0 0 
0 0 0 0 0 0 211 128 211 182 107 178 158 97 159 0 0 0 0 0 0 82 154 46 23 124 4 0 0 0 158 97 159 0 0 0 0 0 0 0 0 0 0 0 0 0 0 0 
0 0 0 0 0 0 0 0 0 158 97 159 23 124 4 158 97 159 0 0 0 211 128 211 74 143 40 0 0 0 0 0 0 0 0 0 211 128 211 211 128 211 0 0 0 0 0 0 
0 0 0 0 0 0 0 0 0 0 0 0 158 97 159 74 143 40 85 171 45 222 147 241 182 107 178 0 0 0 0 0 0 211 128 211 222 147 241 182 107 178 0 0 0 0 0 0 
0 0 0 0 0 0 0 0 0 0 0 0 0 0 0 0 0 0 0 0 0 182 107 178 158 97 159 0 0 0 158 97 159 23 124 4 158 97 159 0 0 0 0 0 0 0 0 0 
0 0 0 0 0 0 0 0 0 0 0 0 211 128 211 0 0 0 0 0 0 0 0 0 158 97 159 0 0 0 23 124 4 158 97 159 0 0 0 0 0 0 0 0 0 0 0 0 
0 0 0 0 0 0 0 0 0 211 128 211 222 147 241 0 0 0 0 0 0 0 0 0 85 171 45 82 154 46 0 0 0 0 0 0 0 0 0 0 0 0 0 0 0 0 0 0 
