P3
16 16
255
74 73 73 181 181 181 0 0 0 0 0 0 74 73 73 181 181 181 181 181 181 181 181 181 136 135 135 74 73 73 136 135 135 181 181 181 158 158 158 181 181 181 74 73 73 74 73 73 
74 73 73 74 73 73 0 0 0 109 106 106 74 73 73 109 106 106 181 181 181 0 0 0 136 135 135 74 73 73 136 135 135 181 181 181 181 181 181 181 181 181 74 73 73 109 106 106 
74 73 73 109 106 106 0 0 0 109 106 106 74 73 73 136 135 135 0 0 0 0 0 0 158 158 158 109 106 106 158 158 158 0 0 0 181 181 181 109 106 106 74 73 73 109 106 106 
74 73 73 109 106 106 0 0 0 136 135 135 109 106 106 136 135 135 0 0 0 0 0 0 158 158 158 136 135 135 74 73 73 0 0 0 0 0 0 109 106 106 109 106 106 136 135 135 
109 106 106 109 106 106 0 0 0 136 135 135 109 106 106 158 158 158 0 0 0 0 0 0 158 158 158 158 158 158 74 73 73 109 106 106 0 0 0 158 158 158 109 106 106 136 135 135 
74 73 73 0 0 0 109 106 106 136 135 135 158 158 158 158 158 158 0 0 0 109 106 106 74 73 73 136 135 135 109 106 106 109 106 106 0 0 0 181 181 181 109 106 106 158 158 158 
0 0 0 0 0 0 158 158 158 109 106 106 158 158 158 109 106 106 74 73 73 136 135 135 74 73 73 158 158 158 109 106 106 136 135 135 0 0 0 181 181 181 181 181 181 158 158 158 
109 106 106 0 0 0 158 158 158 136 135 135 136 135 135 109 106 106 74 73 73 109 106 106 109 106 106 181 181 181 109 106 106 136 135 135 74 73 73 109 106 106 181 181 181 109 106 106 
136 135 135 0 0 0 158 158 158 136 135 135 181 181 181 109 106 106 74 73 73 136 135 135 109 106 106 181 181 181 158 158 158 136 135 135 74 73 73 136 135 135 109 106 106 136 135 135 
158 158 158 0 0 0 158 158 158 181 181 181 181 181 181 109 106 106 109 106 106 136 135 135 109 106 106 181 181 181 181 181 181 158 158 158 109 106 106 158 158 158 109 106 106 158 158 158 
158 158 158 74 73 73 109 106 106 181 181 181 0 0 0 74 73 73 109 106 106 136 135 135 136 135 135 136 135 135 74 73 73 136 135 135 109 106 106 158 158 158 136 135 135 181 181 181 
158 158 158 74 73 73 136 135 135 74 73 73 0 0 0 0 0 0 109 106 106 0 0 0 136 135 135 74 73 73 74 73 73 158 158 158 158 158 158 181 181 181 136 135 135 181 181 181 
158 158 158 109 106 106 136 135 135 74 73 73 0 0 0 158 158 158 74 73 73 136 135 135 0 0 0 136 135 135 74 73 73 158 158 158 109 106 106 0 0 0 181 181 181 0 0 0 
181 181 181 109 106 106 158 158 158 0 0 0 109 106 106 158 158 158 109 106 106 136 135 135 0 0 0 136 135 135 109 106 106 136 135 135 109 106 106 109 106 106 0 0 0 0 0 0 
181 181 181 181 181 181 181 181 181 0 0 0 109 106 106 158 158 158 109 106 106 158 158 158 0 0 0 158 158 158 109 106 106 136 135 135 109 106 106 158 158 158 74 73 73 0 0 0 
158 158 158 181 181 181 158 158 158 0 0 0 109 106 106 181 181 181 158 158 158 181 181 181 0 0 0 158 158 158 136 135 135 158 158 158 109 106 106 158 158 158 74 73 73 0 0 0 
