P3
16 16
255
0 0 0 78 63 39 60 47 35 0 0 0 0 0 0 68 53 34 0 0 0 78 63 39 78 63 39 0 0 0 0 0 0 60 47 35 60 47 35 78 63 39 60 47 35 0 0 0 
90 72 44 90 72 44 78 63 39 0 0 0 0 0 0 60 47 35 60 47 35 90 72 44 90 72 44 60 47 35 0 0 0 0 0 0 78 63 39 90 72 44 78 63 39 60 47 35 
90 72 44 78 63 39 60 47 35 60 47 35 78 63 39 68 53 34 0 0 0 90 72 44 78 63 39 78 63 39 68 53 34 60 47 35 90 72 44 90 72 44 102 82 52 78 63 39 
60 47 35 60 47 35 0 0 0 78 63 39 78 63 39 0 0 0 0 0 0 0 0 0 0 0 0 68 53 34 68 53 34 60 47 35 78 63 39 60 47 35 60 47 35 0 0 0 
0 0 0 0 0 0 60 47 35 90 72 44 90 72 44 60 47 35 0 0 0 60 47 35 0 0 0 0 0 0 60 47 35 78 63 39 0 0 0 0 0 0 60 47 35 60 47 35 
78 63 39 78 63 39 90 72 44 90 72 44 78 63 39 68 53 34 0 0 0 60 47 35 60 47 35 78 63 39 90 72 44 78 63 39 0 0 0 0 0 0 0 0 0 60 47 35 
60 47 35 68 53 34 60 47 35 0 0 0 0 0 0 0 0 0 0 0 0 0 0 0 78 63 39 68 53 34 90 72 44 90 72 44 60 47 35 0 0 0 60 47 35 0 0 0 
60 47 35 0 0 0 0 0 0 60 47 35 0 0 0 78 63 39 60 47 35 0 0 0 90 72 44 78 63 39 0 0 0 60 47 35 78 63 39 68 53 34 68 53 34 0 0 0 
90 72 44 78 63 39 78 63 39 60 47 35 78 63 39 78 63 39 90 72 44 102 82 52 90 72 44 60 47 35 0 0 0 0 0 0 60 47 35 68 53 34 78 63 39 60 47 35 
90 72 44 90 72 44 60 47 35 0 0 0 60 47 35 0 0 0 78 63 39 90 72 44 90 72 44 0 0 0 0 0 0 0 0 0 0 0 0 78 63 39 90 72 44 0 0 0 
0 0 0 78 63 39 0 0 0 0 0 0 68 53 34 0 0 0 0 0 0 60 47 35 78 63 39 78 63 39 0 0 0 78 63 39 0 0 0 60 47 35 78 63 39 78 63 39 
90 72 44 90 72 44 90 72 44 78 63 39 68 53 34 68 53 34 0 0 0 0 0 0 78 63 39 60 47 35 0 0 0 90 72 44 78 63 39 0 0 0 78 63 39 68 53 34 
68 53 34 90 72 44 78 63 39 0 0 0 78 63 39 90 72 44 90 72 44 78 63 39 60 47 35 0 0 0 0 0 0 90 72 44 90 72 44 0 0 0 60 47 35 68 53 34 
0 0 0 0 0 0 68 53 34 68 53 34 90 72 44 90 72 44 102 82 52 90 72 44 78 63 39 60 47 35 0 0 0 90 72 44 78 63 39 78 63 39 60 47 35 60 47 35 
0 0 0 60 47 35 68 53 34 78 63 39 78 63 39 78 63 39 90 72 44 90 72 44 78 63 39 60 47 35 78 63 39 78 63 39 0 0 0 90 72 44 78 63 39 0 0 0 
0 0 0 60 47 35 78 63 39 60 47 35 0 0 0 78 63 39 0 0 0 60 47 35 78 63 39 0 0 0 0 0 0 78 63 39 0 0 0 78 63 39 78 63 39 0 0 0 
