P3
16 16
255
78 63 39 78 63 39 78 63 39 90 72 44 103 82 48 103 82 48 103 82 48 103 82 48 103 82 48 90 72 44 90 72 44 90 72 44 103 82 48 103 82 48 90 72 44 78 63 39 
78 63 39 68 53 34 78 63 39 78 63 39 78 63 39 90 72 44 103 82 48 103 82 48 78 63 39 78 63 39 68 53 34 68 53 34 60 47 35 60 47 35 68 53 34 68 53 34 
90 72 44 78 63 39 78 63 39 90 72 44 103 82 48 103 82 48 90 72 44 78 63 39 90 72 44 90 72 44 90 72 44 78 63 39 103 82 48 103 82 48 103 82 48 90 72 44 
78 63 39 78 63 39 78 63 39 78 63 39 78 63 39 68 53 34 68 53 34 68 53 34 78 63 39 90 72 44 103 82 48 103 82 48 90 72 44 78 63 39 68 53 34 68 53 34 
78 63 39 68 53 34 68 53 34 78 63 39 78 63 39 78 63 39 78 63 39 78 63 39 90 72 44 90 72 44 90 72 44 90 72 44 90 72 44 90 72 44 90 72 44 90 72 44 
103 82 48 103 82 48 90 72 44 78 63 39 90 72 44 90 72 44 90 72 44 78 63 39 78 63 39 78 63 39 78 63 39 103 82 48 103 82 48 78 63 39 78 63 39 90 72 44 
68 53 34 68 53 34 68 53 34 68 53 34 78 63 39 90 72 44 90 72 44 90 72 44 103 82 48 103 82 48 103 82 48 103 82 48 78 63 39 68 53 34 78 63 39 68 53 34 
60 47 35 68 53 34 90 72 44 90 72 44 90 72 44 90 72 44 78 63 39 68 53 34 68 53 34 68 53 34 78 63 39 78 63 39 68 53 34 78 63 39 68 53 34 60 47 35 
90 72 44 90 72 44 90 72 44 103 82 48 103 82 48 90 72 44 90 72 44 78 63 39 90 72 44 90 72 44 90 72 44 78 63 39 78 63 39 68 53 34 68 53 34 78 63 39 
68 53 34 68 53 34 78 63 39 78 63 39 78 63 39 90 72 44 103 82 48 103 82 48 103 82 48 103 82 48 103 82 48 90 72 44 90 72 44 90 72 44 60 47 35 60 47 35 
60 47 35 60 47 35 60 47 35 78 63 39 78 63 39 78 63 39 90 72 44 103 82 48 103 82 48 90 72 44 90 72 44 90 72 44 78 63 39 68 53 34 68 53 34 60 47 35 
78 63 39 78 63 39 78 63 39 90 72 44 90 72 44 90 72 44 103 82 48 68 53 34 68 53 34 90 72 44 90 72 44 103 82 48 90 72 44 90 72 44 90 72 44 90 72 44 
103 82 48 103 82 48 103 82 48 90 72 44 78 63 39 78 63 39 78 63 39 78 63 39 78 63 39 90 72 44 90 72 44 78 63 39 90 72 44 103 82 48 103 82 48 103 82 48 
103 82 48 103 82 48 90 72 44 78 63 39 68 53 34 68 53 34 78 63 39 78 63 39 78 63 39 78 63 39 103 82 48 78 63 39 78 63 39 78 63 39 90 72 44 90 72 44 
90 72 44 78 63 39 78 63 39 68 53 34 68 53 34 78 63 39 68 53 34 68 53 34 60 47 35 60 47 35 60 47 35 68 53 34 90 72 44 78 63 39 78 63 39 90 72 44 
78 63 39 78 63 39 103 82 48 90 72 44 78 63 39 90 72 44 90 72 44 90 72 44 78 63 39 78 63 39 90 72 44 90 72 44 90 72 44 90 72 44 78 63 39 78 63 39 
