P3
16 16
255
100 36 35 100 36 35 100 36 35 93 28 30 93 28 30 93 28 30 100 36 35 93 28 30 100 36 35 100 36 35 100 36 35 93 28 30 93 28 30 93 28 30 100 36 35 100 36 35 
93 28 30 117 49 54 139 77 58 139 77 58 139 77 58 148 84 64 148 84 64 148 84 64 148 84 64 148 84 64 148 84 64 139 77 58 139 77 58 139 77 58 117 49 54 100 36 35 
93 28 30 127 66 52 127 66 52 93 28 30 100 36 35 111 42 45 111 42 45 111 42 45 111 42 45 111 42 45 111 42 45 100 36 35 93 28 30 127 66 52 127 66 52 93 28 30 
93 28 30 139 77 58 93 28 30 100 36 35 119 57 52 127 66 52 139 77 58 139 77 58 139 77 58 139 77 58 127 66 52 119 57 52 100 36 35 93 28 30 139 77 58 93 28 30 
100 36 35 139 77 58 100 36 35 119 57 52 127 66 52 100 36 35 93 28 30 93 28 30 93 28 30 93 28 30 100 36 35 127 66 52 119 57 52 100 36 35 139 77 58 93 28 30 
100 36 35 139 77 58 111 42 45 119 57 52 100 36 35 93 28 30 0 0 0 0 0 0 0 0 0 0 0 0 93 28 30 100 36 35 119 57 52 111 42 45 127 66 52 100 36 35 
100 36 35 127 66 52 111 42 45 119 57 52 100 36 35 0 0 0 0 0 0 0 0 0 0 0 0 0 0 0 0 0 0 100 36 35 127 66 52 111 42 45 139 77 58 100 36 35 
100 36 35 127 66 52 111 42 45 127 66 52 100 36 35 0 0 0 0 0 0 0 0 0 0 0 0 0 0 0 0 0 0 111 42 45 127 66 52 111 42 45 139 77 58 100 36 35 
100 36 35 139 77 58 111 42 45 127 66 52 111 42 45 0 0 0 0 0 0 0 0 0 0 0 0 0 0 0 0 0 0 100 36 35 119 57 52 111 42 45 127 66 52 100 36 35 
100 36 35 139 77 58 111 42 45 119 57 52 100 36 35 0 0 0 0 0 0 0 0 0 0 0 0 0 0 0 0 0 0 100 36 35 119 57 52 111 42 45 127 66 52 100 36 35 
100 36 35 127 66 52 111 42 45 119 57 52 100 36 35 93 28 30 0 0 0 0 0 0 0 0 0 0 0 0 93 28 30 100 36 35 119 57 52 111 42 45 127 66 52 100 36 35 
100 36 35 127 66 52 100 36 35 119 57 52 119 57 52 100 36 35 100 36 35 100 36 35 100 36 35 100 36 35 100 36 35 119 57 52 119 57 52 100 36 35 139 77 58 100 36 35 
93 28 30 139 77 58 93 28 30 100 36 35 119 57 52 127 66 52 127 66 52 127 66 52 127 66 52 127 66 52 127 66 52 119 57 52 100 36 35 93 28 30 139 77 58 93 28 30 
93 28 30 127 66 52 111 42 45 93 28 30 93 28 30 111 42 45 100 36 35 100 36 35 100 36 35 100 36 35 111 42 45 93 28 30 93 28 30 111 42 45 127 66 52 93 28 30 
93 28 30 117 49 54 111 42 45 100 36 35 93 28 30 119 57 52 139 77 58 139 77 58 148 84 64 139 77 58 119 57 52 93 28 30 100 36 35 111 42 45 117 49 54 100 36 35 
100 36 35 93 28 30 93 28 30 93 28 30 93 28 30 93 28 30 93 28 30 93 28 30 93 28 30 93 28 30 93 28 30 93 28 30 93 28 30 93 28 30 93 28 30 100 36 35 
