P3
16 16
255
0 0 0 0 0 0 0 0 0 0 0 0 0 0 0 0 0 0 0 0 0 0 0 0 0 0 0 0 0 0 0 0 0 0 0 0 0 0 0 0 0 0 0 0 0 0 0 0 
0 0 0 0 0 0 0 0 0 0 0 0 0 0 0 0 0 0 0 0 0 0 0 0 0 0 0 0 0 0 0 0 0 0 0 0 0 0 0 0 0 0 0 0 0 0 0 0 
0 0 0 0 0 0 0 0 0 0 0 0 0 0 0 0 0 0 0 0 0 0 0 0 0 0 0 0 0 0 0 0 0 0 0 0 0 0 0 0 0 0 0 0 0 0 0 0 
0 0 0 0 0 0 0 0 0 0 0 0 0 0 0 0 0 0 0 0 0 0 0 0 0 0 0 0 0 0 0 0 0 0 0 0 0 0 0 0 0 0 0 0 0 0 0 0 
0 0 0 0 0 0 0 0 0 0 0 0 0 0 0 0 0 0 0 0 0 0 0 0 0 0 0 0 0 0 0 0 0 0 0 0 0 0 0 0 0 0 0 0 0 0 0 0 
0 0 0 0 0 0 0 0 0 0 0 0 0 0 0 0 0 0 0 0 0 0 0 0 0 0 0 0 0 0 0 0 0 0 0 0 0 0 0 0 0 0 0 0 0 0 0 0 
0 0 0 0 0 0 0 0 0 0 0 0 0 0 0 0 0 0 0 0 0 0 0 0 0 0 0 0 0 0 0 0 0 0 0 0 0 0 0 0 0 0 0 0 0 0 0 0 
0 0 0 0 0 0 0 0 0 0 0 0 0 0 0 0 0 0 0 0 0 0 0 0 0 0 0 0 0 0 0 0 0 0 0 0 0 0 0 0 0 0 0 0 0 0 0 0 
0 0 0 0 0 0 0 0 0 0 0 0 0 0 0 0 0 0 0 0 0 0 0 0 0 0 0 0 0 0 0 0 0 0 0 0 0 0 0 0 0 0 0 0 0 0 0 0 
0 0 0 0 0 0 0 0 0 0 0 0 0 0 0 0 0 0 0 0 0 0 0 0 207 160 243 0 0 0 0 0 0 0 0 0 0 0 0 0 0 0 0 0 0 0 0 0 
0 0 0 0 0 0 0 0 0 0 0 0 0 0 0 0 0 0 0 0 0 207 160 243 254 203 230 207 160 243 0 0 0 0 0 0 0 0 0 0 0 0 0 0 0 0 0 0 
0 0 0 0 0 0 0 0 0 254 203 230 207 160 243 0 0 0 0 0 0 207 160 243 254 203 230 207 160 243 0 0 0 207 160 243 254 203 230 0 0 0 0 0 0 0 0 0 
0 0 0 0 0 0 0 0 0 207 160 243 254 203 230 207 160 243 100 71 158 122 91 181 207 160 243 122 91 181 207 160 243 254 203 230 207 160 243 0 0 0 0 0 0 0 0 0 
0 0 0 0 0 0 0 0 0 207 160 243 122 91 181 141 106 204 122 91 181 100 71 158 141 106 204 122 91 181 141 106 204 122 91 181 207 160 243 0 0 0 0 0 0 0 0 0 
0 0 0 0 0 0 0 0 0 141 106 204 100 71 158 100 71 158 141 106 204 100 71 158 122 91 181 122 91 181 122 91 181 100 71 158 141 106 204 0 0 0 0 0 0 0 0 0 
0 0 0 0 0 0 0 0 0 122 91 181 100 71 158 100 71 158 100 71 158 122 91 181 141 106 204 100 71 158 100 71 158 100 71 158 122 91 181 0 0 0 0 0 0 0 0 0 
