P3
16 16
255
62 56 54 70 64 62 67 68 69 58 56 61 58 56 61 62 56 54 51 50 58 70 64 62 58 56 61 62 56 54 58 56 61 67 68 69 73 74 76 58 56 61 51 50 58 51 50 58 
70 64 62 67 68 69 58 56 61 51 50 58 51 50 58 70 64 62 70 64 62 58 56 61 62 56 54 51 50 58 62 56 54 58 56 61 51 50 58 51 50 58 51 50 58 51 50 58 
67 68 69 67 68 69 51 50 58 51 50 58 58 56 61 62 56 54 51 50 58 51 50 58 50 45 54 58 56 61 67 68 69 62 56 54 58 56 61 51 50 58 70 64 62 70 64 62 
62 56 54 70 64 62 58 56 61 73 74 76 67 68 69 58 56 61 51 50 58 50 45 54 51 50 58 67 68 69 67 68 69 58 56 61 51 50 58 62 56 54 73 74 76 67 68 69 
62 56 54 62 56 54 67 68 69 67 68 69 58 56 61 51 50 58 51 50 58 58 56 61 70 64 62 67 68 69 58 56 61 58 56 61 70 64 62 67 68 69 67 68 69 62 56 54 
62 56 54 70 64 62 70 64 62 58 56 61 51 50 58 51 50 58 58 56 61 70 64 62 70 64 62 58 56 61 58 56 61 70 64 62 62 56 54 58 56 61 51 50 58 62 56 54 
58 56 61 58 56 61 51 50 58 51 50 58 51 50 58 58 56 61 70 64 62 70 64 62 58 56 61 70 64 62 58 56 61 62 56 54 50 45 54 51 50 58 58 56 61 70 64 62 
62 56 54 62 56 54 70 64 62 70 64 62 51 50 58 70 64 62 58 56 61 62 56 54 51 50 58 51 50 58 62 56 54 58 56 61 73 74 76 67 68 69 70 64 62 58 56 61 
51 50 58 70 64 62 70 64 62 58 56 61 58 56 61 67 68 69 62 56 54 51 50 58 51 50 58 62 56 54 67 68 69 73 74 76 67 68 69 58 56 61 51 50 58 50 45 54 
58 56 61 58 56 61 51 50 58 51 50 58 67 68 69 67 68 69 70 64 62 62 56 54 70 64 62 58 56 61 70 64 62 70 64 62 51 50 58 51 50 58 50 45 54 51 50 58 
70 64 62 67 68 69 58 56 61 67 68 69 73 74 76 70 64 62 62 56 54 58 56 61 73 74 76 67 68 69 58 56 61 51 50 58 51 50 58 62 56 54 62 56 54 62 56 54 
67 68 69 58 56 61 51 50 58 58 56 61 62 56 54 58 56 61 70 64 62 67 68 69 67 68 69 58 56 61 50 45 54 58 56 61 62 56 54 58 56 61 62 56 54 67 68 69 
51 50 58 50 45 54 62 56 54 62 56 54 58 56 61 70 64 62 70 64 62 58 56 61 50 45 54 50 45 54 51 50 58 51 50 58 58 56 61 67 68 69 70 64 62 58 56 61 
50 45 54 50 45 54 62 56 54 51 50 58 62 56 54 67 68 69 67 68 69 51 50 58 51 50 58 70 64 62 67 68 69 70 64 62 51 50 58 58 56 61 58 56 61 51 50 58 
51 50 58 51 50 58 51 50 58 58 56 61 67 68 69 73 74 76 62 56 54 51 50 58 70 64 62 67 68 69 62 56 54 50 45 54 50 45 54 51 50 58 58 56 61 51 50 58 
51 50 58 58 56 61 70 64 62 70 64 62 62 56 54 58 56 61 51 50 58 51 50 58 62 56 54 58 56 61 51 50 58 51 50 58 67 68 69 67 68 69 51 50 58 58 56 61 
