P3
16 16
255
62 56 54 60 47 35 60 47 35 58 56 61 58 56 61 78 63 39 51 50 58 68 53 34 78 63 39 62 56 54 58 56 61 78 63 39 73 74 76 90 72 44 78 63 39 60 47 35 
70 64 62 78 63 39 90 72 44 51 50 58 60 47 35 68 53 34 70 64 62 68 53 34 90 72 44 51 50 58 68 53 34 90 72 44 51 50 58 90 72 44 90 72 44 51 50 58 
67 68 69 90 72 44 90 72 44 90 72 44 60 47 35 62 56 54 51 50 58 90 72 44 90 72 44 58 56 61 78 63 39 90 72 44 58 56 61 78 63 39 90 72 44 70 64 62 
62 56 54 70 64 62 90 72 44 78 63 39 68 53 34 58 56 61 51 50 58 90 72 44 78 63 39 67 68 69 90 72 44 90 72 44 51 50 58 68 53 34 78 63 39 67 68 69 
62 56 54 62 56 54 78 63 39 68 53 34 58 56 61 51 50 58 51 50 58 90 72 44 60 47 35 67 68 69 90 72 44 78 63 39 70 64 62 60 47 35 68 53 34 62 56 54 
62 56 54 70 64 62 68 53 34 68 53 34 51 50 58 51 50 58 60 47 35 78 63 39 70 64 62 58 56 61 78 63 39 78 63 39 62 56 54 68 53 34 60 47 35 62 56 54 
58 56 61 58 56 61 68 53 34 78 63 39 51 50 58 58 56 61 78 63 39 78 63 39 58 56 61 70 64 62 68 53 34 68 53 34 50 45 54 60 47 35 60 47 35 70 64 62 
62 56 54 62 56 54 78 63 39 78 63 39 51 50 58 70 64 62 90 72 44 68 53 34 51 50 58 51 50 58 68 53 34 60 47 35 73 74 76 60 47 35 68 53 34 58 56 61 
51 50 58 70 64 62 90 72 44 78 63 39 58 56 61 78 63 39 90 72 44 68 53 34 51 50 58 62 56 54 60 47 35 60 47 35 67 68 69 68 53 34 68 53 34 78 63 39 
58 56 61 58 56 61 90 72 44 68 53 34 67 68 69 90 72 44 90 72 44 60 47 35 70 64 62 58 56 61 68 53 34 78 63 39 51 50 58 51 50 58 78 63 39 90 72 44 
70 64 62 60 47 35 90 72 44 68 53 34 73 74 76 90 72 44 90 72 44 58 56 61 73 74 76 67 68 69 78 63 39 90 72 44 78 63 39 62 56 54 90 72 44 90 72 44 
67 68 69 78 63 39 90 72 44 60 47 35 62 56 54 78 63 39 90 72 44 67 68 69 67 68 69 58 56 61 78 63 39 90 72 44 90 72 44 58 56 61 90 72 44 90 72 44 
51 50 58 90 72 44 90 72 44 62 56 54 58 56 61 68 53 34 68 53 34 58 56 61 50 45 54 50 45 54 51 50 58 78 63 39 78 63 39 67 68 69 68 53 34 78 63 39 
50 45 54 78 63 39 78 63 39 51 50 58 62 56 54 60 47 35 68 53 34 51 50 58 51 50 58 70 64 62 67 68 69 68 53 34 78 63 39 58 56 61 58 56 61 68 53 34 
51 50 58 60 47 35 78 63 39 58 56 61 67 68 69 60 47 35 60 47 35 51 50 58 70 64 62 67 68 69 62 56 54 60 47 35 68 53 34 51 50 58 58 56 61 68 53 34 
51 50 58 60 47 35 60 47 35 70 64 62 62 56 54 68 53 34 60 47 35 60 47 35 62 56 54 58 56 61 51 50 58 60 47 35 68 53 34 67 68 69 60 47 35 78 63 39 
