P3
16 16
255
0 0 0 0 0 0 0 0 0 0 0 0 0 0 0 0 0 0 0 0 0 0 0 0 0 0 0 0 0 0 0 0 0 0 0 0 0 0 0 0 0 0 0 0 0 0 0 0 
0 0 0 0 0 0 0 0 0 0 0 0 0 0 0 0 0 0 0 0 0 0 0 0 0 0 0 0 0 0 0 0 0 0 0 0 0 0 0 0 0 0 0 0 0 0 0 0 
0 0 0 0 0 0 0 0 0 0 0 0 235 235 235 193 64 35 155 189 189 247 247 247 214 232 232 39 172 251 235 235 235 0 0 0 0 0 0 0 0 0 0 0 0 0 0 0 
0 0 0 0 0 0 0 0 0 0 0 0 81 219 253 214 232 232 214 232 232 247 247 247 247 247 247 214 232 232 0 0 0 0 0 0 0 0 0 0 0 0 0 0 0 0 0 0 
0 0 0 0 0 0 0 0 0 0 0 0 214 232 232 247 247 247 245 186 39 254 214 57 254 214 57 214 232 232 155 189 189 0 0 0 0 0 0 0 0 0 0 0 0 0 0 0 
0 0 0 0 0 0 0 0 0 0 0 0 247 247 247 247 247 247 254 214 57 255 236 79 245 186 39 247 247 247 247 247 247 0 0 0 0 0 0 0 0 0 0 0 0 0 0 0 
0 0 0 0 0 0 0 0 0 0 0 0 155 189 189 214 232 232 245 186 39 254 214 57 241 157 37 247 247 247 214 232 232 0 0 0 0 0 0 0 0 0 0 0 0 0 0 0 
0 0 0 0 0 0 0 0 0 0 0 0 87 164 50 214 232 232 247 247 247 247 247 247 214 232 232 214 232 232 81 161 43 0 0 0 0 0 0 0 0 0 0 0 0 0 0 0 
0 0 0 0 0 0 0 0 0 0 0 0 235 235 235 67 134 35 214 232 232 247 247 247 155 189 189 87 164 50 235 235 235 0 0 0 0 0 0 0 0 0 0 0 0 0 0 0 
0 0 0 0 0 0 0 0 0 0 0 0 67 134 35 85 159 49 65 139 28 82 154 46 23 124 4 87 164 50 57 126 22 0 0 0 0 0 0 0 0 0 0 0 0 0 0 0 
0 0 0 0 0 0 0 0 0 0 0 0 57 126 22 80 153 40 50 122 14 85 171 45 57 126 22 81 145 49 57 126 22 0 0 0 0 0 0 0 0 0 0 0 0 0 0 0 
0 0 0 0 0 0 0 0 0 0 0 0 57 126 22 23 124 4 82 154 46 85 171 45 87 164 50 57 126 22 57 126 22 0 0 0 0 0 0 0 0 0 0 0 0 0 0 0 
0 0 0 0 0 0 0 0 0 0 0 0 0 0 0 81 145 49 23 124 4 85 171 45 81 145 49 23 124 4 85 147 50 0 0 0 0 0 0 0 0 0 0 0 0 0 0 0 
0 0 0 0 0 0 0 0 0 0 0 0 0 0 0 57 126 22 67 134 35 85 171 45 23 124 4 81 161 43 0 0 0 0 0 0 0 0 0 0 0 0 0 0 0 0 0 0 
0 0 0 0 0 0 0 0 0 0 0 0 0 0 0 81 161 43 57 126 22 82 154 46 23 124 4 81 161 43 0 0 0 0 0 0 0 0 0 0 0 0 0 0 0 0 0 0 
0 0 0 0 0 0 0 0 0 0 0 0 0 0 0 0 0 0 0 0 0 23 124 4 111 180 77 0 0 0 0 0 0 0 0 0 0 0 0 0 0 0 0 0 0 0 0 0 
