P3
16 16
255
51 51 51 83 161 120 79 171 144 79 171 144 57 110 89 79 171 144 89 178 146 89 178 146 89 178 146 89 178 146 76 148 132 51 51 51 51 51 51 83 161 120 83 161 120 76 148 132 
89 178 146 83 161 120 57 110 89 62 129 107 76 148 132 79 171 144 89 178 146 110 197 159 76 148 132 79 171 144 77 80 70 57 110 89 57 110 89 77 80 70 83 161 120 76 148 132 
110 197 159 76 148 132 57 110 89 79 171 144 89 178 146 89 178 146 83 161 120 76 148 132 57 110 89 79 171 144 77 80 70 83 161 120 57 110 89 77 80 70 83 161 120 76 148 132 
110 197 159 76 148 132 57 110 89 83 161 120 79 171 144 89 178 146 79 171 144 89 178 146 79 171 144 83 161 120 51 51 51 76 148 132 62 129 107 51 51 51 79 171 144 76 148 132 
110 197 159 83 161 120 57 110 89 79 171 144 83 161 120 89 178 146 89 178 146 89 178 146 89 178 146 79 171 144 104 104 104 104 104 104 104 104 104 77 80 70 83 161 120 76 148 132 
110 197 159 79 171 144 57 110 89 79 171 144 89 178 146 89 178 146 89 178 146 89 178 146 79 171 144 79 171 144 77 80 70 77 80 70 77 80 70 77 80 70 83 161 120 76 148 132 
110 197 159 89 178 146 57 110 89 89 178 146 79 171 144 79 171 144 89 178 146 89 178 146 83 161 120 83 161 120 79 171 144 76 148 132 76 148 132 76 148 132 79 171 144 76 148 132 
110 197 159 89 178 146 57 110 89 89 178 146 79 171 144 79 171 144 79 171 144 89 178 146 83 161 120 89 178 146 79 171 144 79 171 144 79 171 144 76 148 132 89 178 146 76 148 132 
110 197 159 79 171 144 57 110 89 89 178 146 89 178 146 79 171 144 89 178 146 79 171 144 89 178 146 89 178 146 89 178 146 79 171 144 89 178 146 76 148 132 89 178 146 62 129 107 
89 178 146 79 171 144 57 110 89 79 171 144 89 178 146 79 171 144 79 171 144 89 178 146 89 178 146 89 178 146 79 171 144 83 161 120 76 148 132 76 148 132 79 171 144 57 110 89 
77 80 70 79 171 144 62 129 107 83 161 120 110 197 159 76 148 132 89 178 146 89 178 146 79 171 144 83 161 120 110 197 159 76 148 132 76 148 132 76 148 132 79 171 144 62 129 107 
51 51 51 76 148 132 62 129 107 79 171 144 76 148 132 57 110 89 79 171 144 89 178 146 79 171 144 76 148 132 76 148 132 57 110 89 79 171 144 76 148 132 79 171 144 57 110 89 
110 197 159 76 148 132 76 148 132 79 171 144 83 161 120 76 148 132 83 161 120 89 178 146 83 161 120 76 148 132 83 161 120 89 178 146 79 171 144 79 171 144 79 171 144 57 110 89 
89 178 146 76 148 132 83 161 120 89 178 146 110 197 159 110 197 159 110 197 159 110 197 159 110 197 159 110 197 159 110 197 159 110 197 159 110 197 159 89 178 146 79 171 144 57 110 89 
89 178 146 76 148 132 83 161 120 83 161 120 76 148 132 83 161 120 83 161 120 79 171 144 76 148 132 76 148 132 76 148 132 79 171 144 79 171 144 76 148 132 76 148 132 57 110 89 
79 171 144 83 161 120 76 148 132 62 129 107 62 129 107 57 110 89 62 129 107 57 110 89 57 110 89 57 110 89 57 110 89 57 110 89 57 110 89 57 110 89 57 110 89 57 110 89 
