P3
16 16
255
110 197 159 110 197 159 110 197 159 99 187 152 110 197 159 99 187 152 99 187 152 110 197 159 110 197 159 110 197 159 110 197 159 110 197 159 99 187 152 99 187 152 89 178 146 76 148 132 
110 197 159 89 178 146 89 178 146 89 178 146 89 178 146 89 178 146 89 178 146 89 178 146 89 178 146 89 178 146 89 178 146 89 178 146 89 178 146 89 178 146 89 178 146 62 129 107 
110 197 159 89 178 146 110 197 159 83 161 120 89 178 146 76 148 132 62 129 107 62 129 107 60 115 93 60 115 93 60 115 93 89 178 146 110 197 159 83 161 120 89 178 146 62 129 107 
110 197 159 89 178 146 83 161 120 62 129 107 89 178 146 99 187 152 76 148 132 62 129 107 60 115 93 60 115 93 99 187 152 89 178 146 83 161 120 62 129 107 89 178 146 60 115 93 
110 197 159 89 178 146 83 161 120 89 178 146 89 178 146 89 178 146 110 197 159 76 148 132 76 148 132 110 197 159 89 178 146 89 178 146 89 178 146 83 161 120 89 178 146 60 115 93 
110 197 159 89 178 146 60 115 93 83 161 120 89 178 146 89 178 146 89 178 146 110 197 159 110 197 159 89 178 146 89 178 146 89 178 146 83 161 120 60 115 93 89 178 146 60 115 93 
110 197 159 89 178 146 62 129 107 60 115 93 83 161 120 89 178 146 62 129 107 60 115 93 60 115 93 60 115 93 89 178 146 83 161 120 60 115 93 60 115 93 89 178 146 60 115 93 
110 197 159 89 178 146 76 148 132 60 115 93 60 115 93 83 161 120 62 129 107 89 178 146 89 178 146 60 115 93 83 161 120 60 115 93 62 129 107 60 115 93 89 178 146 60 115 93 
110 197 159 89 178 146 76 148 132 62 129 107 60 115 93 83 161 120 76 148 132 89 178 146 89 178 146 62 129 107 83 161 120 76 148 132 76 148 132 60 115 93 89 178 146 60 115 93 
110 197 159 89 178 146 76 148 132 76 148 132 99 187 152 89 178 146 76 148 132 76 148 132 76 148 132 76 148 132 89 178 146 110 197 159 76 148 132 62 129 107 89 178 146 62 129 107 
110 197 159 89 178 146 76 148 132 110 197 159 89 178 146 89 178 146 99 187 152 110 197 159 110 197 159 99 187 152 89 178 146 89 178 146 110 197 159 76 148 132 89 178 146 62 129 107 
110 197 159 89 178 146 110 197 159 89 178 146 89 178 146 89 178 146 83 161 120 60 115 93 60 115 93 83 161 120 89 178 146 89 178 146 89 178 146 99 187 152 89 178 146 62 129 107 
110 197 159 89 178 146 99 187 152 83 161 120 89 178 146 83 161 120 62 129 107 62 129 107 60 115 93 60 115 93 83 161 120 89 178 146 110 197 159 83 161 120 89 178 146 60 115 93 
110 197 159 89 178 146 83 161 120 62 129 107 83 161 120 76 148 132 76 148 132 76 148 132 76 148 132 62 129 107 60 115 93 83 161 120 83 161 120 62 129 107 89 178 146 60 115 93 
110 197 159 89 178 146 89 178 146 89 178 146 89 178 146 99 187 152 110 197 159 110 197 159 110 197 159 99 187 152 99 187 152 89 178 146 89 178 146 89 178 146 89 178 146 62 129 107 
99 187 152 62 129 107 76 148 132 62 129 107 62 129 107 60 115 93 62 129 107 60 115 93 76 148 132 76 148 132 76 148 132 62 129 107 62 129 107 60 115 93 62 129 107 62 129 107 
