P3
16 16
255
137 101 77 137 101 77 125 91 69 137 101 77 137 101 77 117 84 72 155 119 91 149 113 80 137 101 77 137 101 77 149 113 80 149 113 80 137 101 77 137 101 77 125 91 69 117 84 72 
155 119 91 155 119 91 137 101 77 137 101 77 125 91 69 125 91 69 137 101 77 137 101 77 167 129 90 155 119 91 137 101 77 125 91 69 155 119 91 149 113 80 137 101 77 125 91 69 
167 129 90 149 113 80 137 101 77 125 91 69 155 119 91 149 113 80 149 113 80 137 101 77 155 119 91 155 119 91 149 113 80 137 101 77 149 113 80 137 101 77 137 101 77 155 119 91 
149 113 80 149 113 80 137 101 77 167 129 90 155 119 91 155 119 91 149 113 80 137 101 77 137 101 77 137 101 77 149 113 80 137 101 77 125 91 69 117 84 72 125 91 69 137 101 77 
137 101 77 125 91 69 137 101 77 155 119 91 149 113 80 137 101 77 137 101 77 155 119 91 149 113 80 149 113 80 137 101 77 137 101 77 137 101 77 137 101 77 125 91 69 125 91 69 
149 113 80 137 101 77 137 101 77 137 101 77 137 101 77 125 91 69 137 101 77 149 113 80 149 113 80 137 101 77 137 101 77 137 101 77 137 101 77 167 129 90 155 119 91 155 119 91 
149 113 80 117 84 72 125 91 69 137 101 77 167 129 90 155 119 91 149 113 80 137 101 77 137 101 77 155 119 91 155 119 91 137 101 77 137 101 77 149 113 80 155 119 91 149 113 80 
137 101 77 155 119 91 155 119 91 137 101 77 137 101 77 149 113 80 149 113 80 137 101 77 125 91 69 155 119 91 149 113 80 125 91 69 137 101 77 149 113 80 149 113 80 137 101 77 
125 91 69 155 119 91 149 113 80 155 119 91 137 101 77 125 91 69 137 101 77 149 113 80 137 101 77 137 101 77 137 101 77 137 101 77 137 101 77 137 101 77 117 84 72 137 101 77 
149 113 80 137 101 77 137 101 77 125 91 69 137 101 77 137 101 77 155 119 91 155 119 91 149 113 80 137 101 77 155 119 91 155 119 91 137 101 77 137 101 77 137 101 77 155 119 91 
137 101 77 155 119 91 155 119 91 149 113 80 137 101 77 155 119 91 155 119 91 149 113 80 137 101 77 155 119 91 155 119 91 149 113 80 125 91 69 155 119 91 167 129 90 149 113 80 
137 101 77 149 113 80 149 113 80 137 101 77 125 91 69 137 101 77 137 101 77 125 91 69 117 84 72 167 129 90 149 113 80 149 113 80 125 91 69 155 119 91 149 113 80 149 113 80 
125 91 69 125 91 69 137 101 77 125 91 69 125 91 69 137 101 77 155 119 91 155 119 91 155 119 91 137 101 77 149 113 80 137 101 77 137 101 77 149 113 80 149 113 80 149 113 80 
137 101 77 117 84 72 167 129 90 155 119 91 155 119 91 137 101 77 149 113 80 155 119 91 149 113 80 137 101 77 137 101 77 137 101 77 125 91 69 149 113 80 149 113 80 137 101 77 
155 119 91 125 91 69 155 119 91 155 119 91 149 113 80 149 113 80 137 101 77 137 101 77 137 101 77 125 91 69 167 129 90 155 119 91 149 113 80 137 101 77 137 101 77 155 119 91 
149 113 80 137 101 77 137 101 77 149 113 80 149 113 80 137 101 77 155 119 91 155 119 91 149 113 80 137 101 77 155 119 91 149 113 80 149 113 80 125 91 69 137 101 77 155 119 91 
