P3
16 16
255
0 0 0 0 0 0 0 0 0 0 0 0 0 0 0 0 0 0 0 0 0 0 0 0 0 0 0 0 0 0 0 0 0 0 0 0 0 0 0 0 0 0 0 0 0 0 0 0 
0 0 0 0 0 0 0 0 0 0 0 0 0 0 0 0 0 0 0 0 0 0 0 0 0 0 0 0 0 0 0 0 0 0 0 0 0 0 0 0 0 0 0 0 0 0 0 0 
0 0 0 0 0 0 0 0 0 0 0 0 0 0 0 0 0 0 0 0 0 0 0 0 0 0 0 0 0 0 0 0 0 0 0 0 0 0 0 0 0 0 0 0 0 0 0 0 
0 0 0 0 0 0 0 0 0 0 0 0 0 0 0 0 0 0 0 0 0 0 0 0 0 0 0 0 0 0 0 0 0 0 0 0 0 0 0 0 0 0 0 0 0 0 0 0 
0 0 0 0 0 0 0 0 0 0 0 0 0 0 0 0 0 0 0 0 0 0 0 0 0 0 0 0 0 0 0 0 0 0 0 0 0 0 0 0 0 0 0 0 0 0 0 0 
0 0 0 0 0 0 0 0 0 0 0 0 0 0 0 0 0 0 0 0 0 0 0 0 0 0 0 0 0 0 0 0 0 0 0 0 0 0 0 0 0 0 0 0 0 0 0 0 
0 0 0 0 0 0 0 0 0 0 0 0 0 0 0 0 0 0 0 0 0 0 0 0 137 146 135 0 0 0 0 0 0 0 0 0 0 0 0 0 0 0 0 0 0 0 0 0 
0 0 0 0 0 0 0 0 0 0 0 0 0 0 0 0 0 0 0 0 0 122 128 119 0 0 0 137 146 135 0 0 0 0 0 0 0 0 0 0 0 0 0 0 0 0 0 0 
0 0 0 0 0 0 137 146 135 137 146 135 0 0 0 0 0 0 0 0 0 109 114 107 0 0 0 0 0 0 0 0 0 0 0 0 122 128 119 137 146 135 0 0 0 0 0 0 
0 0 0 137 146 135 0 0 0 0 0 0 122 128 119 0 0 0 122 128 119 81 85 81 0 0 0 0 0 0 109 114 107 122 128 119 0 0 0 0 0 0 137 146 135 0 0 0 
0 0 0 0 0 0 0 0 0 0 0 0 109 114 107 0 0 0 0 0 0 109 114 107 0 0 0 0 0 0 109 114 107 0 0 0 0 0 0 0 0 0 109 114 107 0 0 0 
0 0 0 0 0 0 0 0 0 0 0 0 81 85 81 0 0 0 0 0 0 122 128 119 109 114 107 122 128 119 81 85 81 0 0 0 0 0 0 0 0 0 0 0 0 0 0 0 
0 0 0 0 0 0 109 114 107 81 85 81 0 0 0 0 0 0 0 0 0 109 114 107 0 0 0 0 0 0 122 128 119 0 0 0 0 0 0 0 0 0 0 0 0 0 0 0 
0 0 0 122 128 119 109 114 107 81 85 81 0 0 0 122 128 119 137 146 135 81 85 81 0 0 0 0 0 0 81 85 81 0 0 0 0 0 0 137 146 135 0 0 0 0 0 0 
122 128 119 0 0 0 0 0 0 81 85 81 0 0 0 137 146 135 0 0 0 81 85 81 137 146 135 137 146 135 0 0 0 81 85 81 109 114 107 0 0 0 137 146 135 0 0 0 
0 0 0 0 0 0 0 0 0 0 0 0 81 85 81 0 0 0 0 0 0 81 85 81 109 114 107 0 0 0 109 114 107 81 85 81 0 0 0 0 0 0 0 0 0 0 0 0 
