P3
16 16
255
94 83 80 125 114 112 94 83 80 67 59 57 110 100 98 78 67 64 94 83 80 110 100 98 94 83 80 78 67 64 94 83 80 110 100 98 94 83 80 78 67 64 94 83 80 94 83 80 
94 83 80 250 239 238 250 239 238 250 239 238 250 239 238 231 227 225 250 239 238 231 227 225 255 251 248 231 227 225 231 227 225 250 239 238 250 239 238 250 239 238 250 239 238 125 114 112 
78 67 64 250 239 238 199 184 184 199 184 184 210 198 199 210 198 199 221 206 205 210 198 199 221 206 205 221 206 205 221 206 205 221 206 205 210 198 199 210 198 199 255 251 248 94 83 80 
94 83 80 250 239 238 199 184 184 255 251 248 255 251 248 250 239 238 250 239 238 250 239 238 250 239 238 231 227 225 250 239 238 250 239 238 250 239 238 210 198 199 250 239 238 67 59 57 
110 100 98 231 227 225 210 198 199 250 239 238 231 227 225 231 227 225 231 227 225 231 227 225 231 227 225 231 227 225 231 227 225 231 227 225 250 239 238 221 206 205 231 227 225 110 100 98 
94 83 80 250 239 238 221 206 205 250 239 238 231 227 225 210 198 199 210 198 199 221 206 205 221 206 205 210 198 199 210 198 199 231 227 225 250 239 238 210 198 199 231 227 225 78 67 64 
78 67 64 231 227 225 210 198 199 231 227 225 231 227 225 199 184 184 231 227 225 231 227 225 231 227 225 231 227 225 210 198 199 231 227 225 231 227 225 210 198 199 250 239 238 94 83 80 
94 83 80 231 227 225 221 206 205 250 239 238 231 227 225 210 198 199 231 227 225 221 206 205 221 206 205 231 227 225 221 206 205 231 227 225 250 239 238 221 206 205 231 227 225 110 100 98 
110 100 98 231 227 225 221 206 205 250 239 238 231 227 225 210 198 199 231 227 225 221 206 205 210 198 199 231 227 225 210 198 199 231 227 225 250 239 238 210 198 199 231 227 225 94 83 80 
94 83 80 231 227 225 221 206 205 250 239 238 231 227 225 210 198 199 231 227 225 231 227 225 231 227 225 231 227 225 221 206 205 231 227 225 231 227 225 210 198 199 231 227 225 78 67 64 
78 67 64 231 227 225 210 198 199 250 239 238 231 227 225 210 198 199 210 198 199 199 184 184 210 198 199 221 206 205 221 206 205 231 227 225 250 239 238 221 206 205 231 227 225 94 83 80 
110 100 98 231 227 225 221 206 205 250 239 238 231 227 225 231 227 225 231 227 225 231 227 225 231 227 225 231 227 225 231 227 225 231 227 225 250 239 238 210 198 199 231 227 225 110 100 98 
67 59 57 250 239 238 221 206 205 250 239 238 250 239 238 231 227 225 250 239 238 250 239 238 250 239 238 250 239 238 250 239 238 255 251 248 250 239 238 210 198 199 231 227 225 94 83 80 
94 83 80 250 239 238 221 206 205 210 198 199 221 206 205 210 198 199 210 198 199 210 198 199 210 198 199 210 198 199 210 198 199 210 198 199 210 198 199 210 198 199 250 239 238 78 67 64 
125 114 112 250 239 238 250 239 238 250 239 238 231 227 225 231 227 225 250 239 238 231 227 225 231 227 225 255 251 248 231 227 225 231 227 225 250 239 238 250 239 238 250 239 238 94 83 80 
94 83 80 94 83 80 78 67 64 94 83 80 110 100 98 94 83 80 78 67 64 94 83 80 110 100 98 94 83 80 78 67 64 110 100 98 67 59 57 94 83 80 125 114 112 110 100 98 
