P3
16 16
255
255 251 248 255 251 248 255 251 248 255 251 248 255 251 248 255 251 248 255 251 248 255 251 248 255 251 248 255 251 248 255 251 248 255 251 248 255 251 248 255 251 248 250 239 238 250 239 238 
255 251 248 250 239 238 250 239 238 250 239 238 231 227 225 231 227 225 250 239 238 250 239 238 231 227 225 231 227 225 250 239 238 250 239 238 250 239 238 250 239 238 250 239 238 221 206 205 
255 251 248 250 239 238 199 184 184 199 184 184 176 164 164 176 164 164 176 164 164 176 164 164 176 164 164 176 164 164 176 164 164 199 184 184 199 184 184 250 239 238 250 239 238 221 206 205 
255 251 248 250 239 238 199 184 184 199 184 184 199 184 184 221 206 205 199 184 184 221 206 205 199 184 184 199 184 184 221 206 205 221 206 205 199 184 184 255 251 248 250 239 238 221 206 205 
255 251 248 250 239 238 176 164 164 199 184 184 221 206 205 250 239 238 199 184 184 250 239 238 250 239 238 199 184 184 250 239 238 250 239 238 199 184 184 255 251 248 231 227 225 221 206 205 
255 251 248 231 227 225 176 164 164 199 184 184 250 239 238 250 239 238 221 206 205 255 251 248 250 239 238 199 184 184 250 239 238 255 251 248 221 206 205 255 251 248 231 227 225 221 206 205 
255 251 248 231 227 225 176 164 164 221 206 205 250 239 238 255 251 248 221 206 205 255 251 248 250 239 238 221 206 205 255 251 248 255 251 248 221 206 205 255 251 248 250 239 238 221 206 205 
255 251 248 250 239 238 176 164 164 221 206 205 255 251 248 255 251 248 221 206 205 250 239 238 255 251 248 221 206 205 255 251 248 250 239 238 221 206 205 255 251 248 250 239 238 221 206 205 
255 251 248 250 239 238 176 164 164 221 206 205 255 251 248 250 239 238 221 206 205 250 239 238 255 251 248 221 206 205 250 239 238 255 251 248 221 206 205 255 251 248 231 227 225 221 206 205 
255 251 248 231 227 225 176 164 164 221 206 205 250 239 238 255 251 248 221 206 205 255 251 248 250 239 238 221 206 205 250 239 238 255 251 248 221 206 205 255 251 248 231 227 225 221 206 205 
255 251 248 231 227 225 176 164 164 221 206 205 255 251 248 255 251 248 221 206 205 255 251 248 255 251 248 221 206 205 255 251 248 250 239 238 221 206 205 255 251 248 231 227 225 221 206 205 
255 251 248 231 227 225 199 184 184 221 206 205 250 239 238 255 251 248 199 184 184 250 239 238 250 239 238 221 206 205 250 239 238 250 239 238 221 206 205 255 251 248 250 239 238 221 206 205 
255 251 248 250 239 238 199 184 184 199 184 184 221 206 205 250 239 238 199 184 184 221 206 205 250 239 238 199 184 184 221 206 205 250 239 238 199 184 184 255 251 248 250 239 238 221 206 205 
255 251 248 250 239 238 250 239 238 255 251 248 255 251 248 255 251 248 221 206 205 111 111 111 74 74 74 221 206 205 255 251 248 255 251 248 255 251 248 255 251 248 231 227 225 221 206 205 
250 239 238 250 239 238 250 239 238 231 227 225 231 227 225 250 239 238 111 111 111 74 74 74 74 74 74 111 111 111 250 239 238 250 239 238 250 239 238 231 227 225 231 227 225 221 206 205 
250 239 238 221 206 205 221 206 205 221 206 205 221 206 205 221 206 205 221 206 205 199 184 184 199 184 184 221 206 205 221 206 205 221 206 205 221 206 205 221 206 205 221 206 205 221 206 205 
