P3
16 16
255
89 94 88 122 128 119 81 85 81 89 94 88 89 94 88 122 128 119 122 128 119 89 94 88 99 105 98 109 114 107 99 105 98 99 105 98 122 128 119 89 94 88 99 105 98 137 146 135 
122 128 119 81 85 81 109 114 107 122 128 119 99 105 98 109 114 107 89 94 88 89 94 88 81 85 81 137 146 135 109 114 107 89 94 88 122 128 119 89 94 88 109 114 107 109 114 107 
81 85 81 89 94 88 122 128 119 109 114 107 81 85 81 89 94 88 89 94 88 109 114 107 137 146 135 89 94 88 99 105 98 122 128 119 99 105 98 89 94 88 81 85 81 137 146 135 
81 85 81 99 105 98 99 105 98 81 85 81 137 146 135 122 128 119 137 146 135 109 114 107 122 128 119 137 146 135 89 94 88 99 105 98 122 128 119 122 128 119 109 114 107 89 94 88 
89 94 88 81 85 81 99 105 98 137 146 135 89 94 88 109 114 107 137 146 135 89 94 88 109 114 107 99 105 98 89 94 88 122 128 119 137 146 135 137 146 135 109 114 107 99 105 98 
99 105 98 109 114 107 99 105 98 81 85 81 99 105 98 122 128 119 109 114 107 89 94 88 89 94 88 122 128 119 109 114 107 137 146 135 89 94 88 109 114 107 89 94 88 109 114 107 
109 114 107 99 105 98 109 114 107 109 114 107 89 94 88 99 105 98 89 94 88 81 85 81 109 114 107 99 105 98 89 94 88 122 128 119 109 114 107 81 85 81 99 105 98 89 94 88 
81 85 81 122 128 119 89 94 88 137 146 135 122 128 119 89 94 88 122 128 119 109 114 107 89 94 88 137 146 135 137 146 135 122 128 119 109 114 107 137 146 135 89 94 88 109 114 107 
89 94 88 99 105 98 89 94 88 99 105 98 137 146 135 99 105 98 109 114 107 122 128 119 109 114 107 137 146 135 109 114 107 89 94 88 109 114 107 109 114 107 137 146 135 109 114 107 
89 94 88 89 94 88 122 128 119 137 146 135 99 105 98 109 114 107 89 94 88 109 114 107 89 94 88 122 128 119 137 146 135 99 105 98 89 94 88 99 105 98 89 94 88 109 114 107 
99 105 98 122 128 119 137 146 135 109 114 107 89 94 88 89 94 88 122 128 119 109 114 107 109 114 107 89 94 88 109 114 107 109 114 107 81 85 81 89 94 88 137 146 135 109 114 107 
99 105 98 99 105 98 89 94 88 81 85 81 109 114 107 109 114 107 109 114 107 137 146 135 137 146 135 89 94 88 109 114 107 89 94 88 89 94 88 109 114 107 99 105 98 89 94 88 
122 128 119 99 105 98 99 105 98 122 128 119 109 114 107 89 94 88 122 128 119 137 146 135 89 94 88 109 114 107 89 94 88 137 146 135 122 128 119 109 114 107 89 94 88 122 128 119 
99 105 98 122 128 119 99 105 98 137 146 135 89 94 88 109 114 107 122 128 119 99 105 98 137 146 135 89 94 88 137 146 135 109 114 107 109 114 107 137 146 135 122 128 119 109 114 107 
89 94 88 109 114 107 89 94 88 81 85 81 122 128 119 109 114 107 99 105 98 89 94 88 99 105 98 99 105 98 137 146 135 122 128 119 109 114 107 122 128 119 109 114 107 109 114 107 
109 114 107 89 94 88 89 94 88 89 94 88 137 146 135 109 114 107 122 128 119 122 128 119 99 105 98 122 128 119 109 114 107 137 146 135 89 94 88 99 105 98 109 114 107 122 128 119 
