P3
16 16
255
0 0 0 0 0 0 0 0 0 0 0 0 0 0 0 0 0 0 0 0 0 0 0 0 122 128 119 122 128 119 0 0 0 0 0 0 0 0 0 0 0 0 0 0 0 0 0 0 
0 0 0 0 0 0 0 0 0 0 0 0 0 0 0 0 0 0 0 0 0 118 95 90 118 95 90 109 114 107 137 146 135 0 0 0 0 0 0 0 0 0 0 0 0 0 0 0 
0 0 0 0 0 0 0 0 0 0 0 0 0 0 0 0 0 0 0 0 0 0 0 0 130 110 107 94 83 80 122 128 119 0 0 0 0 0 0 0 0 0 0 0 0 0 0 0 
0 0 0 0 0 0 0 0 0 137 146 135 122 128 119 0 0 0 0 0 0 137 146 135 118 95 90 67 59 57 137 146 135 0 0 0 0 0 0 0 0 0 0 0 0 0 0 0 
0 0 0 0 0 0 0 0 0 137 146 135 118 95 90 0 0 0 137 146 135 122 128 119 94 83 80 137 146 135 0 0 0 137 146 135 137 146 135 0 0 0 0 0 0 0 0 0 
0 0 0 0 0 0 122 128 119 109 114 107 81 85 81 81 85 81 137 146 135 118 95 90 67 59 57 122 128 119 0 0 0 130 110 107 122 128 119 0 0 0 0 0 0 0 0 0 
0 0 0 0 0 0 137 146 135 118 95 90 118 95 90 0 0 0 0 0 0 109 114 107 67 59 57 109 114 107 137 146 135 118 95 90 130 110 107 118 95 90 0 0 0 0 0 0 
0 0 0 0 0 0 118 95 90 109 114 107 122 128 119 0 0 0 122 128 119 122 128 119 94 83 80 67 59 57 109 114 107 118 95 90 81 85 81 0 0 0 0 0 0 0 0 0 
0 0 0 0 0 0 122 128 119 122 128 119 0 0 0 0 0 0 137 146 135 118 95 90 118 95 90 94 83 80 67 59 57 94 83 80 109 114 107 122 128 119 0 0 0 0 0 0 
0 0 0 0 0 0 137 146 135 0 0 0 0 0 0 0 0 0 0 0 0 122 128 119 0 0 0 67 59 57 67 59 57 67 59 57 122 128 119 0 0 0 0 0 0 0 0 0 
0 0 0 0 0 0 0 0 0 137 146 135 0 0 0 0 0 0 137 146 135 137 146 135 0 0 0 94 83 80 94 83 80 67 59 57 137 146 135 122 128 119 0 0 0 0 0 0 
0 0 0 0 0 0 137 146 135 122 128 119 0 0 0 0 0 0 0 0 0 0 0 0 0 0 0 130 110 107 94 83 80 67 59 57 0 0 0 137 146 135 0 0 0 0 0 0 
0 0 0 0 0 0 122 128 119 0 0 0 0 0 0 0 0 0 0 0 0 0 0 0 130 110 107 118 95 90 67 59 57 0 0 0 0 0 0 122 128 119 0 0 0 0 0 0 
0 0 0 0 0 0 0 0 0 0 0 0 0 0 0 0 0 0 0 0 0 94 83 80 118 95 90 94 83 80 67 59 57 0 0 0 122 128 119 0 0 0 0 0 0 0 0 0 
0 0 0 0 0 0 0 0 0 0 0 0 0 0 0 0 0 0 94 83 80 118 95 90 94 83 80 67 59 57 67 59 57 0 0 0 0 0 0 0 0 0 0 0 0 0 0 0 
0 0 0 0 0 0 0 0 0 0 0 0 0 0 0 0 0 0 94 83 80 94 83 80 67 59 57 67 59 57 67 59 57 0 0 0 0 0 0 0 0 0 0 0 0 0 0 0 
