P3
16 16
255
0 0 0 0 0 0 122 128 119 122 128 119 109 114 107 0 0 0 0 0 0 81 85 81 0 0 0 0 0 0 0 0 0 0 0 0 109 114 107 0 0 0 0 0 0 0 0 0 
0 0 0 0 0 0 0 0 0 81 85 81 109 114 107 0 0 0 0 0 0 0 0 0 81 85 81 0 0 0 109 114 107 137 146 135 109 114 107 137 146 135 0 0 0 0 0 0 
0 0 0 122 128 119 0 0 0 0 0 0 81 85 81 0 0 0 109 114 107 109 114 107 0 0 0 81 85 81 109 114 107 0 0 0 109 114 107 0 0 0 137 146 135 0 0 0 
122 128 119 0 0 0 122 128 119 0 0 0 109 114 107 0 0 0 109 114 107 0 0 0 109 114 107 109 114 107 0 0 0 0 0 0 81 85 81 0 0 0 0 0 0 0 0 0 
0 0 0 0 0 0 109 114 107 0 0 0 81 85 81 0 0 0 0 0 0 0 0 0 0 0 0 81 85 81 0 0 0 109 114 107 109 114 107 0 0 0 0 0 0 0 0 0 
0 0 0 109 114 107 0 0 0 81 85 81 0 0 0 109 114 107 109 114 107 0 0 0 81 85 81 0 0 0 0 0 0 0 0 0 109 114 107 109 114 107 122 128 119 0 0 0 
0 0 0 0 0 0 109 114 107 0 0 0 81 85 81 109 114 107 0 0 0 81 85 81 0 0 0 109 114 107 109 114 107 0 0 0 81 85 81 0 0 0 0 0 0 122 128 119 
0 0 0 0 0 0 109 114 107 81 85 81 0 0 0 0 0 0 109 114 107 109 114 107 81 85 81 0 0 0 0 0 0 109 114 107 0 0 0 81 85 81 0 0 0 122 128 119 
0 0 0 109 114 107 109 114 107 0 0 0 0 0 0 109 114 107 0 0 0 122 128 119 0 0 0 0 0 0 81 85 81 109 114 107 0 0 0 81 85 81 0 0 0 0 0 0 
109 114 107 0 0 0 0 0 0 81 85 81 0 0 0 81 85 81 81 85 81 122 128 119 109 114 107 81 85 81 109 114 107 0 0 0 109 114 107 122 128 119 0 0 0 0 0 0 
0 0 0 0 0 0 0 0 0 0 0 0 81 85 81 137 146 135 0 0 0 109 114 107 81 85 81 0 0 0 81 85 81 137 146 135 81 85 81 0 0 0 109 114 107 0 0 0 
0 0 0 0 0 0 122 128 119 137 146 135 81 85 81 0 0 0 137 146 135 81 85 81 0 0 0 137 146 135 0 0 0 0 0 0 109 114 107 0 0 0 0 0 0 109 114 107 
0 0 0 81 85 81 0 0 0 0 0 0 137 146 135 0 0 0 122 128 119 81 85 81 0 0 0 122 128 119 81 85 81 0 0 0 81 85 81 0 0 0 137 146 135 0 0 0 
0 0 0 109 114 107 109 114 107 0 0 0 122 128 119 137 146 135 89 94 88 81 85 81 109 114 107 122 128 119 0 0 0 122 128 119 81 85 81 109 114 107 89 94 88 0 0 0 
81 85 81 0 0 0 109 114 107 81 85 81 122 128 119 109 114 107 81 85 81 89 94 88 122 128 119 109 114 107 122 128 119 0 0 0 109 114 107 0 0 0 81 85 81 89 94 88 
89 94 88 81 85 81 109 114 107 0 0 0 81 85 81 109 114 107 81 85 81 0 0 0 122 128 119 89 94 88 81 85 81 0 0 0 81 85 81 89 94 88 81 85 81 0 0 0 
