P3
16 16
255
0 0 0 0 0 0 0 0 0 0 0 0 252 203 231 0 0 0 0 0 0 0 0 0 0 0 0 0 0 0 252 203 231 252 203 231 252 203 231 0 0 0 0 0 0 0 0 0 
0 0 0 0 0 0 0 0 0 252 203 231 252 187 225 252 203 231 0 0 0 0 0 0 0 0 0 0 0 0 247 185 220 252 203 231 247 185 220 0 0 0 0 0 0 0 0 0 
0 0 0 0 0 0 0 0 0 0 0 0 252 203 231 0 0 0 0 0 0 0 0 0 252 203 231 247 185 220 229 99 163 246 161 212 229 99 163 247 185 220 252 203 231 0 0 0 
0 0 0 0 0 0 0 0 0 0 0 0 0 0 0 0 0 0 0 0 0 0 0 0 252 203 231 252 203 231 246 161 212 222 77 139 246 161 212 252 203 231 252 203 231 0 0 0 
0 0 0 246 161 212 0 0 0 0 0 0 0 0 0 0 0 0 0 0 0 0 0 0 252 203 231 247 185 220 229 99 163 246 161 212 229 99 163 247 185 220 252 203 231 0 0 0 
246 161 212 245 145 205 246 161 212 0 0 0 0 0 0 0 0 0 238 104 170 0 0 0 0 0 0 0 0 0 247 185 220 252 203 231 247 185 220 0 0 0 0 0 0 0 0 0 
0 0 0 246 161 212 0 0 0 0 0 0 0 0 0 238 104 170 235 90 161 238 104 170 0 0 0 0 0 0 252 203 231 252 203 231 252 203 231 0 0 0 0 0 0 0 0 0 
0 0 0 0 0 0 0 0 0 0 0 0 0 0 0 0 0 0 238 104 170 0 0 0 0 0 0 0 0 0 0 0 0 0 0 0 0 0 0 0 0 0 0 0 0 0 0 0 
0 0 0 0 0 0 0 0 0 245 218 239 245 218 239 245 218 239 0 0 0 0 0 0 0 0 0 246 161 212 0 0 0 0 0 0 0 0 0 0 0 0 0 0 0 0 0 0 
0 0 0 0 0 0 0 0 0 252 203 231 245 218 239 252 203 231 0 0 0 0 0 0 246 161 212 245 145 205 246 161 212 0 0 0 0 0 0 0 0 0 252 203 231 0 0 0 
0 0 0 245 218 239 252 203 231 243 150 205 252 203 231 243 150 205 252 203 231 245 218 239 0 0 0 246 161 212 0 0 0 0 0 0 0 0 0 252 203 231 252 187 225 252 203 231 
0 0 0 245 218 239 245 218 239 252 203 231 229 99 163 252 203 231 245 218 239 245 218 239 0 0 0 0 0 0 0 0 0 0 0 0 0 0 0 0 0 0 252 203 231 0 0 0 
0 0 0 245 218 239 252 203 231 243 150 205 252 203 231 243 150 205 252 203 231 245 218 239 0 0 0 0 0 0 0 0 0 247 185 220 247 185 220 0 0 0 0 0 0 0 0 0 
0 0 0 0 0 0 0 0 0 252 203 231 245 218 239 252 203 231 0 0 0 0 0 0 0 0 0 0 0 0 247 185 220 249 169 217 243 150 205 249 169 217 0 0 0 0 0 0 
0 0 0 0 0 0 0 0 0 245 218 239 245 218 239 245 218 239 0 0 0 0 0 0 0 0 0 0 0 0 247 185 220 243 150 205 249 169 217 249 169 217 0 0 0 0 0 0 
0 0 0 0 0 0 0 0 0 0 0 0 0 0 0 0 0 0 0 0 0 0 0 0 0 0 0 0 0 0 0 0 0 249 169 217 249 169 217 0 0 0 0 0 0 0 0 0 
