P3
16 16
255
205 205 205 165 165 165 184 148 95 184 148 95 194 157 98 194 157 98 194 157 98 205 205 205 165 165 165 184 148 95 194 157 98 194 157 98 194 157 98 194 157 98 165 165 165 205 205 205 
165 165 165 134 134 134 175 143 85 150 116 65 175 143 85 175 143 85 175 143 85 165 165 165 134 134 134 175 143 85 175 143 85 175 143 85 175 143 85 184 148 95 134 134 134 165 165 165 
134 134 134 112 112 112 159 132 77 159 132 77 159 132 77 159 132 77 175 143 85 134 134 134 112 112 112 175 143 85 175 143 85 175 143 85 159 132 77 159 132 77 112 112 112 134 134 134 
112 112 112 112 112 112 103 80 44 126 98 55 126 98 55 126 98 55 126 98 55 112 112 112 112 112 112 126 98 55 103 80 44 103 80 44 103 80 44 103 80 44 112 112 112 112 112 112 
68 68 68 68 68 68 68 68 68 53 53 53 53 53 53 47 47 47 47 47 47 53 53 53 68 68 68 68 68 68 68 68 68 68 68 68 68 68 68 68 68 68 68 68 68 53 53 53 
47 47 47 83 81 81 83 81 81 104 104 104 133 133 133 119 119 119 83 81 81 104 104 104 83 81 81 104 104 104 145 145 145 145 145 145 119 119 119 104 104 104 83 81 81 53 53 53 
47 47 47 83 81 81 119 119 119 133 133 133 145 145 145 119 119 119 104 104 104 83 81 81 145 145 145 145 145 145 145 145 145 133 133 133 104 104 104 83 81 81 104 104 104 47 47 47 
68 68 68 83 81 81 119 119 119 133 133 133 119 119 119 119 119 119 104 104 104 83 81 81 119 119 119 145 145 145 133 133 133 104 104 104 83 81 81 83 81 81 104 104 104 47 47 47 
68 68 68 83 81 81 104 104 104 119 119 119 119 119 119 104 104 104 83 81 81 104 104 104 119 119 119 119 119 119 104 104 104 83 81 81 119 119 119 104 104 104 83 81 81 53 53 53 
68 68 68 133 133 133 83 81 81 104 104 104 83 81 81 83 81 81 133 133 133 133 133 133 83 81 81 83 81 81 83 81 81 119 119 119 133 133 133 119 119 119 83 81 81 68 68 68 
68 68 68 133 133 133 133 133 133 83 81 81 104 104 104 119 119 119 133 133 133 133 133 133 119 119 119 83 81 81 104 104 104 133 133 133 133 133 133 133 133 133 83 81 81 68 68 68 
68 68 68 119 119 119 133 133 133 104 104 104 83 81 81 83 81 81 104 104 104 119 119 119 133 133 133 119 119 119 83 81 81 119 119 119 119 119 119 104 104 104 83 81 81 53 53 53 
68 68 68 104 104 104 104 104 104 83 81 81 133 133 133 145 145 145 83 81 81 104 104 104 83 81 81 83 81 81 83 81 81 104 104 104 104 104 104 83 81 81 119 119 119 47 47 47 
68 68 68 83 81 81 83 81 81 133 133 133 133 133 133 133 133 133 119 119 119 83 81 81 104 104 104 119 119 119 133 133 133 83 81 81 83 81 81 104 104 104 133 133 133 53 53 53 
53 53 53 83 81 81 104 104 104 119 119 119 133 133 133 119 119 119 104 104 104 83 81 81 83 81 81 104 104 104 119 119 119 83 81 81 104 104 104 119 119 119 133 133 133 68 68 68 
53 53 53 53 53 53 47 47 47 53 53 53 53 53 53 68 68 68 68 68 68 68 68 68 68 68 68 68 68 68 68 68 68 68 68 68 53 53 53 53 53 53 68 68 68 68 68 68 
