P3
16 16
255
0 0 0 0 0 0 0 0 0 0 0 0 0 0 0 0 0 0 0 0 0 0 0 0 0 0 0 0 0 0 0 0 0 0 0 0 0 0 0 0 0 0 0 0 0 0 0 0 
0 0 0 0 0 0 0 0 0 0 0 0 0 0 0 77 84 153 77 84 153 111 108 204 111 108 204 149 133 230 0 0 0 0 0 0 0 0 0 0 0 0 0 0 0 0 0 0 
0 0 0 0 0 0 0 0 0 0 0 0 77 84 153 111 108 204 111 108 204 149 133 230 111 108 204 111 108 204 190 156 255 0 0 0 0 0 0 0 0 0 0 0 0 0 0 0 
0 0 0 0 0 0 0 0 0 0 0 0 111 108 204 111 108 204 149 133 230 190 156 255 190 156 255 149 133 230 111 108 204 190 156 255 0 0 0 0 0 0 0 0 0 0 0 0 
0 0 0 0 0 0 0 0 0 0 0 0 0 0 0 111 108 204 111 108 204 111 108 204 149 133 230 190 156 255 190 156 255 149 133 230 190 156 255 0 0 0 0 0 0 0 0 0 
0 0 0 0 0 0 0 0 0 0 0 0 0 0 0 0 0 0 127 67 108 127 67 108 127 67 108 111 108 204 149 133 230 190 156 255 190 156 255 0 0 0 0 0 0 0 0 0 
0 0 0 0 0 0 0 0 0 0 0 0 0 0 0 111 108 204 87 46 74 127 67 108 127 67 108 87 46 74 77 84 153 0 0 0 0 0 0 0 0 0 0 0 0 0 0 0 
0 0 0 0 0 0 0 0 0 0 0 0 0 0 0 111 108 204 87 46 74 87 46 74 87 46 74 87 46 74 111 108 204 0 0 0 0 0 0 0 0 0 0 0 0 0 0 0 
0 0 0 0 0 0 0 0 0 0 0 0 0 0 0 111 108 204 77 84 153 87 46 74 87 46 74 77 84 153 111 108 204 0 0 0 0 0 0 0 0 0 0 0 0 0 0 0 
0 0 0 0 0 0 0 0 0 0 0 0 123 212 199 112 134 181 111 108 204 77 84 153 111 108 204 111 108 204 112 134 181 123 174 199 0 0 0 0 0 0 0 0 0 0 0 0 
0 0 0 0 0 0 0 0 0 0 0 0 123 212 199 112 134 181 123 212 199 112 134 181 123 174 199 123 212 199 123 174 199 123 174 199 0 0 0 0 0 0 0 0 0 0 0 0 
0 0 0 0 0 0 0 0 0 140 245 203 123 174 199 123 174 199 123 212 199 112 134 181 123 174 199 123 212 199 140 245 203 123 174 199 140 245 203 0 0 0 0 0 0 0 0 0 
0 0 0 0 0 0 0 0 0 123 212 199 123 174 199 140 245 203 140 245 203 123 174 199 123 212 199 140 245 203 123 212 199 123 174 199 123 212 199 0 0 0 0 0 0 0 0 0 
0 0 0 0 0 0 0 0 0 123 174 199 112 134 181 123 212 199 123 212 199 123 174 199 123 212 199 123 212 199 123 212 199 112 134 181 123 174 199 0 0 0 0 0 0 0 0 0 
0 0 0 0 0 0 0 0 0 123 174 199 112 134 181 123 174 199 123 212 199 112 134 181 123 174 199 123 212 199 123 174 199 112 134 181 123 174 199 0 0 0 0 0 0 0 0 0 
0 0 0 0 0 0 0 0 0 112 134 181 112 134 181 123 174 199 123 174 199 112 134 181 123 174 199 123 174 199 123 174 199 112 134 181 123 174 199 0 0 0 0 0 0 0 0 0 
