P3
16 16
255
0 0 0 0 0 0 0 0 0 0 0 0 0 0 0 0 0 0 0 0 0 0 0 0 0 0 0 0 0 0 0 0 0 0 0 0 0 0 0 0 0 0 0 0 0 0 0 0 
0 0 0 0 0 0 0 0 0 0 0 0 0 0 0 0 0 0 0 0 0 0 0 0 0 0 0 0 0 0 0 0 0 0 0 0 0 0 0 0 0 0 0 0 0 0 0 0 
0 0 0 0 0 0 73 42 24 73 42 24 73 42 24 73 42 24 73 42 24 96 56 35 96 56 35 96 56 35 73 42 24 73 42 24 73 42 24 73 42 24 0 0 0 0 0 0 
0 0 0 0 0 0 73 42 24 73 42 24 96 56 35 96 56 35 96 56 35 119 69 45 96 56 35 96 56 35 96 56 35 96 56 35 96 56 35 73 42 24 0 0 0 0 0 0 
0 0 0 0 0 0 73 42 24 96 56 35 96 56 35 96 56 35 119 69 45 119 69 45 96 56 35 119 69 45 119 69 45 96 56 35 73 42 24 73 42 24 0 0 0 0 0 0 
0 0 0 0 0 0 96 56 35 96 56 35 119 69 45 96 56 35 96 56 35 119 69 45 119 69 45 119 69 45 96 56 35 96 56 35 96 56 35 96 56 35 0 0 0 0 0 0 
0 0 0 0 0 0 96 56 35 119 69 45 119 69 45 119 69 45 119 69 45 119 69 45 119 69 45 119 69 45 119 69 45 119 69 45 119 69 45 119 69 45 0 0 0 0 0 0 
0 0 0 0 0 0 96 56 35 96 56 35 119 69 45 119 69 45 119 69 45 119 69 45 119 69 45 119 69 45 119 69 45 119 69 45 96 56 35 96 56 35 0 0 0 0 0 0 
0 0 0 0 0 0 96 56 35 96 56 35 96 56 35 119 69 45 119 69 45 119 69 45 119 69 45 119 69 45 119 69 45 119 69 45 119 69 45 73 42 24 0 0 0 0 0 0 
0 0 0 0 0 0 73 42 24 96 56 35 119 69 45 119 69 45 119 69 45 119 69 45 119 69 45 119 69 45 119 69 45 96 56 35 96 56 35 73 42 24 0 0 0 0 0 0 
0 0 0 0 0 0 96 56 35 119 69 45 119 69 45 119 69 45 119 69 45 119 69 45 119 69 45 96 56 35 96 56 35 96 56 35 73 42 24 73 42 24 0 0 0 0 0 0 
0 0 0 0 0 0 73 42 24 96 56 35 96 56 35 96 56 35 119 69 45 119 69 45 119 69 45 119 69 45 119 69 45 119 69 45 96 56 35 96 56 35 0 0 0 0 0 0 
0 0 0 0 0 0 73 42 24 73 42 24 96 56 35 119 69 45 119 69 45 119 69 45 119 69 45 119 69 45 96 56 35 96 56 35 96 56 35 73 42 24 0 0 0 0 0 0 
0 0 0 0 0 0 73 42 24 73 42 24 73 42 24 73 42 24 96 56 35 96 56 35 96 56 35 73 42 24 73 42 24 96 56 35 73 42 24 73 42 24 0 0 0 0 0 0 
0 0 0 0 0 0 0 0 0 0 0 0 0 0 0 0 0 0 0 0 0 0 0 0 0 0 0 0 0 0 0 0 0 0 0 0 0 0 0 0 0 0 0 0 0 0 0 0 
0 0 0 0 0 0 0 0 0 0 0 0 0 0 0 0 0 0 0 0 0 0 0 0 0 0 0 0 0 0 0 0 0 0 0 0 0 0 0 0 0 0 0 0 0 0 0 0 
