P3
16 16
255
0 0 0 0 0 0 0 0 0 0 0 0 0 0 0 0 0 0 0 0 0 0 0 0 0 0 0 43 112 42 0 0 0 0 0 0 0 0 0 0 0 0 0 0 0 0 0 0 
0 0 0 0 0 0 0 0 0 0 0 0 0 0 0 74 143 40 85 171 45 0 0 0 0 0 0 43 112 42 85 171 45 0 0 0 0 0 0 0 0 0 0 0 0 0 0 0 
0 0 0 0 0 0 0 0 0 0 0 0 0 0 0 0 0 0 0 0 0 85 171 45 74 143 40 74 143 40 43 112 42 85 171 45 0 0 0 0 0 0 0 0 0 0 0 0 
0 0 0 0 0 0 0 0 0 0 0 0 0 0 0 0 0 0 0 0 0 74 143 40 0 0 0 0 0 0 85 171 45 85 171 45 0 0 0 0 0 0 0 0 0 0 0 0 
0 0 0 0 0 0 0 0 0 0 0 0 0 0 0 85 171 45 43 112 42 38 99 37 85 171 45 0 0 0 0 0 0 0 0 0 0 0 0 0 0 0 0 0 0 0 0 0 
0 0 0 0 0 0 0 0 0 0 0 0 85 171 45 43 112 42 74 143 40 0 0 0 74 143 40 0 0 0 0 0 0 0 0 0 0 0 0 0 0 0 0 0 0 0 0 0 
0 0 0 0 0 0 0 0 0 0 0 0 85 171 45 85 171 45 0 0 0 0 0 0 0 0 0 74 143 40 85 171 45 85 171 45 0 0 0 0 0 0 0 0 0 0 0 0 
0 0 0 0 0 0 0 0 0 0 0 0 0 0 0 0 0 0 0 0 0 0 0 0 0 0 0 85 171 45 0 0 0 43 112 42 85 171 45 0 0 0 0 0 0 0 0 0 
0 0 0 0 0 0 0 0 0 0 0 0 0 0 0 43 112 42 74 143 40 0 0 0 0 0 0 74 143 40 0 0 0 0 0 0 74 143 40 0 0 0 0 0 0 0 0 0 
0 0 0 0 0 0 0 0 0 0 0 0 0 0 0 43 112 42 0 0 0 0 0 0 74 143 40 0 0 0 0 0 0 0 0 0 0 0 0 0 0 0 0 0 0 0 0 0 
0 0 0 0 0 0 43 112 42 85 171 45 0 0 0 0 0 0 74 143 40 38 99 37 74 143 40 0 0 0 0 0 0 0 0 0 43 112 42 0 0 0 0 0 0 0 0 0 
0 0 0 0 0 0 0 0 0 43 112 42 74 143 40 0 0 0 0 0 0 85 171 45 74 143 40 43 112 42 0 0 0 0 0 0 85 171 45 0 0 0 0 0 0 0 0 0 
0 0 0 0 0 0 0 0 0 0 0 0 43 112 42 0 0 0 0 0 0 74 143 40 43 112 42 0 0 0 0 0 0 74 143 40 0 0 0 0 0 0 0 0 0 0 0 0 
0 0 0 0 0 0 0 0 0 74 143 40 0 0 0 43 112 42 74 143 40 43 112 42 38 99 37 74 143 40 0 0 0 43 112 42 0 0 0 0 0 0 0 0 0 0 0 0 
0 0 0 0 0 0 0 0 0 144 117 64 144 117 64 38 99 37 43 112 42 144 117 64 144 117 64 38 99 37 43 112 42 144 117 64 144 117 64 43 112 42 0 0 0 0 0 0 
0 0 0 0 0 0 144 117 64 170 141 74 170 141 74 133 107 58 144 117 64 200 162 75 200 162 75 133 107 58 144 117 64 200 162 75 170 141 74 133 107 58 0 0 0 0 0 0 
