P3
16 64
255
94 164 150 70 137 116 155 203 191 121 183 171 94 164 150 70 137 116 70 137 116 65 129 106 121 183 171 155 203 191 70 137 116 94 164 150 65 129 106 155 203 191 121 183 171 121 183 171 
94 164 150 65 129 106 94 164 150 70 137 116 70 137 116 155 203 191 155 203 191 70 137 116 155 203 191 121 183 171 121 183 171 70 137 116 65 129 106 94 164 150 121 183 171 94 164 150 
65 129 106 94 164 150 65 129 106 121 183 171 155 203 191 121 183 171 94 164 150 70 137 116 94 164 150 121 183 171 94 164 150 65 129 106 155 203 191 65 129 106 70 137 116 94 164 150 
155 203 191 155 203 191 65 129 106 70 137 116 121 183 171 94 164 150 94 164 150 94 164 150 70 137 116 94 164 150 70 137 116 155 203 191 121 183 171 94 164 150 65 129 106 65 129 106 
121 183 171 121 183 171 94 164 150 65 129 106 70 137 116 70 137 116 94 164 150 94 164 150 65 129 106 70 137 116 121 183 171 121 183 171 94 164 150 70 137 116 70 137 116 155 203 191 
121 183 171 94 164 150 94 164 150 70 137 116 121 183 171 94 164 150 65 129 106 65 129 106 70 137 116 94 164 150 94 164 150 70 137 116 155 203 191 155 203 191 121 183 171 70 137 116 
65 129 106 94 164 150 70 137 116 121 183 171 94 164 150 65 129 106 70 137 116 121 183 171 121 183 171 70 137 116 65 129 106 121 183 171 155 203 191 121 183 171 70 137 116 65 129 106 
94 164 150 65 129 106 65 129 106 70 137 116 70 137 116 70 137 116 121 183 171 155 203 191 155 203 191 121 183 171 65 129 106 94 164 150 121 183 171 70 137 116 94 164 150 155 203 191 
94 164 150 70 137 116 155 203 191 155 203 191 121 183 171 94 164 150 155 203 191 121 183 171 94 164 150 94 164 150 70 137 116 70 137 116 94 164 150 65 129 106 155 203 191 121 183 171 
94 164 150 155 203 191 121 183 171 94 164 150 70 137 116 121 183 171 121 183 171 94 164 150 94 164 150 70 137 116 155 203 191 155 203 191 65 129 106 65 129 106 94 164 150 94 164 150 
70 137 116 121 183 171 94 164 150 94 164 150 65 129 106 70 137 116 94 164 150 94 164 150 70 137 116 155 203 191 121 183 171 94 164 150 70 137 116 121 183 171 65 129 106 70 137 116 
70 137 116 65 129 106 94 164 150 65 129 106 155 203 191 121 183 171 70 137 116 94 164 150 70 137 116 121 183 171 94 164 150 94 164 150 70 137 116 155 203 191 155 203 191 121 183 171 
121 183 171 70 137 116 65 129 106 155 203 191 121 183 171 121 183 171 70 137 116 65 129 106 121 183 171 70 137 116 70 137 116 65 129 106 155 203 191 121 183 171 94 164 150 94 164 150 
94 164 150 94 164 150 65 129 106 121 183 171 94 164 150 94 164 150 65 129 106 121 183 171 155 203 191 155 203 191 121 183 171 70 137 116 121 183 171 94 164 150 94 164 150 94 164 150 
94 164 150 94 164 150 70 137 116 70 137 116 121 183 171 94 164 150 94 164 150 65 129 106 155 203 191 121 183 171 94 164 150 121 183 171 70 137 116 94 164 150 70 137 116 65 129 106 
65 129 106 65 129 106 121 183 171 155 203 191 65 129 106 94 164 150 94 164 150 70 137 116 65 129 106 70 137 116 94 164 150 94 164 150 94 164 150 65 129 106 155 203 191 155 203 191 
94 164 142 44 135 85 155 203 191 121 183 148 94 164 142 44 135 85 44 135 85 38 122 75 121 183 148 155 203 191 44 135 85 94 164 142 38 122 75 155 203 191 121 183 148 121 183 148 
94 164 142 38 122 75 94 164 142 44 135 85 44 135 85 155 203 191 155 203 191 44 135 85 155 203 191 121 183 148 121 183 148 44 135 85 38 122 75 94 164 142 121 183 148 94 164 142 
38 122 75 94 164 142 38 122 75 121 183 148 155 203 191 121 183 148 94 164 142 44 135 85 94 164 142 121 183 148 94 164 142 38 122 75 155 203 191 38 122 75 44 135 85 94 164 142 
155 203 191 155 203 191 38 122 75 44 135 85 121 183 148 94 164 142 94 164 142 94 164 142 44 135 85 94 164 142 44 135 85 155 203 191 121 183 148 94 164 142 38 122 75 38 122 75 
121 183 148 121 183 148 94 164 142 38 122 75 44 135 85 44 135 85 94 164 142 94 164 142 38 122 75 44 135 85 121 183 148 121 183 148 94 164 142 44 135 85 44 135 85 155 203 191 
121 183 148 94 164 142 94 164 142 44 135 85 121 183 148 94 164 142 38 122 75 38 122 75 44 135 85 94 164 142 94 164 142 44 135 85 155 203 191 155 203 191 121 183 148 44 135 85 
38 122 75 94 164 142 44 135 85 121 183 148 94 164 142 38 122 75 44 135 85 121 183 148 121 183 148 44 135 85 38 122 75 121 183 148 155 203 191 121 183 148 44 135 85 38 122 75 
94 164 142 38 122 75 38 122 75 44 135 85 44 135 85 44 135 85 121 183 148 155 203 191 155 203 191 121 183 148 38 122 75 94 164 142 121 183 148 44 135 85 94 164 142 155 203 191 
94 164 142 44 135 85 155 203 191 155 203 191 121 183 148 94 164 142 155 203 191 121 183 148 94 164 142 94 164 142 44 135 85 44 135 85 94 164 142 38 122 75 155 203 191 121 183 148 
94 164 142 155 203 191 121 183 148 94 164 142 44 135 85 121 183 148 121 183 148 94 164 142 94 164 142 44 135 85 155 203 191 155 203 191 38 122 75 38 122 75 94 164 142 94 164 142 
44 135 85 121 183 148 94 164 142 94 164 142 38 122 75 44 135 85 94 164 142 94 164 142 44 135 85 155 203 191 121 183 148 94 164 142 44 135 85 121 183 148 38 122 75 44 135 85 
44 135 85 38 122 75 94 164 142 38 122 75 155 203 191 121 183 148 44 135 85 94 164 142 44 135 85 121 183 148 94 164 142 94 164 142 44 135 85 155 203 191 155 203 191 121 183 148 
121 183 148 44 135 85 38 122 75 155 203 191 121 183 148 121 183 148 44 135 85 38 122 75 121 183 148 44 135 85 44 135 85 38 122 75 155 203 191 121 183 148 94 164 142 94 164 142 
94 164 142 94 164 142 38 122 75 121 183 148 94 164 142 94 164 142 38 122 75 121 183 148 155 203 191 155 203 191 121 183 148 44 135 85 121 183 148 94 164 142 94 164 142 94 164 142 
94 164 142 94 164 142 44 135 85 44 135 85 121 183 148 94 164 142 94 164 142 38 122 75 155 203 191 121 183 148 94 164 142 121 183 148 44 135 85 94 164 142 44 135 85 38 122 75 
38 122 75 38 122 75 121 183 148 155 203 191 38 122 75 94 164 142 94 164 142 44 135 85 38 122 75 44 135 85 94 164 142 94 164 142 94 164 142 38 122 75 155 203 191 155 203 191 
94 133 164 104 115 150 155 203 191 121 179 183 94 133 164 104 115 150 104 115 150 89 101 137 121 179 183 155 203 191 104 115 150 94 133 164 89 101 137 155 203 191 121 179 183 121 179 183 
94 133 164 89 101 137 94 133 164 104 115 150 104 115 150 155 203 191 155 203 191 104 115 150 155 203 191 121 179 183 121 179 183 104 115 150 89 101 137 94 133 164 121 179 183 94 133 164 
89 101 137 94 133 164 89 101 137 121 179 183 155 203 191 121 179 183 94 133 164 104 115 150 94 133 164 121 179 183 94 133 164 89 101 137 155 203 191 89 101 137 104 115 150 94 133 164 
155 203 191 155 203 191 89 101 137 104 115 150 121 179 183 94 133 164 94 133 164 94 133 164 104 115 150 94 133 164 104 115 150 155 203 191 121 179 183 94 133 164 89 101 137 89 101 137 
121 179 183 121 179 183 94 133 164 89 101 137 104 115 150 104 115 150 94 133 164 94 133 164 89 101 137 104 115 150 121 179 183 121 179 183 94 133 164 104 115 150 104 115 150 155 203 191 
121 179 183 94 133 164 94 133 164 104 115 150 121 179 183 94 133 164 89 101 137 89 101 137 104 115 150 94 133 164 94 133 164 104 115 150 155 203 191 155 203 191 121 179 183 104 115 150 
89 101 137 94 133 164 104 115 150 121 179 183 94 133 164 89 101 137 104 115 150 121 179 183 121 179 183 104 115 150 89 101 137 121 179 183 155 203 191 121 179 183 104 115 150 89 101 137 
94 133 164 89 101 137 89 101 137 104 115 150 104 115 150 104 115 150 121 179 183 155 203 191 155 203 191 121 179 183 89 101 137 94 133 164 121 179 183 104 115 150 94 133 164 155 203 191 
94 133 164 104 115 150 155 203 191 155 203 191 121 179 183 94 133 164 155 203 191 121 179 183 94 133 164 94 133 164 104 115 150 104 115 150 94 133 164 89 101 137 155 203 191 121 179 183 
94 133 164 155 203 191 121 179 183 94 133 164 104 115 150 121 179 183 121 179 183 94 133 164 94 133 164 104 115 150 155 203 191 155 203 191 89 101 137 89 101 137 94 133 164 94 133 164 
104 115 150 121 179 183 94 133 164 94 133 164 89 101 137 104 115 150 94 133 164 94 133 164 104 115 150 155 203 191 121 179 183 94 133 164 104 115 150 121 179 183 89 101 137 104 115 150 
104 115 150 89 101 137 94 133 164 89 101 137 155 203 191 121 179 183 104 115 150 94 133 164 104 115 150 121 179 183 94 133 164 94 133 164 104 115 150 155 203 191 155 203 191 121 179 183 
121 179 183 104 115 150 89 101 137 155 203 191 121 179 183 121 179 183 104 115 150 89 101 137 121 179 183 104 115 150 104 115 150 89 101 137 155 203 191 121 179 183 94 133 164 94 133 164 
94 133 164 94 133 164 89 101 137 121 179 183 94 133 164 94 133 164 89 101 137 121 179 183 155 203 191 155 203 191 121 179 183 104 115 150 121 179 183 94 133 164 94 133 164 94 133 164 
94 133 164 94 133 164 104 115 150 104 115 150 121 179 183 94 133 164 94 133 164 89 101 137 155 203 191 121 179 183 94 133 164 121 179 183 104 115 150 94 133 164 104 115 150 89 101 137 
89 101 137 89 101 137 121 179 183 155 203 191 89 101 137 94 133 164 94 133 164 104 115 150 89 101 137 104 115 150 94 133 164 94 133 164 94 133 164 89 101 137 155 203 191 155 203 191 
94 158 164 78 134 163 155 203 191 121 183 171 94 158 164 78 134 163 78 134 163 70 122 149 121 183 171 155 203 191 78 134 163 94 158 164 70 122 149 155 203 191 121 183 171 121 183 171 
94 158 164 70 122 149 94 158 164 78 134 163 78 134 163 155 203 191 155 203 191 78 134 163 155 203 191 121 183 171 121 183 171 78 134 163 70 122 149 94 158 164 121 183 171 94 158 164 
70 122 149 94 158 164 70 122 149 121 183 171 155 203 191 121 183 171 94 158 164 78 134 163 94 158 164 121 183 171 94 158 164 70 122 149 155 203 191 70 122 149 78 134 163 94 158 164 
155 203 191 155 203 191 70 122 149 78 134 163 121 183 171 94 158 164 94 158 164 94 158 164 78 134 163 94 158 164 78 134 163 155 203 191 121 183 171 94 158 164 70 122 149 70 122 149 
121 183 171 121 183 171 94 158 164 70 122 149 78 134 163 78 134 163 94 158 164 94 158 164 70 122 149 78 134 163 121 183 171 121 183 171 94 158 164 78 134 163 78 134 163 155 203 191 
121 183 171 94 158 164 94 158 164 78 134 163 121 183 171 94 158 164 70 122 149 70 122 149 78 134 163 94 158 164 94 158 164 78 134 163 155 203 191 155 203 191 121 183 171 78 134 163 
70 122 149 94 158 164 78 134 163 121 183 171 94 158 164 70 122 149 78 134 163 121 183 171 121 183 171 78 134 163 70 122 149 121 183 171 155 203 191 121 183 171 78 134 163 70 122 149 
94 158 164 70 122 149 70 122 149 78 134 163 78 134 163 78 134 163 121 183 171 155 203 191 155 203 191 121 183 171 70 122 149 94 158 164 121 183 171 78 134 163 94 158 164 155 203 191 
94 158 164 78 134 163 155 203 191 155 203 191 121 183 171 94 158 164 155 203 191 121 183 171 94 158 164 94 158 164 78 134 163 78 134 163 94 158 164 70 122 149 155 203 191 121 183 171 
94 158 164 155 203 191 121 183 171 94 158 164 78 134 163 121 183 171 121 183 171 94 158 164 94 158 164 78 134 163 155 203 191 155 203 191 70 122 149 70 122 149 94 158 164 94 158 164 
78 134 163 121 183 171 94 158 164 94 158 164 70 122 149 78 134 163 94 158 164 94 158 164 78 134 163 155 203 191 121 183 171 94 158 164 78 134 163 121 183 171 70 122 149 78 134 163 
78 134 163 70 122 149 94 158 164 70 122 149 155 203 191 121 183 171 78 134 163 94 158 164 78 134 163 121 183 171 94 158 164 94 158 164 78 134 163 155 203 191 155 203 191 121 183 171 
121 183 171 78 134 163 70 122 149 155 203 191 121 183 171 121 183 171 78 134 163 70 122 149 121 183 171 78 134 163 78 134 163 70 122 149 155 203 191 121 183 171 94 158 164 94 158 164 
94 158 164 94 158 164 70 122 149 121 183 171 94 158 164 94 158 164 70 122 149 121 183 171 155 203 191 155 203 191 121 183 171 78 134 163 121 183 171 94 158 164 94 158 164 94 158 164 
94 158 164 94 158 164 78 134 163 78 134 163 121 183 171 94 158 164 94 158 164 70 122 149 155 203 191 121 183 171 94 158 164 121 183 171 78 134 163 94 158 164 78 134 163 70 122 149 
70 122 149 70 122 149 121 183 171 155 203 191 70 122 149 94 158 164 94 158 164 78 134 163 70 122 149 78 134 163 94 158 164 94 158 164 94 158 164 70 122 149 155 203 191 155 203 191 
