P3
16 16
255
0 0 0 0 0 0 0 0 0 0 0 0 0 0 0 0 0 0 0 0 0 0 0 0 0 0 0 0 0 0 0 0 0 0 0 0 0 0 0 0 0 0 0 0 0 0 0 0 
0 0 0 0 0 0 0 0 0 0 0 0 0 0 0 0 0 0 0 0 0 0 0 0 0 0 0 0 0 0 0 0 0 126 98 55 150 116 65 0 0 0 0 0 0 0 0 0 
0 0 0 0 0 0 0 0 0 0 0 0 0 0 0 0 0 0 0 0 0 0 0 0 0 0 0 0 0 0 0 0 0 81 61 36 171 172 171 164 164 164 164 164 164 164 164 164 
0 0 0 0 0 0 0 0 0 0 0 0 0 0 0 0 0 0 0 0 0 0 0 0 0 0 0 0 0 0 171 172 171 164 164 164 114 121 110 114 121 110 104 104 104 104 104 104 
0 0 0 0 0 0 0 0 0 0 0 0 0 0 0 0 0 0 0 0 0 0 0 0 171 172 171 171 172 171 114 121 110 104 104 104 103 80 44 126 98 55 0 0 0 0 0 0 
0 0 0 0 0 0 0 0 0 0 0 0 0 0 0 150 116 65 81 61 36 171 172 171 114 121 110 104 104 104 0 0 0 0 0 0 103 80 44 150 116 65 0 0 0 0 0 0 
0 0 0 0 0 0 0 0 0 0 0 0 0 0 0 81 61 36 171 172 171 114 121 110 0 0 0 0 0 0 0 0 0 0 0 0 103 80 44 166 130 77 0 0 0 0 0 0 
0 0 0 0 0 0 0 0 0 0 0 0 0 0 0 171 172 171 114 121 110 126 98 55 166 130 77 0 0 0 0 0 0 0 0 0 0 0 0 126 98 55 166 130 77 0 0 0 
0 0 0 0 0 0 0 0 0 0 0 0 171 172 171 114 121 110 0 0 0 81 61 36 150 116 65 166 130 77 0 0 0 0 0 0 0 0 0 103 80 44 166 130 77 0 0 0 
0 0 0 0 0 0 0 0 0 0 0 0 171 172 171 114 121 110 0 0 0 0 0 0 103 80 44 126 98 55 166 130 77 0 0 0 0 0 0 103 80 44 150 116 65 0 0 0 
0 0 0 0 0 0 0 0 0 171 172 171 114 121 110 0 0 0 0 0 0 0 0 0 0 0 0 103 80 44 126 98 55 166 130 77 0 0 0 0 0 0 103 80 44 126 98 55 
0 0 0 150 116 65 81 61 36 164 164 164 104 104 104 0 0 0 0 0 0 0 0 0 0 0 0 0 0 0 103 80 44 150 116 65 150 116 65 0 0 0 81 61 36 103 80 44 
0 0 0 126 98 55 164 164 164 104 104 104 126 98 55 150 116 65 166 130 77 0 0 0 0 0 0 0 0 0 0 0 0 103 80 44 126 98 55 81 61 36 114 121 110 104 104 104 
0 0 0 0 0 0 171 172 171 104 104 104 81 61 36 103 80 44 126 98 55 166 130 77 166 130 77 150 116 65 0 0 0 0 0 0 81 61 36 114 121 110 156 156 156 164 164 164 
0 0 0 0 0 0 171 172 171 104 104 104 0 0 0 0 0 0 0 0 0 103 80 44 103 80 44 126 98 55 166 130 77 126 98 55 114 121 110 156 156 156 81 61 36 150 116 65 
0 0 0 0 0 0 171 172 171 104 104 104 0 0 0 0 0 0 0 0 0 0 0 0 0 0 0 0 0 0 103 80 44 81 61 36 114 121 110 164 164 164 126 98 55 0 0 0 
