P3
16 16
255
162 175 134 162 175 134 162 175 134 64 87 108 45 45 45 45 45 45 45 45 45 56 55 55 56 55 55 45 45 45 45 45 45 45 45 45 64 87 108 162 175 134 162 175 134 162 175 134 
162 175 134 162 175 134 129 153 136 110 117 123 56 55 55 65 65 65 75 76 79 75 76 79 65 65 65 65 65 65 56 55 55 56 55 55 110 117 123 129 153 136 162 175 134 162 175 134 
162 175 134 129 153 136 64 87 108 65 65 65 65 65 65 88 88 88 88 88 88 65 65 65 56 55 55 56 55 55 65 65 65 75 76 79 65 65 65 64 87 108 129 153 136 162 175 134 
64 87 108 110 117 123 65 65 65 65 65 65 75 76 79 75 76 79 88 88 88 88 88 88 88 88 88 75 76 79 75 76 79 75 76 79 75 76 79 65 65 65 110 117 123 64 87 108 
45 45 45 56 55 55 75 76 79 56 55 55 56 55 55 45 45 45 45 45 45 56 55 55 75 76 79 65 65 65 56 55 55 45 45 45 56 55 55 75 76 79 56 55 55 45 45 45 
45 45 45 65 65 65 75 76 79 75 76 79 65 65 65 65 65 65 65 65 65 75 76 79 88 88 88 88 88 88 75 76 79 75 76 79 75 76 79 65 65 65 65 65 65 45 45 45 
45 45 45 45 45 45 65 65 65 75 76 79 75 76 79 88 88 88 88 88 88 88 88 88 75 76 79 75 76 79 75 76 79 75 76 79 88 88 88 88 88 88 75 76 79 45 45 45 
56 55 55 88 88 88 88 88 88 88 88 88 75 76 79 75 76 79 75 76 79 65 65 65 65 65 65 65 65 65 75 76 79 88 88 88 88 88 88 75 76 79 75 76 79 56 55 55 
56 55 55 75 76 79 88 88 88 88 88 88 88 88 88 65 65 65 65 65 65 56 55 55 45 45 45 45 45 45 56 55 55 56 55 55 65 65 65 75 76 79 65 65 65 56 55 55 
45 45 45 65 65 65 75 76 79 75 76 79 75 76 79 75 76 79 75 76 79 65 65 65 75 76 79 88 88 88 88 88 88 75 76 79 75 76 79 65 65 65 56 55 55 45 45 45 
45 45 45 56 55 55 65 65 65 75 76 79 65 65 65 56 55 55 45 45 45 56 55 55 65 65 65 75 76 79 88 88 88 88 88 88 75 76 79 75 76 79 65 65 65 45 45 45 
45 45 45 56 55 55 56 55 55 65 65 65 88 88 88 88 88 88 88 88 88 75 76 79 75 76 79 75 76 79 75 76 79 75 76 79 75 76 79 65 65 65 56 55 55 45 45 45 
64 87 108 110 117 123 65 65 65 88 88 88 88 88 88 88 88 88 75 76 79 88 88 88 88 88 88 88 88 88 88 88 88 88 88 88 75 76 79 65 65 65 110 117 123 64 87 108 
162 175 134 129 153 136 64 87 108 65 65 65 65 65 65 65 65 65 75 76 79 75 76 79 65 65 65 56 55 55 45 45 45 45 45 45 56 55 55 64 87 108 129 153 136 162 175 134 
162 175 134 162 175 134 129 153 136 110 117 123 56 55 55 75 76 79 65 65 65 65 65 65 75 76 79 75 76 79 75 76 79 56 55 55 110 117 123 129 153 136 162 175 134 162 175 134 
162 175 134 162 175 134 162 175 134 64 87 108 45 45 45 45 45 45 45 45 45 56 55 55 56 55 55 45 45 45 45 45 45 45 45 45 64 87 108 162 175 134 162 175 134 162 175 134 
