P3
16 16
255
162 175 134 187 195 155 56 55 55 81 81 81 81 81 81 81 81 81 61 61 67 61 61 67 100 100 100 100 100 100 100 100 100 81 81 81 81 81 81 56 55 55 187 195 155 162 175 134 
129 153 136 162 175 134 56 55 55 47 47 55 61 61 67 61 61 67 61 61 67 61 61 67 81 81 81 100 100 100 81 81 81 81 81 81 61 61 67 56 55 55 162 175 134 129 153 136 
187 195 155 209 214 182 187 195 155 209 214 182 56 55 55 81 81 81 81 81 81 56 55 55 56 55 55 61 61 67 61 61 67 56 55 55 209 214 182 187 195 155 209 214 182 187 195 155 
129 153 136 162 175 134 162 175 134 187 195 155 209 214 182 61 61 67 81 81 81 61 61 67 81 81 81 100 100 100 81 81 81 209 214 182 187 195 155 162 175 134 162 175 134 129 153 136 
129 153 136 129 153 136 162 175 134 162 175 134 209 214 182 56 55 55 61 61 67 81 81 81 100 100 100 100 100 100 81 81 81 209 214 182 162 175 134 162 175 134 129 153 136 129 153 136 
110 117 123 110 117 123 3 65 80 3 65 80 64 87 108 61 61 67 47 47 55 81 81 81 100 100 100 100 100 100 61 61 67 64 87 108 3 65 80 3 65 80 110 117 123 110 117 123 
110 117 123 129 153 136 45 45 45 56 55 55 61 61 67 47 47 55 61 61 67 61 61 67 81 81 81 81 81 81 61 61 67 61 61 67 56 55 55 45 45 45 129 153 136 110 117 123 
162 175 134 187 195 155 56 55 55 61 61 67 61 61 67 61 61 67 100 100 100 121 121 121 100 100 100 100 100 100 81 81 81 61 61 67 47 47 55 56 55 55 187 195 155 162 175 134 
162 175 134 187 195 155 56 55 55 61 61 67 81 81 81 81 81 81 81 81 81 121 121 121 100 100 100 81 81 81 100 100 100 81 81 81 61 61 67 56 55 55 187 195 155 162 175 134 
129 153 136 162 175 134 47 47 55 47 47 55 56 55 55 56 55 55 61 61 67 100 100 100 81 81 81 81 81 81 61 61 67 81 81 81 61 61 67 47 47 55 162 175 134 129 153 136 
187 195 155 209 214 182 187 195 155 209 214 182 56 55 55 81 81 81 81 81 81 61 61 67 61 61 67 47 47 55 47 47 55 56 55 55 209 214 182 187 195 155 209 214 182 187 195 155 
129 153 136 129 153 136 162 175 134 187 195 155 209 214 182 100 100 100 121 121 121 121 121 121 81 81 81 61 61 67 81 81 81 209 214 182 187 195 155 162 175 134 129 153 136 129 153 136 
129 153 136 129 153 136 129 153 136 162 175 134 209 214 182 61 61 67 100 100 100 100 100 100 100 100 100 81 81 81 61 61 67 209 214 182 162 175 134 129 153 136 129 153 136 129 153 136 
110 117 123 110 117 123 3 65 80 3 65 80 64 87 108 81 81 81 100 100 100 81 81 81 100 100 100 121 121 121 100 100 100 64 87 108 3 65 80 3 65 80 110 117 123 110 117 123 
110 117 123 129 153 136 45 45 45 56 55 55 61 61 67 61 61 67 61 61 67 81 81 81 81 81 81 81 81 81 100 100 100 81 81 81 56 55 55 45 45 45 129 153 136 110 117 123 
162 175 134 187 195 155 45 45 45 45 45 45 45 45 45 56 55 55 56 55 55 56 55 55 56 55 55 56 55 55 45 45 45 45 45 45 45 45 45 45 45 45 187 195 155 162 175 134 
