P3
16 16
255
211 187 80 227 204 106 211 187 80 217 194 94 140 104 71 187 168 76 171 115 65 217 194 94 140 104 71 200 177 77 140 104 71 187 168 76 140 104 71 211 187 80 211 187 80 227 204 106 
227 204 106 211 187 80 200 177 77 187 168 76 171 115 65 153 135 65 140 104 71 187 168 76 140 104 71 187 168 76 171 115 65 153 135 65 171 115 65 200 177 77 227 204 106 211 187 80 
211 187 80 200 177 77 104 69 38 140 104 71 123 87 53 140 104 71 104 69 38 140 104 71 123 87 53 140 104 71 123 87 53 140 104 71 123 87 53 104 69 38 211 187 80 200 177 77 
217 194 94 187 168 76 140 104 71 171 115 65 255 255 255 171 115 65 255 255 255 171 115 65 255 255 255 171 115 65 255 255 255 171 115 65 140 104 71 123 87 53 140 104 71 171 115 65 
140 104 71 171 115 65 123 87 53 171 115 65 175 130 91 171 115 65 171 115 65 175 130 91 171 115 65 193 137 88 171 115 65 175 130 91 171 115 65 140 104 71 187 168 76 153 135 65 
187 168 76 153 135 65 140 104 71 193 137 88 255 255 255 193 137 88 255 255 255 193 137 88 255 255 255 171 115 65 255 255 255 193 137 88 255 255 255 123 87 53 140 104 71 171 115 65 
171 115 65 140 104 71 123 87 53 171 115 65 175 130 91 171 115 65 193 137 88 171 115 65 175 130 91 193 137 88 171 115 65 175 130 91 171 115 65 140 104 71 200 177 77 187 168 76 
217 194 94 187 168 76 140 104 71 193 137 88 255 255 255 175 130 91 255 255 255 175 130 91 255 255 255 171 115 65 255 255 255 171 115 65 255 255 255 104 69 38 140 104 71 140 104 71 
140 104 71 140 104 71 123 87 53 171 115 65 171 115 65 193 137 88 171 115 65 193 137 88 171 115 65 193 137 88 171 115 65 193 137 88 171 115 65 140 104 71 217 194 94 187 168 76 
200 177 77 187 168 76 140 104 71 193 137 88 255 255 255 171 115 65 255 255 255 175 130 91 255 255 255 193 137 88 255 255 255 171 115 65 255 255 255 123 87 53 171 115 65 140 104 71 
140 104 71 171 115 65 104 69 38 171 115 65 175 130 91 193 137 88 171 115 65 171 115 65 193 137 88 175 130 91 171 115 65 193 137 88 171 115 65 140 104 71 187 168 76 153 135 65 
187 168 76 153 135 65 140 104 71 171 115 65 255 255 255 193 137 88 255 255 255 175 130 91 255 255 255 171 115 65 255 255 255 193 137 88 255 255 255 123 87 53 140 104 71 171 115 65 
140 104 71 171 115 65 123 87 53 140 104 71 193 137 88 175 130 91 193 137 88 171 115 65 193 137 88 171 115 65 193 137 88 171 115 65 171 115 65 140 104 71 217 194 94 187 168 76 
211 187 80 200 177 77 104 69 38 123 87 53 140 104 71 123 87 53 140 104 71 104 69 38 140 104 71 123 87 53 140 104 71 123 87 53 140 104 71 104 69 38 211 187 80 200 177 77 
211 187 80 227 204 106 211 187 80 140 104 71 187 168 76 140 104 71 200 177 77 140 104 71 217 194 94 171 115 65 187 168 76 140 104 71 217 194 94 211 187 80 211 187 80 227 204 106 
227 204 106 211 187 80 200 177 77 171 115 65 153 135 65 171 115 65 187 168 76 140 104 71 187 168 76 140 104 71 153 135 65 171 115 65 187 168 76 200 177 77 227 204 106 211 187 80 
