P3
16 16
255
211 187 80 200 177 77 217 194 94 123 87 53 187 168 76 123 87 53 200 177 77 123 87 53 211 187 80 123 87 53 187 168 76 123 87 53 200 177 77 211 187 80 211 187 80 200 177 77 
211 187 80 200 177 77 200 177 77 187 168 76 153 135 65 217 194 94 187 168 76 187 168 76 187 168 76 187 168 76 153 135 65 217 194 94 187 168 76 187 168 76 211 187 80 187 168 76 
217 194 94 187 168 76 217 194 94 123 87 53 211 187 80 123 87 53 200 177 77 123 87 53 211 187 80 123 87 53 211 187 80 123 87 53 200 177 77 211 187 80 200 177 77 187 168 76 
239 217 126 217 194 94 187 168 76 187 168 76 217 194 94 153 135 65 187 168 76 187 168 76 187 168 76 187 168 76 217 194 94 153 135 65 187 168 76 200 177 77 217 194 94 217 194 94 
187 168 76 153 135 65 203 172 90 162 137 74 0 0 0 0 0 0 0 0 0 0 0 0 0 0 0 0 0 0 0 0 0 0 0 0 0 0 0 0 0 0 187 168 76 153 135 65 
200 177 77 187 168 76 211 187 80 203 172 90 0 0 0 0 0 0 0 0 0 0 0 0 0 0 0 0 0 0 0 0 0 0 0 0 0 0 0 0 0 0 200 177 77 187 168 76 
211 187 80 200 177 77 230 199 117 203 172 90 0 0 0 0 0 0 0 0 0 0 0 0 0 0 0 0 0 0 0 0 0 0 0 0 0 0 0 0 0 0 211 187 80 187 168 76 
217 194 94 200 177 77 230 199 117 203 172 90 0 0 0 0 0 0 0 0 0 0 0 0 0 0 0 0 0 0 0 0 0 0 0 0 0 0 0 0 0 0 211 187 80 187 168 76 
217 194 94 187 168 76 230 199 117 203 172 90 0 0 0 0 0 0 0 0 0 0 0 0 0 0 0 0 0 0 0 0 0 0 0 0 0 0 0 0 0 0 211 187 80 187 168 76 
211 187 80 187 168 76 211 187 80 203 172 90 0 0 0 0 0 0 0 0 0 0 0 0 0 0 0 0 0 0 0 0 0 0 0 0 0 0 0 0 0 0 200 177 77 187 168 76 
200 177 77 187 168 76 211 187 80 203 172 90 0 0 0 0 0 0 0 0 0 0 0 0 0 0 0 0 0 0 0 0 0 0 0 0 0 0 0 0 0 0 200 177 77 187 168 76 
239 217 126 217 194 94 242 232 166 237 213 140 0 0 0 0 0 0 0 0 0 0 0 0 0 0 0 0 0 0 0 0 0 0 0 0 0 0 0 0 0 0 239 217 126 217 194 94 
187 168 76 153 135 65 203 172 90 162 137 74 0 0 0 0 0 0 0 0 0 0 0 0 0 0 0 0 0 0 0 0 0 0 0 0 0 0 0 0 0 0 187 168 76 153 135 65 
211 187 80 200 177 77 230 199 117 203 172 90 0 0 0 0 0 0 0 0 0 0 0 0 0 0 0 0 0 0 0 0 0 0 0 0 0 0 0 0 0 0 211 187 80 187 168 76 
211 187 80 200 177 77 211 187 80 211 187 80 187 168 76 239 217 126 200 177 77 211 187 80 217 194 94 200 177 77 187 168 76 239 217 126 217 194 94 211 187 80 217 194 94 200 177 77 
211 187 80 200 177 77 200 177 77 200 177 77 153 135 65 217 194 94 187 168 76 187 168 76 187 168 76 187 168 76 153 135 65 217 194 94 187 168 76 200 177 77 211 187 80 200 177 77 
