P3
16 160
255
187 195 155 187 195 155 129 153 136 110 117 123 3 65 80 3 65 80 209 214 182 13 18 23 13 18 23 209 214 182 3 65 80 3 65 80 110 117 123 129 153 136 187 195 155 187 195 155 
187 195 155 3 65 80 11 33 42 13 18 23 13 18 23 13 18 23 13 18 23 13 18 23 13 18 23 13 18 23 13 18 23 13 18 23 13 18 23 11 33 42 3 65 80 187 195 155 
129 153 136 11 33 42 13 18 23 13 18 23 13 18 23 3 25 30 3 59 56 0 88 89 3 59 56 3 25 30 13 18 23 13 18 23 13 18 23 13 18 23 11 33 42 129 153 136 
110 117 123 13 18 23 13 18 23 13 18 23 3 59 56 3 59 56 3 59 56 0 88 89 0 88 89 0 88 89 3 59 56 13 18 23 13 18 23 13 18 23 13 18 23 110 117 123 
3 65 80 13 18 23 13 18 23 3 59 56 13 18 23 0 88 89 3 59 56 3 59 56 13 18 23 7 20 25 3 59 56 3 59 56 13 18 23 13 18 23 13 18 23 3 65 80 
3 65 80 13 18 23 13 18 23 0 88 89 13 18 23 0 88 89 0 88 89 3 25 30 13 18 23 13 18 23 7 20 25 3 59 56 7 20 25 13 18 23 13 18 23 3 65 80 
209 214 182 13 18 23 13 18 23 13 18 23 0 88 89 13 18 23 3 59 56 13 18 23 13 18 23 13 18 23 13 18 23 13 18 23 7 20 25 13 18 23 13 18 23 209 214 182 
13 18 23 13 18 23 13 18 23 3 59 56 0 88 89 0 88 89 13 18 23 13 18 23 13 18 23 13 18 23 13 18 23 13 18 23 13 18 23 13 18 23 13 18 23 13 18 23 
13 18 23 13 18 23 13 18 23 13 18 23 13 18 23 13 18 23 13 18 23 13 18 23 13 18 23 13 18 23 0 88 89 0 88 89 3 59 56 13 18 23 13 18 23 13 18 23 
209 214 182 13 18 23 13 18 23 7 20 25 13 18 23 13 18 23 13 18 23 13 18 23 13 18 23 3 59 56 13 18 23 0 88 89 13 18 23 13 18 23 13 18 23 209 214 182 
3 65 80 13 18 23 13 18 23 7 20 25 3 59 56 7 20 25 13 18 23 13 18 23 3 25 30 0 88 89 0 88 89 13 18 23 0 88 89 13 18 23 13 18 23 3 65 80 
3 65 80 13 18 23 13 18 23 13 18 23 3 59 56 3 59 56 7 20 25 13 18 23 3 59 56 3 59 56 0 88 89 13 18 23 3 59 56 13 18 23 13 18 23 3 65 80 
110 117 123 13 18 23 13 18 23 13 18 23 13 18 23 3 59 56 0 88 89 0 88 89 0 88 89 3 59 56 3 59 56 3 59 56 13 18 23 13 18 23 13 18 23 110 117 123 
129 153 136 11 33 42 13 18 23 13 18 23 13 18 23 13 18 23 3 25 30 3 59 56 0 88 89 3 59 56 3 25 30 13 18 23 13 18 23 13 18 23 11 33 42 129 153 136 
187 195 155 3 65 80 11 33 42 13 18 23 13 18 23 13 18 23 13 18 23 13 18 23 13 18 23 13 18 23 13 18 23 13 18 23 13 18 23 11 33 42 3 65 80 187 195 155 
187 195 155 187 195 155 129 153 136 110 117 123 3 65 80 3 65 80 209 214 182 13 18 23 13 18 23 209 214 182 3 65 80 3 65 80 110 117 123 129 153 136 187 195 155 187 195 155 
187 195 155 187 195 155 129 153 136 110 117 123 3 65 80 3 65 80 209 214 182 13 18 23 13 18 23 209 214 182 3 65 80 3 65 80 110 117 123 129 153 136 187 195 155 187 195 155 
187 195 155 3 65 80 11 33 42 13 18 23 13 18 23 13 18 23 13 18 23 13 18 23 13 18 23 13 18 23 13 18 23 13 18 23 13 18 23 11 33 42 3 65 80 187 195 155 
129 153 136 11 33 42 13 18 23 13 18 23 13 18 23 7 20 25 3 25 30 3 25 30 7 20 25 13 18 23 13 18 23 13 18 23 13 18 23 13 18 23 11 33 42 129 153 136 
110 117 123 13 18 23 13 18 23 3 25 30 3 59 56 0 88 89 0 88 89 3 59 56 3 59 56 7 20 25 13 18 23 13 18 23 13 18 23 13 18 23 13 18 23 110 117 123 
3 65 80 13 18 23 13 18 23 3 59 56 0 88 89 0 88 89 3 59 56 3 25 30 13 18 23 13 18 23 7 20 25 13 18 23 13 18 23 13 18 23 13 18 23 3 65 80 
3 65 80 13 18 23 3 25 30 3 59 56 3 59 56 3 59 56 3 25 30 13 18 23 13 18 23 13 18 23 7 20 25 3 25 30 3 25 30 7 20 25 13 18 23 3 65 80 
209 214 182 13 18 23 3 59 56 13 18 23 0 88 89 3 59 56 7 20 25 13 18 23 13 18 23 13 18 23 3 59 56 0 88 89 0 88 89 0 88 89 13 18 23 209 214 182 
13 18 23 13 18 23 0 88 89 13 18 23 0 88 89 0 88 89 7 20 25 13 18 23 13 18 23 13 18 23 3 59 56 13 18 23 0 88 89 13 18 23 13 18 23 13 18 23 
13 18 23 13 18 23 13 18 23 0 88 89 13 18 23 3 59 56 13 18 23 13 18 23 13 18 23 7 20 25 0 88 89 0 88 89 13 18 23 0 88 89 13 18 23 13 18 23 
209 214 182 13 18 23 0 88 89 0 88 89 0 88 89 3 59 56 13 18 23 13 18 23 13 18 23 7 20 25 3 59 56 0 88 89 13 18 23 3 59 56 13 18 23 209 214 182 
3 65 80 13 18 23 7 20 25 3 25 30 3 25 30 7 20 25 13 18 23 13 18 23 13 18 23 3 25 30 3 59 56 3 59 56 3 59 56 3 25 30 13 18 23 3 65 80 
3 65 80 13 18 23 13 18 23 13 18 23 13 18 23 7 20 25 13 18 23 13 18 23 3 25 30 3 59 56 0 88 89 0 88 89 3 59 56 13 18 23 13 18 23 3 65 80 
110 117 123 13 18 23 13 18 23 13 18 23 13 18 23 13 18 23 7 20 25 3 59 56 3 59 56 0 88 89 0 88 89 3 59 56 3 25 30 13 18 23 13 18 23 110 117 123 
129 153 136 11 33 42 13 18 23 13 18 23 13 18 23 13 18 23 13 18 23 7 20 25 3 25 30 3 25 30 7 20 25 13 18 23 13 18 23 13 18 23 11 33 42 129 153 136 
187 195 155 3 65 80 11 33 42 13 18 23 13 18 23 13 18 23 13 18 23 13 18 23 13 18 23 13 18 23 13 18 23 13 18 23 13 18 23 11 33 42 3 65 80 187 195 155 
187 195 155 187 195 155 129 153 136 110 117 123 3 65 80 3 65 80 209 214 182 13 18 23 13 18 23 209 214 182 3 65 80 3 65 80 110 117 123 129 153 136 187 195 155 187 195 155 
187 195 155 187 195 155 129 153 136 110 117 123 3 65 80 3 65 80 209 214 182 13 18 23 13 18 23 209 214 182 3 65 80 3 65 80 110 117 123 129 153 136 187 195 155 187 195 155 
187 195 155 3 65 80 11 33 42 13 18 23 13 18 23 13 18 23 13 18 23 13 18 23 13 18 23 13 18 23 13 18 23 13 18 23 13 18 23 11 33 42 3 65 80 187 195 155 
129 153 136 11 33 42 13 18 23 13 18 23 13 18 23 13 18 23 13 18 23 13 18 23 13 18 23 7 20 25 7 20 25 3 25 30 13 18 23 13 18 23 11 33 42 129 153 136 
110 117 123 13 18 23 13 18 23 13 18 23 13 18 23 13 18 23 13 18 23 13 18 23 3 25 30 3 59 56 0 88 89 13 18 23 3 25 30 13 18 23 13 18 23 110 117 123 
3 65 80 13 18 23 13 18 23 13 18 23 3 25 30 3 59 56 13 18 23 7 20 25 7 20 25 3 59 56 0 88 89 0 88 89 3 59 56 13 18 23 13 18 23 3 65 80 
3 65 80 13 18 23 13 18 23 3 25 30 3 59 56 3 25 30 13 18 23 13 18 23 3 59 56 13 18 23 0 88 89 13 18 23 3 59 56 3 25 30 13 18 23 3 65 80 
209 214 182 13 18 23 7 20 25 3 59 56 3 59 56 13 18 23 13 18 23 13 18 23 13 18 23 0 88 89 0 88 89 13 18 23 0 88 89 3 59 56 13 18 23 209 214 182 
13 18 23 13 18 23 3 25 30 0 88 89 0 88 89 3 25 30 13 18 23 13 18 23 13 18 23 7 20 25 3 59 56 0 88 89 0 88 89 3 59 56 13 18 23 13 18 23 
13 18 23 13 18 23 3 59 56 0 88 89 0 88 89 3 59 56 7 20 25 13 18 23 13 18 23 13 18 23 3 25 30 0 88 89 0 88 89 3 25 30 13 18 23 13 18 23 
209 214 182 13 18 23 3 59 56 0 88 89 13 18 23 0 88 89 0 88 89 13 18 23 13 18 23 13 18 23 13 18 23 3 59 56 3 59 56 7 20 25 13 18 23 209 214 182 
3 65 80 13 18 23 3 25 30 3 59 56 13 18 23 0 88 89 13 18 23 3 59 56 13 18 23 13 18 23 3 25 30 3 59 56 3 25 30 13 18 23 13 18 23 3 65 80 
3 65 80 13 18 23 13 18 23 3 59 56 0 88 89 0 88 89 3 59 56 7 20 25 7 20 25 13 18 23 3 59 56 3 25 30 13 18 23 13 18 23 13 18 23 3 65 80 
110 117 123 13 18 23 13 18 23 3 25 30 13 18 23 0 88 89 3 59 56 3 25 30 13 18 23 13 18 23 13 18 23 13 18 23 13 18 23 13 18 23 13 18 23 110 117 123 
129 153 136 11 33 42 13 18 23 13 18 23 3 25 30 7 20 25 7 20 25 13 18 23 13 18 23 13 18 23 13 18 23 13 18 23 13 18 23 13 18 23 11 33 42 129 153 136 
187 195 155 3 65 80 11 33 42 13 18 23 13 18 23 13 18 23 13 18 23 13 18 23 13 18 23 13 18 23 13 18 23 13 18 23 13 18 23 11 33 42 3 65 80 187 195 155 
187 195 155 187 195 155 129 153 136 110 117 123 3 65 80 3 65 80 209 214 182 13 18 23 13 18 23 209 214 182 3 65 80 3 65 80 110 117 123 129 153 136 187 195 155 187 195 155 
187 195 155 187 195 155 129 153 136 110 117 123 3 65 80 3 65 80 209 214 182 13 18 23 13 18 23 209 214 182 3 65 80 3 65 80 110 117 123 129 153 136 187 195 155 187 195 155 
187 195 155 3 65 80 11 33 42 13 18 23 13 18 23 13 18 23 13 18 23 7 20 25 3 25 30 3 25 30 13 18 23 13 18 23 13 18 23 11 33 42 3 65 80 187 195 155 
129 153 136 11 33 42 13 18 23 13 18 23 13 18 23 13 18 23 7 20 25 0 88 89 13 18 23 0 88 89 3 59 56 3 25 30 13 18 23 13 18 23 11 33 42 129 153 136 
110 117 123 13 18 23 13 18 23 13 18 23 13 18 23 13 18 23 3 25 30 3 59 56 13 18 23 0 88 89 0 88 89 3 59 56 3 25 30 13 18 23 13 18 23 110 117 123 
3 65 80 13 18 23 13 18 23 13 18 23 7 20 25 13 18 23 7 20 25 13 18 23 0 88 89 13 18 23 0 88 89 0 88 89 3 59 56 13 18 23 13 18 23 3 65 80 
3 65 80 13 18 23 13 18 23 7 20 25 13 18 23 13 18 23 13 18 23 3 59 56 0 88 89 0 88 89 0 88 89 0 88 89 0 88 89 3 25 30 13 18 23 3 65 80 
209 214 182 13 18 23 13 18 23 3 25 30 13 18 23 13 18 23 13 18 23 13 18 23 13 18 23 7 20 25 3 25 30 0 88 89 3 59 56 3 25 30 13 18 23 209 214 182 
13 18 23 13 18 23 13 18 23 3 25 30 7 20 25 13 18 23 13 18 23 13 18 23 13 18 23 13 18 23 13 18 23 3 25 30 3 59 56 7 20 25 13 18 23 13 18 23 
13 18 23 13 18 23 7 20 25 3 59 56 3 25 30 13 18 23 13 18 23 13 18 23 13 18 23 13 18 23 13 18 23 7 20 25 3 25 30 13 18 23 13 18 23 13 18 23 
209 214 182 13 18 23 3 25 30 3 59 56 0 88 89 3 25 30 7 20 25 13 18 23 13 18 23 13 18 23 13 18 23 13 18 23 3 25 30 13 18 23 13 18 23 209 214 182 
3 65 80 13 18 23 3 25 30 0 88 89 0 88 89 0 88 89 0 88 89 0 88 89 3 59 56 13 18 23 13 18 23 13 18 23 7 20 25 13 18 23 13 18 23 3 65 80 
3 65 80 13 18 23 13 18 23 3 59 56 0 88 89 0 88 89 13 18 23 0 88 89 13 18 23 7 20 25 13 18 23 7 20 25 13 18 23 13 18 23 13 18 23 3 65 80 
110 117 123 13 18 23 13 18 23 3 25 30 3 59 56 0 88 89 0 88 89 13 18 23 3 59 56 3 25 30 13 18 23 13 18 23 13 18 23 13 18 23 13 18 23 110 117 123 
129 153 136 11 33 42 13 18 23 13 18 23 3 25 30 3 59 56 0 88 89 13 18 23 0 88 89 7 20 25 13 18 23 13 18 23 13 18 23 13 18 23 11 33 42 129 153 136 
187 195 155 3 65 80 11 33 42 13 18 23 13 18 23 13 18 23 3 25 30 3 25 30 7 20 25 13 18 23 13 18 23 13 18 23 13 18 23 11 33 42 3 65 80 187 195 155 
187 195 155 187 195 155 129 153 136 110 117 123 3 65 80 3 65 80 209 214 182 13 18 23 13 18 23 209 214 182 3 65 80 3 65 80 110 117 123 129 153 136 187 195 155 187 195 155 
187 195 155 187 195 155 129 153 136 110 117 123 3 65 80 3 65 80 209 214 182 13 18 23 13 18 23 209 214 182 3 65 80 3 65 80 110 117 123 129 153 136 187 195 155 187 195 155 
187 195 155 3 65 80 11 33 42 13 18 23 13 18 23 13 18 23 13 18 23 13 18 23 13 18 23 13 18 23 13 18 23 13 18 23 13 18 23 11 33 42 3 65 80 187 195 155 
129 153 136 11 33 42 13 18 23 13 18 23 13 18 23 3 25 30 13 18 23 0 88 89 3 59 56 3 59 56 3 25 30 13 18 23 13 18 23 13 18 23 11 33 42 129 153 136 
110 117 123 13 18 23 13 18 23 13 18 23 13 18 23 3 59 56 13 18 23 0 88 89 0 88 89 0 88 89 3 59 56 3 25 30 13 18 23 13 18 23 13 18 23 110 117 123 
3 65 80 13 18 23 13 18 23 13 18 23 13 18 23 13 18 23 0 88 89 13 18 23 0 88 89 0 88 89 0 88 89 3 59 56 13 18 23 13 18 23 13 18 23 3 65 80 
3 65 80 13 18 23 13 18 23 7 20 25 13 18 23 3 25 30 3 25 30 3 59 56 3 59 56 0 88 89 0 88 89 0 88 89 3 25 30 13 18 23 13 18 23 3 65 80 
209 214 182 13 18 23 13 18 23 7 20 25 13 18 23 13 18 23 13 18 23 13 18 23 13 18 23 3 25 30 3 59 56 0 88 89 3 59 56 3 25 30 13 18 23 209 214 182 
13 18 23 13 18 23 7 20 25 7 20 25 13 18 23 13 18 23 13 18 23 13 18 23 13 18 23 13 18 23 13 18 23 7 20 25 3 59 56 7 20 25 13 18 23 13 18 23 
13 18 23 13 18 23 7 20 25 3 59 56 7 20 25 13 18 23 13 18 23 13 18 23 13 18 23 13 18 23 13 18 23 13 18 23 7 20 25 7 20 25 13 18 23 13 18 23 
209 214 182 13 18 23 3 25 30 3 59 56 0 88 89 3 59 56 3 25 30 13 18 23 13 18 23 13 18 23 13 18 23 13 18 23 7 20 25 13 18 23 13 18 23 209 214 182 
3 65 80 13 18 23 13 18 23 3 25 30 0 88 89 0 88 89 0 88 89 3 59 56 3 59 56 3 25 30 3 25 30 13 18 23 7 20 25 13 18 23 13 18 23 3 65 80 
3 65 80 13 18 23 13 18 23 13 18 23 3 59 56 0 88 89 0 88 89 0 88 89 13 18 23 0 88 89 13 18 23 13 18 23 13 18 23 13 18 23 13 18 23 3 65 80 
110 117 123 13 18 23 13 18 23 13 18 23 3 25 30 3 59 56 0 88 89 0 88 89 0 88 89 13 18 23 3 59 56 13 18 23 13 18 23 13 18 23 13 18 23 110 117 123 
129 153 136 11 33 42 13 18 23 13 18 23 13 18 23 3 25 30 3 59 56 3 59 56 0 88 89 13 18 23 3 25 30 13 18 23 13 18 23 13 18 23 11 33 42 129 153 136 
187 195 155 3 65 80 11 33 42 13 18 23 13 18 23 13 18 23 13 18 23 13 18 23 13 18 23 13 18 23 13 18 23 13 18 23 13 18 23 11 33 42 3 65 80 187 195 155 
187 195 155 187 195 155 129 153 136 110 117 123 3 65 80 3 65 80 209 214 182 13 18 23 13 18 23 209 214 182 3 65 80 3 65 80 110 117 123 129 153 136 187 195 155 187 195 155 
187 195 155 187 195 155 129 153 136 110 117 123 3 65 80 3 65 80 209 214 182 13 18 23 13 18 23 209 214 182 3 65 80 3 65 80 110 117 123 129 153 136 187 195 155 187 195 155 
187 195 155 3 65 80 11 33 42 13 18 23 13 18 23 13 18 23 13 18 23 13 18 23 13 18 23 13 18 23 13 18 23 13 18 23 13 18 23 11 33 42 3 65 80 187 195 155 
129 153 136 11 33 42 13 18 23 13 18 23 13 18 23 3 25 30 3 59 56 0 88 89 3 59 56 3 25 30 13 18 23 13 18 23 13 18 23 13 18 23 11 33 42 129 153 136 
110 117 123 13 18 23 13 18 23 13 18 23 3 59 56 3 59 56 3 59 56 0 88 89 0 88 89 0 88 89 3 59 56 13 18 23 13 18 23 13 18 23 13 18 23 110 117 123 
3 65 80 13 18 23 13 18 23 3 59 56 13 18 23 0 88 89 3 59 56 3 59 56 13 18 23 7 20 25 3 59 56 3 59 56 13 18 23 13 18 23 13 18 23 3 65 80 
3 65 80 13 18 23 13 18 23 0 88 89 13 18 23 0 88 89 0 88 89 3 25 30 13 18 23 13 18 23 7 20 25 3 59 56 7 20 25 13 18 23 13 18 23 3 65 80 
209 214 182 13 18 23 13 18 23 13 18 23 0 88 89 13 18 23 3 59 56 13 18 23 13 18 23 13 18 23 13 18 23 13 18 23 7 20 25 13 18 23 13 18 23 209 214 182 
13 18 23 13 18 23 13 18 23 3 59 56 0 88 89 0 88 89 13 18 23 13 18 23 13 18 23 13 18 23 13 18 23 13 18 23 13 18 23 13 18 23 13 18 23 13 18 23 
13 18 23 13 18 23 13 18 23 13 18 23 13 18 23 13 18 23 13 18 23 13 18 23 13 18 23 13 18 23 0 88 89 0 88 89 3 59 56 13 18 23 13 18 23 13 18 23 
209 214 182 13 18 23 13 18 23 7 20 25 13 18 23 13 18 23 13 18 23 13 18 23 13 18 23 3 59 56 13 18 23 0 88 89 13 18 23 13 18 23 13 18 23 209 214 182 
3 65 80 13 18 23 13 18 23 7 20 25 3 59 56 7 20 25 13 18 23 13 18 23 3 25 30 0 88 89 0 88 89 13 18 23 0 88 89 13 18 23 13 18 23 3 65 80 
3 65 80 13 18 23 13 18 23 13 18 23 3 59 56 3 59 56 7 20 25 13 18 23 3 59 56 3 59 56 0 88 89 13 18 23 3 59 56 13 18 23 13 18 23 3 65 80 
110 117 123 13 18 23 13 18 23 13 18 23 13 18 23 3 59 56 0 88 89 0 88 89 0 88 89 3 59 56 3 59 56 3 59 56 13 18 23 13 18 23 13 18 23 110 117 123 
129 153 136 11 33 42 13 18 23 13 18 23 13 18 23 13 18 23 3 25 30 3 59 56 0 88 89 3 59 56 3 25 30 13 18 23 13 18 23 13 18 23 11 33 42 129 153 136 
187 195 155 3 65 80 11 33 42 13 18 23 13 18 23 13 18 23 13 18 23 13 18 23 13 18 23 13 18 23 13 18 23 13 18 23 13 18 23 11 33 42 3 65 80 187 195 155 
187 195 155 187 195 155 129 153 136 110 117 123 3 65 80 3 65 80 209 214 182 13 18 23 13 18 23 209 214 182 3 65 80 3 65 80 110 117 123 129 153 136 187 195 155 187 195 155 
187 195 155 187 195 155 129 153 136 110 117 123 3 65 80 3 65 80 209 214 182 13 18 23 13 18 23 209 214 182 3 65 80 3 65 80 110 117 123 129 153 136 187 195 155 187 195 155 
187 195 155 3 65 80 11 33 42 13 18 23 13 18 23 13 18 23 13 18 23 13 18 23 13 18 23 13 18 23 13 18 23 13 18 23 13 18 23 11 33 42 3 65 80 187 195 155 
129 153 136 11 33 42 13 18 23 13 18 23 13 18 23 7 20 25 3 25 30 3 25 30 7 20 25 13 18 23 13 18 23 13 18 23 13 18 23 13 18 23 11 33 42 129 153 136 
110 117 123 13 18 23 13 18 23 3 25 30 3 59 56 0 88 89 0 88 89 3 59 56 3 59 56 7 20 25 13 18 23 13 18 23 13 18 23 13 18 23 13 18 23 110 117 123 
3 65 80 13 18 23 13 18 23 3 59 56 0 88 89 0 88 89 3 59 56 3 25 30 13 18 23 13 18 23 7 20 25 13 18 23 13 18 23 13 18 23 13 18 23 3 65 80 
3 65 80 13 18 23 3 25 30 3 59 56 3 59 56 3 59 56 3 25 30 13 18 23 13 18 23 13 18 23 7 20 25 3 25 30 3 25 30 7 20 25 13 18 23 3 65 80 
209 214 182 13 18 23 3 59 56 13 18 23 0 88 89 3 59 56 7 20 25 13 18 23 13 18 23 13 18 23 3 59 56 0 88 89 0 88 89 0 88 89 13 18 23 209 214 182 
13 18 23 13 18 23 0 88 89 13 18 23 0 88 89 0 88 89 7 20 25 13 18 23 13 18 23 13 18 23 3 59 56 13 18 23 0 88 89 13 18 23 13 18 23 13 18 23 
13 18 23 13 18 23 13 18 23 0 88 89 13 18 23 3 59 56 13 18 23 13 18 23 13 18 23 7 20 25 0 88 89 0 88 89 13 18 23 0 88 89 13 18 23 13 18 23 
209 214 182 13 18 23 0 88 89 0 88 89 0 88 89 3 59 56 13 18 23 13 18 23 13 18 23 7 20 25 3 59 56 0 88 89 13 18 23 3 59 56 13 18 23 209 214 182 
3 65 80 13 18 23 7 20 25 3 25 30 3 25 30 7 20 25 13 18 23 13 18 23 13 18 23 3 25 30 3 59 56 3 59 56 3 59 56 3 25 30 13 18 23 3 65 80 
3 65 80 13 18 23 13 18 23 13 18 23 13 18 23 7 20 25 13 18 23 13 18 23 3 25 30 3 59 56 0 88 89 0 88 89 3 59 56 13 18 23 13 18 23 3 65 80 
110 117 123 13 18 23 13 18 23 13 18 23 13 18 23 13 18 23 7 20 25 3 59 56 3 59 56 0 88 89 0 88 89 3 59 56 3 25 30 13 18 23 13 18 23 110 117 123 
129 153 136 11 33 42 13 18 23 13 18 23 13 18 23 13 18 23 13 18 23 7 20 25 3 25 30 3 25 30 7 20 25 13 18 23 13 18 23 13 18 23 11 33 42 129 153 136 
187 195 155 3 65 80 11 33 42 13 18 23 13 18 23 13 18 23 13 18 23 13 18 23 13 18 23 13 18 23 13 18 23 13 18 23 13 18 23 11 33 42 3 65 80 187 195 155 
187 195 155 187 195 155 129 153 136 110 117 123 3 65 80 3 65 80 209 214 182 13 18 23 13 18 23 209 214 182 3 65 80 3 65 80 110 117 123 129 153 136 187 195 155 187 195 155 
187 195 155 187 195 155 129 153 136 110 117 123 3 65 80 3 65 80 209 214 182 13 18 23 13 18 23 209 214 182 3 65 80 3 65 80 110 117 123 129 153 136 187 195 155 187 195 155 
187 195 155 3 65 80 11 33 42 13 18 23 13 18 23 13 18 23 13 18 23 13 18 23 13 18 23 13 18 23 13 18 23 13 18 23 13 18 23 11 33 42 3 65 80 187 195 155 
129 153 136 11 33 42 13 18 23 13 18 23 13 18 23 13 18 23 13 18 23 13 18 23 13 18 23 7 20 25 7 20 25 3 25 30 13 18 23 13 18 23 11 33 42 129 153 136 
110 117 123 13 18 23 13 18 23 13 18 23 13 18 23 13 18 23 13 18 23 13 18 23 3 25 30 3 59 56 0 88 89 13 18 23 3 25 30 13 18 23 13 18 23 110 117 123 
3 65 80 13 18 23 13 18 23 13 18 23 3 25 30 3 59 56 13 18 23 7 20 25 7 20 25 3 59 56 0 88 89 0 88 89 3 59 56 13 18 23 13 18 23 3 65 80 
3 65 80 13 18 23 13 18 23 3 25 30 3 59 56 3 25 30 13 18 23 13 18 23 3 59 56 13 18 23 0 88 89 13 18 23 3 59 56 3 25 30 13 18 23 3 65 80 
209 214 182 13 18 23 7 20 25 3 59 56 3 59 56 13 18 23 13 18 23 13 18 23 13 18 23 0 88 89 0 88 89 13 18 23 0 88 89 3 59 56 13 18 23 209 214 182 
13 18 23 13 18 23 3 25 30 0 88 89 0 88 89 3 25 30 13 18 23 13 18 23 13 18 23 7 20 25 3 59 56 0 88 89 0 88 89 3 59 56 13 18 23 13 18 23 
13 18 23 13 18 23 3 59 56 0 88 89 0 88 89 3 59 56 7 20 25 13 18 23 13 18 23 13 18 23 3 25 30 0 88 89 0 88 89 3 25 30 13 18 23 13 18 23 
209 214 182 13 18 23 3 59 56 0 88 89 13 18 23 0 88 89 0 88 89 13 18 23 13 18 23 13 18 23 13 18 23 3 59 56 3 59 56 7 20 25 13 18 23 209 214 182 
3 65 80 13 18 23 3 25 30 3 59 56 13 18 23 0 88 89 13 18 23 3 59 56 13 18 23 13 18 23 3 25 30 3 59 56 3 25 30 13 18 23 13 18 23 3 65 80 
3 65 80 13 18 23 13 18 23 3 59 56 0 88 89 0 88 89 3 59 56 7 20 25 7 20 25 13 18 23 3 59 56 3 25 30 13 18 23 13 18 23 13 18 23 3 65 80 
110 117 123 13 18 23 13 18 23 3 25 30 13 18 23 0 88 89 3 59 56 3 25 30 13 18 23 13 18 23 13 18 23 13 18 23 13 18 23 13 18 23 13 18 23 110 117 123 
129 153 136 11 33 42 13 18 23 13 18 23 3 25 30 7 20 25 7 20 25 13 18 23 13 18 23 13 18 23 13 18 23 13 18 23 13 18 23 13 18 23 11 33 42 129 153 136 
187 195 155 3 65 80 11 33 42 13 18 23 13 18 23 13 18 23 13 18 23 13 18 23 13 18 23 13 18 23 13 18 23 13 18 23 13 18 23 11 33 42 3 65 80 187 195 155 
187 195 155 187 195 155 129 153 136 110 117 123 3 65 80 3 65 80 209 214 182 13 18 23 13 18 23 209 214 182 3 65 80 3 65 80 110 117 123 129 153 136 187 195 155 187 195 155 
187 195 155 187 195 155 129 153 136 110 117 123 3 65 80 3 65 80 209 214 182 13 18 23 13 18 23 209 214 182 3 65 80 3 65 80 110 117 123 129 153 136 187 195 155 187 195 155 
187 195 155 3 65 80 11 33 42 13 18 23 13 18 23 13 18 23 13 18 23 7 20 25 3 25 30 3 25 30 13 18 23 13 18 23 13 18 23 11 33 42 3 65 80 187 195 155 
129 153 136 11 33 42 13 18 23 13 18 23 13 18 23 13 18 23 7 20 25 0 88 89 13 18 23 0 88 89 3 59 56 3 25 30 13 18 23 13 18 23 11 33 42 129 153 136 
110 117 123 13 18 23 13 18 23 13 18 23 13 18 23 13 18 23 3 25 30 3 59 56 13 18 23 0 88 89 0 88 89 3 59 56 3 25 30 13 18 23 13 18 23 110 117 123 
3 65 80 13 18 23 13 18 23 13 18 23 7 20 25 13 18 23 7 20 25 13 18 23 0 88 89 13 18 23 0 88 89 0 88 89 3 59 56 13 18 23 13 18 23 3 65 80 
3 65 80 13 18 23 13 18 23 7 20 25 13 18 23 13 18 23 13 18 23 3 59 56 0 88 89 0 88 89 0 88 89 0 88 89 0 88 89 3 25 30 13 18 23 3 65 80 
209 214 182 13 18 23 13 18 23 3 25 30 13 18 23 13 18 23 13 18 23 13 18 23 13 18 23 7 20 25 3 25 30 0 88 89 3 59 56 3 25 30 13 18 23 209 214 182 
13 18 23 13 18 23 13 18 23 3 25 30 7 20 25 13 18 23 13 18 23 13 18 23 13 18 23 13 18 23 13 18 23 3 25 30 3 59 56 7 20 25 13 18 23 13 18 23 
13 18 23 13 18 23 7 20 25 3 59 56 3 25 30 13 18 23 13 18 23 13 18 23 13 18 23 13 18 23 13 18 23 7 20 25 3 25 30 13 18 23 13 18 23 13 18 23 
209 214 182 13 18 23 3 25 30 3 59 56 0 88 89 3 25 30 7 20 25 13 18 23 13 18 23 13 18 23 13 18 23 13 18 23 3 25 30 13 18 23 13 18 23 209 214 182 
3 65 80 13 18 23 3 25 30 0 88 89 0 88 89 0 88 89 0 88 89 0 88 89 3 59 56 13 18 23 13 18 23 13 18 23 7 20 25 13 18 23 13 18 23 3 65 80 
3 65 80 13 18 23 13 18 23 3 59 56 0 88 89 0 88 89 13 18 23 0 88 89 13 18 23 7 20 25 13 18 23 7 20 25 13 18 23 13 18 23 13 18 23 3 65 80 
110 117 123 13 18 23 13 18 23 3 25 30 3 59 56 0 88 89 0 88 89 13 18 23 3 59 56 3 25 30 13 18 23 13 18 23 13 18 23 13 18 23 13 18 23 110 117 123 
129 153 136 11 33 42 13 18 23 13 18 23 3 25 30 3 59 56 0 88 89 13 18 23 0 88 89 7 20 25 13 18 23 13 18 23 13 18 23 13 18 23 11 33 42 129 153 136 
187 195 155 3 65 80 11 33 42 13 18 23 13 18 23 13 18 23 3 25 30 3 25 30 7 20 25 13 18 23 13 18 23 13 18 23 13 18 23 11 33 42 3 65 80 187 195 155 
187 195 155 187 195 155 129 153 136 110 117 123 3 65 80 3 65 80 209 214 182 13 18 23 13 18 23 209 214 182 3 65 80 3 65 80 110 117 123 129 153 136 187 195 155 187 195 155 
187 195 155 187 195 155 129 153 136 110 117 123 3 65 80 3 65 80 209 214 182 13 18 23 13 18 23 209 214 182 3 65 80 3 65 80 110 117 123 129 153 136 187 195 155 187 195 155 
187 195 155 3 65 80 11 33 42 13 18 23 13 18 23 13 18 23 13 18 23 13 18 23 13 18 23 13 18 23 13 18 23 13 18 23 13 18 23 11 33 42 3 65 80 187 195 155 
129 153 136 11 33 42 13 18 23 13 18 23 13 18 23 3 25 30 13 18 23 0 88 89 3 59 56 3 59 56 3 25 30 13 18 23 13 18 23 13 18 23 11 33 42 129 153 136 
110 117 123 13 18 23 13 18 23 13 18 23 13 18 23 3 59 56 13 18 23 0 88 89 0 88 89 0 88 89 3 59 56 3 25 30 13 18 23 13 18 23 13 18 23 110 117 123 
3 65 80 13 18 23 13 18 23 13 18 23 13 18 23 13 18 23 0 88 89 13 18 23 0 88 89 0 88 89 0 88 89 3 59 56 13 18 23 13 18 23 13 18 23 3 65 80 
3 65 80 13 18 23 13 18 23 7 20 25 13 18 23 3 25 30 3 25 30 3 59 56 3 59 56 0 88 89 0 88 89 0 88 89 3 25 30 13 18 23 13 18 23 3 65 80 
209 214 182 13 18 23 13 18 23 7 20 25 13 18 23 13 18 23 13 18 23 13 18 23 13 18 23 3 25 30 3 59 56 0 88 89 3 59 56 3 25 30 13 18 23 209 214 182 
13 18 23 13 18 23 7 20 25 7 20 25 13 18 23 13 18 23 13 18 23 13 18 23 13 18 23 13 18 23 13 18 23 7 20 25 3 59 56 7 20 25 13 18 23 13 18 23 
13 18 23 13 18 23 7 20 25 3 59 56 7 20 25 13 18 23 13 18 23 13 18 23 13 18 23 13 18 23 13 18 23 13 18 23 7 20 25 7 20 25 13 18 23 13 18 23 
209 214 182 13 18 23 3 25 30 3 59 56 0 88 89 3 59 56 3 25 30 13 18 23 13 18 23 13 18 23 13 18 23 13 18 23 7 20 25 13 18 23 13 18 23 209 214 182 
3 65 80 13 18 23 13 18 23 3 25 30 0 88 89 0 88 89 0 88 89 3 59 56 3 59 56 3 25 30 3 25 30 13 18 23 7 20 25 13 18 23 13 18 23 3 65 80 
3 65 80 13 18 23 13 18 23 13 18 23 3 59 56 0 88 89 0 88 89 0 88 89 13 18 23 0 88 89 13 18 23 13 18 23 13 18 23 13 18 23 13 18 23 3 65 80 
110 117 123 13 18 23 13 18 23 13 18 23 3 25 30 3 59 56 0 88 89 0 88 89 0 88 89 13 18 23 3 59 56 13 18 23 13 18 23 13 18 23 13 18 23 110 117 123 
129 153 136 11 33 42 13 18 23 13 18 23 13 18 23 3 25 30 3 59 56 3 59 56 0 88 89 13 18 23 3 25 30 13 18 23 13 18 23 13 18 23 11 33 42 129 153 136 
187 195 155 3 65 80 11 33 42 13 18 23 13 18 23 13 18 23 13 18 23 13 18 23 13 18 23 13 18 23 13 18 23 13 18 23 13 18 23 11 33 42 3 65 80 187 195 155 
187 195 155 187 195 155 129 153 136 110 117 123 3 65 80 3 65 80 209 214 182 13 18 23 13 18 23 209 214 182 3 65 80 3 65 80 110 117 123 129 153 136 187 195 155 187 195 155 
