P3
16 128
255
13 18 23 13 18 23 13 18 23 13 18 23 17 27 33 17 27 33 17 27 33 5 42 50 17 27 33 5 42 50 13 18 23 13 18 23 17 27 33 17 27 33 5 42 50 13 18 23 
13 18 23 13 18 23 17 27 33 5 42 50 13 18 23 13 18 23 13 18 23 17 27 33 17 27 33 17 27 33 17 27 33 13 18 23 5 42 50 17 27 33 17 27 33 17 27 33 
13 18 23 13 18 23 5 42 50 41 223 235 5 42 50 13 18 23 13 18 23 13 18 23 17 27 33 17 27 33 13 18 23 5 42 50 0 146 149 5 42 50 17 27 33 17 27 33 
17 27 33 17 27 33 13 18 23 5 42 50 17 27 33 17 27 33 13 18 23 13 18 23 17 27 33 5 42 50 17 27 33 13 18 23 5 42 50 13 18 23 17 27 33 5 42 50 
17 27 33 5 42 50 17 27 33 17 27 33 17 27 33 17 27 33 17 27 33 13 18 23 13 18 23 17 27 33 13 18 23 13 18 23 13 18 23 13 18 23 13 18 23 17 27 33 
13 18 23 17 27 33 17 27 33 17 27 33 17 27 33 5 42 50 64 87 108 17 27 33 13 18 23 5 42 50 17 27 33 17 27 33 13 18 23 13 18 23 17 27 33 13 18 23 
13 18 23 13 18 23 5 42 50 17 27 33 17 27 33 17 27 33 17 27 33 13 18 23 5 42 50 41 223 235 5 42 50 13 18 23 13 18 23 17 27 33 64 87 108 17 27 33 
13 18 23 13 18 23 64 87 108 13 18 23 13 18 23 13 18 23 17 27 33 27 104 100 11 180 170 5 42 50 17 27 33 13 18 23 13 18 23 17 27 33 17 27 33 17 27 33 
17 27 33 64 87 108 41 223 235 64 87 108 13 18 23 13 18 23 13 18 23 11 180 170 27 104 100 17 27 33 13 18 23 13 18 23 17 27 33 13 18 23 5 42 50 13 18 23 
13 18 23 17 27 33 64 87 108 5 42 50 17 27 33 13 18 23 17 27 33 5 42 50 17 27 33 17 27 33 17 27 33 13 18 23 13 18 23 17 27 33 17 27 33 13 18 23 
13 18 23 17 27 33 17 27 33 5 42 50 13 18 23 13 18 23 13 18 23 17 27 33 17 27 33 13 18 23 17 27 33 13 18 23 5 42 50 13 18 23 13 18 23 17 27 33 
17 27 33 13 18 23 5 42 50 0 146 149 5 42 50 13 18 23 17 27 33 17 27 33 17 27 33 13 18 23 13 18 23 5 42 50 64 87 108 5 42 50 13 18 23 13 18 23 
17 27 33 17 27 33 13 18 23 5 42 50 13 18 23 13 18 23 13 18 23 17 27 33 0 146 149 17 27 33 13 18 23 13 18 23 5 42 50 17 27 33 17 27 33 13 18 23 
17 27 33 5 42 50 17 27 33 13 18 23 13 18 23 13 18 23 13 18 23 13 18 23 17 27 33 13 18 23 13 18 23 13 18 23 13 18 23 17 27 33 13 18 23 13 18 23 
13 18 23 17 27 33 13 18 23 13 18 23 13 18 23 17 27 33 13 18 23 17 27 33 13 18 23 5 42 50 13 18 23 13 18 23 13 18 23 13 18 23 5 42 50 17 27 33 
13 18 23 13 18 23 13 18 23 13 18 23 17 27 33 64 87 108 17 27 33 17 27 33 5 42 50 41 223 235 5 42 50 13 18 23 17 27 33 5 42 50 64 87 108 5 42 50 
13 18 23 13 18 23 13 18 23 13 18 23 17 27 33 17 27 33 17 27 33 5 42 50 17 27 33 5 42 50 13 18 23 13 18 23 17 27 33 17 27 33 5 42 50 13 18 23 
13 18 23 13 18 23 17 27 33 5 42 50 13 18 23 13 18 23 13 18 23 17 27 33 17 27 33 17 27 33 17 27 33 13 18 23 5 42 50 17 27 33 17 27 33 17 27 33 
13 18 23 13 18 23 5 42 50 41 223 235 5 42 50 13 18 23 13 18 23 13 18 23 17 27 33 17 27 33 13 18 23 5 42 50 0 146 149 5 42 50 17 27 33 17 27 33 
17 27 33 17 27 33 13 18 23 5 42 50 17 27 33 17 27 33 13 18 23 13 18 23 17 27 33 5 42 50 17 27 33 13 18 23 5 42 50 13 18 23 17 27 33 5 42 50 
17 27 33 5 42 50 17 27 33 17 27 33 17 27 33 17 27 33 17 27 33 13 18 23 13 18 23 17 27 33 13 18 23 13 18 23 13 18 23 13 18 23 13 18 23 17 27 33 
13 18 23 17 27 33 17 27 33 17 27 33 17 27 33 5 42 50 64 87 108 11 180 170 27 104 100 5 42 50 17 27 33 17 27 33 13 18 23 13 18 23 17 27 33 13 18 23 
13 18 23 13 18 23 5 42 50 17 27 33 17 27 33 17 27 33 11 180 170 13 18 23 5 42 50 44 227 235 5 42 50 13 18 23 13 18 23 17 27 33 64 87 108 17 27 33 
13 18 23 13 18 23 64 87 108 13 18 23 13 18 23 27 104 100 17 27 33 13 18 23 17 27 33 5 42 50 11 180 170 13 18 23 13 18 23 17 27 33 17 27 33 17 27 33 
17 27 33 64 87 108 41 223 235 64 87 108 13 18 23 27 104 100 13 18 23 17 27 33 13 18 23 17 27 33 27 104 100 13 18 23 17 27 33 13 18 23 5 42 50 13 18 23 
13 18 23 17 27 33 64 87 108 5 42 50 17 27 33 13 18 23 11 180 170 5 42 50 17 27 33 11 180 170 17 27 33 13 18 23 13 18 23 17 27 33 17 27 33 13 18 23 
13 18 23 17 27 33 17 27 33 5 42 50 13 18 23 13 18 23 13 18 23 11 180 170 11 180 170 13 18 23 17 27 33 13 18 23 5 42 50 13 18 23 13 18 23 17 27 33 
17 27 33 13 18 23 5 42 50 0 146 149 5 42 50 13 18 23 17 27 33 17 27 33 17 27 33 13 18 23 13 18 23 5 42 50 64 87 108 5 42 50 13 18 23 13 18 23 
17 27 33 17 27 33 13 18 23 5 42 50 13 18 23 13 18 23 13 18 23 17 27 33 0 146 149 17 27 33 13 18 23 13 18 23 5 42 50 17 27 33 17 27 33 13 18 23 
17 27 33 5 42 50 17 27 33 13 18 23 13 18 23 13 18 23 13 18 23 13 18 23 17 27 33 13 18 23 13 18 23 13 18 23 13 18 23 17 27 33 13 18 23 13 18 23 
13 18 23 17 27 33 13 18 23 13 18 23 13 18 23 17 27 33 13 18 23 17 27 33 13 18 23 5 42 50 13 18 23 13 18 23 13 18 23 13 18 23 5 42 50 17 27 33 
13 18 23 13 18 23 13 18 23 13 18 23 17 27 33 64 87 108 17 27 33 17 27 33 5 42 50 41 223 235 5 42 50 13 18 23 17 27 33 5 42 50 64 87 108 5 42 50 
13 18 23 13 18 23 13 18 23 13 18 23 17 27 33 17 27 33 17 27 33 5 42 50 17 27 33 5 42 50 13 18 23 13 18 23 17 27 33 17 27 33 5 42 50 13 18 23 
13 18 23 13 18 23 17 27 33 5 42 50 13 18 23 13 18 23 13 18 23 17 27 33 17 27 33 17 27 33 17 27 33 13 18 23 5 42 50 17 27 33 17 27 33 17 27 33 
13 18 23 13 18 23 5 42 50 41 223 235 5 42 50 13 18 23 13 18 23 13 18 23 17 27 33 17 27 33 13 18 23 5 42 50 0 146 149 5 42 50 17 27 33 17 27 33 
17 27 33 17 27 33 13 18 23 5 42 50 17 27 33 17 27 33 27 104 100 27 104 100 11 180 170 22 222 236 17 27 33 13 18 23 5 42 50 13 18 23 17 27 33 5 42 50 
17 27 33 5 42 50 17 27 33 17 27 33 17 27 33 11 180 170 17 27 33 13 18 23 13 18 23 17 27 33 27 104 100 13 18 23 13 18 23 13 18 23 13 18 23 17 27 33 
13 18 23 17 27 33 17 27 33 17 27 33 11 180 170 5 42 50 64 87 108 17 27 33 13 18 23 5 42 50 17 27 33 11 180 170 13 18 23 13 18 23 17 27 33 13 18 23 
13 18 23 13 18 23 5 42 50 11 180 170 17 27 33 17 27 33 17 27 33 13 18 23 5 42 50 41 223 235 5 42 50 13 18 23 27 104 100 17 27 33 64 87 108 17 27 33 
13 18 23 13 18 23 64 87 108 27 104 100 13 18 23 13 18 23 17 27 33 13 18 23 17 27 33 5 42 50 17 27 33 13 18 23 27 104 100 17 27 33 17 27 33 17 27 33 
17 27 33 64 87 108 41 223 235 62 123 138 13 18 23 13 18 23 13 18 23 17 27 33 13 18 23 17 27 33 13 18 23 13 18 23 11 180 170 13 18 23 5 42 50 13 18 23 
13 18 23 17 27 33 64 87 108 22 222 236 17 27 33 13 18 23 17 27 33 5 42 50 17 27 33 17 27 33 17 27 33 13 18 23 27 104 100 17 27 33 17 27 33 13 18 23 
13 18 23 17 27 33 17 27 33 5 42 50 27 104 100 13 18 23 13 18 23 17 27 33 17 27 33 13 18 23 17 27 33 27 104 100 5 42 50 13 18 23 13 18 23 17 27 33 
17 27 33 13 18 23 5 42 50 0 146 149 5 42 50 27 104 100 17 27 33 17 27 33 17 27 33 13 18 23 27 104 100 5 42 50 64 87 108 5 42 50 13 18 23 13 18 23 
17 27 33 17 27 33 13 18 23 5 42 50 13 18 23 13 18 23 27 104 100 11 180 170 12 168 169 11 180 170 13 18 23 13 18 23 5 42 50 17 27 33 17 27 33 13 18 23 
17 27 33 5 42 50 17 27 33 13 18 23 13 18 23 13 18 23 13 18 23 13 18 23 17 27 33 13 18 23 13 18 23 13 18 23 13 18 23 17 27 33 13 18 23 13 18 23 
13 18 23 17 27 33 13 18 23 13 18 23 13 18 23 17 27 33 13 18 23 17 27 33 13 18 23 5 42 50 13 18 23 13 18 23 13 18 23 13 18 23 5 42 50 17 27 33 
13 18 23 13 18 23 13 18 23 13 18 23 17 27 33 64 87 108 17 27 33 17 27 33 5 42 50 41 223 235 5 42 50 13 18 23 17 27 33 5 42 50 64 87 108 5 42 50 
13 18 23 13 18 23 13 18 23 13 18 23 17 27 33 17 27 33 17 27 33 5 42 50 17 27 33 5 42 50 13 18 23 13 18 23 17 27 33 17 27 33 5 42 50 13 18 23 
13 18 23 13 18 23 17 27 33 5 42 50 13 18 23 13 18 23 27 104 100 11 180 170 11 180 170 11 180 170 17 27 33 13 18 23 5 42 50 17 27 33 17 27 33 17 27 33 
13 18 23 13 18 23 5 42 50 41 223 235 22 222 236 27 104 100 13 18 23 13 18 23 17 27 33 17 27 33 27 104 100 22 222 236 0 146 149 5 42 50 17 27 33 17 27 33 
17 27 33 17 27 33 13 18 23 22 222 236 17 27 33 17 27 33 13 18 23 13 18 23 17 27 33 5 42 50 17 27 33 13 18 23 22 222 236 13 18 23 17 27 33 5 42 50 
17 27 33 5 42 50 11 180 170 17 27 33 17 27 33 17 27 33 17 27 33 13 18 23 13 18 23 17 27 33 13 18 23 13 18 23 13 18 23 27 104 100 13 18 23 17 27 33 
13 18 23 17 27 33 11 180 170 17 27 33 17 27 33 5 42 50 64 87 108 17 27 33 13 18 23 5 42 50 17 27 33 17 27 33 13 18 23 27 104 100 17 27 33 13 18 23 
13 18 23 27 104 100 5 42 50 17 27 33 17 27 33 17 27 33 17 27 33 13 18 23 5 42 50 41 223 235 5 42 50 13 18 23 13 18 23 17 27 33 62 123 138 17 27 33 
13 18 23 27 104 100 64 87 108 13 18 23 13 18 23 13 18 23 17 27 33 13 18 23 17 27 33 5 42 50 17 27 33 13 18 23 13 18 23 17 27 33 11 180 170 17 27 33 
17 27 33 62 123 138 41 223 235 64 87 108 13 18 23 13 18 23 13 18 23 17 27 33 13 18 23 17 27 33 13 18 23 13 18 23 17 27 33 13 18 23 22 222 236 13 18 23 
13 18 23 11 180 170 64 87 108 5 42 50 17 27 33 13 18 23 17 27 33 5 42 50 17 27 33 17 27 33 17 27 33 13 18 23 13 18 23 17 27 33 11 180 170 13 18 23 
13 18 23 17 27 33 11 180 170 5 42 50 13 18 23 13 18 23 13 18 23 17 27 33 17 27 33 13 18 23 17 27 33 13 18 23 5 42 50 27 104 100 13 18 23 17 27 33 
17 27 33 13 18 23 22 222 236 0 146 149 5 42 50 13 18 23 17 27 33 17 27 33 17 27 33 13 18 23 13 18 23 5 42 50 64 87 108 22 222 236 13 18 23 13 18 23 
17 27 33 17 27 33 13 18 23 22 222 236 13 18 23 13 18 23 13 18 23 17 27 33 0 146 149 17 27 33 13 18 23 13 18 23 22 222 236 17 27 33 17 27 33 13 18 23 
17 27 33 5 42 50 17 27 33 13 18 23 27 104 100 27 104 100 13 18 23 13 18 23 17 27 33 13 18 23 27 104 100 27 104 100 13 18 23 17 27 33 13 18 23 13 18 23 
13 18 23 17 27 33 13 18 23 13 18 23 13 18 23 17 27 33 27 104 100 11 180 170 27 104 100 22 222 236 13 18 23 13 18 23 13 18 23 13 18 23 5 42 50 17 27 33 
13 18 23 13 18 23 13 18 23 13 18 23 17 27 33 64 87 108 17 27 33 17 27 33 5 42 50 41 223 235 5 42 50 13 18 23 17 27 33 5 42 50 64 87 108 5 42 50 
13 18 23 13 18 23 13 18 23 13 18 23 17 27 33 11 180 170 11 180 170 22 222 236 11 180 170 22 222 236 27 104 100 13 18 23 17 27 33 17 27 33 5 42 50 13 18 23 
13 18 23 13 18 23 17 27 33 5 42 50 27 104 100 13 18 23 13 18 23 17 27 33 17 27 33 17 27 33 17 27 33 27 104 100 5 42 50 17 27 33 17 27 33 17 27 33 
13 18 23 13 18 23 5 42 50 44 227 235 22 222 236 13 18 23 13 18 23 13 18 23 17 27 33 17 27 33 13 18 23 22 222 236 12 168 169 5 42 50 17 27 33 17 27 33 
17 27 33 17 27 33 27 104 100 5 42 50 17 27 33 17 27 33 13 18 23 13 18 23 17 27 33 5 42 50 17 27 33 13 18 23 5 42 50 27 104 100 17 27 33 5 42 50 
17 27 33 22 222 236 17 27 33 17 27 33 17 27 33 17 27 33 17 27 33 13 18 23 13 18 23 17 27 33 13 18 23 13 18 23 13 18 23 13 18 23 27 104 100 17 27 33 
27 104 100 17 27 33 17 27 33 17 27 33 17 27 33 5 42 50 64 87 108 17 27 33 13 18 23 5 42 50 17 27 33 17 27 33 13 18 23 13 18 23 17 27 33 27 104 100 
27 104 100 13 18 23 5 42 50 17 27 33 17 27 33 17 27 33 17 27 33 13 18 23 5 42 50 41 223 235 5 42 50 13 18 23 13 18 23 17 27 33 64 87 108 11 180 170 
27 104 100 13 18 23 64 87 108 13 18 23 13 18 23 13 18 23 17 27 33 13 18 23 17 27 33 5 42 50 17 27 33 13 18 23 13 18 23 17 27 33 17 27 33 11 180 170 
11 180 170 64 87 108 41 223 235 64 87 108 13 18 23 13 18 23 13 18 23 17 27 33 13 18 23 17 27 33 13 18 23 13 18 23 17 27 33 13 18 23 5 42 50 27 104 100 
27 104 100 17 27 33 64 87 108 5 42 50 17 27 33 13 18 23 17 27 33 5 42 50 17 27 33 17 27 33 17 27 33 13 18 23 13 18 23 17 27 33 17 27 33 27 104 100 
27 104 100 17 27 33 17 27 33 5 42 50 13 18 23 13 18 23 13 18 23 17 27 33 17 27 33 13 18 23 17 27 33 13 18 23 5 42 50 13 18 23 13 18 23 11 180 170 
17 27 33 27 104 100 5 42 50 0 146 149 5 42 50 13 18 23 17 27 33 17 27 33 17 27 33 13 18 23 13 18 23 5 42 50 64 87 108 5 42 50 27 104 100 13 18 23 
17 27 33 17 27 33 27 104 100 5 42 50 13 18 23 13 18 23 13 18 23 17 27 33 0 146 149 17 27 33 13 18 23 13 18 23 5 42 50 11 180 170 17 27 33 13 18 23 
17 27 33 5 42 50 17 27 33 27 104 100 13 18 23 13 18 23 13 18 23 13 18 23 17 27 33 13 18 23 13 18 23 13 18 23 27 104 100 17 27 33 13 18 23 13 18 23 
13 18 23 17 27 33 13 18 23 13 18 23 27 104 100 17 27 33 13 18 23 17 27 33 13 18 23 5 42 50 13 18 23 27 104 100 13 18 23 13 18 23 5 42 50 17 27 33 
13 18 23 13 18 23 13 18 23 13 18 23 17 27 33 62 123 138 11 180 170 11 180 170 22 222 236 44 227 235 22 222 236 13 18 23 17 27 33 5 42 50 64 87 108 5 42 50 
13 18 23 13 18 23 13 18 23 27 104 100 11 180 170 11 180 170 11 180 170 22 222 236 11 180 170 22 222 236 27 104 100 27 104 100 11 180 170 17 27 33 5 42 50 13 18 23 
13 18 23 13 18 23 11 180 170 5 42 50 13 18 23 13 18 23 13 18 23 17 27 33 17 27 33 17 27 33 17 27 33 13 18 23 5 42 50 11 180 170 17 27 33 17 27 33 
13 18 23 27 104 100 5 42 50 41 223 235 5 42 50 13 18 23 13 18 23 13 18 23 17 27 33 17 27 33 13 18 23 5 42 50 0 146 149 5 42 50 11 180 170 17 27 33 
11 180 170 17 27 33 13 18 23 5 42 50 17 27 33 17 27 33 13 18 23 13 18 23 17 27 33 5 42 50 17 27 33 13 18 23 5 42 50 13 18 23 17 27 33 22 222 236 
11 180 170 5 42 50 17 27 33 17 27 33 17 27 33 17 27 33 17 27 33 13 18 23 13 18 23 17 27 33 13 18 23 13 18 23 13 18 23 13 18 23 13 18 23 11 180 170 
27 104 100 17 27 33 17 27 33 17 27 33 17 27 33 5 42 50 64 87 108 17 27 33 13 18 23 5 42 50 17 27 33 17 27 33 13 18 23 13 18 23 17 27 33 27 104 100 
27 104 100 13 18 23 5 42 50 17 27 33 17 27 33 17 27 33 17 27 33 13 18 23 5 42 50 41 223 235 5 42 50 13 18 23 13 18 23 17 27 33 64 87 108 11 180 170 
27 104 100 13 18 23 64 87 108 13 18 23 13 18 23 13 18 23 17 27 33 13 18 23 17 27 33 5 42 50 17 27 33 13 18 23 13 18 23 17 27 33 17 27 33 11 180 170 
11 180 170 64 87 108 41 223 235 64 87 108 13 18 23 13 18 23 13 18 23 17 27 33 13 18 23 17 27 33 13 18 23 13 18 23 17 27 33 13 18 23 5 42 50 27 104 100 
27 104 100 17 27 33 64 87 108 5 42 50 17 27 33 13 18 23 17 27 33 5 42 50 17 27 33 17 27 33 17 27 33 13 18 23 13 18 23 17 27 33 17 27 33 27 104 100 
27 104 100 17 27 33 17 27 33 5 42 50 13 18 23 13 18 23 13 18 23 17 27 33 17 27 33 13 18 23 17 27 33 13 18 23 5 42 50 13 18 23 13 18 23 11 180 170 
11 180 170 13 18 23 5 42 50 0 146 149 5 42 50 13 18 23 17 27 33 17 27 33 17 27 33 13 18 23 13 18 23 5 42 50 64 87 108 5 42 50 13 18 23 27 104 100 
11 180 170 17 27 33 13 18 23 5 42 50 13 18 23 13 18 23 13 18 23 17 27 33 0 146 149 17 27 33 13 18 23 13 18 23 5 42 50 17 27 33 17 27 33 27 104 100 
17 27 33 22 222 236 17 27 33 13 18 23 13 18 23 13 18 23 13 18 23 13 18 23 17 27 33 13 18 23 13 18 23 13 18 23 13 18 23 17 27 33 27 104 100 13 18 23 
13 18 23 17 27 33 27 104 100 13 18 23 13 18 23 17 27 33 13 18 23 17 27 33 13 18 23 5 42 50 13 18 23 13 18 23 13 18 23 27 104 100 5 42 50 17 27 33 
13 18 23 13 18 23 13 18 23 27 104 100 11 180 170 62 123 138 11 180 170 11 180 170 22 222 236 44 227 235 22 222 236 27 104 100 11 180 170 5 42 50 64 87 108 5 42 50 
27 104 100 27 104 100 27 104 100 27 104 100 11 180 170 11 180 170 11 180 170 22 222 236 11 180 170 22 222 236 27 104 100 27 104 100 11 180 170 11 180 170 22 222 236 27 104 100 
27 104 100 13 18 23 17 27 33 5 42 50 13 18 23 13 18 23 13 18 23 17 27 33 17 27 33 17 27 33 17 27 33 13 18 23 5 42 50 17 27 33 17 27 33 11 180 170 
27 104 100 13 18 23 5 42 50 41 223 235 5 42 50 13 18 23 13 18 23 13 18 23 17 27 33 17 27 33 13 18 23 5 42 50 0 146 149 5 42 50 17 27 33 11 180 170 
11 180 170 17 27 33 13 18 23 5 42 50 17 27 33 17 27 33 13 18 23 13 18 23 17 27 33 5 42 50 17 27 33 13 18 23 5 42 50 13 18 23 17 27 33 22 222 236 
11 180 170 5 42 50 17 27 33 17 27 33 17 27 33 17 27 33 17 27 33 13 18 23 13 18 23 17 27 33 13 18 23 13 18 23 13 18 23 13 18 23 13 18 23 11 180 170 
27 104 100 17 27 33 17 27 33 17 27 33 17 27 33 5 42 50 64 87 108 17 27 33 13 18 23 5 42 50 17 27 33 17 27 33 13 18 23 13 18 23 17 27 33 27 104 100 
27 104 100 13 18 23 5 42 50 17 27 33 17 27 33 17 27 33 17 27 33 13 18 23 5 42 50 41 223 235 5 42 50 13 18 23 13 18 23 17 27 33 64 87 108 11 180 170 
27 104 100 13 18 23 64 87 108 13 18 23 13 18 23 13 18 23 17 27 33 13 18 23 17 27 33 5 42 50 17 27 33 13 18 23 13 18 23 17 27 33 17 27 33 11 180 170 
11 180 170 64 87 108 41 223 235 64 87 108 13 18 23 13 18 23 13 18 23 17 27 33 13 18 23 17 27 33 13 18 23 13 18 23 17 27 33 13 18 23 5 42 50 27 104 100 
27 104 100 17 27 33 64 87 108 5 42 50 17 27 33 13 18 23 17 27 33 5 42 50 17 27 33 17 27 33 17 27 33 13 18 23 13 18 23 17 27 33 17 27 33 27 104 100 
27 104 100 17 27 33 17 27 33 5 42 50 13 18 23 13 18 23 13 18 23 17 27 33 17 27 33 13 18 23 17 27 33 13 18 23 5 42 50 13 18 23 13 18 23 11 180 170 
11 180 170 13 18 23 5 42 50 0 146 149 5 42 50 13 18 23 17 27 33 17 27 33 17 27 33 13 18 23 13 18 23 5 42 50 64 87 108 5 42 50 13 18 23 27 104 100 
11 180 170 17 27 33 13 18 23 5 42 50 13 18 23 13 18 23 13 18 23 17 27 33 0 146 149 17 27 33 13 18 23 13 18 23 5 42 50 17 27 33 17 27 33 27 104 100 
11 180 170 5 42 50 17 27 33 13 18 23 13 18 23 13 18 23 13 18 23 13 18 23 17 27 33 13 18 23 13 18 23 13 18 23 13 18 23 17 27 33 13 18 23 27 104 100 
27 104 100 17 27 33 13 18 23 13 18 23 13 18 23 17 27 33 13 18 23 17 27 33 13 18 23 5 42 50 13 18 23 13 18 23 13 18 23 13 18 23 5 42 50 11 180 170 
27 104 100 27 104 100 27 104 100 27 104 100 11 180 170 62 123 138 11 180 170 11 180 170 22 222 236 44 227 235 22 222 236 27 104 100 11 180 170 22 222 236 62 123 138 22 222 236 
13 18 23 13 18 23 13 18 23 13 18 23 17 27 33 17 27 33 17 27 33 5 42 50 17 27 33 5 42 50 13 18 23 13 18 23 17 27 33 17 27 33 5 42 50 13 18 23 
13 18 23 13 18 23 17 27 33 5 42 50 13 18 23 13 18 23 13 18 23 17 27 33 17 27 33 17 27 33 17 27 33 13 18 23 5 42 50 17 27 33 17 27 33 17 27 33 
13 18 23 13 18 23 5 42 50 41 223 235 5 42 50 13 18 23 13 18 23 13 18 23 17 27 33 17 27 33 13 18 23 5 42 50 0 146 149 5 42 50 17 27 33 17 27 33 
17 27 33 17 27 33 13 18 23 5 42 50 17 27 33 17 27 33 13 18 23 13 18 23 17 27 33 5 42 50 17 27 33 13 18 23 5 42 50 13 18 23 17 27 33 5 42 50 
17 27 33 5 42 50 17 27 33 17 27 33 17 27 33 17 27 33 17 27 33 13 18 23 13 18 23 17 27 33 13 18 23 13 18 23 13 18 23 13 18 23 13 18 23 17 27 33 
13 18 23 17 27 33 17 27 33 17 27 33 17 27 33 5 42 50 64 87 108 17 27 33 13 18 23 5 42 50 17 27 33 17 27 33 13 18 23 13 18 23 17 27 33 13 18 23 
13 18 23 13 18 23 5 42 50 17 27 33 17 27 33 17 27 33 17 27 33 13 18 23 5 42 50 41 223 235 5 42 50 13 18 23 13 18 23 17 27 33 64 87 108 17 27 33 
13 18 23 13 18 23 64 87 108 13 18 23 13 18 23 13 18 23 17 27 33 13 18 23 17 27 33 5 42 50 17 27 33 13 18 23 13 18 23 17 27 33 17 27 33 17 27 33 
17 27 33 64 87 108 41 223 235 64 87 108 13 18 23 13 18 23 13 18 23 17 27 33 13 18 23 17 27 33 13 18 23 13 18 23 17 27 33 13 18 23 5 42 50 13 18 23 
13 18 23 17 27 33 64 87 108 5 42 50 17 27 33 13 18 23 17 27 33 5 42 50 17 27 33 17 27 33 17 27 33 13 18 23 13 18 23 17 27 33 17 27 33 13 18 23 
13 18 23 17 27 33 17 27 33 5 42 50 13 18 23 13 18 23 13 18 23 17 27 33 17 27 33 13 18 23 17 27 33 13 18 23 5 42 50 13 18 23 13 18 23 17 27 33 
17 27 33 13 18 23 5 42 50 0 146 149 5 42 50 13 18 23 17 27 33 17 27 33 17 27 33 13 18 23 13 18 23 5 42 50 64 87 108 5 42 50 13 18 23 13 18 23 
17 27 33 17 27 33 13 18 23 5 42 50 13 18 23 13 18 23 13 18 23 17 27 33 0 146 149 17 27 33 13 18 23 13 18 23 5 42 50 17 27 33 17 27 33 13 18 23 
17 27 33 5 42 50 17 27 33 13 18 23 13 18 23 13 18 23 13 18 23 13 18 23 17 27 33 13 18 23 13 18 23 13 18 23 13 18 23 17 27 33 13 18 23 13 18 23 
13 18 23 17 27 33 13 18 23 13 18 23 13 18 23 17 27 33 13 18 23 17 27 33 13 18 23 5 42 50 13 18 23 13 18 23 13 18 23 13 18 23 5 42 50 17 27 33 
13 18 23 13 18 23 13 18 23 13 18 23 17 27 33 64 87 108 17 27 33 17 27 33 5 42 50 41 223 235 5 42 50 13 18 23 17 27 33 5 42 50 64 87 108 5 42 50 
