P3
16 64
255
3 65 80 0 0 0 0 0 0 0 0 0 3 65 80 17 27 33 17 27 33 5 42 50 17 27 33 5 42 50 13 18 23 5 42 50 0 0 0 3 65 80 5 42 50 5 42 50 
3 65 80 3 65 80 0 0 0 0 0 0 0 0 0 5 42 50 5 42 50 5 42 50 17 27 33 17 27 33 17 27 33 3 65 80 5 42 50 17 27 33 5 42 50 0 146 149 
17 27 33 3 65 80 0 0 0 3 65 80 5 42 50 3 65 80 3 65 80 0 0 0 5 42 50 3 65 80 3 65 80 0 0 0 3 65 80 5 42 50 17 27 33 5 42 50 
5 42 50 0 0 0 13 18 23 17 27 33 3 65 80 17 27 33 13 18 23 3 65 80 0 0 0 0 0 0 0 0 0 0 0 0 0 0 0 5 42 50 17 27 33 17 27 33 
0 0 0 3 65 80 17 27 33 3 65 80 41 223 235 3 65 80 17 27 33 13 18 23 3 65 80 0 0 0 0 0 0 0 0 0 0 0 0 0 0 0 5 42 50 5 42 50 
0 0 0 3 65 80 17 27 33 17 27 33 3 65 80 17 27 33 3 65 80 17 27 33 3 65 80 0 0 0 0 0 0 5 42 50 5 42 50 3 65 80 0 0 0 0 0 0 
0 0 0 0 0 0 3 65 80 17 27 33 17 27 33 17 27 33 17 27 33 3 65 80 0 0 0 0 0 0 5 42 50 5 42 50 3 65 80 13 18 23 3 65 80 0 0 0 
3 65 80 3 65 80 0 0 0 3 65 80 3 65 80 3 65 80 3 65 80 0 0 0 0 0 0 0 0 0 3 65 80 11 33 42 13 18 23 13 18 23 5 42 50 0 0 0 
17 27 33 5 42 50 0 146 149 0 0 0 0 0 0 0 0 0 3 65 80 3 65 80 5 42 50 5 42 50 0 0 0 3 65 80 5 42 50 5 42 50 0 0 0 3 65 80 
13 18 23 17 27 33 3 65 80 0 0 0 0 0 0 3 65 80 17 27 33 5 42 50 17 27 33 17 27 33 5 42 50 0 0 0 0 0 0 0 0 0 0 0 0 5 42 50 
5 42 50 5 42 50 0 0 0 0 0 0 0 0 0 5 42 50 13 18 23 3 65 80 17 27 33 13 18 23 3 65 80 0 0 0 3 65 80 3 65 80 5 42 50 0 0 0 
0 0 0 3 65 80 5 42 50 0 146 149 0 0 0 5 42 50 17 27 33 17 27 33 17 27 33 13 18 23 13 18 23 3 65 80 3 65 80 41 223 235 3 65 80 5 42 50 
3 65 80 17 27 33 13 18 23 5 42 50 5 42 50 0 0 0 3 65 80 5 42 50 0 146 149 17 27 33 0 0 0 3 65 80 5 42 50 3 65 80 17 27 33 5 42 50 
5 42 50 5 42 50 17 27 33 13 18 23 3 65 80 0 0 0 0 0 0 0 0 0 0 0 0 0 0 0 0 0 0 0 0 0 5 42 50 5 42 50 5 42 50 0 0 0 
0 0 0 5 42 50 5 42 50 13 18 23 0 0 0 3 65 80 3 65 80 0 0 0 5 42 50 5 42 50 5 42 50 0 0 0 0 0 0 0 0 0 0 0 0 0 0 0 
0 0 0 0 0 0 0 0 0 0 0 0 3 65 80 5 42 50 17 27 33 17 27 33 5 42 50 0 146 149 5 42 50 5 42 50 0 0 0 0 0 0 3 65 80 3 65 80 
3 65 80 0 0 0 0 0 0 0 0 0 3 65 80 17 27 33 17 27 33 5 42 50 17 27 33 3 65 80 13 18 23 5 42 50 0 0 0 3 65 80 5 42 50 3 65 80 
3 65 80 3 65 80 0 0 0 0 0 0 0 0 0 5 42 50 5 42 50 5 42 50 17 27 33 17 27 33 17 27 33 3 65 80 5 42 50 17 27 33 3 65 80 0 146 149 
17 27 33 3 65 80 0 0 0 3 65 80 5 42 50 3 65 80 3 65 80 0 0 0 5 42 50 3 65 80 3 65 80 0 0 0 3 65 80 5 42 50 17 27 33 3 65 80 
5 42 50 0 0 0 13 18 23 17 27 33 5 42 50 17 27 33 13 18 23 3 65 80 0 0 0 0 0 0 0 0 0 0 0 0 0 0 0 5 42 50 17 27 33 17 27 33 
0 0 0 3 65 80 17 27 33 5 42 50 5 98 93 5 42 50 17 27 33 13 18 23 3 65 80 0 0 0 0 0 0 0 0 0 0 0 0 0 0 0 5 42 50 5 42 50 
0 0 0 3 65 80 17 27 33 17 27 33 5 42 50 17 27 33 3 65 80 17 27 33 3 65 80 0 0 0 0 0 0 5 42 50 5 42 50 3 65 80 0 0 0 0 0 0 
0 0 0 0 0 0 3 65 80 17 27 33 17 27 33 17 27 33 17 27 33 3 65 80 0 0 0 0 0 0 5 42 50 5 42 50 3 65 80 13 18 23 3 65 80 0 0 0 
3 65 80 3 65 80 0 0 0 3 65 80 3 65 80 3 65 80 3 65 80 0 0 0 0 0 0 0 0 0 3 65 80 11 33 42 13 18 23 13 18 23 5 42 50 0 0 0 
17 27 33 5 42 50 0 146 149 0 0 0 0 0 0 0 0 0 3 65 80 3 65 80 5 42 50 5 42 50 0 0 0 3 65 80 5 42 50 5 42 50 0 0 0 3 65 80 
13 18 23 17 27 33 3 65 80 0 0 0 0 0 0 3 65 80 17 27 33 5 42 50 17 27 33 17 27 33 5 42 50 0 0 0 0 0 0 0 0 0 0 0 0 5 42 50 
5 42 50 5 42 50 0 0 0 0 0 0 0 0 0 5 42 50 13 18 23 3 65 80 17 27 33 13 18 23 3 65 80 0 0 0 3 65 80 3 65 80 5 42 50 0 0 0 
0 0 0 3 65 80 3 65 80 41 223 235 0 0 0 5 42 50 17 27 33 17 27 33 3 65 80 13 18 23 13 18 23 3 65 80 5 42 50 5 98 93 5 42 50 5 42 50 
3 65 80 17 27 33 13 18 23 3 65 80 5 42 50 0 0 0 3 65 80 3 65 80 41 223 235 3 65 80 0 0 0 3 65 80 17 27 33 5 42 50 17 27 33 5 42 50 
5 42 50 5 42 50 17 27 33 13 18 23 3 65 80 0 0 0 0 0 0 0 0 0 0 0 0 0 0 0 0 0 0 0 0 0 5 42 50 5 42 50 5 42 50 0 0 0 
0 0 0 5 42 50 5 42 50 13 18 23 0 0 0 3 65 80 3 65 80 0 0 0 5 42 50 3 65 80 5 42 50 0 0 0 0 0 0 0 0 0 0 0 0 0 0 0 
0 0 0 0 0 0 0 0 0 0 0 0 3 65 80 5 42 50 17 27 33 17 27 33 3 65 80 41 223 235 3 65 80 5 42 50 0 0 0 0 0 0 3 65 80 3 65 80 
3 65 80 0 0 0 0 0 0 0 0 0 3 65 80 17 27 33 17 27 33 5 42 50 17 27 33 5 42 50 13 18 23 5 42 50 0 0 0 3 65 80 5 42 50 3 65 80 
3 65 80 3 65 80 0 0 0 0 0 0 0 0 0 5 42 50 5 42 50 5 42 50 17 27 33 17 27 33 17 27 33 3 65 80 5 42 50 17 27 33 3 65 80 41 223 235 
17 27 33 3 65 80 0 0 0 3 65 80 5 42 50 3 65 80 3 65 80 0 0 0 5 42 50 3 65 80 3 65 80 0 0 0 3 65 80 5 42 50 17 27 33 3 65 80 
5 42 50 0 0 0 13 18 23 17 27 33 5 42 50 17 27 33 13 18 23 3 65 80 0 0 0 0 0 0 0 0 0 0 0 0 0 0 0 5 42 50 17 27 33 17 27 33 
0 0 0 3 65 80 17 27 33 5 42 50 5 98 93 5 42 50 17 27 33 13 18 23 3 65 80 0 0 0 0 0 0 0 0 0 0 0 0 0 0 0 5 42 50 5 42 50 
0 0 0 3 65 80 17 27 33 17 27 33 5 42 50 17 27 33 3 65 80 17 27 33 3 65 80 0 0 0 0 0 0 5 42 50 5 42 50 3 65 80 0 0 0 0 0 0 
0 0 0 0 0 0 3 65 80 17 27 33 17 27 33 17 27 33 17 27 33 3 65 80 0 0 0 0 0 0 5 42 50 5 42 50 3 65 80 13 18 23 3 65 80 0 0 0 
3 65 80 3 65 80 0 0 0 3 65 80 3 65 80 3 65 80 3 65 80 0 0 0 0 0 0 0 0 0 3 65 80 11 33 42 13 18 23 13 18 23 5 42 50 0 0 0 
17 27 33 5 42 50 0 146 149 0 0 0 0 0 0 0 0 0 3 65 80 3 65 80 5 42 50 5 42 50 0 0 0 3 65 80 5 42 50 5 42 50 0 0 0 3 65 80 
13 18 23 17 27 33 3 65 80 0 0 0 0 0 0 3 65 80 17 27 33 5 42 50 17 27 33 17 27 33 5 42 50 0 0 0 0 0 0 0 0 0 0 0 0 5 42 50 
5 42 50 5 42 50 0 0 0 0 0 0 0 0 0 5 42 50 13 18 23 3 65 80 17 27 33 13 18 23 3 65 80 0 0 0 3 65 80 3 65 80 5 42 50 0 0 0 
0 0 0 3 65 80 5 42 50 5 98 93 0 0 0 5 42 50 17 27 33 17 27 33 5 42 50 13 18 23 13 18 23 3 65 80 5 42 50 0 146 149 5 42 50 5 42 50 
3 65 80 17 27 33 13 18 23 5 42 50 5 42 50 0 0 0 3 65 80 5 42 50 5 98 93 5 42 50 0 0 0 3 65 80 17 27 33 5 42 50 17 27 33 5 42 50 
5 42 50 5 42 50 17 27 33 13 18 23 3 65 80 0 0 0 0 0 0 0 0 0 0 0 0 0 0 0 0 0 0 0 0 0 5 42 50 5 42 50 5 42 50 0 0 0 
0 0 0 5 42 50 5 42 50 13 18 23 0 0 0 3 65 80 3 65 80 0 0 0 5 42 50 5 42 50 5 42 50 0 0 0 0 0 0 0 0 0 0 0 0 0 0 0 
0 0 0 0 0 0 0 0 0 0 0 0 3 65 80 5 42 50 17 27 33 17 27 33 5 42 50 5 98 93 5 42 50 5 42 50 0 0 0 0 0 0 3 65 80 3 65 80 
3 65 80 0 0 0 0 0 0 0 0 0 3 65 80 17 27 33 17 27 33 5 42 50 17 27 33 5 42 50 13 18 23 5 42 50 0 0 0 3 65 80 5 42 50 5 42 50 
5 42 50 3 65 80 0 0 0 0 0 0 0 0 0 5 42 50 5 42 50 5 42 50 17 27 33 17 27 33 17 27 33 3 65 80 5 42 50 17 27 33 5 42 50 5 98 93 
17 27 33 3 65 80 0 0 0 3 65 80 5 42 50 3 65 80 3 65 80 0 0 0 5 42 50 3 65 80 3 65 80 0 0 0 3 65 80 5 42 50 17 27 33 5 42 50 
5 42 50 0 0 0 13 18 23 17 27 33 5 42 50 17 27 33 13 18 23 3 65 80 0 0 0 0 0 0 0 0 0 0 0 0 0 0 0 5 42 50 17 27 33 17 27 33 
0 0 0 3 65 80 17 27 33 5 42 50 0 146 149 5 42 50 17 27 33 13 18 23 3 65 80 0 0 0 0 0 0 0 0 0 0 0 0 0 0 0 5 42 50 5 42 50 
0 0 0 3 65 80 17 27 33 17 27 33 5 42 50 17 27 33 3 65 80 17 27 33 3 65 80 0 0 0 0 0 0 5 42 50 5 42 50 3 65 80 0 0 0 0 0 0 
0 0 0 0 0 0 3 65 80 17 27 33 17 27 33 17 27 33 17 27 33 3 65 80 0 0 0 0 0 0 5 42 50 5 42 50 3 65 80 13 18 23 3 65 80 0 0 0 
3 65 80 3 65 80 0 0 0 3 65 80 3 65 80 3 65 80 3 65 80 0 0 0 0 0 0 0 0 0 3 65 80 11 33 42 13 18 23 13 18 23 5 42 50 0 0 0 
17 27 33 5 42 50 0 146 149 0 0 0 0 0 0 0 0 0 3 65 80 3 65 80 5 42 50 5 42 50 0 0 0 3 65 80 5 42 50 5 42 50 0 0 0 3 65 80 
13 18 23 17 27 33 3 65 80 0 0 0 0 0 0 3 65 80 17 27 33 5 42 50 17 27 33 17 27 33 5 42 50 0 0 0 0 0 0 0 0 0 0 0 0 5 42 50 
5 42 50 5 42 50 0 0 0 0 0 0 0 0 0 5 42 50 13 18 23 3 65 80 17 27 33 13 18 23 3 65 80 0 0 0 3 65 80 3 65 80 5 42 50 0 0 0 
0 0 0 3 65 80 5 42 50 0 146 149 0 0 0 5 42 50 17 27 33 17 27 33 5 42 50 13 18 23 13 18 23 3 65 80 5 42 50 0 146 149 5 42 50 5 42 50 
3 65 80 17 27 33 13 18 23 5 42 50 5 42 50 0 0 0 3 65 80 5 42 50 0 146 149 5 42 50 0 0 0 3 65 80 17 27 33 5 42 50 17 27 33 5 42 50 
5 42 50 5 42 50 17 27 33 13 18 23 3 65 80 0 0 0 0 0 0 0 0 0 0 0 0 0 0 0 0 0 0 0 0 0 5 42 50 5 42 50 5 42 50 0 0 0 
0 0 0 5 42 50 5 42 50 13 18 23 0 0 0 3 65 80 3 65 80 0 0 0 5 42 50 5 42 50 5 42 50 0 0 0 0 0 0 0 0 0 0 0 0 0 0 0 
0 0 0 0 0 0 0 0 0 0 0 0 3 65 80 5 42 50 17 27 33 17 27 33 5 42 50 0 146 149 5 42 50 5 42 50 0 0 0 0 0 0 3 65 80 3 65 80 
