P3
16 64
255
13 18 23 13 18 23 13 18 23 13 18 23 17 27 33 17 27 33 17 27 33 5 42 50 17 27 33 5 42 50 13 18 23 13 18 23 17 27 33 17 27 33 5 42 50 13 18 23 
13 18 23 13 18 23 17 27 33 5 42 50 13 18 23 13 18 23 13 18 23 17 27 33 17 27 33 17 27 33 17 27 33 13 18 23 5 42 50 17 27 33 17 27 33 17 27 33 
13 18 23 13 18 23 5 42 50 25 70 72 5 42 50 13 18 23 13 18 23 13 18 23 17 27 33 17 27 33 13 18 23 5 42 50 5 98 93 5 42 50 17 27 33 17 27 33 
17 27 33 17 27 33 13 18 23 5 42 50 17 27 33 17 27 33 13 18 23 13 18 23 17 27 33 5 42 50 17 27 33 13 18 23 5 42 50 13 18 23 17 27 33 5 42 50 
17 27 33 5 42 50 17 27 33 17 27 33 17 27 33 17 27 33 17 27 33 13 18 23 13 18 23 17 27 33 13 18 23 13 18 23 13 18 23 13 18 23 13 18 23 17 27 33 
13 18 23 17 27 33 17 27 33 17 27 33 17 27 33 5 42 50 3 65 80 17 27 33 13 18 23 5 42 50 17 27 33 17 27 33 13 18 23 13 18 23 17 27 33 13 18 23 
13 18 23 13 18 23 5 42 50 17 27 33 17 27 33 17 27 33 17 27 33 13 18 23 5 42 50 5 98 93 5 42 50 13 18 23 13 18 23 17 27 33 3 65 80 17 27 33 
13 18 23 13 18 23 5 42 50 13 18 23 13 18 23 13 18 23 17 27 33 13 18 23 17 27 33 5 42 50 17 27 33 13 18 23 13 18 23 17 27 33 17 27 33 17 27 33 
17 27 33 5 42 50 5 98 93 5 42 50 13 18 23 13 18 23 13 18 23 17 27 33 13 18 23 17 27 33 13 18 23 13 18 23 17 27 33 13 18 23 5 42 50 13 18 23 
13 18 23 17 27 33 5 42 50 17 27 33 17 27 33 13 18 23 17 27 33 5 42 50 17 27 33 17 27 33 17 27 33 13 18 23 13 18 23 17 27 33 17 27 33 13 18 23 
13 18 23 17 27 33 17 27 33 5 42 50 13 18 23 13 18 23 13 18 23 17 27 33 17 27 33 13 18 23 17 27 33 13 18 23 5 42 50 13 18 23 13 18 23 17 27 33 
17 27 33 13 18 23 5 42 50 25 70 72 5 42 50 13 18 23 17 27 33 17 27 33 17 27 33 13 18 23 13 18 23 5 42 50 3 65 80 5 42 50 13 18 23 13 18 23 
17 27 33 17 27 33 13 18 23 5 42 50 13 18 23 13 18 23 13 18 23 17 27 33 25 70 72 17 27 33 13 18 23 13 18 23 5 42 50 17 27 33 17 27 33 13 18 23 
17 27 33 5 42 50 17 27 33 13 18 23 13 18 23 13 18 23 13 18 23 13 18 23 17 27 33 13 18 23 13 18 23 13 18 23 13 18 23 17 27 33 13 18 23 13 18 23 
13 18 23 17 27 33 13 18 23 13 18 23 13 18 23 17 27 33 13 18 23 17 27 33 13 18 23 5 42 50 13 18 23 13 18 23 13 18 23 13 18 23 5 42 50 17 27 33 
13 18 23 13 18 23 13 18 23 13 18 23 17 27 33 3 65 80 17 27 33 17 27 33 5 42 50 5 98 93 5 42 50 13 18 23 17 27 33 5 42 50 3 65 80 5 42 50 
13 18 23 13 18 23 13 18 23 13 18 23 17 27 33 17 27 33 17 27 33 5 42 50 17 27 33 5 42 50 13 18 23 13 18 23 17 27 33 17 27 33 5 42 50 13 18 23 
13 18 23 13 18 23 17 27 33 5 42 50 13 18 23 13 18 23 13 18 23 17 27 33 17 27 33 17 27 33 17 27 33 13 18 23 5 42 50 17 27 33 17 27 33 17 27 33 
13 18 23 13 18 23 5 42 50 41 223 235 5 42 50 13 18 23 13 18 23 13 18 23 17 27 33 17 27 33 13 18 23 5 42 50 0 146 149 5 42 50 17 27 33 17 27 33 
17 27 33 17 27 33 13 18 23 5 42 50 17 27 33 17 27 33 13 18 23 13 18 23 17 27 33 5 42 50 17 27 33 13 18 23 5 42 50 13 18 23 17 27 33 5 42 50 
17 27 33 5 42 50 17 27 33 17 27 33 17 27 33 17 27 33 17 27 33 13 18 23 13 18 23 17 27 33 13 18 23 13 18 23 13 18 23 13 18 23 13 18 23 17 27 33 
13 18 23 17 27 33 17 27 33 17 27 33 17 27 33 5 42 50 3 65 80 17 27 33 13 18 23 5 42 50 17 27 33 17 27 33 13 18 23 13 18 23 17 27 33 13 18 23 
13 18 23 13 18 23 5 42 50 17 27 33 17 27 33 17 27 33 17 27 33 13 18 23 5 42 50 5 98 93 5 42 50 13 18 23 13 18 23 17 27 33 3 65 80 17 27 33 
13 18 23 13 18 23 3 65 80 13 18 23 13 18 23 13 18 23 17 27 33 13 18 23 17 27 33 5 42 50 17 27 33 13 18 23 13 18 23 17 27 33 17 27 33 17 27 33 
17 27 33 3 65 80 41 223 235 3 65 80 13 18 23 13 18 23 13 18 23 17 27 33 13 18 23 17 27 33 13 18 23 13 18 23 17 27 33 13 18 23 5 42 50 13 18 23 
13 18 23 17 27 33 3 65 80 5 42 50 17 27 33 13 18 23 17 27 33 5 42 50 17 27 33 17 27 33 17 27 33 13 18 23 13 18 23 17 27 33 17 27 33 13 18 23 
13 18 23 17 27 33 17 27 33 5 42 50 13 18 23 13 18 23 13 18 23 17 27 33 17 27 33 13 18 23 17 27 33 13 18 23 5 42 50 13 18 23 13 18 23 17 27 33 
17 27 33 13 18 23 5 42 50 0 146 149 5 42 50 13 18 23 17 27 33 17 27 33 5 42 50 13 18 23 13 18 23 5 42 50 3 65 80 5 42 50 13 18 23 13 18 23 
17 27 33 17 27 33 13 18 23 5 42 50 13 18 23 13 18 23 13 18 23 5 42 50 0 146 149 5 42 50 13 18 23 13 18 23 5 42 50 17 27 33 17 27 33 13 18 23 
17 27 33 5 42 50 17 27 33 13 18 23 13 18 23 13 18 23 13 18 23 13 18 23 5 42 50 13 18 23 13 18 23 13 18 23 13 18 23 17 27 33 13 18 23 13 18 23 
13 18 23 17 27 33 13 18 23 13 18 23 13 18 23 17 27 33 13 18 23 17 27 33 13 18 23 5 42 50 13 18 23 13 18 23 13 18 23 13 18 23 5 42 50 17 27 33 
13 18 23 13 18 23 13 18 23 13 18 23 17 27 33 3 65 80 17 27 33 17 27 33 5 42 50 5 98 93 5 42 50 13 18 23 17 27 33 5 42 50 3 65 80 5 42 50 
13 18 23 13 18 23 13 18 23 13 18 23 17 27 33 17 27 33 17 27 33 5 42 50 17 27 33 5 42 50 13 18 23 13 18 23 17 27 33 17 27 33 5 42 50 13 18 23 
13 18 23 13 18 23 17 27 33 5 42 50 13 18 23 13 18 23 13 18 23 17 27 33 17 27 33 17 27 33 17 27 33 13 18 23 5 42 50 17 27 33 17 27 33 17 27 33 
13 18 23 13 18 23 5 42 50 0 146 149 5 42 50 13 18 23 13 18 23 13 18 23 17 27 33 17 27 33 13 18 23 5 42 50 0 146 149 5 42 50 17 27 33 17 27 33 
17 27 33 17 27 33 13 18 23 5 42 50 17 27 33 17 27 33 13 18 23 13 18 23 17 27 33 5 42 50 17 27 33 13 18 23 5 42 50 13 18 23 17 27 33 5 42 50 
17 27 33 5 42 50 17 27 33 17 27 33 17 27 33 17 27 33 17 27 33 13 18 23 13 18 23 17 27 33 13 18 23 13 18 23 13 18 23 13 18 23 13 18 23 17 27 33 
13 18 23 17 27 33 17 27 33 17 27 33 17 27 33 5 42 50 3 65 80 17 27 33 13 18 23 5 42 50 17 27 33 17 27 33 13 18 23 13 18 23 17 27 33 13 18 23 
13 18 23 13 18 23 5 42 50 17 27 33 17 27 33 17 27 33 17 27 33 13 18 23 5 42 50 41 223 235 5 42 50 13 18 23 13 18 23 17 27 33 3 65 80 17 27 33 
13 18 23 13 18 23 3 65 80 13 18 23 13 18 23 13 18 23 17 27 33 13 18 23 17 27 33 5 42 50 17 27 33 13 18 23 13 18 23 17 27 33 17 27 33 17 27 33 
17 27 33 3 65 80 0 146 149 3 65 80 13 18 23 13 18 23 13 18 23 17 27 33 13 18 23 17 27 33 13 18 23 13 18 23 17 27 33 13 18 23 5 42 50 13 18 23 
13 18 23 17 27 33 3 65 80 5 42 50 17 27 33 13 18 23 17 27 33 5 42 50 17 27 33 17 27 33 17 27 33 13 18 23 13 18 23 17 27 33 17 27 33 13 18 23 
13 18 23 17 27 33 17 27 33 5 42 50 13 18 23 13 18 23 13 18 23 17 27 33 17 27 33 13 18 23 17 27 33 13 18 23 5 42 50 13 18 23 13 18 23 17 27 33 
17 27 33 13 18 23 5 42 50 41 223 235 5 42 50 13 18 23 17 27 33 17 27 33 17 27 33 13 18 23 13 18 23 5 42 50 0 146 149 5 42 50 13 18 23 13 18 23 
17 27 33 17 27 33 13 18 23 5 42 50 13 18 23 13 18 23 13 18 23 17 27 33 3 65 80 17 27 33 13 18 23 13 18 23 5 42 50 17 27 33 17 27 33 13 18 23 
17 27 33 5 42 50 17 27 33 13 18 23 13 18 23 13 18 23 13 18 23 13 18 23 17 27 33 13 18 23 13 18 23 13 18 23 13 18 23 17 27 33 13 18 23 13 18 23 
13 18 23 17 27 33 13 18 23 13 18 23 13 18 23 17 27 33 13 18 23 17 27 33 13 18 23 5 42 50 13 18 23 13 18 23 13 18 23 13 18 23 5 42 50 17 27 33 
13 18 23 13 18 23 13 18 23 13 18 23 17 27 33 3 65 80 17 27 33 17 27 33 5 42 50 0 146 149 5 42 50 13 18 23 17 27 33 5 42 50 3 65 80 5 42 50 
13 18 23 13 18 23 13 18 23 13 18 23 17 27 33 17 27 33 17 27 33 5 42 50 17 27 33 5 42 50 13 18 23 13 18 23 17 27 33 17 27 33 5 42 50 13 18 23 
13 18 23 13 18 23 17 27 33 5 42 50 13 18 23 13 18 23 13 18 23 17 27 33 17 27 33 17 27 33 17 27 33 13 18 23 5 42 50 17 27 33 17 27 33 17 27 33 
13 18 23 13 18 23 5 42 50 0 146 149 5 42 50 13 18 23 13 18 23 13 18 23 17 27 33 17 27 33 13 18 23 5 42 50 0 146 149 5 42 50 17 27 33 17 27 33 
17 27 33 17 27 33 13 18 23 5 42 50 17 27 33 17 27 33 13 18 23 13 18 23 17 27 33 5 42 50 17 27 33 13 18 23 5 42 50 13 18 23 17 27 33 5 42 50 
17 27 33 5 42 50 17 27 33 17 27 33 17 27 33 17 27 33 17 27 33 13 18 23 13 18 23 17 27 33 13 18 23 13 18 23 13 18 23 13 18 23 13 18 23 17 27 33 
13 18 23 17 27 33 17 27 33 17 27 33 17 27 33 5 42 50 3 65 80 17 27 33 13 18 23 5 42 50 17 27 33 17 27 33 13 18 23 13 18 23 17 27 33 13 18 23 
13 18 23 13 18 23 5 42 50 17 27 33 17 27 33 17 27 33 17 27 33 13 18 23 5 42 50 0 146 149 5 42 50 13 18 23 13 18 23 17 27 33 3 65 80 17 27 33 
13 18 23 13 18 23 3 65 80 13 18 23 13 18 23 13 18 23 17 27 33 13 18 23 17 27 33 5 42 50 17 27 33 13 18 23 13 18 23 17 27 33 17 27 33 17 27 33 
17 27 33 3 65 80 0 146 149 3 65 80 13 18 23 13 18 23 13 18 23 17 27 33 13 18 23 17 27 33 13 18 23 13 18 23 17 27 33 13 18 23 5 42 50 13 18 23 
13 18 23 17 27 33 3 65 80 5 42 50 17 27 33 13 18 23 17 27 33 5 42 50 17 27 33 17 27 33 17 27 33 13 18 23 13 18 23 17 27 33 17 27 33 13 18 23 
13 18 23 17 27 33 17 27 33 5 42 50 13 18 23 13 18 23 13 18 23 17 27 33 17 27 33 13 18 23 17 27 33 13 18 23 3 65 80 13 18 23 13 18 23 17 27 33 
17 27 33 13 18 23 5 42 50 0 146 149 5 42 50 13 18 23 17 27 33 17 27 33 17 27 33 13 18 23 13 18 23 3 65 80 41 223 235 3 65 80 13 18 23 13 18 23 
17 27 33 17 27 33 13 18 23 5 42 50 13 18 23 13 18 23 13 18 23 17 27 33 5 42 50 17 27 33 13 18 23 13 18 23 3 65 80 17 27 33 17 27 33 13 18 23 
17 27 33 5 42 50 17 27 33 13 18 23 13 18 23 13 18 23 13 18 23 13 18 23 17 27 33 13 18 23 13 18 23 13 18 23 13 18 23 17 27 33 13 18 23 13 18 23 
13 18 23 17 27 33 13 18 23 13 18 23 13 18 23 17 27 33 13 18 23 17 27 33 13 18 23 5 42 50 13 18 23 13 18 23 13 18 23 13 18 23 5 42 50 17 27 33 
13 18 23 13 18 23 13 18 23 13 18 23 17 27 33 3 65 80 17 27 33 17 27 33 5 42 50 41 223 235 5 42 50 13 18 23 17 27 33 5 42 50 3 65 80 5 42 50 
