P3
16 16
255
13 18 23 13 18 23 13 18 23 13 18 23 17 27 33 17 27 33 17 27 33 5 42 50 17 27 33 5 42 50 13 18 23 13 18 23 17 27 33 17 27 33 5 42 50 13 18 23 
13 18 23 13 18 23 17 27 33 5 42 50 13 18 23 13 18 23 13 18 23 17 27 33 17 27 33 17 27 33 17 27 33 13 18 23 5 42 50 17 27 33 17 27 33 17 27 33 
13 18 23 13 18 23 5 42 50 41 223 235 5 42 50 13 18 23 13 18 23 13 18 23 17 27 33 17 27 33 13 18 23 5 42 50 0 146 149 5 42 50 17 27 33 17 27 33 
17 27 33 13 18 23 13 18 23 5 42 50 17 27 33 17 27 33 13 18 23 13 18 23 17 27 33 5 42 50 17 27 33 13 18 23 5 42 50 13 18 23 17 27 33 64 87 108 
64 87 108 13 18 23 13 18 23 17 27 33 17 27 33 17 27 33 17 27 33 13 18 23 13 18 23 17 27 33 13 18 23 13 18 23 13 18 23 13 18 23 13 18 23 209 214 182 
209 214 182 17 27 33 13 18 23 13 18 23 13 18 23 5 42 50 64 87 108 17 27 33 13 18 23 5 42 50 17 27 33 17 27 33 13 18 23 13 18 23 17 27 33 162 175 134 
187 195 155 64 87 108 17 27 33 17 27 33 13 18 23 17 27 33 17 27 33 13 18 23 5 42 50 41 223 235 5 42 50 13 18 23 13 18 23 17 27 33 64 87 108 162 175 134 
187 195 155 129 153 136 110 117 123 64 87 108 5 42 50 13 18 23 17 27 33 64 87 108 64 87 108 5 42 50 17 27 33 13 18 23 64 87 108 110 117 123 129 153 136 187 195 155 
187 195 155 187 195 155 209 214 182 209 214 182 64 87 108 5 42 50 64 87 108 209 214 182 209 214 182 64 87 108 5 42 50 64 87 108 209 214 182 209 214 182 187 195 155 187 195 155 
129 153 136 187 195 155 187 195 155 187 195 155 209 214 182 5 42 50 187 195 155 187 195 155 187 195 155 187 195 155 5 42 50 209 214 182 187 195 155 187 195 155 187 195 155 129 153 136 
129 153 136 129 153 136 187 195 155 162 175 134 187 195 155 64 87 108 187 195 155 187 195 155 187 195 155 187 195 155 64 87 108 187 195 155 187 195 155 162 175 134 129 153 136 110 117 123 
64 87 108 129 153 136 162 175 134 129 153 136 162 175 134 110 117 123 187 195 155 162 175 134 187 195 155 162 175 134 110 117 123 187 195 155 129 153 136 162 175 134 129 153 136 64 87 108 
64 87 108 110 117 123 129 153 136 162 175 134 162 175 134 110 117 123 162 175 134 162 175 134 162 175 134 129 153 136 110 117 123 162 175 134 129 153 136 129 153 136 110 117 123 64 87 108 
110 117 123 64 87 108 110 117 123 129 153 136 110 117 123 110 117 123 129 153 136 110 117 123 129 153 136 110 117 123 64 87 108 129 153 136 129 153 136 110 117 123 64 87 108 129 153 136 
129 153 136 3 65 80 64 87 108 110 117 123 110 117 123 64 87 108 110 117 123 129 153 136 110 117 123 129 153 136 64 87 108 129 153 136 110 117 123 64 87 108 3 65 80 129 153 136 
129 153 136 110 117 123 3 65 80 64 87 108 3 65 80 64 87 108 64 87 108 110 117 123 110 117 123 64 87 108 3 65 80 64 87 108 3 65 80 3 65 80 110 117 123 129 153 136 
