P3
16 16
255
0 0 0 0 0 0 0 0 0 0 0 0 0 0 0 0 0 0 0 0 0 0 0 0 0 0 0 0 0 0 0 0 0 0 0 0 0 0 0 0 0 0 0 0 0 0 0 0 
0 0 0 187 195 155 187 195 155 187 195 155 209 214 182 0 0 0 0 0 0 0 0 0 0 0 0 0 0 0 0 0 0 209 214 182 187 195 155 187 195 155 187 195 155 0 0 0 
0 0 0 187 195 155 187 195 155 209 214 182 209 214 182 0 0 0 0 0 0 0 0 0 0 0 0 0 0 0 0 0 0 209 214 182 209 214 182 187 195 155 187 195 155 0 0 0 
0 0 0 187 195 155 209 214 182 209 214 182 0 0 0 0 0 0 0 0 0 0 0 0 0 0 0 0 0 0 0 0 0 0 0 0 209 214 182 209 214 182 187 195 155 0 0 0 
0 0 0 209 214 182 209 214 182 0 0 0 0 0 0 0 0 0 0 0 0 0 0 0 0 0 0 0 0 0 0 0 0 0 0 0 0 0 0 209 214 182 209 214 182 0 0 0 
0 0 0 0 0 0 0 0 0 0 0 0 0 0 0 0 0 0 0 0 0 0 0 0 0 0 0 0 0 0 0 0 0 0 0 0 0 0 0 0 0 0 0 0 0 0 0 0 
0 0 0 0 0 0 0 0 0 0 0 0 0 0 0 0 0 0 0 0 0 0 0 0 0 0 0 0 0 0 0 0 0 0 0 0 0 0 0 0 0 0 0 0 0 0 0 0 
0 0 0 0 0 0 0 0 0 0 0 0 0 0 0 0 0 0 0 0 0 0 0 0 0 0 0 0 0 0 0 0 0 0 0 0 0 0 0 0 0 0 0 0 0 0 0 0 
0 0 0 0 0 0 0 0 0 0 0 0 0 0 0 0 0 0 0 0 0 0 0 0 0 0 0 0 0 0 0 0 0 0 0 0 0 0 0 0 0 0 0 0 0 0 0 0 
0 0 0 0 0 0 0 0 0 0 0 0 0 0 0 0 0 0 0 0 0 0 0 0 0 0 0 0 0 0 0 0 0 0 0 0 0 0 0 0 0 0 0 0 0 0 0 0 
0 0 0 0 0 0 0 0 0 0 0 0 0 0 0 0 0 0 0 0 0 0 0 0 0 0 0 0 0 0 0 0 0 0 0 0 0 0 0 0 0 0 0 0 0 0 0 0 
0 0 0 209 214 182 209 214 182 0 0 0 0 0 0 0 0 0 0 0 0 0 0 0 0 0 0 0 0 0 0 0 0 0 0 0 0 0 0 209 214 182 209 214 182 0 0 0 
0 0 0 187 195 155 209 214 182 209 214 182 0 0 0 0 0 0 0 0 0 0 0 0 0 0 0 0 0 0 0 0 0 0 0 0 209 214 182 209 214 182 187 195 155 0 0 0 
0 0 0 187 195 155 187 195 155 209 214 182 209 214 182 0 0 0 0 0 0 0 0 0 0 0 0 0 0 0 0 0 0 209 214 182 209 214 182 187 195 155 187 195 155 0 0 0 
0 0 0 187 195 155 187 195 155 187 195 155 209 214 182 0 0 0 0 0 0 0 0 0 0 0 0 0 0 0 0 0 0 209 214 182 187 195 155 187 195 155 187 195 155 0 0 0 
0 0 0 0 0 0 0 0 0 0 0 0 0 0 0 0 0 0 0 0 0 0 0 0 0 0 0 0 0 0 0 0 0 0 0 0 0 0 0 0 0 0 0 0 0 0 0 0 
