P3
16 80
255
83 136 123 81 134 121 80 134 120 90 140 127 80 132 118 83 137 124 82 137 123 80 133 120 88 139 127 82 137 124 81 134 120 87 138 125 81 133 119 80 133 120 92 139 128 90 140 128 
86 137 122 79 134 118 115 172 160 143 188 174 135 185 172 178 213 203 170 201 192 199 223 216 193 218 212 174 207 199 175 207 199 179 213 204 147 192 181 117 172 157 82 135 120 79 133 117 
81 132 117 117 172 159 143 190 177 196 223 214 211 226 220 209 227 221 215 230 224 213 228 223 214 230 224 212 228 222 214 228 222 206 225 219 205 225 217 146 188 177 117 172 158 80 133 117 
79 130 116 145 190 179 198 222 214 206 226 221 213 228 223 221 232 226 222 234 228 224 234 228 224 234 229 226 234 230 222 233 227 216 230 224 207 225 218 200 225 217 145 189 177 75 127 112 
87 138 125 172 201 193 208 227 221 214 228 223 222 234 228 222 233 221 223 233 220 222 233 221 221 232 220 223 234 220 220 231 219 221 233 226 215 228 224 208 225 219 180 214 204 76 131 119 
89 140 130 173 209 200 212 229 220 222 233 226 223 234 222 223 233 221 229 235 229 228 237 228 225 235 225 229 236 229 223 234 220 223 233 222 223 235 228 212 228 222 172 206 198 78 131 119 
80 133 118 174 206 198 215 231 222 223 233 227 223 233 220 228 237 228 228 236 228 227 235 229 226 234 229 229 237 229 229 237 229 224 234 221 223 233 228 213 229 223 171 205 199 74 128 116 
85 137 127 199 224 218 213 229 220 222 234 227 222 233 221 229 237 229 227 235 229 224 233 224 225 233 225 226 234 228 227 236 227 222 234 220 225 235 230 213 228 223 196 221 215 83 136 127 
87 139 128 202 225 219 215 231 222 224 234 228 223 233 222 226 235 226 226 235 230 223 232 223 226 234 226 227 236 229 227 237 227 224 235 223 224 235 229 213 229 223 191 214 208 83 137 124 
82 133 122 183 215 206 214 229 221 222 234 227 222 232 220 228 236 228 227 235 227 225 234 228 226 234 229 228 237 228 229 236 229 222 231 219 222 233 228 214 230 224 172 205 197 83 136 123 
92 139 129 172 200 194 206 224 220 221 232 226 221 232 220 223 232 221 228 236 228 229 237 229 227 235 227 228 236 228 222 233 219 223 233 222 223 234 228 209 227 220 179 213 203 74 128 114 
86 139 128 173 205 198 201 224 218 216 229 223 219 232 225 223 233 222 222 233 220 221 234 220 224 234 222 223 233 220 222 232 221 223 234 225 218 232 228 214 228 222 172 204 196 74 129 117 
80 133 121 145 191 180 192 214 208 199 222 215 215 230 225 220 232 225 224 234 229 224 234 228 223 233 227 223 234 229 222 233 227 220 232 229 210 226 220 196 219 214 142 188 177 74 127 115 
79 129 117 115 172 158 142 187 175 195 219 214 198 224 217 212 228 221 212 228 222 212 227 221 213 229 223 212 227 221 210 228 223 214 229 222 191 216 211 145 190 180 116 172 159 74 126 116 
78 131 119 83 134 122 116 171 157 145 191 181 131 179 167 132 180 169 177 212 202 197 222 214 199 223 217 183 215 205 175 208 199 180 214 204 143 189 178 119 174 161 82 136 123 83 134 122 
83 135 125 74 126 114 74 126 113 74 128 113 78 133 117 74 128 115 73 129 117 74 127 116 74 128 115 77 131 119 73 126 113 83 135 123 83 137 125 74 128 114 84 137 126 79 133 121 
83 136 124 80 134 121 78 133 118 90 140 127 80 132 117 82 137 122 82 135 123 79 131 119 88 139 127 83 137 123 80 132 119 86 136 123 80 132 119 79 133 120 93 140 130 91 140 127 
86 137 122 80 134 118 117 173 160 143 188 176 134 184 171 177 214 204 173 203 194 199 223 217 194 217 211 173 206 198 172 205 197 179 212 203 147 192 181 115 170 157 82 135 120 80 133 116 
81 132 117 116 172 161 143 188 176 195 221 214 210 227 219 209 226 220 213 229 223 212 227 222 212 227 222 212 228 222 212 228 221 206 225 219 206 226 218 148 191 179 116 172 158 79 133 117 
79 132 118 142 189 177 198 222 215 207 225 221 213 228 222 220 230 217 220 229 217 221 231 219 222 232 219 221 231 219 220 231 218 216 231 224 206 225 218 200 224 217 145 189 177 74 126 112 
87 138 127 171 201 192 209 228 222 213 229 223 221 230 218 222 233 222 224 233 222 224 234 223 222 233 221 222 232 220 222 233 222 221 229 218 212 227 222 207 226 219 181 213 202 76 131 119 
89 140 130 172 207 199 212 228 219 218 230 218 224 233 222 225 235 221 228 236 230 227 235 228 226 234 228 227 235 228 222 232 218 224 234 222 219 230 217 213 229 222 172 205 197 78 132 120 
80 133 119 176 206 200 214 229 221 223 232 220 223 233 220 226 234 227 228 236 229 228 236 230 226 236 229 228 236 229 228 236 229 225 234 222 222 231 218 214 228 223 173 206 199 73 127 113 
83 135 125 198 223 218 213 229 220 220 230 217 223 233 221 228 236 230 227 235 230 224 233 220 222 232 219 228 235 231 227 235 228 223 233 222 220 229 218 211 228 222 197 222 214 84 136 126 
87 139 128 201 225 219 216 230 223 221 232 219 224 234 223 228 235 229 226 235 230 222 232 219 222 232 219 226 234 229 228 236 229 223 233 221 222 231 219 214 229 223 192 215 209 81 135 123 
83 135 125 184 216 207 216 231 223 220 231 218 225 234 222 227 235 229 228 235 228 227 235 230 227 234 230 228 236 229 226 235 228 224 234 221 221 230 218 213 229 223 175 207 197 81 135 122 
93 140 129 171 200 193 204 225 221 221 230 217 223 234 221 223 232 220 227 235 228 228 236 229 227 235 228 227 235 228 224 233 220 222 232 221 219 229 217 209 226 220 179 214 204 74 130 117 
85 137 126 173 206 197 200 224 217 214 229 222 218 229 216 224 233 222 222 232 219 222 233 220 223 234 222 225 234 222 224 234 223 220 230 215 219 232 228 215 229 223 173 206 197 74 129 116 
80 134 121 143 189 178 192 213 207 200 223 217 213 229 223 219 230 217 221 229 217 221 231 219 219 229 217 221 231 219 219 230 216 218 231 228 211 227 221 195 219 214 143 188 177 74 127 115 
79 131 119 117 172 160 144 189 177 195 219 214 199 225 218 214 229 222 212 229 223 213 229 223 213 229 223 213 228 222 209 226 221 215 229 223 193 217 211 142 189 178 116 172 158 74 127 117 
78 130 118 83 136 123 118 173 160 145 191 181 131 179 168 132 179 166 175 211 201 199 223 216 198 223 216 183 215 205 175 208 198 180 213 203 145 190 179 118 174 161 82 136 123 84 137 124 
85 137 125 74 126 112 74 125 112 74 127 113 78 133 119 74 128 114 75 129 116 74 127 114 74 127 113 78 131 117 72 125 112 83 135 124 84 137 124 74 128 114 83 136 124 78 132 119 
84 137 125 80 133 119 80 134 121 90 140 127 80 132 118 83 138 126 82 137 124 80 132 118 88 139 127 83 137 125 81 133 119 87 138 125 80 132 118 80 133 118 90 138 126 89 140 127 
87 138 124 82 135 120 117 174 162 144 188 175 135 186 173 177 213 202 173 202 194 199 223 216 193 217 211 175 208 200 175 206 198 177 211 202 145 192 181 117 172 157 82 135 121 79 132 116 
80 131 117 117 173 161 141 189 175 196 221 214 210 227 220 213 227 215 214 228 217 215 228 218 214 227 217 216 227 217 216 228 215 204 225 218 208 227 219 148 191 179 115 170 158 80 133 116 
79 132 118 144 189 179 199 224 216 207 225 222 215 228 218 221 232 224 219 231 222 220 231 222 223 232 224 222 232 224 221 232 223 215 228 215 208 224 218 201 224 217 146 189 177 74 125 113 
85 136 125 172 201 192 208 227 221 215 228 217 223 232 225 227 235 228 224 234 224 225 233 226 225 234 225 226 234 226 225 234 226 222 233 225 215 228 217 206 225 218 180 214 203 74 130 115 
89 140 129 171 206 198 214 227 211 222 232 224 225 234 225 226 234 226 226 235 228 227 234 229 227 235 228 228 235 230 226 233 225 224 233 225 222 232 224 218 230 216 171 204 195 76 129 116 
80 134 118 174 206 199 218 229 216 224 232 225 227 234 226 227 236 229 228 235 229 222 232 219 222 232 218 228 235 229 227 234 229 223 233 222 222 232 224 214 227 216 174 208 201 74 128 115 
84 137 126 199 223 217 219 231 217 223 232 225 224 234 224 225 235 227 223 233 219 225 233 228 226 235 228 223 231 219 225 235 227 226 234 226 223 232 224 214 228 217 196 220 214 84 137 127 
88 139 128 202 226 220 217 229 216 220 231 222 225 233 226 227 235 228 222 232 218 227 235 229 226 234 228 223 232 218 227 236 228 226 234 226 220 232 224 215 228 218 191 213 208 83 137 125 
83 135 122 184 216 207 218 230 217 223 232 224 225 233 224 227 235 228 227 235 228 219 230 216 221 231 217 228 236 229 227 235 228 225 234 225 221 231 223 215 228 218 171 205 196 81 134 123 
92 140 130 171 200 194 210 226 215 223 232 225 225 234 226 225 234 225 228 236 229 228 236 230 227 235 228 227 235 228 226 234 226 225 233 225 221 230 223 214 227 215 179 214 203 72 129 114 
85 137 126 172 206 198 203 225 218 217 228 217 223 231 223 225 234 225 225 234 225 226 235 227 225 234 225 224 233 224 225 233 226 224 233 222 221 231 223 215 229 222 176 207 198 74 128 115 
79 134 121 144 190 177 192 214 209 200 223 217 214 228 217 224 233 225 223 232 224 222 231 223 221 231 224 223 232 224 224 233 226 219 230 221 212 228 222 194 217 212 142 188 175 74 127 115 
79 131 119 118 173 165 142 187 176 194 219 214 202 227 220 217 229 216 214 228 217 215 229 218 216 229 218 216 229 219 214 227 215 214 228 222 193 218 212 143 188 177 117 173 158 74 127 116 
79 131 120 83 136 122 117 172 160 145 191 180 133 181 166 131 179 169 176 210 200 198 223 215 199 223 217 182 214 204 178 209 199 178 212 201 145 191 177 117 174 161 82 135 123 84 136 124 
84 137 126 74 125 112 74 127 115 74 127 114 78 133 119 74 128 115 74 128 116 74 127 113 74 128 116 78 133 119 74 126 113 84 136 124 83 136 124 74 127 114 83 134 123 79 133 120 
83 137 124 80 134 122 78 132 119 90 140 128 80 131 117 82 136 122 82 136 123 79 133 120 86 137 125 83 137 124 81 134 119 85 137 123 80 131 118 80 133 120 91 138 127 88 139 125 
85 137 122 80 133 117 118 174 161 144 187 175 134 184 172 181 213 202 177 205 193 200 223 214 196 218 209 179 210 199 179 208 197 177 212 201 147 192 181 117 172 160 83 135 120 79 134 117 
80 130 115 117 173 160 142 190 178 198 223 216 213 227 218 213 228 221 213 228 222 213 228 221 215 230 223 214 229 222 215 229 222 205 225 215 208 228 220 147 190 178 117 172 160 80 133 116 
80 133 119 146 192 181 198 224 216 207 225 218 213 228 222 221 231 225 223 232 226 223 233 226 224 232 227 223 232 226 222 233 226 214 228 221 209 225 216 198 222 215 145 189 177 74 125 110 
86 138 126 176 204 192 208 226 217 215 230 223 224 232 226 224 234 225 225 233 225 224 233 225 225 234 225 226 234 226 226 234 227 223 232 226 213 229 221 207 225 215 181 214 203 74 130 117 
88 140 127 180 211 201 213 229 218 221 231 224 226 235 227 226 234 225 224 233 225 222 232 217 222 230 217 226 234 226 223 234 223 222 233 223 224 232 226 215 228 222 177 207 196 78 131 117 
80 133 121 180 208 199 213 228 219 222 231 225 225 234 225 227 236 228 222 231 217 222 232 225 225 233 227 221 232 216 226 234 226 226 235 225 224 234 227 212 227 221 178 209 200 73 128 115 
84 137 126 201 223 215 215 230 220 221 232 226 226 234 226 221 231 216 223 233 226 225 234 227 228 236 230 225 233 228 223 232 218 224 234 225 223 233 226 213 228 222 200 223 214 85 136 126 
87 138 128 202 224 215 215 230 221 223 232 226 223 234 223 221 230 216 223 233 226 227 236 230 225 234 228 225 233 227 221 231 216 225 234 225 222 232 225 213 228 222 196 217 209 82 136 125 
83 135 123 187 217 206 216 229 221 224 233 228 224 232 224 227 235 227 221 232 216 224 233 226 221 231 224 221 230 216 226 235 226 225 235 225 223 233 227 212 228 220 178 207 195 83 136 124 
92 140 129 177 202 194 206 225 218 224 232 227 225 233 225 226 235 226 224 234 225 221 231 217 222 231 217 225 235 226 223 233 223 225 234 226 223 232 226 212 227 221 183 215 204 74 129 117 
86 137 125 172 205 198 204 225 215 214 228 221 224 232 226 227 235 227 226 235 225 225 233 225 226 234 227 222 232 221 222 233 223 223 233 222 220 232 227 215 228 220 172 204 195 74 129 114 
80 134 122 145 191 180 192 214 208 201 223 214 213 228 221 224 232 227 224 233 227 222 232 226 224 233 227 223 233 227 222 232 225 217 230 225 213 229 220 194 218 214 143 189 177 74 127 116 
78 129 117 117 172 160 143 188 177 193 217 211 203 225 216 215 229 222 215 229 220 217 231 222 215 229 220 213 227 219 212 229 220 215 228 219 193 217 212 143 187 177 117 173 160 74 127 116 
79 131 119 83 135 123 116 172 159 145 191 180 133 181 170 144 186 174 181 215 202 200 224 213 199 222 211 186 216 203 182 210 199 180 213 204 145 190 178 120 175 161 82 136 124 84 136 123 
82 134 122 74 126 115 73 125 111 74 128 114 77 131 119 74 128 114 73 127 117 74 126 113 74 126 114 78 133 119 73 126 113 82 135 124 85 137 126 74 126 113 84 137 125 78 131 119 
83 136 124 81 133 120 79 134 120 90 140 127 80 132 118 83 138 124 81 135 123 80 134 120 88 139 126 82 137 125 81 134 121 87 137 125 81 132 119 79 132 118 92 140 130 91 140 127 
86 136 121 81 134 119 117 172 157 143 187 175 136 186 173 176 212 201 173 203 194 198 222 215 192 217 211 174 207 199 175 207 198 177 211 202 147 191 181 116 171 158 82 135 121 80 133 117 
79 132 117 116 173 160 143 190 178 196 223 215 211 227 221 212 228 221 213 229 222 213 228 221 215 229 222 213 228 221 215 228 220 206 225 218 204 226 217 147 191 179 117 172 159 79 133 117 
80 132 119 144 189 179 201 225 217 208 226 223 213 228 221 218 231 225 222 231 225 220 231 225 220 231 225 220 231 225 222 232 227 215 229 221 207 225 217 200 224 217 146 190 178 74 126 112 
87 138 127 171 201 194 207 227 222 212 227 219 222 232 227 223 233 224 224 233 222 221 231 216 221 231 216 224 232 222 224 232 223 220 232 225 213 227 221 205 225 218 181 214 203 75 130 119 
88 140 129 174 209 200 213 228 218 219 230 225 222 231 222 222 232 219 223 232 218 227 235 229 224 233 226 220 230 216 221 231 219 227 234 226 219 230 224 216 229 221 171 205 197 78 132 119 
80 133 120 176 207 199 217 230 222 222 232 226 221 232 219 223 232 219 225 234 227 227 235 229 228 236 229 225 235 228 222 232 217 224 234 222 223 233 227 213 229 222 173 207 201 74 129 116 
85 136 127 198 222 217 216 230 220 222 231 226 222 230 217 226 235 228 226 235 228 227 235 228 227 234 229 225 235 228 226 235 228 222 232 217 222 232 226 212 228 221 197 223 216 84 137 126 
86 137 126 201 225 218 215 229 218 222 232 226 223 231 218 225 234 228 227 236 229 225 234 226 226 235 228 226 235 228 223 233 226 223 232 219 222 232 225 214 229 222 192 215 210 83 138 123 
84 136 124 184 216 206 215 230 219 221 231 225 220 232 222 219 230 214 227 235 229 226 234 227 226 235 228 224 234 227 220 231 215 224 234 222 223 232 227 213 228 221 173 206 196 82 135 121 
92 140 129 172 200 194 205 225 218 217 230 225 222 232 222 224 233 222 220 230 215 226 234 228 224 233 226 220 230 215 224 233 221 224 232 221 222 231 226 211 225 218 180 214 205 74 129 116 
86 139 126 172 205 197 202 225 218 216 229 221 218 230 224 224 232 225 223 232 221 222 232 217 223 232 218 223 233 221 224 232 222 224 233 224 220 232 228 215 229 223 174 207 198 74 129 116 
80 134 122 145 189 178 194 215 209 198 220 215 214 229 222 219 232 226 221 231 225 224 233 227 223 232 227 223 232 226 220 231 226 218 230 225 213 228 223 195 218 213 143 188 176 73 127 115 
80 131 119 117 172 160 143 187 177 194 219 213 199 224 217 214 228 220 214 228 221 214 229 221 215 228 221 214 228 221 210 227 219 214 229 222 193 215 209 144 189 178 116 173 159 74 127 116 
79 131 119 83 136 124 116 172 158 145 191 181 132 180 168 132 180 169 176 211 201 197 222 214 198 222 215 183 215 204 175 209 200 179 214 203 144 190 179 117 174 159 82 136 123 83 134 122 
84 137 124 74 126 115 74 127 113 74 125 112 76 131 117 73 128 113 74 128 115 74 127 114 74 126 115 78 133 118 72 124 111 84 134 123 84 136 124 74 127 115 82 134 122 79 133 121 
