P3
16 16
255
0 0 0 0 0 0 0 0 0 0 0 0 0 0 0 0 0 0 0 0 0 0 0 0 0 0 0 0 0 0 0 0 0 0 0 0 0 0 0 0 0 0 0 0 0 0 0 0 
0 0 0 0 0 0 0 0 0 0 0 0 0 0 0 0 0 0 0 0 0 0 0 0 0 0 0 0 0 0 0 0 0 0 0 0 0 0 0 0 0 0 0 0 0 0 0 0 
0 0 0 0 0 0 0 0 0 0 0 0 160 160 160 0 0 0 0 0 0 160 160 160 0 0 0 0 0 0 184 183 184 0 0 0 0 0 0 160 160 160 0 0 0 0 0 0 
0 0 0 0 0 0 0 0 0 0 0 0 0 0 0 160 160 160 0 0 0 184 183 184 0 0 0 0 0 0 184 183 184 0 0 0 160 160 160 0 0 0 0 0 0 0 0 0 
0 0 0 0 0 0 0 0 0 160 160 160 0 0 0 184 183 184 0 0 0 184 183 184 0 0 0 131 129 131 160 160 160 0 0 0 184 183 184 0 0 0 0 0 0 0 0 0 
0 0 0 160 160 160 0 0 0 0 0 0 160 160 160 184 183 184 0 0 0 160 160 160 0 0 0 160 160 160 0 0 0 184 183 184 0 0 0 0 0 0 184 183 184 0 0 0 
0 0 0 0 0 0 184 183 184 0 0 0 118 119 118 160 160 160 0 0 0 160 160 160 131 129 131 184 183 184 0 0 0 160 160 160 0 0 0 184 183 184 0 0 0 0 0 0 
0 0 0 0 0 0 184 183 184 0 0 0 0 0 0 160 160 160 145 145 145 0 0 0 145 145 145 184 183 184 0 0 0 131 129 131 0 0 0 184 183 184 0 0 0 0 0 0 
0 0 0 0 0 0 184 183 184 118 119 118 0 0 0 145 145 145 160 160 160 118 119 118 131 129 131 145 145 145 184 183 184 118 119 118 0 0 0 160 160 160 0 0 0 0 0 0 
160 160 160 0 0 0 160 160 160 145 145 145 0 0 0 184 183 184 0 0 0 118 119 118 160 160 160 0 0 0 160 160 160 118 119 118 184 183 184 0 0 0 118 119 118 0 0 0 
160 160 160 0 0 0 145 145 145 160 160 160 0 0 0 160 160 160 118 119 118 0 0 0 160 160 160 131 129 131 145 145 145 0 0 0 160 160 160 0 0 0 118 119 118 160 160 160 
160 160 160 131 129 131 0 0 0 160 160 160 160 160 160 145 145 145 118 119 118 0 0 0 145 145 145 131 129 131 160 160 160 0 0 0 145 145 145 160 160 160 0 0 0 145 145 145 
145 145 145 0 0 0 131 129 131 145 145 145 118 119 118 145 145 145 118 119 118 145 145 145 118 119 118 131 129 131 160 160 160 145 145 145 131 129 131 145 145 145 145 145 145 131 129 131 
145 145 145 145 145 145 131 129 131 131 129 131 118 119 118 145 145 145 131 129 131 145 145 145 131 129 131 118 119 118 160 160 160 118 119 118 131 129 131 131 129 131 145 145 145 0 0 0 
0 0 0 131 129 131 118 119 118 160 160 160 108 108 108 131 129 131 118 119 118 160 160 160 131 129 131 108 108 108 145 145 145 118 119 118 160 160 160 131 129 131 131 129 131 131 129 131 
145 145 145 131 129 131 108 108 108 160 160 160 108 108 108 131 129 131 108 108 108 160 160 160 131 129 131 108 108 108 131 129 131 108 108 108 160 160 160 108 108 108 131 129 131 118 119 118 
