P3
16 16
255
159 50 31 159 50 31 148 38 28 62 143 85 69 156 92 69 156 92 62 143 85 62 143 85 62 143 85 62 143 85 62 143 85 159 50 31 159 50 31 159 50 31 0 0 0 0 0 0 
159 50 31 148 38 28 148 38 28 62 143 85 69 156 92 62 143 85 62 143 85 62 143 85 62 143 85 62 143 85 55 132 77 159 50 31 159 50 31 148 38 28 0 0 0 0 0 0 
148 38 28 148 38 28 148 38 28 107 88 55 62 143 85 62 143 85 62 143 85 62 143 85 55 132 77 55 132 77 148 38 28 148 38 28 148 38 28 148 38 28 0 0 0 0 0 0 
107 88 55 148 38 28 148 38 28 148 38 28 107 88 55 55 132 77 55 132 77 48 110 73 48 110 73 138 33 25 148 38 28 95 77 51 55 132 77 69 156 92 0 0 0 0 0 0 
55 132 77 107 88 55 148 38 28 148 38 28 148 38 28 138 33 25 138 33 25 138 33 25 138 33 25 138 33 25 55 132 77 55 132 77 55 132 77 55 132 77 0 0 0 0 0 0 
55 132 77 55 132 77 138 33 25 148 38 28 148 38 28 148 38 28 148 38 28 148 38 28 138 33 25 55 132 77 55 132 77 55 132 77 55 132 77 55 132 77 0 0 0 0 0 0 
52 121 77 55 132 77 95 77 51 148 38 28 148 38 28 148 38 28 138 33 25 148 38 28 124 20 20 52 121 77 55 132 77 55 132 77 52 121 77 52 121 77 0 0 0 0 0 0 
52 121 77 55 132 77 52 121 77 138 33 25 148 38 28 148 38 28 138 33 25 138 33 25 124 20 20 52 121 77 55 132 77 52 121 77 52 121 77 52 121 77 0 0 0 0 0 0 
52 121 77 52 121 77 52 121 77 138 33 25 148 38 28 138 33 25 138 33 25 138 33 25 138 33 25 124 20 20 52 121 77 55 132 77 52 121 77 52 121 77 0 0 0 0 0 0 
52 121 77 52 121 77 52 121 77 124 20 20 148 38 28 138 33 25 138 33 25 138 33 25 138 33 25 138 33 25 124 20 20 48 110 73 48 110 73 48 110 73 0 0 0 0 0 0 
52 121 77 52 121 77 48 110 73 124 20 20 138 33 25 124 20 20 124 20 20 124 20 20 138 33 25 138 33 25 138 33 25 138 33 25 124 20 20 124 20 20 0 0 0 0 0 0 
48 110 73 52 121 77 48 110 73 124 20 20 138 33 25 52 121 77 52 121 77 138 33 25 124 20 20 138 33 25 124 20 20 124 20 20 124 20 20 124 20 20 0 0 0 0 0 0 
48 110 73 48 110 73 48 110 73 124 20 20 48 110 73 48 110 73 52 121 77 52 121 77 124 20 20 124 20 20 124 20 20 124 20 20 52 121 77 52 121 77 0 0 0 0 0 0 
48 110 73 48 110 73 138 33 25 95 77 51 48 110 73 48 110 73 48 110 73 45 98 70 105 14 14 124 20 20 124 20 20 48 110 73 48 110 73 45 98 70 0 0 0 0 0 0 
48 110 73 45 98 70 124 20 20 45 98 70 45 98 70 45 98 70 45 98 70 45 98 70 105 14 14 124 20 20 105 14 14 45 98 70 45 98 70 45 98 70 0 0 0 0 0 0 
40 84 65 105 14 14 105 14 14 40 84 65 40 84 65 40 84 65 45 98 70 45 98 70 105 14 14 105 14 14 105 14 14 40 84 65 45 98 70 45 98 70 0 0 0 0 0 0 
