P3
16 16
255
159 50 31 159 50 31 159 50 31 159 50 31 159 50 31 159 50 31 124 20 20 159 50 31 159 50 31 159 50 31 55 132 77 55 132 77 0 0 0 0 0 0 0 0 0 0 0 0 
148 38 28 148 38 28 124 20 20 124 20 20 124 20 20 105 14 14 105 14 14 148 38 28 159 50 31 148 38 28 148 38 28 55 132 77 0 0 0 0 0 0 0 0 0 0 0 0 
55 132 77 69 156 92 69 156 92 55 132 77 148 38 28 105 14 14 148 38 28 105 14 14 105 14 14 171 63 42 148 38 28 148 38 28 0 0 0 0 0 0 0 0 0 0 0 0 
69 156 92 55 132 77 55 132 77 55 132 77 40 80 66 124 20 20 148 38 28 148 38 28 105 14 14 124 20 20 171 63 42 148 38 28 0 0 0 0 0 0 0 0 0 0 0 0 
55 132 77 52 121 77 52 121 77 40 80 66 40 80 66 52 121 77 138 33 25 105 14 14 138 33 25 105 14 14 148 38 28 148 38 28 0 0 0 0 0 0 0 0 0 0 0 0 
55 132 77 55 132 77 45 98 70 52 121 77 40 80 66 52 121 77 124 20 20 105 14 14 138 33 25 105 14 14 138 33 25 55 132 77 0 0 0 0 0 0 0 0 0 0 0 0 
52 121 77 45 98 70 52 121 77 52 121 77 45 98 70 48 110 73 105 14 14 138 33 25 138 33 25 105 14 14 69 156 92 69 156 92 0 0 0 0 0 0 0 0 0 0 0 0 
52 121 77 52 121 77 48 110 73 52 121 77 48 110 73 124 20 20 105 14 14 138 33 25 105 14 14 40 80 66 55 132 77 52 121 77 0 0 0 0 0 0 0 0 0 0 0 0 
48 110 73 48 110 73 48 110 73 45 98 70 124 20 20 105 14 14 138 33 25 124 20 20 55 132 77 45 98 70 40 80 66 52 121 77 0 0 0 0 0 0 0 0 0 0 0 0 
48 110 73 45 98 70 138 33 25 124 20 20 124 20 20 105 14 14 138 33 25 138 33 25 55 132 77 52 121 77 45 98 70 52 121 77 0 0 0 0 0 0 0 0 0 0 0 0 
124 20 20 124 20 20 124 20 20 124 20 20 105 14 14 148 38 28 124 20 20 52 121 77 52 121 77 52 121 77 52 121 77 52 121 77 0 0 0 0 0 0 0 0 0 0 0 0 
124 20 20 124 20 20 138 33 25 138 33 25 138 33 25 138 33 25 124 20 20 48 110 73 52 121 77 48 110 73 48 110 73 52 121 77 0 0 0 0 0 0 0 0 0 0 0 0 
48 110 73 124 20 20 124 20 20 138 33 25 124 20 20 124 20 20 105 14 14 48 110 73 48 110 73 48 110 73 48 110 73 45 98 70 0 0 0 0 0 0 0 0 0 0 0 0 
48 110 73 45 98 70 105 14 14 124 20 20 124 20 20 124 20 20 105 14 14 48 110 73 48 110 73 45 98 70 45 98 70 45 98 70 0 0 0 0 0 0 0 0 0 0 0 0 
40 80 66 45 98 70 45 98 70 105 14 14 124 20 20 105 14 14 105 14 14 45 98 70 45 98 70 45 98 70 45 98 70 40 84 65 0 0 0 0 0 0 0 0 0 0 0 0 
40 80 66 40 84 65 40 84 65 105 14 14 105 14 14 105 14 14 105 14 14 40 84 65 40 84 65 40 84 65 40 84 65 40 84 65 0 0 0 0 0 0 0 0 0 0 0 0 
