P3
16 16
255
159 50 31 159 50 31 148 38 28 62 143 85 69 156 92 52 121 77 62 143 85 62 143 85 62 143 85 45 98 70 62 143 85 159 50 31 159 50 31 159 50 31 0 0 0 0 0 0 
124 20 20 148 38 28 148 38 28 62 143 85 69 156 92 52 121 77 62 143 85 62 143 85 69 156 92 45 98 70 55 132 77 159 50 31 159 50 31 148 38 28 0 0 0 0 0 0 
88 8 8 124 20 20 148 38 28 107 88 55 62 143 85 62 143 85 52 121 77 69 156 92 45 98 70 55 132 77 40 80 66 124 20 20 124 20 20 148 38 28 0 0 0 0 0 0 
88 8 8 148 38 28 88 8 8 148 38 28 107 88 55 55 132 77 55 132 77 40 80 66 48 110 73 138 33 25 124 20 20 95 77 51 55 132 77 62 143 85 0 0 0 0 0 0 
45 98 70 107 88 55 148 38 28 88 8 8 148 38 28 138 33 25 138 33 25 138 33 25 138 33 25 138 33 25 45 98 70 55 132 77 55 132 77 55 132 77 0 0 0 0 0 0 
34 60 61 45 98 70 138 33 25 148 38 28 66 7 7 88 8 8 88 8 8 124 20 20 138 33 25 55 132 77 45 98 70 55 132 77 55 132 77 55 132 77 0 0 0 0 0 0 
34 60 61 24 43 43 24 43 43 66 7 7 124 20 20 148 38 28 88 8 8 148 38 28 124 20 20 52 121 77 55 132 77 55 132 77 52 121 77 52 121 77 0 0 0 0 0 0 
34 60 61 40 80 66 45 98 70 138 33 25 148 38 28 88 8 8 138 33 25 124 20 20 124 20 20 52 121 77 55 132 77 52 121 77 52 121 77 52 121 77 0 0 0 0 0 0 
40 80 66 45 98 70 45 98 70 138 33 25 148 38 28 124 20 20 138 33 25 138 33 25 124 20 20 124 20 20 52 121 77 55 132 77 52 121 77 45 98 70 0 0 0 0 0 0 
40 80 66 45 98 70 52 121 77 124 20 20 148 38 28 138 33 25 138 33 25 138 33 25 88 8 8 88 8 8 124 20 20 48 110 73 48 110 73 45 98 70 0 0 0 0 0 0 
52 121 77 40 80 66 48 110 73 124 20 20 138 33 25 124 20 20 124 20 20 88 8 8 138 33 25 138 33 25 88 8 8 88 8 8 124 20 20 124 20 20 0 0 0 0 0 0 
48 110 73 40 80 66 48 110 73 124 20 20 138 33 25 52 121 77 40 80 66 138 33 25 124 20 20 138 33 25 88 8 8 124 20 20 124 20 20 88 8 8 0 0 0 0 0 0 
48 110 73 45 98 70 48 110 73 124 20 20 48 110 73 40 80 66 52 121 77 52 121 77 124 20 20 88 8 8 124 20 20 88 8 8 52 121 77 34 60 61 0 0 0 0 0 0 
48 110 73 48 110 73 138 33 25 95 77 51 48 110 73 48 110 73 48 110 73 45 98 70 105 14 14 124 20 20 124 20 20 34 60 61 48 110 73 24 43 43 0 0 0 0 0 0 
48 110 73 45 98 70 124 20 20 45 98 70 45 98 70 45 98 70 45 98 70 45 98 70 105 14 14 124 20 20 105 14 14 45 98 70 34 60 61 24 43 43 0 0 0 0 0 0 
40 84 65 105 14 14 105 14 14 40 84 65 40 84 65 40 84 65 45 98 70 45 98 70 105 14 14 105 14 14 105 14 14 40 84 65 24 43 43 24 43 43 0 0 0 0 0 0 
