P3
16 16
255
55 132 77 62 143 85 62 143 85 62 143 85 62 143 85 62 143 85 62 143 85 62 143 85 148 38 28 159 50 31 159 50 31 159 50 31 159 50 31 159 50 31 0 0 0 0 0 0 
55 132 77 55 132 77 62 143 85 62 143 85 62 143 85 62 143 85 62 143 85 107 88 55 148 38 28 159 50 31 159 50 31 124 20 20 159 50 31 62 143 85 0 0 0 0 0 0 
148 38 28 55 132 77 55 132 77 55 132 77 48 110 73 62 143 85 55 132 77 148 38 28 159 50 31 148 38 28 148 38 28 148 38 28 105 14 14 45 98 70 0 0 0 0 0 0 
138 33 25 148 38 28 107 88 55 48 110 73 48 110 73 40 84 65 148 38 28 159 50 31 148 38 28 138 33 25 148 38 28 55 132 77 45 98 70 55 132 77 0 0 0 0 0 0 
148 38 28 138 33 25 138 33 25 138 33 25 138 33 25 138 33 25 124 20 20 171 63 42 148 38 28 138 33 25 107 88 55 55 132 77 40 80 66 55 132 77 0 0 0 0 0 0 
52 121 77 95 77 51 138 33 25 138 33 25 148 38 28 148 38 28 138 33 25 105 14 14 171 63 42 138 33 25 52 121 77 55 132 77 40 80 66 55 132 77 0 0 0 0 0 0 
69 156 92 55 132 77 95 77 51 138 33 25 124 20 20 124 20 20 105 14 14 105 14 14 105 14 14 105 14 14 40 80 66 40 80 66 34 60 61 62 143 85 0 0 0 0 0 0 
55 132 77 55 132 77 52 121 77 124 20 20 148 38 28 138 33 25 138 33 25 138 33 25 138 33 25 124 20 20 34 60 61 34 60 61 40 80 66 34 60 61 0 0 0 0 0 0 
52 121 77 55 132 77 55 132 77 124 20 20 138 33 25 138 33 25 138 33 25 138 33 25 138 33 25 124 20 20 34 60 61 52 121 77 52 121 77 48 110 73 0 0 0 0 0 0 
52 121 77 52 121 77 55 132 77 124 20 20 124 20 20 138 33 25 124 20 20 138 33 25 124 20 20 105 14 14 48 110 73 52 121 77 52 121 77 48 110 73 0 0 0 0 0 0 
52 121 77 52 121 77 52 121 77 124 20 20 124 20 20 124 20 20 124 20 20 124 20 20 124 20 20 105 14 14 138 33 25 45 98 70 45 98 70 45 98 70 0 0 0 0 0 0 
52 121 77 52 121 77 48 110 73 124 20 20 124 20 20 52 121 77 48 110 73 138 33 25 124 20 20 124 20 20 105 14 14 124 20 20 124 20 20 124 20 20 0 0 0 0 0 0 
48 110 73 48 110 73 45 98 70 88 8 8 48 110 73 52 121 77 52 121 77 48 110 73 124 20 20 105 14 14 124 20 20 138 33 25 48 110 73 52 121 77 0 0 0 0 0 0 
48 110 73 45 98 70 124 20 20 124 20 20 24 43 43 52 121 77 62 143 85 40 80 66 105 14 14 105 14 14 124 20 20 48 110 73 48 110 73 48 110 73 0 0 0 0 0 0 
45 98 70 45 98 70 105 14 14 45 98 70 45 98 70 24 43 43 34 60 61 45 98 70 105 14 14 105 14 14 45 98 70 48 110 73 45 98 70 45 98 70 0 0 0 0 0 0 
40 84 65 105 14 14 105 14 14 40 84 65 40 84 65 40 84 65 34 60 61 45 98 70 105 14 14 105 14 14 45 98 70 45 98 70 45 98 70 45 98 70 0 0 0 0 0 0 
