P3
16 16
255
55 132 77 62 143 85 62 143 85 62 143 85 62 143 85 62 143 85 62 143 85 62 143 85 148 38 28 159 50 31 159 50 31 159 50 31 159 50 31 159 50 31 0 0 0 0 0 0 
55 132 77 55 132 77 62 143 85 62 143 85 62 143 85 62 143 85 62 143 85 107 88 55 148 38 28 159 50 31 159 50 31 159 50 31 159 50 31 62 143 85 0 0 0 0 0 0 
148 38 28 55 132 77 55 132 77 55 132 77 62 143 85 62 143 85 55 132 77 148 38 28 159 50 31 148 38 28 148 38 28 148 38 28 62 143 85 69 156 92 0 0 0 0 0 0 
138 33 25 148 38 28 107 88 55 48 110 73 48 110 73 48 110 73 148 38 28 159 50 31 148 38 28 138 33 25 148 38 28 55 132 77 62 143 85 55 132 77 0 0 0 0 0 0 
148 38 28 138 33 25 138 33 25 138 33 25 138 33 25 138 33 25 148 38 28 148 38 28 148 38 28 138 33 25 107 88 55 55 132 77 55 132 77 55 132 77 0 0 0 0 0 0 
52 121 77 95 77 51 138 33 25 138 33 25 148 38 28 148 38 28 138 33 25 148 38 28 148 38 28 138 33 25 52 121 77 55 132 77 55 132 77 55 132 77 0 0 0 0 0 0 
69 156 92 55 132 77 95 77 51 138 33 25 148 38 28 138 33 25 138 33 25 148 38 28 138 33 25 124 20 20 55 132 77 55 132 77 52 121 77 52 121 77 0 0 0 0 0 0 
55 132 77 55 132 77 52 121 77 124 20 20 148 38 28 138 33 25 138 33 25 138 33 25 138 33 25 124 20 20 55 132 77 52 121 77 52 121 77 52 121 77 0 0 0 0 0 0 
52 121 77 55 132 77 55 132 77 124 20 20 138 33 25 138 33 25 138 33 25 138 33 25 138 33 25 124 20 20 52 121 77 52 121 77 52 121 77 48 110 73 0 0 0 0 0 0 
52 121 77 52 121 77 55 132 77 124 20 20 124 20 20 138 33 25 124 20 20 138 33 25 124 20 20 124 20 20 48 110 73 52 121 77 52 121 77 48 110 73 0 0 0 0 0 0 
52 121 77 52 121 77 52 121 77 124 20 20 124 20 20 124 20 20 124 20 20 124 20 20 124 20 20 124 20 20 138 33 25 45 98 70 45 98 70 45 98 70 0 0 0 0 0 0 
52 121 77 52 121 77 48 110 73 124 20 20 124 20 20 52 121 77 48 110 73 138 33 25 124 20 20 124 20 20 124 20 20 124 20 20 124 20 20 124 20 20 0 0 0 0 0 0 
48 110 73 48 110 73 45 98 70 124 20 20 48 110 73 52 121 77 52 121 77 48 110 73 124 20 20 105 14 14 124 20 20 138 33 25 48 110 73 52 121 77 0 0 0 0 0 0 
48 110 73 45 98 70 124 20 20 124 20 20 45 98 70 48 110 73 48 110 73 52 121 77 105 14 14 105 14 14 124 20 20 48 110 73 48 110 73 48 110 73 0 0 0 0 0 0 
45 98 70 45 98 70 105 14 14 45 98 70 45 98 70 45 98 70 45 98 70 45 98 70 105 14 14 105 14 14 45 98 70 48 110 73 45 98 70 45 98 70 0 0 0 0 0 0 
40 84 65 105 14 14 105 14 14 40 84 65 40 84 65 40 84 65 45 98 70 45 98 70 105 14 14 105 14 14 45 98 70 45 98 70 45 98 70 45 98 70 0 0 0 0 0 0 
