P3
16 16
255
88 8 8 171 63 42 171 63 42 159 50 31 159 50 31 159 50 31 69 156 92 69 156 92 69 156 92 45 98 70 45 98 70 69 156 92 62 143 85 52 121 77 0 0 0 0 0 0 
171 63 42 124 20 20 188 78 58 188 78 58 148 38 28 159 50 31 69 156 92 84 168 105 52 121 77 69 156 92 45 98 70 69 156 92 52 121 77 62 143 85 0 0 0 0 0 0 
171 63 42 171 63 42 124 20 20 188 78 58 124 20 20 171 63 42 128 117 75 52 121 77 84 168 105 84 168 105 45 98 70 52 121 77 69 156 92 159 50 31 0 0 0 0 0 0 
171 63 42 62 143 85 69 156 92 52 121 77 45 98 70 124 20 20 124 20 20 128 117 75 84 168 105 69 156 92 124 20 20 128 117 75 171 63 42 159 50 31 0 0 0 0 0 0 
62 143 85 69 156 92 69 156 92 84 168 105 45 98 70 52 121 77 124 20 20 188 78 58 188 78 58 124 20 20 171 63 42 171 63 42 171 63 42 159 50 31 0 0 0 0 0 0 
69 156 92 69 156 92 84 168 105 84 168 105 45 98 70 84 168 105 188 78 58 124 20 20 124 20 20 188 78 58 188 78 58 171 63 42 124 20 20 88 8 8 0 0 0 0 0 0 
140 119 79 69 156 92 69 156 92 69 156 92 52 121 77 84 168 105 188 78 58 188 78 58 88 8 8 88 8 8 88 8 8 124 20 20 188 78 58 171 63 42 0 0 0 0 0 0 
171 63 42 171 63 42 69 156 92 52 121 77 52 121 77 52 121 77 124 20 20 88 8 8 188 78 58 188 78 58 124 20 20 171 63 42 171 63 42 171 63 42 0 0 0 0 0 0 
171 63 42 171 63 42 124 20 20 188 78 58 124 20 20 124 20 20 188 78 58 188 78 58 188 78 58 124 20 20 188 78 58 188 78 58 171 63 42 171 63 42 0 0 0 0 0 0 
171 63 42 124 20 20 171 63 42 188 78 58 140 119 79 45 98 70 45 98 70 84 168 105 124 20 20 188 78 58 188 78 58 171 63 42 171 63 42 171 63 42 0 0 0 0 0 0 
88 8 8 159 50 31 171 63 42 140 119 79 84 168 105 52 121 77 84 168 105 52 121 77 84 168 105 84 168 105 171 63 42 171 63 42 171 63 42 159 50 31 0 0 0 0 0 0 
159 50 31 159 50 31 188 78 58 69 156 92 69 156 92 52 121 77 69 156 92 69 156 92 52 121 77 69 156 92 69 156 92 159 50 31 159 50 31 159 50 31 0 0 0 0 0 0 
0 0 0 0 0 0 0 0 0 0 0 0 0 0 0 0 0 0 0 0 0 0 0 0 0 0 0 0 0 0 0 0 0 0 0 0 0 0 0 0 0 0 0 0 0 0 0 0 
0 0 0 0 0 0 0 0 0 0 0 0 0 0 0 0 0 0 0 0 0 0 0 0 0 0 0 0 0 0 0 0 0 0 0 0 0 0 0 0 0 0 0 0 0 0 0 0 
0 0 0 0 0 0 0 0 0 0 0 0 0 0 0 0 0 0 0 0 0 0 0 0 0 0 0 0 0 0 0 0 0 0 0 0 0 0 0 0 0 0 0 0 0 0 0 0 
0 0 0 0 0 0 0 0 0 0 0 0 0 0 0 0 0 0 0 0 0 0 0 0 0 0 0 0 0 0 0 0 0 0 0 0 0 0 0 0 0 0 0 0 0 0 0 0 
