P3
16 16
255
88 8 8 159 50 31 159 50 31 159 50 31 159 50 31 159 50 31 159 50 31 159 50 31 159 50 31 88 8 8 159 50 31 88 8 8 0 0 0 0 0 0 0 0 0 0 0 0 
69 156 92 62 143 85 148 38 28 159 50 31 159 50 31 148 38 28 148 38 28 171 63 42 88 8 8 148 38 28 159 50 31 88 8 8 0 0 0 0 0 0 0 0 0 0 0 0 
62 143 85 55 132 77 55 132 77 138 33 25 148 38 28 171 63 42 171 63 42 66 7 7 88 8 8 88 8 8 148 38 28 148 38 28 0 0 0 0 0 0 0 0 0 0 0 0 
45 98 70 55 132 77 52 121 77 138 33 25 88 8 8 66 7 7 66 7 7 148 38 28 148 38 28 55 132 77 45 98 70 52 121 77 0 0 0 0 0 0 0 0 0 0 0 0 
55 132 77 45 98 70 40 80 66 88 8 8 124 20 20 124 20 20 88 8 8 138 33 25 55 132 77 69 156 92 55 132 77 45 98 70 0 0 0 0 0 0 0 0 0 0 0 0 
55 132 77 52 121 77 52 121 77 124 20 20 138 33 25 138 33 25 124 20 20 88 8 8 55 132 77 55 132 77 55 132 77 55 132 77 0 0 0 0 0 0 0 0 0 0 0 0 
69 156 92 52 121 77 52 121 77 124 20 20 138 33 25 138 33 25 88 8 8 34 60 61 55 132 77 55 132 77 52 121 77 62 143 85 0 0 0 0 0 0 0 0 0 0 0 0 
62 143 85 52 121 77 95 77 51 124 20 20 148 38 28 124 20 20 88 8 8 55 132 77 40 80 66 55 132 77 52 121 77 69 156 92 0 0 0 0 0 0 0 0 0 0 0 0 
45 98 70 48 110 73 124 20 20 88 8 8 88 8 8 88 8 8 52 121 77 55 132 77 45 98 70 52 121 77 69 156 92 34 60 61 0 0 0 0 0 0 0 0 0 0 0 0 
45 98 70 138 33 25 88 8 8 148 38 28 138 33 25 88 8 8 52 121 77 52 121 77 52 121 77 62 143 85 40 80 66 52 121 77 0 0 0 0 0 0 0 0 0 0 0 0 
138 33 25 124 20 20 138 33 25 148 38 28 124 20 20 105 14 14 48 110 73 52 121 77 52 121 77 45 98 70 52 121 77 52 121 77 0 0 0 0 0 0 0 0 0 0 0 0 
124 20 20 124 20 20 124 20 20 138 33 25 124 20 20 105 14 14 48 110 73 52 121 77 40 80 66 52 121 77 52 121 77 52 121 77 0 0 0 0 0 0 0 0 0 0 0 0 
52 121 77 52 121 77 40 80 66 124 20 20 105 14 14 105 14 14 45 98 70 48 110 73 34 60 61 40 80 66 40 80 66 45 98 70 0 0 0 0 0 0 0 0 0 0 0 0 
48 110 73 40 80 66 40 80 66 34 60 61 88 8 8 105 14 14 124 20 20 34 60 61 40 80 66 45 98 70 48 110 73 48 110 73 0 0 0 0 0 0 0 0 0 0 0 0 
45 98 70 45 98 70 45 98 70 45 98 70 105 14 14 88 8 8 105 14 14 88 8 8 45 98 70 45 98 70 48 110 73 48 110 73 0 0 0 0 0 0 0 0 0 0 0 0 
45 98 70 45 98 70 40 84 65 40 84 65 40 84 65 105 14 14 88 8 8 88 8 8 40 84 65 45 98 70 45 98 70 40 84 65 0 0 0 0 0 0 0 0 0 0 0 0 
