P3
16 16
255
0 0 0 0 0 0 0 0 0 0 0 0 0 0 0 0 0 0 0 0 0 0 0 0 0 0 0 0 0 0 0 0 0 0 0 0 0 0 0 0 0 0 0 0 0 0 0 0 
0 0 0 0 0 0 108 128 49 112 146 45 0 0 0 0 0 0 112 146 45 108 128 49 0 0 0 0 0 0 0 0 0 0 0 0 108 128 49 112 146 45 112 146 45 0 0 0 
0 0 0 0 0 0 108 128 49 132 168 60 132 168 60 0 0 0 108 128 49 132 168 60 132 168 60 108 128 49 112 146 45 0 0 0 132 168 60 132 168 60 112 146 45 0 0 0 
0 0 0 0 0 0 0 0 0 132 168 60 108 128 49 112 146 45 80 105 44 132 168 60 112 146 45 112 146 45 108 128 49 132 168 60 112 146 45 132 168 60 108 128 49 0 0 0 
0 0 0 132 168 60 132 168 60 112 146 45 112 146 45 132 168 60 132 168 60 108 128 49 112 146 45 108 128 49 80 105 44 108 128 49 132 168 60 112 146 45 0 0 0 0 0 0 
0 0 0 132 168 60 112 146 45 108 128 49 112 146 45 132 168 60 108 128 49 112 146 45 108 128 49 80 105 44 112 146 45 112 146 45 80 105 44 108 128 49 108 128 49 0 0 0 
0 0 0 108 128 49 132 168 60 132 168 60 108 128 49 80 105 44 112 146 45 108 128 49 80 105 44 80 105 44 80 105 44 112 146 45 108 128 49 132 168 60 132 168 60 0 0 0 
0 0 0 0 0 0 132 168 60 112 146 45 112 146 45 108 128 49 80 105 44 80 105 44 80 105 44 108 128 49 132 168 60 108 128 49 112 146 45 112 146 45 132 168 60 0 0 0 
0 0 0 0 0 0 108 128 49 112 146 45 108 128 49 132 168 60 108 128 49 108 128 49 80 105 44 112 146 45 112 146 45 132 168 60 112 146 45 112 146 45 0 0 0 0 0 0 
0 0 0 0 0 0 108 128 49 132 168 60 80 105 44 132 168 60 132 168 60 108 128 49 112 146 45 108 128 49 132 168 60 132 168 60 108 128 49 108 128 49 0 0 0 0 0 0 
0 0 0 0 0 0 0 0 0 132 168 60 132 168 60 112 146 45 108 128 49 112 146 45 112 146 45 80 105 44 108 128 49 108 128 49 112 146 45 108 128 49 112 146 45 0 0 0 
0 0 0 0 0 0 132 168 60 112 146 45 108 128 49 80 105 44 112 146 45 108 128 49 80 105 44 80 105 44 132 168 60 112 146 45 132 168 60 112 146 45 112 146 45 0 0 0 
0 0 0 108 128 49 132 168 60 108 128 49 112 146 45 0 0 0 112 146 45 112 146 45 132 168 60 80 105 44 0 0 0 132 168 60 132 168 60 0 0 0 0 0 0 0 0 0 
0 0 0 132 168 60 112 146 45 132 168 60 108 128 49 0 0 0 108 128 49 132 168 60 132 168 60 0 0 0 0 0 0 0 0 0 108 128 49 112 146 45 0 0 0 0 0 0 
0 0 0 132 168 60 132 168 60 108 128 49 0 0 0 0 0 0 108 128 49 108 128 49 0 0 0 0 0 0 0 0 0 0 0 0 112 146 45 112 146 45 0 0 0 0 0 0 
0 0 0 0 0 0 0 0 0 0 0 0 0 0 0 0 0 0 0 0 0 0 0 0 0 0 0 0 0 0 0 0 0 0 0 0 0 0 0 0 0 0 0 0 0 0 0 0 
