P3
16 16
255
183 171 73 227 204 106 200 177 77 144 126 58 187 168 76 227 204 106 211 187 80 153 135 65 200 177 77 217 194 94 211 187 80 144 126 58 187 168 76 227 204 106 211 187 80 144 126 58 
183 171 73 217 194 94 200 177 77 153 135 65 200 177 77 227 204 106 217 194 94 153 135 65 187 168 76 217 194 94 200 177 77 144 126 58 187 168 76 217 194 94 211 187 80 153 135 65 
194 181 78 217 194 94 200 177 77 187 168 76 227 204 106 239 217 126 227 204 106 187 168 76 187 168 76 227 204 106 200 177 77 144 126 58 187 168 76 217 194 94 211 187 80 153 135 65 
194 181 78 227 204 106 200 177 77 144 126 58 183 171 73 211 187 80 183 171 73 144 126 58 187 168 76 227 204 106 200 177 77 153 135 65 200 177 77 227 204 106 217 194 94 153 135 65 
194 181 78 227 204 106 211 187 80 144 126 58 187 168 76 217 194 94 200 177 77 153 135 65 200 177 77 217 194 94 211 187 80 187 168 76 227 204 106 239 217 126 227 204 106 187 168 76 
194 181 78 217 194 94 211 187 80 144 126 58 200 177 77 217 194 94 194 181 78 144 126 58 200 177 77 217 194 94 211 187 80 144 126 58 183 171 73 211 187 80 183 171 73 144 126 58 
183 171 73 217 194 94 211 187 80 153 135 65 200 177 77 227 204 106 194 181 78 144 126 58 200 177 77 217 194 94 200 177 77 144 126 58 200 177 77 217 194 94 194 181 78 153 135 65 
183 171 73 227 204 106 211 187 80 153 135 65 200 177 77 227 204 106 200 177 77 144 126 58 187 168 76 217 194 94 194 181 78 153 135 65 200 177 77 217 194 94 194 181 78 144 126 58 
194 181 78 227 204 106 217 194 94 153 135 65 200 177 77 217 194 94 200 177 77 153 135 65 200 177 77 217 194 94 194 181 78 153 135 65 194 181 78 217 194 94 200 177 77 144 126 58 
227 204 106 239 217 126 227 204 106 187 168 76 187 168 76 217 194 94 211 187 80 153 135 65 187 168 76 227 204 106 200 177 77 153 135 65 194 181 78 227 204 106 200 177 77 153 135 65 
183 171 73 211 187 80 183 171 73 144 126 58 187 168 76 227 204 106 211 187 80 153 135 65 187 168 76 227 204 106 211 187 80 153 135 65 187 168 76 227 204 106 200 177 77 144 126 58 
183 171 73 227 204 106 211 187 80 144 126 58 200 177 77 227 204 106 211 187 80 153 135 65 200 177 77 227 204 106 217 194 94 153 135 65 187 168 76 227 204 106 211 187 80 144 126 58 
194 181 78 227 204 106 211 187 80 153 135 65 200 177 77 217 194 94 211 187 80 187 168 76 227 204 106 239 217 126 227 204 106 187 168 76 187 168 76 217 194 94 211 187 80 144 126 58 
194 181 78 227 204 106 200 177 77 153 135 65 187 168 76 217 194 94 200 177 77 144 126 58 183 171 73 211 187 80 183 171 73 144 126 58 200 177 77 217 194 94 211 187 80 153 135 65 
183 171 73 217 194 94 200 177 77 144 126 58 187 168 76 217 194 94 211 187 80 144 126 58 187 168 76 217 194 94 194 181 78 153 135 65 200 177 77 217 194 94 200 177 77 153 135 65 
183 171 73 217 194 94 211 187 80 144 126 58 187 168 76 227 204 106 200 177 77 153 135 65 200 177 77 217 194 94 200 177 77 153 135 65 187 168 76 227 204 106 200 177 77 144 126 58 
