P3
16 16
255
205 133 128 205 133 128 201 125 121 201 125 121 205 133 128 205 133 128 201 125 121 201 125 121 201 125 121 201 125 121 205 133 128 205 133 128 205 133 128 210 137 141 210 137 141 210 137 141 
205 133 128 231 190 180 231 190 180 231 190 180 231 190 180 230 181 173 231 190 180 230 181 173 231 199 187 230 181 173 230 181 173 231 190 180 231 190 180 231 190 180 231 190 180 210 137 141 
205 133 128 231 190 180 205 133 128 205 133 128 221 157 151 221 157 151 225 168 161 221 157 151 225 168 161 225 168 161 225 168 161 225 168 161 205 133 128 205 133 128 231 199 187 205 133 128 
210 137 141 231 190 180 205 133 128 231 199 187 231 199 187 231 190 180 231 190 180 231 190 180 231 190 180 230 181 173 231 190 180 231 190 180 231 190 180 205 133 128 231 190 180 201 125 121 
210 137 141 230 181 173 221 157 151 231 190 180 230 181 173 230 181 173 230 181 173 230 181 173 230 181 173 230 181 173 230 181 173 230 181 173 231 190 180 225 168 161 230 181 173 201 125 121 
205 133 128 231 190 180 221 157 151 231 190 180 230 181 173 221 157 151 221 157 151 225 168 161 225 168 161 221 157 151 221 157 151 230 181 173 231 190 180 205 133 128 230 181 173 205 133 128 
201 125 121 230 181 173 221 157 151 230 181 173 230 181 173 205 133 128 230 181 173 230 181 173 230 181 173 230 181 173 221 157 151 230 181 173 230 181 173 205 133 128 231 190 180 210 137 141 
201 125 121 230 181 173 225 168 161 231 190 180 230 181 173 221 157 151 230 181 173 225 168 161 225 168 161 230 181 173 225 168 161 230 181 173 231 190 180 225 168 161 230 181 173 210 137 141 
201 125 121 230 181 173 225 168 161 231 190 180 230 181 173 221 157 151 230 181 173 225 168 161 221 157 151 230 181 173 221 157 151 230 181 173 231 190 180 205 133 128 230 181 173 205 133 128 
201 125 121 230 181 173 225 168 161 231 190 180 230 181 173 221 157 151 230 181 173 230 181 173 230 181 173 230 181 173 225 168 161 230 181 173 230 181 173 205 133 128 230 181 173 201 125 121 
205 133 128 230 181 173 221 157 151 231 190 180 230 181 173 221 157 151 221 157 151 205 133 128 221 157 151 225 168 161 225 168 161 230 181 173 231 190 180 225 168 161 230 181 173 201 125 121 
205 133 128 230 181 173 225 168 161 231 190 180 230 181 173 230 181 173 230 181 173 230 181 173 230 181 173 230 181 173 230 181 173 230 181 173 231 190 180 221 157 151 230 181 173 201 125 121 
205 133 128 231 190 180 225 168 161 231 190 180 231 190 180 230 181 173 231 190 180 231 190 180 231 190 180 231 190 180 231 190 180 231 199 187 231 190 180 205 133 128 230 181 173 205 133 128 
201 125 121 231 190 180 225 168 161 221 157 151 225 168 161 221 157 151 221 157 151 221 157 151 221 157 151 205 133 128 205 133 128 205 133 128 205 133 128 205 133 128 231 199 187 205 133 128 
201 125 121 231 190 180 231 190 180 231 190 180 230 181 173 230 181 173 231 190 180 230 181 173 230 181 173 231 199 187 231 190 180 231 190 180 231 199 187 231 199 187 231 199 187 205 133 128 
201 125 121 201 125 121 201 125 121 205 133 128 210 137 141 210 137 141 205 133 128 201 125 121 201 125 121 201 125 121 201 125 121 201 125 121 205 133 128 205 133 128 205 133 128 205 133 128 
