P3
16 16
255
201 125 121 214 143 147 205 133 128 205 133 128 214 143 147 220 152 158 217 148 153 220 152 158 220 152 158 217 148 153 214 143 147 217 148 153 217 148 153 214 143 147 205 133 128 201 125 121 
205 133 128 217 148 153 217 148 153 214 143 147 217 148 153 217 148 153 217 148 153 217 148 153 220 152 158 220 152 158 217 148 153 217 148 153 214 143 147 210 137 141 210 137 141 201 125 121 
205 133 128 205 133 128 217 148 153 220 152 158 220 152 158 220 152 158 220 152 158 214 143 147 214 143 147 217 148 153 217 148 153 220 152 158 220 152 158 217 148 153 214 143 147 205 133 128 
210 137 141 210 137 141 214 143 147 217 148 153 220 152 158 217 148 153 214 143 147 214 143 147 220 152 158 220 152 158 214 143 147 210 137 141 210 137 141 217 148 153 217 148 153 210 137 141 
210 137 141 214 143 147 223 156 164 223 156 164 220 152 158 220 152 158 217 148 153 217 148 153 220 152 158 214 143 147 214 143 147 220 152 158 220 152 158 217 148 153 214 143 147 210 137 141 
205 133 128 217 148 153 220 152 158 220 152 158 220 152 158 217 148 153 217 148 153 220 152 158 220 152 158 220 152 158 217 148 153 217 148 153 217 148 153 217 148 153 210 137 141 210 137 141 
201 125 121 205 133 128 205 133 128 214 143 147 217 148 153 217 148 153 220 152 158 220 152 158 217 148 153 214 143 147 220 152 158 220 152 158 214 143 147 217 148 153 214 143 147 210 137 141 
205 133 128 210 137 141 217 148 153 220 152 158 220 152 158 220 152 158 217 148 153 214 143 147 205 133 128 205 133 128 214 143 147 220 152 158 220 152 158 220 152 158 217 148 153 214 143 147 
205 133 128 217 148 153 220 152 158 217 148 153 217 148 153 220 152 158 220 152 158 217 148 153 214 143 147 220 152 158 220 152 158 220 152 158 217 148 153 214 143 147 205 133 128 205 133 128 
210 137 141 214 143 147 217 148 153 217 148 153 220 152 158 217 148 153 217 148 153 220 152 158 220 152 158 214 143 147 214 143 147 220 152 158 220 152 158 217 148 153 214 143 147 205 133 128 
210 137 141 214 143 147 214 143 147 214 143 147 214 143 147 217 148 153 220 152 158 220 152 158 217 148 153 210 137 141 205 133 128 205 133 128 217 148 153 217 148 153 220 152 158 217 148 153 
210 137 141 210 137 141 217 148 153 220 152 158 220 152 158 220 152 158 223 156 164 223 156 164 223 156 164 220 152 158 217 148 153 220 152 158 217 148 153 214 143 147 205 133 128 201 125 121 
205 133 128 220 152 158 217 148 153 217 148 153 220 152 158 220 152 158 217 148 153 220 152 158 220 152 158 220 152 158 220 152 158 220 152 158 220 152 158 217 148 153 214 143 147 205 133 128 
205 133 128 217 148 153 214 143 147 205 133 128 210 137 141 210 137 141 214 143 147 217 148 153 220 152 158 220 152 158 220 152 158 217 148 153 217 148 153 214 143 147 214 143 147 205 133 128 
205 133 128 217 148 153 217 148 153 214 143 147 214 143 147 220 152 158 217 148 153 217 148 153 214 143 147 214 143 147 217 148 153 217 148 153 220 152 158 217 148 153 217 148 153 214 143 147 
201 125 121 205 133 128 214 143 147 217 148 153 217 148 153 220 152 158 220 152 158 217 148 153 217 148 153 210 137 141 210 137 141 214 143 147 214 143 147 217 148 153 210 137 141 210 137 141 
