P3
16 16
255
227 204 106 217 194 94 187 168 76 187 168 76 227 204 106 227 204 106 217 194 94 217 194 94 227 204 106 227 204 106 217 194 94 217 194 94 227 204 106 227 204 106 217 194 94 217 194 94 
217 194 94 117 100 37 117 100 37 163 145 62 227 204 106 117 100 37 117 100 37 183 171 73 227 204 106 117 100 37 117 100 37 187 168 76 227 204 106 117 100 37 117 100 37 187 168 76 
187 168 76 117 100 37 135 118 50 163 145 62 217 194 94 117 100 37 135 118 50 163 145 62 217 194 94 117 100 37 135 118 50 163 145 62 217 194 94 117 100 37 135 118 50 163 145 62 
187 168 76 163 145 62 163 145 62 187 168 76 217 194 94 187 168 76 163 145 62 163 145 62 217 194 94 187 168 76 163 145 62 163 145 62 217 194 94 183 171 73 163 145 62 163 145 62 
227 204 106 227 204 106 217 194 94 217 194 94 227 204 106 227 204 106 217 194 94 217 194 94 227 204 106 217 194 94 187 168 76 187 168 76 227 204 106 227 204 106 217 194 94 217 194 94 
227 204 106 117 100 37 117 100 37 187 168 76 227 204 106 117 100 37 117 100 37 183 171 73 217 194 94 117 100 37 117 100 37 163 145 62 227 204 106 117 100 37 117 100 37 187 168 76 
217 194 94 117 100 37 135 118 50 163 145 62 217 194 94 117 100 37 135 118 50 163 145 62 187 168 76 117 100 37 135 118 50 163 145 62 217 194 94 117 100 37 135 118 50 163 145 62 
217 194 94 183 171 73 163 145 62 163 145 62 217 194 94 187 168 76 163 145 62 163 145 62 187 168 76 163 145 62 163 145 62 187 168 76 217 194 94 187 168 76 163 145 62 163 145 62 
227 204 106 227 204 106 217 194 94 217 194 94 227 204 106 217 194 94 187 168 76 187 168 76 227 204 106 227 204 106 217 194 94 217 194 94 227 204 106 227 204 106 217 194 94 217 194 94 
227 204 106 117 100 37 117 100 37 183 171 73 217 194 94 117 100 37 117 100 37 163 145 62 227 204 106 117 100 37 117 100 37 187 168 76 227 204 106 117 100 37 117 100 37 183 171 73 
217 194 94 117 100 37 135 118 50 163 145 62 187 168 76 117 100 37 135 118 50 163 145 62 217 194 94 117 100 37 135 118 50 163 145 62 217 194 94 117 100 37 135 118 50 163 145 62 
217 194 94 187 168 76 163 145 62 163 145 62 187 168 76 163 145 62 163 145 62 183 171 73 217 194 94 187 168 76 163 145 62 163 145 62 217 194 94 187 168 76 163 145 62 163 145 62 
227 204 106 227 204 106 217 194 94 217 194 94 227 204 106 227 204 106 217 194 94 217 194 94 227 204 106 227 204 106 217 194 94 217 194 94 227 204 106 217 194 94 187 168 76 187 168 76 
227 204 106 117 100 37 117 100 37 187 168 76 227 204 106 117 100 37 117 100 37 187 168 76 227 204 106 117 100 37 117 100 37 187 168 76 217 194 94 117 100 37 117 100 37 163 145 62 
217 194 94 117 100 37 135 118 50 163 145 62 217 194 94 117 100 37 135 118 50 163 145 62 217 194 94 117 100 37 135 118 50 163 145 62 187 168 76 117 100 37 135 118 50 163 145 62 
217 194 94 187 168 76 163 145 62 163 145 62 217 194 94 187 168 76 163 145 62 163 145 62 217 194 94 187 168 76 163 145 62 163 145 62 187 168 76 163 145 62 163 145 62 183 171 73 
