P3
16 16
255
235 224 224 248 240 240 248 240 240 240 231 229 248 240 240 255 251 248 248 240 240 248 240 240 240 231 229 248 240 240 255 251 248 255 251 248 248 240 240 240 231 229 255 251 248 248 240 240 
230 219 219 248 240 240 248 240 240 240 231 229 248 240 240 255 251 248 255 251 248 248 240 240 248 240 240 248 240 240 255 251 248 255 251 248 248 240 240 240 231 229 248 240 240 235 224 224 
230 219 219 235 224 224 248 240 240 240 231 229 240 231 229 255 251 248 255 251 248 255 251 248 248 240 240 248 240 240 235 224 224 255 251 248 240 231 229 248 240 240 248 240 240 248 240 240 
230 219 219 230 219 219 240 231 229 240 231 229 240 231 229 248 240 240 255 251 248 248 240 240 240 231 229 248 240 240 240 231 229 248 240 240 248 240 240 255 251 248 248 240 240 248 240 240 
230 219 219 248 240 240 240 231 229 240 231 229 255 251 248 248 240 240 255 251 248 240 231 229 235 224 224 240 231 229 248 240 240 248 240 240 255 251 248 255 251 248 248 240 240 240 231 229 
235 224 224 248 240 240 255 251 248 240 231 229 255 251 248 255 251 248 248 240 240 240 231 229 240 231 229 248 240 240 255 251 248 248 240 240 255 251 248 255 251 248 240 231 229 230 219 219 
248 240 240 255 251 248 255 251 248 248 240 240 255 251 248 255 251 248 248 240 240 235 224 224 240 231 229 248 240 240 255 251 248 255 251 248 248 240 240 255 251 248 248 240 240 235 224 224 
248 240 240 255 251 248 248 240 240 255 251 248 255 251 248 255 251 248 240 231 229 235 224 224 235 224 224 240 231 229 248 240 240 248 240 240 248 240 240 255 251 248 248 240 240 230 219 219 
235 224 224 248 240 240 240 231 229 255 251 248 255 251 248 248 240 240 248 240 240 240 231 229 240 231 229 240 231 229 248 240 240 240 231 229 248 240 240 248 240 240 248 240 240 230 219 219 
240 231 229 240 231 229 240 231 229 248 240 240 255 251 248 248 240 240 255 251 248 248 240 240 240 231 229 235 224 224 240 231 229 240 231 229 255 251 248 248 240 240 240 231 229 230 219 219 
235 224 224 240 231 229 248 240 240 255 251 248 248 240 240 240 231 229 255 251 248 255 251 248 248 240 240 235 224 224 235 224 224 240 231 229 255 251 248 255 251 248 235 224 224 235 224 224 
230 219 219 240 231 229 255 251 248 255 251 248 240 231 229 248 240 240 255 251 248 248 240 240 248 240 240 235 224 224 240 231 229 255 251 248 255 251 248 248 240 240 235 224 224 248 240 240 
235 224 224 255 251 248 255 251 248 255 251 248 240 231 229 248 240 240 240 231 229 248 240 240 235 224 224 240 231 229 255 251 248 255 251 248 248 240 240 240 231 229 240 231 229 248 240 240 
248 240 240 255 251 248 255 251 248 248 240 240 240 231 229 240 231 229 240 231 229 248 240 240 235 224 224 248 240 240 255 251 248 240 231 229 248 240 240 240 231 229 255 251 248 248 240 240 
235 224 224 248 240 240 255 251 248 248 240 240 240 231 229 248 240 240 240 231 229 235 224 224 240 231 229 248 240 240 248 240 240 248 240 240 240 231 229 248 240 240 255 251 248 248 240 240 
230 219 219 240 231 229 248 240 240 248 240 240 248 240 240 248 240 240 240 231 229 248 240 240 235 224 224 240 231 229 248 240 240 255 251 248 240 231 229 255 251 248 255 251 248 248 240 240 
