P3
16 16
255
0 0 0 0 0 0 0 0 0 0 0 0 0 0 0 0 0 0 60 110 66 0 0 0 0 0 0 40 98 64 0 0 0 0 0 0 0 0 0 0 0 0 0 0 0 0 0 0 
0 0 0 0 0 0 0 0 0 0 0 0 41 82 48 0 0 0 60 110 66 72 127 79 0 0 0 40 98 64 60 110 66 41 82 48 0 0 0 0 0 0 0 0 0 0 0 0 
0 0 0 0 0 0 0 0 0 0 0 0 0 0 0 60 110 66 0 0 0 60 110 66 41 82 48 0 0 0 41 82 48 0 0 0 0 0 0 0 0 0 0 0 0 0 0 0 
0 0 0 40 98 64 40 98 64 41 82 48 72 127 79 60 110 66 60 110 66 40 98 64 41 82 48 72 127 79 60 110 66 0 0 0 0 0 0 41 82 48 41 82 48 0 0 0 
0 0 0 0 0 0 72 127 79 40 98 64 41 82 48 41 82 48 29 56 34 60 110 66 40 98 64 72 127 79 72 127 79 0 0 0 60 110 66 72 127 79 0 0 0 0 0 0 
0 0 0 0 0 0 0 0 0 41 82 48 60 110 66 60 110 66 41 82 48 60 110 66 41 82 48 40 98 64 60 110 66 41 82 48 72 127 79 72 127 79 0 0 0 0 0 0 
0 0 0 0 0 0 60 110 66 72 127 79 72 127 79 60 110 66 40 98 64 41 82 48 29 56 34 40 98 64 41 82 48 40 98 64 60 110 66 41 82 48 0 0 0 0 0 0 
0 0 0 0 0 0 60 110 66 60 110 66 41 82 48 72 127 79 41 82 48 40 98 64 72 127 79 41 82 48 40 98 64 41 82 48 0 0 0 40 98 64 40 98 64 0 0 0 
0 0 0 0 0 0 0 0 0 41 82 48 29 56 34 60 110 66 60 110 66 29 56 34 72 127 79 72 127 79 60 110 66 29 56 34 40 98 64 41 82 48 0 0 0 0 0 0 
0 0 0 60 110 66 72 127 79 60 110 66 41 82 48 29 56 34 72 127 79 60 110 66 40 98 64 29 56 34 40 98 64 40 98 64 40 98 64 0 0 0 0 0 0 0 0 0 
0 0 0 0 0 0 60 110 66 0 0 0 29 56 34 29 56 34 40 98 64 72 127 79 60 110 66 40 98 64 72 127 79 29 56 34 41 82 48 0 0 0 0 0 0 0 0 0 
0 0 0 0 0 0 0 0 0 0 0 0 40 98 64 41 82 48 29 56 34 41 82 48 29 56 34 29 56 34 41 82 48 41 82 48 29 56 34 0 0 0 41 75 56 0 0 0 
0 0 0 0 0 0 0 0 0 40 98 64 41 82 48 0 0 0 41 82 48 40 98 64 41 82 48 41 82 48 0 0 0 29 56 34 29 56 34 29 56 34 0 0 0 0 0 0 
0 0 0 0 0 0 0 0 0 0 0 0 0 0 0 60 110 66 60 110 66 29 56 34 41 82 48 40 98 64 41 82 48 0 0 0 41 82 48 29 56 34 0 0 0 0 0 0 
0 0 0 0 0 0 0 0 0 0 0 0 60 110 66 60 110 66 40 98 64 0 0 0 40 98 64 29 56 34 0 0 0 41 82 48 0 0 0 0 0 0 0 0 0 0 0 0 
0 0 0 0 0 0 0 0 0 0 0 0 0 0 0 0 0 0 41 82 48 0 0 0 40 98 64 0 0 0 0 0 0 40 98 64 0 0 0 0 0 0 0 0 0 0 0 0 
