P3
16 304
255
255 255 255 143 143 143 56 147 6 47 130 0 0 0 0 47 130 0 56 147 6 47 130 0 0 0 0 41 113 0 47 130 0 0 0 0 0 0 0 0 0 0 0 0 0 255 255 255 
255 255 255 143 143 143 56 147 6 47 130 0 0 0 0 47 130 0 0 0 0 47 130 0 0 0 0 56 147 6 47 130 0 0 0 0 0 0 0 0 0 0 0 0 0 255 255 255 
255 255 255 143 143 143 80 149 41 47 130 0 0 0 0 47 130 0 0 0 0 47 130 0 0 0 0 80 149 41 47 130 0 0 0 0 0 0 0 0 0 0 0 0 0 255 255 255 
255 255 255 143 143 143 80 149 41 47 130 0 0 0 0 47 130 0 0 0 0 47 130 0 0 0 0 80 149 41 47 130 0 0 0 0 0 0 0 0 0 0 80 149 41 255 255 255 
255 255 255 143 143 143 80 149 41 41 113 0 0 0 0 41 113 0 0 0 0 47 130 0 0 0 0 80 149 41 41 113 0 0 0 0 0 0 0 0 0 0 56 147 6 255 255 255 
255 255 255 143 143 143 80 149 41 33 88 0 0 0 0 33 88 0 0 0 0 47 130 0 56 147 6 80 149 41 33 88 0 0 0 0 0 0 0 0 0 0 47 130 0 255 255 255 
255 255 255 143 143 143 33 88 0 41 113 0 0 0 0 41 113 0 0 0 0 47 130 0 80 149 41 33 88 0 41 113 0 41 113 0 0 0 0 56 147 6 0 0 0 255 255 255 
255 255 255 143 143 143 33 88 0 56 147 6 0 0 0 56 147 6 56 147 6 47 130 0 80 149 41 0 0 0 56 147 6 56 147 6 0 0 0 47 130 0 0 0 0 255 255 255 
255 255 255 143 143 143 33 88 0 47 130 0 0 0 0 47 130 0 47 130 0 41 113 0 80 149 41 0 0 0 33 88 0 47 130 0 0 0 0 47 130 0 0 0 0 255 255 255 
255 255 255 143 143 143 41 113 0 47 130 0 0 0 0 47 130 0 47 130 0 33 88 0 80 149 41 0 0 0 41 113 0 47 130 0 0 0 0 47 130 0 0 0 0 255 255 255 
255 255 255 143 143 143 33 88 0 47 130 0 0 0 0 41 113 0 47 130 0 41 113 0 33 88 0 0 0 0 33 88 0 47 130 0 0 0 0 41 113 0 0 0 0 255 255 255 
255 255 255 143 143 143 33 88 0 47 130 0 0 0 0 41 113 0 47 130 0 56 147 6 33 88 0 0 0 0 33 88 0 47 130 0 47 130 0 41 113 0 0 0 0 255 255 255 
255 255 255 33 88 0 47 130 0 33 88 0 0 0 0 41 113 0 33 88 0 47 130 0 33 88 0 0 0 0 47 130 0 33 88 0 33 88 0 41 113 0 0 0 0 255 255 255 
255 255 255 33 88 0 41 113 0 33 88 0 0 0 0 41 113 0 33 88 0 47 130 0 41 113 0 33 88 0 41 113 0 33 88 0 33 88 0 47 130 0 0 0 0 255 255 255 
255 255 255 33 88 0 47 130 0 33 88 0 0 0 0 47 130 0 33 88 0 47 130 0 33 88 0 33 88 0 47 130 0 33 88 0 33 88 0 47 130 0 0 0 0 255 255 255 
255 255 255 33 88 0 33 88 0 33 88 0 47 130 0 47 130 0 47 130 0 47 130 0 33 88 0 33 88 0 33 88 0 33 88 0 47 130 0 33 88 0 0 0 0 255 255 255 
255 255 255 143 143 143 56 147 6 47 130 0 0 0 0 47 130 0 56 147 6 47 130 0 0 0 0 41 113 0 47 130 0 0 0 0 0 0 0 0 0 0 0 0 0 255 255 255 
255 255 255 143 143 143 56 147 6 47 130 0 0 0 0 47 130 0 0 0 0 47 130 0 0 0 0 56 147 6 47 130 0 0 0 0 0 0 0 0 0 0 0 0 0 255 255 255 
255 255 255 143 143 143 80 149 41 47 130 0 0 0 0 47 130 0 0 0 0 47 130 0 0 0 0 80 149 41 47 130 0 0 0 0 0 0 0 0 0 0 0 0 0 255 255 255 
255 255 255 143 143 143 80 149 41 47 130 0 0 0 0 47 130 0 0 0 0 47 130 0 0 0 0 80 149 41 47 130 0 0 0 0 0 0 0 0 0 0 80 149 41 255 255 255 
255 255 255 143 143 143 80 149 41 41 113 0 0 0 0 41 113 0 0 0 0 47 130 0 0 0 0 80 149 41 41 113 0 0 0 0 0 0 0 0 0 0 56 147 6 255 255 255 
255 255 255 143 143 143 80 149 41 33 88 0 0 0 0 33 88 0 0 0 0 47 130 0 56 147 6 80 149 41 33 88 0 0 0 0 0 0 0 0 0 0 47 130 0 255 255 255 
255 255 255 143 143 143 33 88 0 41 113 0 0 0 0 41 113 0 41 113 0 47 130 0 80 149 41 33 88 0 41 113 0 41 113 0 0 0 0 56 147 6 0 0 0 255 255 255 
255 255 255 143 143 143 33 88 0 56 147 6 0 0 0 56 147 6 41 113 0 47 130 0 80 149 41 0 0 0 56 147 6 56 147 6 0 0 0 47 130 0 0 0 0 255 255 255 
255 255 255 143 143 143 33 88 0 47 130 0 0 0 0 47 130 0 47 130 0 41 113 0 80 149 41 0 0 0 33 88 0 47 130 0 0 0 0 47 130 0 0 0 0 255 255 255 
255 255 255 143 143 143 41 113 0 47 130 0 0 0 0 47 130 0 47 130 0 33 88 0 80 149 41 0 0 0 41 113 0 47 130 0 0 0 0 47 130 0 0 0 0 255 255 255 
255 255 255 143 143 143 33 88 0 47 130 0 0 0 0 41 113 0 47 130 0 41 113 0 33 88 0 0 0 0 33 88 0 47 130 0 0 0 0 41 113 0 0 0 0 255 255 255 
255 255 255 143 143 143 33 88 0 47 130 0 0 0 0 41 113 0 47 130 0 56 147 6 33 88 0 0 0 0 33 88 0 47 130 0 143 143 143 41 113 0 0 0 0 255 255 255 
255 255 255 33 88 0 47 130 0 33 88 0 0 0 0 41 113 0 33 88 0 47 130 0 33 88 0 0 0 0 47 130 0 33 88 0 143 143 143 41 113 0 0 0 0 255 255 255 
255 255 255 33 88 0 41 113 0 33 88 0 0 0 0 41 113 0 33 88 0 47 130 0 41 113 0 0 0 0 41 113 0 33 88 0 33 88 0 47 130 0 0 0 0 255 255 255 
255 255 255 33 88 0 47 130 0 33 88 0 0 0 0 47 130 0 33 88 0 47 130 0 33 88 0 33 88 0 47 130 0 33 88 0 33 88 0 47 130 0 0 0 0 255 255 255 
255 255 255 33 88 0 33 88 0 33 88 0 0 0 0 47 130 0 47 130 0 47 130 0 33 88 0 33 88 0 33 88 0 33 88 0 0 0 0 33 88 0 0 0 0 255 255 255 
255 255 255 143 143 143 56 147 6 47 130 0 0 0 0 47 130 0 0 0 0 47 130 0 0 0 0 41 113 0 47 130 0 0 0 0 0 0 0 0 0 0 0 0 0 255 255 255 
255 255 255 143 143 143 56 147 6 47 130 0 0 0 0 47 130 0 0 0 0 47 130 0 0 0 0 56 147 6 47 130 0 0 0 0 0 0 0 0 0 0 0 0 0 255 255 255 
255 255 255 143 143 143 80 149 41 47 130 0 0 0 0 47 130 0 0 0 0 47 130 0 0 0 0 80 149 41 47 130 0 0 0 0 0 0 0 0 0 0 0 0 0 255 255 255 
255 255 255 143 143 143 80 149 41 47 130 0 0 0 0 47 130 0 0 0 0 47 130 0 0 0 0 80 149 41 47 130 0 0 0 0 0 0 0 0 0 0 80 149 41 255 255 255 
255 255 255 143 143 143 80 149 41 41 113 0 0 0 0 41 113 0 0 0 0 47 130 0 56 147 6 80 149 41 41 113 0 0 0 0 0 0 0 0 0 0 56 147 6 255 255 255 
255 255 255 143 143 143 80 149 41 33 88 0 0 0 0 33 88 0 0 0 0 47 130 0 56 147 6 0 0 0 33 88 0 0 0 0 0 0 0 0 0 0 47 130 0 255 255 255 
255 255 255 143 143 143 33 88 0 41 113 0 0 0 0 41 113 0 41 113 0 47 130 0 80 149 41 0 0 0 41 113 0 41 113 0 0 0 0 56 147 6 0 0 0 255 255 255 
255 255 255 143 143 143 33 88 0 56 147 6 0 0 0 41 113 0 41 113 0 47 130 0 80 149 41 0 0 0 33 88 0 56 147 6 143 143 143 47 130 0 0 0 0 255 255 255 
255 255 255 143 143 143 33 88 0 47 130 0 0 0 0 47 130 0 47 130 0 41 113 0 80 149 41 0 0 0 33 88 0 47 130 0 143 143 143 47 130 0 0 0 0 255 255 255 
255 255 255 143 143 143 41 113 0 47 130 0 0 0 0 47 130 0 47 130 0 33 88 0 80 149 41 0 0 0 41 113 0 47 130 0 143 143 143 47 130 0 0 0 0 255 255 255 
255 255 255 143 143 143 33 88 0 47 130 0 0 0 0 41 113 0 47 130 0 41 113 0 33 88 0 0 0 0 33 88 0 47 130 0 143 143 143 41 113 0 0 0 0 255 255 255 
255 255 255 143 143 143 33 88 0 47 130 0 0 0 0 41 113 0 47 130 0 56 147 6 33 88 0 0 0 0 33 88 0 47 130 0 143 143 143 41 113 0 0 0 0 255 255 255 
255 255 255 33 88 0 47 130 0 33 88 0 0 0 0 143 143 143 33 88 0 47 130 0 33 88 0 0 0 0 47 130 0 33 88 0 143 143 143 41 113 0 0 0 0 255 255 255 
255 255 255 33 88 0 41 113 0 33 88 0 0 0 0 143 143 143 33 88 0 47 130 0 41 113 0 33 88 0 41 113 0 33 88 0 143 143 143 47 130 0 0 0 0 255 255 255 
255 255 255 33 88 0 47 130 0 33 88 0 0 0 0 41 113 0 33 88 0 47 130 0 33 88 0 33 88 0 47 130 0 33 88 0 143 143 143 47 130 0 0 0 0 255 255 255 
255 255 255 33 88 0 33 88 0 33 88 0 0 0 0 47 130 0 47 130 0 47 130 0 33 88 0 33 88 0 33 88 0 33 88 0 143 143 143 33 88 0 0 0 0 255 255 255 
255 255 255 143 143 143 0 0 0 47 130 0 47 130 0 47 130 0 0 0 0 56 147 6 0 0 0 56 147 6 47 130 0 0 0 0 0 0 0 0 0 0 0 0 0 255 255 255 
255 255 255 143 143 143 0 0 0 47 130 0 47 130 0 47 130 0 0 0 0 56 147 6 0 0 0 56 147 6 47 130 0 0 0 0 0 0 0 0 0 0 0 0 0 255 255 255 
255 255 255 143 143 143 0 0 0 47 130 0 47 130 0 41 113 0 41 113 0 47 130 0 47 130 0 0 0 0 47 130 0 0 0 0 0 0 0 0 0 0 0 0 0 255 255 255 
255 255 255 143 143 143 0 0 0 47 130 0 0 0 0 41 113 0 41 113 0 47 130 0 41 113 0 0 0 0 47 130 0 0 0 0 0 0 0 0 0 0 80 149 41 255 255 255 
255 255 255 143 143 143 0 0 0 41 113 0 0 0 0 41 113 0 41 113 0 47 130 0 56 147 6 0 0 0 41 113 0 0 0 0 0 0 0 0 0 0 56 147 6 255 255 255 
255 255 255 143 143 143 80 149 41 33 88 0 0 0 0 33 88 0 41 113 0 47 130 0 56 147 6 0 0 0 80 149 41 33 88 0 143 143 143 0 0 0 47 130 0 255 255 255 
255 255 255 143 143 143 33 88 0 41 113 0 0 0 0 33 88 0 41 113 0 47 130 0 80 149 41 0 0 0 33 88 0 41 113 0 143 143 143 56 147 6 0 0 0 255 255 255 
255 255 255 143 143 143 33 88 0 56 147 6 0 0 0 33 88 0 56 147 6 47 130 0 80 149 41 0 0 0 33 88 0 56 147 6 143 143 143 47 130 0 0 0 0 255 255 255 
255 255 255 143 143 143 33 88 0 47 130 0 0 0 0 0 0 0 47 130 0 41 113 0 80 149 41 0 0 0 33 88 0 47 130 0 143 143 143 47 130 0 0 0 0 255 255 255 
255 255 255 143 143 143 41 113 0 47 130 0 0 0 0 0 0 0 47 130 0 33 88 0 80 149 41 0 0 0 41 113 0 47 130 0 143 143 143 47 130 0 0 0 0 255 255 255 
255 255 255 143 143 143 33 88 0 47 130 0 0 0 0 0 0 0 47 130 0 41 113 0 33 88 0 0 0 0 33 88 0 47 130 0 143 143 143 41 113 0 0 0 0 255 255 255 
255 255 255 143 143 143 33 88 0 47 130 0 0 0 0 0 0 0 47 130 0 56 147 6 33 88 0 0 0 0 33 88 0 47 130 0 143 143 143 41 113 0 0 0 0 255 255 255 
255 255 255 33 88 0 47 130 0 33 88 0 0 0 0 0 0 0 33 88 0 47 130 0 33 88 0 0 0 0 47 130 0 33 88 0 143 143 143 41 113 0 0 0 0 255 255 255 
255 255 255 33 88 0 41 113 0 33 88 0 0 0 0 0 0 0 33 88 0 47 130 0 41 113 0 33 88 0 41 113 0 33 88 0 143 143 143 47 130 0 0 0 0 255 255 255 
255 255 255 33 88 0 47 130 0 33 88 0 33 88 0 33 88 0 33 88 0 47 130 0 33 88 0 33 88 0 47 130 0 33 88 0 143 143 143 47 130 0 0 0 0 255 255 255 
255 255 255 33 88 0 33 88 0 33 88 0 33 88 0 47 130 0 47 130 0 47 130 0 33 88 0 33 88 0 33 88 0 33 88 0 0 0 0 33 88 0 0 0 0 255 255 255 
255 255 255 143 143 143 0 0 0 56 147 6 47 130 0 0 0 0 47 130 0 56 147 6 47 130 0 0 0 0 56 147 6 47 130 0 0 0 0 0 0 0 0 0 0 255 255 255 
255 255 255 143 143 143 0 0 0 56 147 6 47 130 0 0 0 0 47 130 0 56 147 6 47 130 0 0 0 0 56 147 6 47 130 0 0 0 0 0 0 0 0 0 0 255 255 255 
255 255 255 143 143 143 0 0 0 80 149 41 47 130 0 0 0 0 47 130 0 47 130 0 47 130 0 0 0 0 80 149 41 47 130 0 0 0 0 0 0 0 0 0 0 255 255 255 
255 255 255 143 143 143 0 0 0 80 149 41 47 130 0 0 0 0 47 130 0 47 130 0 41 113 0 0 0 0 80 149 41 47 130 0 143 143 143 0 0 0 80 149 41 255 255 255 
255 255 255 143 143 143 0 0 0 80 149 41 41 113 0 0 0 0 41 113 0 47 130 0 56 147 6 0 0 0 80 149 41 41 113 0 143 143 143 0 0 0 56 147 6 255 255 255 
255 255 255 143 143 143 0 0 0 80 149 41 33 88 0 0 0 0 33 88 0 47 130 0 56 147 6 0 0 0 80 149 41 33 88 0 143 143 143 56 147 6 143 143 143 255 255 255 
255 255 255 143 143 143 0 0 0 41 113 0 41 113 0 0 0 0 41 113 0 47 130 0 80 149 41 0 0 0 33 88 0 41 113 0 143 143 143 56 147 6 56 147 6 255 255 255 
255 255 255 143 143 143 0 0 0 56 147 6 56 147 6 0 0 0 56 147 6 47 130 0 80 149 41 0 0 0 33 88 0 56 147 6 143 143 143 47 130 0 56 147 6 255 255 255 
255 255 255 143 143 143 0 0 0 47 130 0 47 130 0 47 130 0 47 130 0 41 113 0 80 149 41 0 0 0 33 88 0 47 130 0 143 143 143 47 130 0 0 0 0 255 255 255 
255 255 255 143 143 143 0 0 0 47 130 0 41 113 0 47 130 0 47 130 0 33 88 0 80 149 41 0 0 0 41 113 0 47 130 0 143 143 143 47 130 0 0 0 0 255 255 255 
255 255 255 143 143 143 0 0 0 47 130 0 41 113 0 47 130 0 47 130 0 41 113 0 33 88 0 0 0 0 33 88 0 47 130 0 143 143 143 41 113 0 0 0 0 255 255 255 
255 255 255 143 143 143 0 0 0 47 130 0 47 130 0 47 130 0 47 130 0 56 147 6 33 88 0 0 0 0 33 88 0 47 130 0 143 143 143 41 113 0 0 0 0 255 255 255 
255 255 255 33 88 0 33 88 0 33 88 0 47 130 0 47 130 0 33 88 0 47 130 0 33 88 0 0 0 0 47 130 0 33 88 0 143 143 143 41 113 0 0 0 0 255 255 255 
255 255 255 33 88 0 41 113 0 33 88 0 47 130 0 47 130 0 33 88 0 47 130 0 41 113 0 33 88 0 41 113 0 33 88 0 143 143 143 47 130 0 33 88 0 255 255 255 
255 255 255 33 88 0 47 130 0 33 88 0 33 88 0 33 88 0 33 88 0 47 130 0 33 88 0 33 88 0 47 130 0 33 88 0 0 0 0 33 88 0 33 88 0 255 255 255 
255 255 255 33 88 0 33 88 0 33 88 0 33 88 0 47 130 0 47 130 0 47 130 0 33 88 0 33 88 0 33 88 0 33 88 0 0 0 0 33 88 0 47 130 0 255 255 255 
255 255 255 143 143 143 0 0 0 56 147 6 47 130 0 0 0 0 47 130 0 56 147 6 47 130 0 0 0 0 56 147 6 47 130 0 0 0 0 0 0 0 0 0 0 255 255 255 
255 255 255 143 143 143 0 0 0 56 147 6 47 130 0 0 0 0 47 130 0 56 147 6 47 130 0 0 0 0 56 147 6 47 130 0 0 0 0 0 0 0 0 0 0 255 255 255 
255 255 255 143 143 143 0 0 0 80 149 41 47 130 0 0 0 0 47 130 0 47 130 0 47 130 0 0 0 0 80 149 41 47 130 0 0 0 0 0 0 0 0 0 0 255 255 255 
255 255 255 143 143 143 0 0 0 80 149 41 47 130 0 0 0 0 47 130 0 47 130 0 41 113 0 0 0 0 80 149 41 47 130 0 0 0 0 0 0 0 80 149 41 255 255 255 
255 255 255 143 143 143 0 0 0 80 149 41 41 113 0 0 0 0 41 113 0 47 130 0 56 147 6 0 0 0 80 149 41 41 113 0 0 0 0 0 0 0 56 147 6 255 255 255 
255 255 255 143 143 143 0 0 0 80 149 41 33 88 0 0 0 0 33 88 0 47 130 0 56 147 6 0 0 0 80 149 41 33 88 0 0 0 0 56 147 6 56 147 6 255 255 255 
255 255 255 143 143 143 0 0 0 33 88 0 41 113 0 0 0 0 41 113 0 47 130 0 80 149 41 0 0 0 33 88 0 41 113 0 143 143 143 56 147 6 56 147 6 255 255 255 
255 255 255 143 143 143 0 0 0 33 88 0 56 147 6 0 0 0 56 147 6 47 130 0 80 149 41 0 0 0 33 88 0 56 147 6 143 143 143 47 130 0 56 147 6 255 255 255 
255 255 255 143 143 143 0 0 0 33 88 0 47 130 0 0 0 0 47 130 0 41 113 0 80 149 41 0 0 0 33 88 0 47 130 0 143 143 143 47 130 0 0 0 0 255 255 255 
255 255 255 143 143 143 0 0 0 41 113 0 47 130 0 0 0 0 47 130 0 33 88 0 80 149 41 0 0 0 41 113 0 47 130 0 143 143 143 47 130 0 0 0 0 255 255 255 
255 255 255 143 143 143 0 0 0 47 130 0 47 130 0 0 0 0 47 130 0 41 113 0 33 88 0 0 0 0 33 88 0 47 130 0 143 143 143 41 113 0 0 0 0 255 255 255 
255 255 255 143 143 143 0 0 0 47 130 0 47 130 0 0 0 0 47 130 0 56 147 6 33 88 0 0 0 0 33 88 0 47 130 0 143 143 143 41 113 0 0 0 0 255 255 255 
255 255 255 41 113 0 41 113 0 33 88 0 41 113 0 41 113 0 33 88 0 47 130 0 33 88 0 0 0 0 47 130 0 33 88 0 0 0 0 41 113 0 33 88 0 255 255 255 
255 255 255 33 88 0 41 113 0 41 113 0 33 88 0 41 113 0 33 88 0 47 130 0 41 113 0 33 88 0 41 113 0 33 88 0 0 0 0 47 130 0 33 88 0 255 255 255 
255 255 255 33 88 0 41 113 0 33 88 0 33 88 0 41 113 0 33 88 0 47 130 0 33 88 0 33 88 0 47 130 0 33 88 0 0 0 0 33 88 0 33 88 0 255 255 255 
255 255 255 33 88 0 33 88 0 33 88 0 33 88 0 33 88 0 47 130 0 47 130 0 33 88 0 33 88 0 33 88 0 33 88 0 0 0 0 33 88 0 47 130 0 255 255 255 
255 255 255 143 143 143 0 0 0 0 0 0 56 147 6 0 0 0 47 130 0 56 147 6 47 130 0 0 0 0 56 147 6 47 130 0 0 0 0 0 0 0 0 0 0 255 255 255 
255 255 255 143 143 143 0 0 0 56 147 6 47 130 0 0 0 0 47 130 0 56 147 6 47 130 0 0 0 0 56 147 6 47 130 0 0 0 0 0 0 0 0 0 0 255 255 255 
255 255 255 143 143 143 0 0 0 80 149 41 47 130 0 0 0 0 47 130 0 47 130 0 47 130 0 0 0 0 80 149 41 47 130 0 0 0 0 0 0 0 0 0 0 255 255 255 
255 255 255 143 143 143 0 0 0 80 149 41 47 130 0 0 0 0 47 130 0 47 130 0 41 113 0 0 0 0 80 149 41 47 130 0 0 0 0 0 0 0 80 149 41 255 255 255 
255 255 255 143 143 143 0 0 0 80 149 41 41 113 0 0 0 0 41 113 0 47 130 0 56 147 6 0 0 0 80 149 41 41 113 0 0 0 0 80 149 41 80 149 41 255 255 255 
255 255 255 143 143 143 0 0 0 80 149 41 33 88 0 0 0 0 33 88 0 47 130 0 56 147 6 0 0 0 80 149 41 33 88 0 0 0 0 56 147 6 80 149 41 255 255 255 
255 255 255 143 143 143 0 0 0 33 88 0 41 113 0 0 0 0 41 113 0 47 130 0 80 149 41 0 0 0 33 88 0 41 113 0 0 0 0 56 147 6 80 149 41 255 255 255 
255 255 255 143 143 143 0 0 0 33 88 0 56 147 6 0 0 0 56 147 6 47 130 0 80 149 41 0 0 0 33 88 0 56 147 6 0 0 0 47 130 0 56 147 6 255 255 255 
255 255 255 143 143 143 0 0 0 33 88 0 47 130 0 0 0 0 47 130 0 41 113 0 80 149 41 0 0 0 33 88 0 47 130 0 0 0 0 47 130 0 0 0 0 255 255 255 
255 255 255 143 143 143 0 0 0 41 113 0 47 130 0 0 0 0 47 130 0 33 88 0 80 149 41 0 0 0 41 113 0 47 130 0 0 0 0 47 130 0 0 0 0 255 255 255 
255 255 255 143 143 143 0 0 0 33 88 0 47 130 0 0 0 0 47 130 0 41 113 0 33 88 0 0 0 0 33 88 0 47 130 0 0 0 0 41 113 0 0 0 0 255 255 255 
255 255 255 143 143 143 0 0 0 33 88 0 47 130 0 0 0 0 47 130 0 56 147 6 33 88 0 0 0 0 33 88 0 47 130 0 0 0 0 41 113 0 0 0 0 255 255 255 
255 255 255 41 113 0 41 113 0 33 88 0 33 88 0 0 0 0 33 88 0 47 130 0 33 88 0 0 0 0 47 130 0 33 88 0 0 0 0 41 113 0 0 0 0 255 255 255 
255 255 255 33 88 0 41 113 0 41 113 0 41 113 0 41 113 0 33 88 0 47 130 0 41 113 0 33 88 0 41 113 0 33 88 0 0 0 0 33 88 0 33 88 0 255 255 255 
255 255 255 33 88 0 41 113 0 33 88 0 33 88 0 33 88 0 33 88 0 47 130 0 33 88 0 33 88 0 47 130 0 33 88 0 0 0 0 33 88 0 33 88 0 255 255 255 
255 255 255 33 88 0 33 88 0 33 88 0 33 88 0 33 88 0 33 88 0 47 130 0 33 88 0 33 88 0 33 88 0 33 88 0 0 0 0 33 88 0 47 130 0 255 255 255 
255 255 255 143 143 143 0 0 0 0 0 0 56 147 6 47 130 0 47 130 0 56 147 6 47 130 0 0 0 0 0 0 0 56 147 6 47 130 0 0 0 0 0 0 0 255 255 255 
255 255 255 143 143 143 0 0 0 0 0 0 56 147 6 47 130 0 47 130 0 56 147 6 47 130 0 0 0 0 0 0 0 56 147 6 47 130 0 0 0 0 0 0 0 255 255 255 
255 255 255 143 143 143 0 0 0 80 149 41 47 130 0 0 0 0 47 130 0 47 130 0 47 130 0 0 0 0 0 0 0 80 149 41 47 130 0 0 0 0 0 0 0 255 255 255 
255 255 255 143 143 143 0 0 0 80 149 41 47 130 0 0 0 0 47 130 0 47 130 0 41 113 0 0 0 0 0 0 0 80 149 41 47 130 0 80 149 41 80 149 41 255 255 255 
255 255 255 143 143 143 0 0 0 80 149 41 41 113 0 0 0 0 41 113 0 47 130 0 56 147 6 0 0 0 0 0 0 80 149 41 41 113 0 80 149 41 80 149 41 255 255 255 
255 255 255 143 143 143 0 0 0 80 149 41 33 88 0 0 0 0 33 88 0 47 130 0 56 147 6 0 0 0 0 0 0 80 149 41 33 88 0 56 147 6 56 147 6 255 255 255 
255 255 255 143 143 143 0 0 0 33 88 0 41 113 0 0 0 0 41 113 0 47 130 0 80 149 41 0 0 0 0 0 0 33 88 0 41 113 0 56 147 6 56 147 6 255 255 255 
255 255 255 143 143 143 0 0 0 33 88 0 56 147 6 0 0 0 56 147 6 47 130 0 80 149 41 0 0 0 0 0 0 33 88 0 0 0 0 47 130 0 56 147 6 255 255 255 
255 255 255 143 143 143 0 0 0 33 88 0 47 130 0 0 0 0 47 130 0 41 113 0 80 149 41 0 0 0 0 0 0 47 130 0 0 0 0 47 130 0 0 0 0 255 255 255 
255 255 255 143 143 143 0 0 0 41 113 0 47 130 0 0 0 0 47 130 0 33 88 0 80 149 41 0 0 0 0 0 0 47 130 0 0 0 0 47 130 0 0 0 0 255 255 255 
255 255 255 143 143 143 0 0 0 33 88 0 47 130 0 0 0 0 47 130 0 41 113 0 33 88 0 0 0 0 0 0 0 47 130 0 41 113 0 41 113 0 0 0 0 255 255 255 
255 255 255 143 143 143 0 0 0 33 88 0 47 130 0 0 0 0 47 130 0 56 147 6 33 88 0 0 0 0 0 0 0 47 130 0 47 130 0 41 113 0 0 0 0 255 255 255 
255 255 255 41 113 0 41 113 0 47 130 0 41 113 0 41 113 0 33 88 0 47 130 0 33 88 0 0 0 0 0 0 0 33 88 0 33 88 0 33 88 0 0 0 0 255 255 255 
255 255 255 33 88 0 41 113 0 41 113 0 41 113 0 41 113 0 0 0 0 47 130 0 41 113 0 33 88 0 33 88 0 33 88 0 33 88 0 33 88 0 33 88 0 255 255 255 
255 255 255 33 88 0 41 113 0 33 88 0 33 88 0 33 88 0 33 88 0 47 130 0 33 88 0 33 88 0 47 130 0 33 88 0 41 113 0 33 88 0 33 88 0 255 255 255 
255 255 255 33 88 0 33 88 0 33 88 0 33 88 0 33 88 0 33 88 0 47 130 0 33 88 0 33 88 0 33 88 0 33 88 0 41 113 0 33 88 0 47 130 0 255 255 255 
255 255 255 143 143 143 0 0 0 0 0 0 56 147 6 47 130 0 47 130 0 56 147 6 47 130 0 0 0 0 0 0 0 56 147 6 47 130 0 0 0 0 0 0 0 255 255 255 
255 255 255 143 143 143 0 0 0 0 0 0 56 147 6 47 130 0 47 130 0 56 147 6 47 130 0 0 0 0 0 0 0 56 147 6 47 130 0 0 0 0 0 0 0 255 255 255 
255 255 255 143 143 143 0 0 0 0 0 0 47 130 0 0 0 0 47 130 0 47 130 0 47 130 0 0 0 0 0 0 0 80 149 41 47 130 0 0 0 0 0 0 0 255 255 255 
255 255 255 143 143 143 0 0 0 80 149 41 47 130 0 0 0 0 47 130 0 47 130 0 41 113 0 0 0 0 0 0 0 80 149 41 47 130 0 80 149 41 80 149 41 255 255 255 
255 255 255 143 143 143 0 0 0 80 149 41 41 113 0 0 0 0 41 113 0 47 130 0 56 147 6 0 0 0 0 0 0 80 149 41 41 113 0 80 149 41 80 149 41 255 255 255 
255 255 255 143 143 143 0 0 0 80 149 41 33 88 0 0 0 0 33 88 0 47 130 0 56 147 6 0 0 0 0 0 0 80 149 41 33 88 0 47 130 0 80 149 41 255 255 255 
255 255 255 143 143 143 0 0 0 33 88 0 41 113 0 0 0 0 41 113 0 47 130 0 80 149 41 0 0 0 0 0 0 33 88 0 41 113 0 56 147 6 80 149 41 255 255 255 
255 255 255 143 143 143 0 0 0 33 88 0 56 147 6 0 0 0 56 147 6 47 130 0 80 149 41 0 0 0 0 0 0 33 88 0 56 147 6 47 130 0 0 0 0 255 255 255 
255 255 255 143 143 143 0 0 0 33 88 0 47 130 0 0 0 0 47 130 0 41 113 0 80 149 41 0 0 0 0 0 0 33 88 0 47 130 0 47 130 0 0 0 0 255 255 255 
255 255 255 143 143 143 0 0 0 41 113 0 47 130 0 0 0 0 47 130 0 33 88 0 80 149 41 0 0 0 0 0 0 41 113 0 47 130 0 47 130 0 0 0 0 255 255 255 
255 255 255 143 143 143 0 0 0 33 88 0 47 130 0 0 0 0 47 130 0 41 113 0 33 88 0 0 0 0 0 0 0 33 88 0 47 130 0 47 130 0 0 0 0 255 255 255 
255 255 255 143 143 143 0 0 0 33 88 0 47 130 0 0 0 0 47 130 0 56 147 6 33 88 0 0 0 0 0 0 0 33 88 0 33 88 0 47 130 0 0 0 0 255 255 255 
255 255 255 41 113 0 41 113 0 47 130 0 33 88 0 0 0 0 33 88 0 47 130 0 33 88 0 0 0 0 0 0 0 33 88 0 33 88 0 33 88 0 0 0 0 255 255 255 
255 255 255 33 88 0 41 113 0 41 113 0 33 88 0 0 0 0 0 0 0 47 130 0 41 113 0 33 88 0 33 88 0 33 88 0 41 113 0 33 88 0 33 88 0 255 255 255 
255 255 255 33 88 0 41 113 0 33 88 0 33 88 0 143 143 143 33 88 0 47 130 0 33 88 0 33 88 0 33 88 0 33 88 0 41 113 0 33 88 0 47 130 0 255 255 255 
255 255 255 33 88 0 33 88 0 33 88 0 33 88 0 33 88 0 33 88 0 47 130 0 33 88 0 33 88 0 33 88 0 33 88 0 47 130 0 33 88 0 47 130 0 255 255 255 
255 255 255 143 143 143 0 0 0 0 0 0 56 147 6 47 130 0 47 130 0 56 147 6 47 130 0 0 0 0 0 0 0 56 147 6 47 130 0 47 130 0 47 130 0 255 255 255 
255 255 255 143 143 143 0 0 0 0 0 0 56 147 6 47 130 0 47 130 0 56 147 6 47 130 0 0 0 0 0 0 0 56 147 6 47 130 0 47 130 0 47 130 0 255 255 255 
255 255 255 143 143 143 0 0 0 0 0 0 80 149 41 0 0 0 47 130 0 47 130 0 47 130 0 0 0 0 0 0 0 80 149 41 47 130 0 0 0 0 0 0 0 255 255 255 
255 255 255 143 143 143 0 0 0 80 149 41 47 130 0 0 0 0 47 130 0 47 130 0 41 113 0 0 0 0 0 0 0 80 149 41 47 130 0 80 149 41 0 0 0 255 255 255 
255 255 255 143 143 143 0 0 0 80 149 41 41 113 0 0 0 0 41 113 0 47 130 0 56 147 6 0 0 0 0 0 0 80 149 41 41 113 0 56 147 6 0 0 0 255 255 255 
255 255 255 143 143 143 0 0 0 80 149 41 33 88 0 0 0 0 33 88 0 47 130 0 56 147 6 0 0 0 0 0 0 80 149 41 33 88 0 47 130 0 0 0 0 255 255 255 
255 255 255 143 143 143 0 0 0 33 88 0 41 113 0 0 0 0 41 113 0 47 130 0 80 149 41 0 0 0 0 0 0 33 88 0 41 113 0 56 147 6 0 0 0 255 255 255 
255 255 255 143 143 143 0 0 0 33 88 0 56 147 6 0 0 0 56 147 6 47 130 0 80 149 41 0 0 0 0 0 0 33 88 0 56 147 6 56 147 6 0 0 0 255 255 255 
255 255 255 143 143 143 0 0 0 33 88 0 47 130 0 0 0 0 47 130 0 41 113 0 80 149 41 0 0 0 0 0 0 33 88 0 47 130 0 47 130 0 0 0 0 255 255 255 
255 255 255 143 143 143 0 0 0 41 113 0 47 130 0 0 0 0 47 130 0 33 88 0 80 149 41 0 0 0 0 0 0 41 113 0 47 130 0 47 130 0 0 0 0 255 255 255 
255 255 255 143 143 143 0 0 0 33 88 0 47 130 0 0 0 0 47 130 0 41 113 0 33 88 0 0 0 0 0 0 0 33 88 0 47 130 0 47 130 0 0 0 0 255 255 255 
255 255 255 143 143 143 0 0 0 33 88 0 47 130 0 0 0 0 47 130 0 56 147 6 33 88 0 0 0 0 0 0 0 33 88 0 47 130 0 47 130 0 0 0 0 255 255 255 
255 255 255 41 113 0 41 113 0 47 130 0 33 88 0 0 0 0 33 88 0 47 130 0 33 88 0 0 0 0 0 0 0 47 130 0 33 88 0 33 88 0 0 0 0 255 255 255 
255 255 255 33 88 0 41 113 0 41 113 0 33 88 0 0 0 0 0 0 0 47 130 0 41 113 0 33 88 0 33 88 0 33 88 0 47 130 0 33 88 0 33 88 0 255 255 255 
255 255 255 33 88 0 41 113 0 33 88 0 33 88 0 0 0 0 0 0 0 47 130 0 33 88 0 33 88 0 33 88 0 33 88 0 47 130 0 33 88 0 47 130 0 255 255 255 
255 255 255 33 88 0 33 88 0 33 88 0 33 88 0 33 88 0 0 0 0 47 130 0 33 88 0 33 88 0 33 88 0 33 88 0 47 130 0 33 88 0 47 130 0 255 255 255 
255 255 255 143 143 143 0 0 0 0 0 0 56 147 6 47 130 0 47 130 0 56 147 6 47 130 0 0 0 0 0 0 0 0 0 0 47 130 0 47 130 0 0 0 0 255 255 255 
255 255 255 143 143 143 0 0 0 0 0 0 56 147 6 47 130 0 47 130 0 56 147 6 47 130 0 0 0 0 0 0 0 0 0 0 47 130 0 0 0 0 0 0 0 255 255 255 
255 255 255 143 143 143 0 0 0 0 0 0 80 149 41 0 0 0 47 130 0 47 130 0 47 130 0 0 0 0 0 0 0 80 149 41 47 130 0 0 0 0 0 0 0 255 255 255 
255 255 255 143 143 143 0 0 0 80 149 41 47 130 0 0 0 0 47 130 0 47 130 0 41 113 0 0 0 0 0 0 0 80 149 41 47 130 0 80 149 41 0 0 0 255 255 255 
255 255 255 143 143 143 0 0 0 80 149 41 41 113 0 0 0 0 41 113 0 47 130 0 56 147 6 0 0 0 0 0 0 80 149 41 41 113 0 56 147 6 0 0 0 255 255 255 
255 255 255 143 143 143 0 0 0 80 149 41 33 88 0 0 0 0 33 88 0 47 130 0 56 147 6 0 0 0 0 0 0 80 149 41 33 88 0 47 130 0 0 0 0 255 255 255 
255 255 255 143 143 143 0 0 0 33 88 0 41 113 0 0 0 0 41 113 0 47 130 0 80 149 41 0 0 0 0 0 0 33 88 0 41 113 0 56 147 6 0 0 0 255 255 255 
255 255 255 143 143 143 0 0 0 33 88 0 56 147 6 0 0 0 56 147 6 47 130 0 80 149 41 0 0 0 0 0 0 33 88 0 56 147 6 47 130 0 0 0 0 255 255 255 
255 255 255 143 143 143 0 0 0 33 88 0 47 130 0 0 0 0 47 130 0 41 113 0 80 149 41 0 0 0 0 0 0 33 88 0 47 130 0 47 130 0 0 0 0 255 255 255 
255 255 255 143 143 143 0 0 0 41 113 0 47 130 0 0 0 0 47 130 0 33 88 0 80 149 41 0 0 0 0 0 0 41 113 0 47 130 0 47 130 0 0 0 0 255 255 255 
255 255 255 143 143 143 0 0 0 33 88 0 47 130 0 0 0 0 47 130 0 41 113 0 33 88 0 0 0 0 0 0 0 33 88 0 47 130 0 47 130 0 0 0 0 255 255 255 
255 255 255 143 143 143 0 0 0 33 88 0 47 130 0 0 0 0 47 130 0 56 147 6 33 88 0 0 0 0 0 0 0 33 88 0 47 130 0 47 130 0 0 0 0 255 255 255 
255 255 255 41 113 0 41 113 0 47 130 0 33 88 0 0 0 0 33 88 0 47 130 0 33 88 0 0 0 0 0 0 0 47 130 0 33 88 0 33 88 0 0 0 0 255 255 255 
255 255 255 33 88 0 33 88 0 41 113 0 41 113 0 41 113 0 33 88 0 47 130 0 41 113 0 33 88 0 33 88 0 33 88 0 47 130 0 33 88 0 33 88 0 255 255 255 
255 255 255 33 88 0 41 113 0 33 88 0 33 88 0 41 113 0 0 0 0 47 130 0 33 88 0 33 88 0 33 88 0 33 88 0 41 113 0 33 88 0 47 130 0 255 255 255 
255 255 255 33 88 0 33 88 0 33 88 0 33 88 0 41 113 0 33 88 0 47 130 0 33 88 0 33 88 0 33 88 0 33 88 0 41 113 0 33 88 0 47 130 0 255 255 255 
255 255 255 143 143 143 0 0 0 0 0 0 56 147 6 47 130 0 47 130 0 56 147 6 47 130 0 0 0 0 0 0 0 0 0 0 47 130 0 47 130 0 0 0 0 255 255 255 
255 255 255 143 143 143 0 0 0 0 0 0 56 147 6 47 130 0 47 130 0 56 147 6 47 130 0 0 0 0 0 0 0 56 147 6 47 130 0 0 0 0 0 0 0 255 255 255 
255 255 255 143 143 143 0 0 0 0 0 0 47 130 0 0 0 0 47 130 0 47 130 0 47 130 0 0 0 0 0 0 0 80 149 41 47 130 0 0 0 0 0 0 0 255 255 255 
255 255 255 143 143 143 0 0 0 80 149 41 47 130 0 0 0 0 47 130 0 47 130 0 41 113 0 0 0 0 0 0 0 80 149 41 47 130 0 80 149 41 0 0 0 255 255 255 
255 255 255 143 143 143 0 0 0 80 149 41 41 113 0 0 0 0 41 113 0 47 130 0 56 147 6 0 0 0 0 0 0 80 149 41 41 113 0 56 147 6 0 0 0 255 255 255 
255 255 255 143 143 143 0 0 0 80 149 41 33 88 0 0 0 0 33 88 0 47 130 0 56 147 6 0 0 0 0 0 0 80 149 41 33 88 0 47 130 0 0 0 0 255 255 255 
255 255 255 143 143 143 0 0 0 33 88 0 41 113 0 0 0 0 41 113 0 47 130 0 80 149 41 0 0 0 0 0 0 33 88 0 41 113 0 56 147 6 0 0 0 255 255 255 
255 255 255 143 143 143 0 0 0 33 88 0 56 147 6 0 0 0 56 147 6 47 130 0 80 149 41 0 0 0 0 0 0 33 88 0 56 147 6 47 130 0 0 0 0 255 255 255 
255 255 255 143 143 143 0 0 0 33 88 0 47 130 0 0 0 0 47 130 0 41 113 0 80 149 41 0 0 0 0 0 0 33 88 0 47 130 0 47 130 0 0 0 0 255 255 255 
255 255 255 143 143 143 0 0 0 41 113 0 47 130 0 0 0 0 47 130 0 33 88 0 80 149 41 0 0 0 0 0 0 41 113 0 47 130 0 47 130 0 0 0 0 255 255 255 
255 255 255 143 143 143 0 0 0 33 88 0 47 130 0 0 0 0 47 130 0 41 113 0 33 88 0 0 0 0 0 0 0 33 88 0 47 130 0 41 113 0 0 0 0 255 255 255 
255 255 255 143 143 143 0 0 0 33 88 0 47 130 0 0 0 0 47 130 0 56 147 6 33 88 0 0 0 0 0 0 0 33 88 0 47 130 0 41 113 0 0 0 0 255 255 255 
255 255 255 41 113 0 41 113 0 47 130 0 33 88 0 0 0 0 33 88 0 47 130 0 33 88 0 0 0 0 0 0 0 47 130 0 41 113 0 33 88 0 0 0 0 255 255 255 
255 255 255 33 88 0 41 113 0 41 113 0 33 88 0 0 0 0 33 88 0 47 130 0 41 113 0 33 88 0 33 88 0 33 88 0 41 113 0 33 88 0 33 88 0 255 255 255 
255 255 255 33 88 0 41 113 0 33 88 0 33 88 0 143 143 143 33 88 0 47 130 0 33 88 0 33 88 0 33 88 0 33 88 0 41 113 0 33 88 0 33 88 0 255 255 255 
255 255 255 33 88 0 33 88 0 33 88 0 33 88 0 143 143 143 33 88 0 47 130 0 33 88 0 33 88 0 33 88 0 33 88 0 47 130 0 33 88 0 47 130 0 255 255 255 
255 255 255 143 143 143 0 0 0 0 0 0 56 147 6 47 130 0 47 130 0 56 147 6 47 130 0 0 0 0 0 0 0 56 147 6 47 130 0 0 0 0 0 0 0 255 255 255 
255 255 255 143 143 143 0 0 0 56 147 6 47 130 0 0 0 0 47 130 0 56 147 6 47 130 0 0 0 0 0 0 0 56 147 6 47 130 0 0 0 0 0 0 0 255 255 255 
255 255 255 143 143 143 0 0 0 80 149 41 47 130 0 0 0 0 47 130 0 47 130 0 47 130 0 0 0 0 0 0 0 80 149 41 47 130 0 0 0 0 0 0 0 255 255 255 
255 255 255 143 143 143 0 0 0 80 149 41 47 130 0 0 0 0 47 130 0 47 130 0 41 113 0 0 0 0 0 0 0 80 149 41 47 130 0 80 149 41 0 0 0 255 255 255 
255 255 255 143 143 143 0 0 0 80 149 41 41 113 0 0 0 0 41 113 0 47 130 0 56 147 6 0 0 0 0 0 0 80 149 41 41 113 0 56 147 6 0 0 0 255 255 255 
255 255 255 143 143 143 0 0 0 80 149 41 33 88 0 0 0 0 33 88 0 47 130 0 56 147 6 0 0 0 0 0 0 80 149 41 33 88 0 47 130 0 0 0 0 255 255 255 
255 255 255 143 143 143 0 0 0 33 88 0 41 113 0 0 0 0 41 113 0 47 130 0 80 149 41 0 0 0 0 0 0 33 88 0 41 113 0 56 147 6 0 0 0 255 255 255 
255 255 255 143 143 143 0 0 0 33 88 0 56 147 6 0 0 0 56 147 6 47 130 0 80 149 41 0 0 0 0 0 0 33 88 0 56 147 6 47 130 0 0 0 0 255 255 255 
255 255 255 143 143 143 0 0 0 33 88 0 47 130 0 0 0 0 47 130 0 41 113 0 80 149 41 0 0 0 0 0 0 33 88 0 47 130 0 47 130 0 0 0 0 255 255 255 
255 255 255 143 143 143 0 0 0 41 113 0 47 130 0 0 0 0 47 130 0 33 88 0 80 149 41 0 0 0 0 0 0 41 113 0 47 130 0 47 130 0 0 0 0 255 255 255 
255 255 255 143 143 143 0 0 0 33 88 0 47 130 0 0 0 0 47 130 0 41 113 0 33 88 0 0 0 0 0 0 0 33 88 0 47 130 0 41 113 0 0 0 0 255 255 255 
255 255 255 143 143 143 0 0 0 33 88 0 47 130 0 0 0 0 47 130 0 56 147 6 33 88 0 0 0 0 0 0 0 33 88 0 41 113 0 41 113 0 0 0 0 255 255 255 
255 255 255 33 88 0 33 88 0 33 88 0 41 113 0 41 113 0 33 88 0 47 130 0 33 88 0 0 0 0 0 0 0 33 88 0 41 113 0 41 113 0 33 88 0 255 255 255 
255 255 255 33 88 0 41 113 0 41 113 0 33 88 0 41 113 0 33 88 0 47 130 0 41 113 0 33 88 0 33 88 0 33 88 0 41 113 0 33 88 0 33 88 0 255 255 255 
255 255 255 33 88 0 41 113 0 33 88 0 33 88 0 41 113 0 33 88 0 47 130 0 33 88 0 33 88 0 33 88 0 33 88 0 41 113 0 33 88 0 33 88 0 255 255 255 
255 255 255 33 88 0 33 88 0 33 88 0 33 88 0 33 88 0 33 88 0 47 130 0 33 88 0 33 88 0 33 88 0 33 88 0 47 130 0 33 88 0 47 130 0 255 255 255 
255 255 255 143 143 143 0 0 0 56 147 6 47 130 0 0 0 0 0 0 0 56 147 6 47 130 0 0 0 0 0 0 0 56 147 6 47 130 0 0 0 0 0 0 0 255 255 255 
255 255 255 143 143 143 56 147 6 47 130 0 143 143 143 0 0 0 0 0 0 56 147 6 47 130 0 0 0 0 0 0 0 56 147 6 47 130 0 0 0 0 0 0 0 255 255 255 
255 255 255 143 143 143 80 149 41 47 130 0 143 143 143 0 0 0 47 130 0 47 130 0 47 130 0 0 0 0 0 0 0 80 149 41 47 130 0 0 0 0 0 0 0 255 255 255 
255 255 255 143 143 143 80 149 41 47 130 0 143 143 143 0 0 0 47 130 0 47 130 0 41 113 0 0 0 0 0 0 0 80 149 41 47 130 0 80 149 41 0 0 0 255 255 255 
255 255 255 143 143 143 80 149 41 41 113 0 143 143 143 0 0 0 41 113 0 47 130 0 56 147 6 0 0 0 0 0 0 80 149 41 41 113 0 56 147 6 0 0 0 255 255 255 
255 255 255 143 143 143 80 149 41 33 88 0 143 143 143 0 0 0 33 88 0 47 130 0 56 147 6 0 0 0 0 0 0 80 149 41 33 88 0 47 130 0 0 0 0 255 255 255 
255 255 255 143 143 143 33 88 0 41 113 0 143 143 143 0 0 0 41 113 0 47 130 0 80 149 41 0 0 0 0 0 0 33 88 0 41 113 0 56 147 6 0 0 0 255 255 255 
255 255 255 143 143 143 33 88 0 56 147 6 143 143 143 0 0 0 56 147 6 47 130 0 80 149 41 0 0 0 0 0 0 33 88 0 56 147 6 47 130 0 0 0 0 255 255 255 
255 255 255 143 143 143 33 88 0 47 130 0 143 143 143 0 0 0 47 130 0 41 113 0 80 149 41 0 0 0 0 0 0 47 130 0 47 130 0 47 130 0 0 0 0 255 255 255 
255 255 255 143 143 143 41 113 0 47 130 0 143 143 143 0 0 0 47 130 0 33 88 0 80 149 41 0 0 0 0 0 0 47 130 0 47 130 0 47 130 0 0 0 0 255 255 255 
255 255 255 33 88 0 47 130 0 47 130 0 33 88 0 33 88 0 47 130 0 41 113 0 33 88 0 33 88 0 33 88 0 47 130 0 47 130 0 41 113 0 33 88 0 255 255 255 
255 255 255 33 88 0 47 130 0 47 130 0 41 113 0 41 113 0 47 130 0 56 147 6 33 88 0 33 88 0 33 88 0 47 130 0 41 113 0 41 113 0 33 88 0 255 255 255 
255 255 255 33 88 0 33 88 0 41 113 0 41 113 0 41 113 0 33 88 0 47 130 0 33 88 0 33 88 0 33 88 0 33 88 0 41 113 0 41 113 0 33 88 0 255 255 255 
255 255 255 33 88 0 41 113 0 41 113 0 33 88 0 41 113 0 33 88 0 47 130 0 41 113 0 33 88 0 33 88 0 33 88 0 47 130 0 33 88 0 33 88 0 255 255 255 
255 255 255 33 88 0 41 113 0 33 88 0 33 88 0 41 113 0 33 88 0 47 130 0 33 88 0 33 88 0 47 130 0 33 88 0 33 88 0 33 88 0 33 88 0 255 255 255 
255 255 255 33 88 0 33 88 0 33 88 0 33 88 0 33 88 0 41 113 0 47 130 0 33 88 0 33 88 0 33 88 0 33 88 0 41 113 0 33 88 0 47 130 0 255 255 255 
255 255 255 143 143 143 0 0 0 56 147 6 47 130 0 47 130 0 0 0 0 56 147 6 47 130 0 0 0 0 56 147 6 47 130 0 0 0 0 0 0 0 0 0 0 255 255 255 
255 255 255 143 143 143 56 147 6 56 147 6 47 130 0 47 130 0 0 0 0 56 147 6 47 130 0 0 0 0 56 147 6 47 130 0 0 0 0 0 0 0 0 0 0 255 255 255 
255 255 255 143 143 143 80 149 41 47 130 0 47 130 0 47 130 0 47 130 0 47 130 0 47 130 0 0 0 0 80 149 41 47 130 0 0 0 0 0 0 0 0 0 0 255 255 255 
255 255 255 143 143 143 80 149 41 47 130 0 47 130 0 47 130 0 47 130 0 47 130 0 41 113 0 0 0 0 80 149 41 47 130 0 0 0 0 80 149 41 0 0 0 255 255 255 
255 255 255 143 143 143 80 149 41 41 113 0 47 130 0 47 130 0 41 113 0 47 130 0 56 147 6 0 0 0 80 149 41 41 113 0 0 0 0 56 147 6 0 0 0 255 255 255 
255 255 255 143 143 143 80 149 41 33 88 0 143 143 143 0 0 0 33 88 0 47 130 0 56 147 6 0 0 0 80 149 41 33 88 0 0 0 0 47 130 0 0 0 0 255 255 255 
255 255 255 143 143 143 41 113 0 41 113 0 143 143 143 0 0 0 41 113 0 47 130 0 80 149 41 0 0 0 33 88 0 41 113 0 143 143 143 56 147 6 0 0 0 255 255 255 
255 255 255 143 143 143 56 147 6 56 147 6 143 143 143 0 0 0 56 147 6 47 130 0 80 149 41 0 0 0 33 88 0 56 147 6 143 143 143 47 130 0 0 0 0 255 255 255 
255 255 255 143 143 143 47 130 0 56 147 6 143 143 143 56 147 6 47 130 0 41 113 0 80 149 41 0 0 0 33 88 0 47 130 0 143 143 143 47 130 0 0 0 0 255 255 255 
255 255 255 143 143 143 47 130 0 56 147 6 143 143 143 56 147 6 47 130 0 33 88 0 80 149 41 0 0 0 41 113 0 47 130 0 143 143 143 47 130 0 0 0 0 255 255 255 
255 255 255 33 88 0 47 130 0 56 147 6 33 88 0 33 88 0 47 130 0 41 113 0 33 88 0 33 88 0 33 88 0 47 130 0 143 143 143 41 113 0 33 88 0 255 255 255 
255 255 255 33 88 0 47 130 0 47 130 0 33 88 0 33 88 0 47 130 0 56 147 6 33 88 0 33 88 0 33 88 0 47 130 0 143 143 143 41 113 0 33 88 0 255 255 255 
255 255 255 33 88 0 33 88 0 47 130 0 33 88 0 33 88 0 33 88 0 47 130 0 33 88 0 33 88 0 47 130 0 33 88 0 47 130 0 41 113 0 33 88 0 255 255 255 
255 255 255 33 88 0 41 113 0 33 88 0 33 88 0 33 88 0 33 88 0 47 130 0 41 113 0 33 88 0 41 113 0 33 88 0 47 130 0 47 130 0 33 88 0 255 255 255 
255 255 255 33 88 0 47 130 0 33 88 0 33 88 0 41 113 0 33 88 0 47 130 0 33 88 0 33 88 0 47 130 0 33 88 0 33 88 0 33 88 0 33 88 0 255 255 255 
255 255 255 33 88 0 33 88 0 33 88 0 33 88 0 41 113 0 41 113 0 47 130 0 33 88 0 33 88 0 33 88 0 33 88 0 33 88 0 33 88 0 47 130 0 255 255 255 
255 255 255 143 143 143 56 147 6 47 130 0 143 143 143 47 130 0 0 0 0 56 147 6 47 130 0 0 0 0 56 147 6 47 130 0 0 0 0 0 0 0 0 0 0 255 255 255 
255 255 255 143 143 143 47 130 0 47 130 0 143 143 143 47 130 0 0 0 0 56 147 6 47 130 0 0 0 0 56 147 6 47 130 0 0 0 0 0 0 0 0 0 0 255 255 255 
255 255 255 143 143 143 47 130 0 47 130 0 143 143 143 47 130 0 0 0 0 47 130 0 47 130 0 0 0 0 80 149 41 47 130 0 0 0 0 0 0 0 0 0 0 255 255 255 
255 255 255 143 143 143 47 130 0 47 130 0 0 0 0 47 130 0 0 0 0 47 130 0 41 113 0 0 0 0 80 149 41 47 130 0 0 0 0 80 149 41 80 149 41 255 255 255 
255 255 255 143 143 143 80 149 41 41 113 0 0 0 0 41 113 0 0 0 0 47 130 0 56 147 6 0 0 0 80 149 41 41 113 0 0 0 0 56 147 6 56 147 6 255 255 255 
255 255 255 143 143 143 80 149 41 33 88 0 0 0 0 33 88 0 0 0 0 47 130 0 56 147 6 0 0 0 80 149 41 33 88 0 0 0 0 47 130 0 56 147 6 255 255 255 
255 255 255 143 143 143 33 88 0 41 113 0 0 0 0 47 130 0 47 130 0 47 130 0 80 149 41 0 0 0 33 88 0 41 113 0 0 0 0 56 147 6 56 147 6 255 255 255 
255 255 255 143 143 143 33 88 0 56 147 6 0 0 0 41 113 0 47 130 0 47 130 0 80 149 41 0 0 0 33 88 0 56 147 6 0 0 0 47 130 0 0 0 0 255 255 255 
255 255 255 143 143 143 33 88 0 47 130 0 0 0 0 41 113 0 47 130 0 41 113 0 80 149 41 0 0 0 33 88 0 47 130 0 143 143 143 47 130 0 0 0 0 255 255 255 
255 255 255 143 143 143 41 113 0 47 130 0 0 0 0 41 113 0 47 130 0 33 88 0 80 149 41 0 0 0 41 113 0 47 130 0 143 143 143 47 130 0 0 0 0 255 255 255 
255 255 255 33 88 0 33 88 0 47 130 0 33 88 0 41 113 0 47 130 0 41 113 0 33 88 0 33 88 0 33 88 0 47 130 0 143 143 143 41 113 0 33 88 0 255 255 255 
255 255 255 33 88 0 33 88 0 47 130 0 33 88 0 41 113 0 47 130 0 56 147 6 33 88 0 33 88 0 33 88 0 47 130 0 143 143 143 41 113 0 33 88 0 255 255 255 
255 255 255 33 88 0 47 130 0 33 88 0 33 88 0 47 130 0 33 88 0 47 130 0 33 88 0 33 88 0 47 130 0 33 88 0 143 143 143 41 113 0 33 88 0 255 255 255 
255 255 255 33 88 0 41 113 0 33 88 0 33 88 0 47 130 0 33 88 0 47 130 0 41 113 0 33 88 0 41 113 0 33 88 0 47 130 0 47 130 0 33 88 0 255 255 255 
255 255 255 33 88 0 47 130 0 33 88 0 33 88 0 41 113 0 33 88 0 47 130 0 33 88 0 33 88 0 47 130 0 33 88 0 47 130 0 33 88 0 33 88 0 255 255 255 
255 255 255 33 88 0 33 88 0 33 88 0 41 113 0 41 113 0 41 113 0 47 130 0 33 88 0 33 88 0 33 88 0 33 88 0 33 88 0 33 88 0 47 130 0 255 255 255 
255 255 255 143 143 143 56 147 6 47 130 0 0 0 0 47 130 0 0 0 0 56 147 6 0 0 0 41 113 0 47 130 0 0 0 0 0 0 0 0 0 0 0 0 0 255 255 255 
255 255 255 143 143 143 56 147 6 47 130 0 0 0 0 47 130 0 0 0 0 56 147 6 47 130 0 56 147 6 47 130 0 0 0 0 0 0 0 0 0 0 0 0 0 255 255 255 
255 255 255 143 143 143 80 149 41 47 130 0 0 0 0 47 130 0 0 0 0 47 130 0 47 130 0 80 149 41 47 130 0 0 0 0 0 0 0 0 0 0 0 0 0 255 255 255 
255 255 255 143 143 143 80 149 41 47 130 0 0 0 0 47 130 0 0 0 0 47 130 0 41 113 0 0 0 0 47 130 0 0 0 0 0 0 0 0 0 0 80 149 41 255 255 255 
255 255 255 143 143 143 80 149 41 41 113 0 0 0 0 41 113 0 0 0 0 47 130 0 56 147 6 0 0 0 41 113 0 0 0 0 0 0 0 0 0 0 56 147 6 255 255 255 
255 255 255 143 143 143 80 149 41 33 88 0 0 0 0 33 88 0 0 0 0 47 130 0 56 147 6 0 0 0 80 149 41 0 0 0 0 0 0 0 0 0 47 130 0 255 255 255 
255 255 255 143 143 143 33 88 0 41 113 0 0 0 0 41 113 0 0 0 0 47 130 0 80 149 41 0 0 0 33 88 0 41 113 0 0 0 0 56 147 6 47 130 0 255 255 255 
255 255 255 143 143 143 33 88 0 56 147 6 0 0 0 56 147 6 0 0 0 47 130 0 80 149 41 0 0 0 33 88 0 56 147 6 0 0 0 47 130 0 47 130 0 255 255 255 
255 255 255 143 143 143 33 88 0 47 130 0 0 0 0 41 113 0 47 130 0 41 113 0 80 149 41 0 0 0 33 88 0 47 130 0 0 0 0 47 130 0 0 0 0 255 255 255 
255 255 255 143 143 143 41 113 0 47 130 0 0 0 0 41 113 0 47 130 0 33 88 0 80 149 41 0 0 0 41 113 0 47 130 0 0 0 0 47 130 0 0 0 0 255 255 255 
255 255 255 33 88 0 33 88 0 47 130 0 33 88 0 41 113 0 47 130 0 41 113 0 33 88 0 33 88 0 33 88 0 47 130 0 143 143 143 41 113 0 33 88 0 255 255 255 
255 255 255 33 88 0 33 88 0 47 130 0 33 88 0 41 113 0 47 130 0 56 147 6 33 88 0 33 88 0 33 88 0 47 130 0 47 130 0 41 113 0 33 88 0 255 255 255 
255 255 255 33 88 0 47 130 0 33 88 0 33 88 0 41 113 0 33 88 0 47 130 0 33 88 0 33 88 0 47 130 0 33 88 0 33 88 0 41 113 0 33 88 0 255 255 255 
255 255 255 33 88 0 41 113 0 33 88 0 33 88 0 41 113 0 33 88 0 47 130 0 41 113 0 33 88 0 41 113 0 33 88 0 33 88 0 47 130 0 33 88 0 255 255 255 
255 255 255 33 88 0 47 130 0 33 88 0 33 88 0 41 113 0 33 88 0 47 130 0 33 88 0 33 88 0 47 130 0 33 88 0 41 113 0 47 130 0 33 88 0 255 255 255 
255 255 255 33 88 0 33 88 0 33 88 0 41 113 0 41 113 0 41 113 0 47 130 0 33 88 0 33 88 0 33 88 0 33 88 0 41 113 0 33 88 0 33 88 0 255 255 255 
255 255 255 143 143 143 56 147 6 47 130 0 0 0 0 47 130 0 0 0 0 47 130 0 0 0 0 41 113 0 47 130 0 0 0 0 0 0 0 0 0 0 0 0 0 255 255 255 
255 255 255 143 143 143 56 147 6 47 130 0 0 0 0 47 130 0 0 0 0 56 147 6 0 0 0 56 147 6 47 130 0 0 0 0 0 0 0 0 0 0 0 0 0 255 255 255 
255 255 255 143 143 143 80 149 41 47 130 0 0 0 0 47 130 0 0 0 0 47 130 0 0 0 0 80 149 41 47 130 0 0 0 0 0 0 0 0 0 0 0 0 0 255 255 255 
255 255 255 143 143 143 80 149 41 47 130 0 0 0 0 47 130 0 0 0 0 47 130 0 0 0 0 80 149 41 47 130 0 0 0 0 0 0 0 0 0 0 80 149 41 255 255 255 
255 255 255 143 143 143 80 149 41 41 113 0 0 0 0 41 113 0 0 0 0 47 130 0 56 147 6 80 149 41 41 113 0 0 0 0 0 0 0 0 0 0 56 147 6 255 255 255 
255 255 255 143 143 143 80 149 41 33 88 0 0 0 0 33 88 0 0 0 0 47 130 0 56 147 6 80 149 41 33 88 0 0 0 0 0 0 0 0 0 0 47 130 0 255 255 255 
255 255 255 143 143 143 33 88 0 41 113 0 0 0 0 41 113 0 0 0 0 47 130 0 80 149 41 0 0 0 41 113 0 41 113 0 0 0 0 56 147 6 0 0 0 255 255 255 
255 255 255 143 143 143 33 88 0 56 147 6 0 0 0 56 147 6 0 0 0 47 130 0 80 149 41 0 0 0 56 147 6 56 147 6 0 0 0 47 130 0 0 0 0 255 255 255 
255 255 255 143 143 143 33 88 0 47 130 0 0 0 0 47 130 0 47 130 0 41 113 0 80 149 41 0 0 0 33 88 0 47 130 0 0 0 0 47 130 0 0 0 0 255 255 255 
255 255 255 143 143 143 41 113 0 47 130 0 0 0 0 41 113 0 47 130 0 33 88 0 80 149 41 0 0 0 41 113 0 47 130 0 0 0 0 47 130 0 0 0 0 255 255 255 
255 255 255 33 88 0 33 88 0 47 130 0 33 88 0 41 113 0 47 130 0 41 113 0 33 88 0 33 88 0 33 88 0 47 130 0 33 88 0 41 113 0 33 88 0 255 255 255 
255 255 255 33 88 0 33 88 0 47 130 0 33 88 0 41 113 0 47 130 0 56 147 6 33 88 0 33 88 0 33 88 0 47 130 0 47 130 0 41 113 0 33 88 0 255 255 255 
255 255 255 33 88 0 47 130 0 33 88 0 33 88 0 41 113 0 33 88 0 47 130 0 33 88 0 33 88 0 47 130 0 33 88 0 33 88 0 41 113 0 33 88 0 255 255 255 
255 255 255 33 88 0 41 113 0 33 88 0 33 88 0 47 130 0 33 88 0 47 130 0 41 113 0 33 88 0 41 113 0 33 88 0 33 88 0 47 130 0 33 88 0 255 255 255 
255 255 255 33 88 0 47 130 0 33 88 0 33 88 0 47 130 0 33 88 0 47 130 0 33 88 0 33 88 0 47 130 0 33 88 0 33 88 0 47 130 0 33 88 0 255 255 255 
255 255 255 33 88 0 33 88 0 33 88 0 47 130 0 47 130 0 47 130 0 47 130 0 33 88 0 33 88 0 33 88 0 33 88 0 47 130 0 33 88 0 33 88 0 255 255 255 
255 255 255 143 143 143 56 147 6 47 130 0 0 0 0 47 130 0 56 147 6 47 130 0 0 0 0 41 113 0 47 130 0 0 0 0 0 0 0 0 0 0 0 0 0 255 255 255 
255 255 255 143 143 143 56 147 6 47 130 0 0 0 0 47 130 0 0 0 0 47 130 0 0 0 0 56 147 6 47 130 0 0 0 0 0 0 0 0 0 0 0 0 0 255 255 255 
255 255 255 143 143 143 80 149 41 47 130 0 0 0 0 47 130 0 0 0 0 47 130 0 0 0 0 80 149 41 47 130 0 0 0 0 0 0 0 0 0 0 0 0 0 255 255 255 
255 255 255 143 143 143 80 149 41 47 130 0 0 0 0 47 130 0 0 0 0 47 130 0 0 0 0 80 149 41 47 130 0 0 0 0 0 0 0 0 0 0 80 149 41 255 255 255 
255 255 255 143 143 143 80 149 41 41 113 0 0 0 0 41 113 0 0 0 0 47 130 0 0 0 0 80 149 41 41 113 0 0 0 0 0 0 0 0 0 0 56 147 6 255 255 255 
255 255 255 143 143 143 80 149 41 33 88 0 0 0 0 33 88 0 0 0 0 47 130 0 56 147 6 80 149 41 33 88 0 0 0 0 0 0 0 0 0 0 47 130 0 255 255 255 
255 255 255 143 143 143 33 88 0 41 113 0 0 0 0 41 113 0 0 0 0 47 130 0 80 149 41 33 88 0 41 113 0 41 113 0 0 0 0 56 147 6 0 0 0 255 255 255 
255 255 255 143 143 143 33 88 0 56 147 6 0 0 0 56 147 6 0 0 0 47 130 0 80 149 41 0 0 0 56 147 6 56 147 6 0 0 0 47 130 0 0 0 0 255 255 255 
255 255 255 143 143 143 33 88 0 47 130 0 0 0 0 47 130 0 47 130 0 41 113 0 80 149 41 0 0 0 33 88 0 47 130 0 0 0 0 47 130 0 0 0 0 255 255 255 
255 255 255 143 143 143 41 113 0 47 130 0 0 0 0 47 130 0 47 130 0 33 88 0 80 149 41 0 0 0 41 113 0 47 130 0 0 0 0 47 130 0 0 0 0 255 255 255 
255 255 255 33 88 0 33 88 0 47 130 0 33 88 0 41 113 0 47 130 0 41 113 0 33 88 0 33 88 0 33 88 0 47 130 0 33 88 0 41 113 0 33 88 0 255 255 255 
255 255 255 33 88 0 33 88 0 47 130 0 33 88 0 41 113 0 47 130 0 56 147 6 33 88 0 33 88 0 33 88 0 47 130 0 47 130 0 41 113 0 33 88 0 255 255 255 
255 255 255 33 88 0 47 130 0 33 88 0 33 88 0 41 113 0 33 88 0 47 130 0 33 88 0 33 88 0 47 130 0 33 88 0 33 88 0 41 113 0 33 88 0 255 255 255 
255 255 255 33 88 0 41 113 0 33 88 0 33 88 0 41 113 0 33 88 0 47 130 0 41 113 0 33 88 0 41 113 0 33 88 0 33 88 0 47 130 0 33 88 0 255 255 255 
255 255 255 33 88 0 47 130 0 33 88 0 33 88 0 47 130 0 33 88 0 47 130 0 33 88 0 33 88 0 47 130 0 33 88 0 33 88 0 47 130 0 33 88 0 255 255 255 
255 255 255 33 88 0 33 88 0 33 88 0 47 130 0 47 130 0 47 130 0 47 130 0 33 88 0 33 88 0 33 88 0 33 88 0 47 130 0 33 88 0 33 88 0 255 255 255 
