P3
16 16
255
53 40 59 53 40 59 53 40 59 53 40 59 43 32 48 53 40 59 43 32 48 43 32 48 43 32 48 40 24 46 40 24 46 43 32 48 53 40 59 43 32 48 53 40 59 53 40 59 
53 40 59 39 37 40 39 37 40 39 37 40 39 37 40 73 70 74 73 70 74 39 37 40 39 37 40 39 37 40 39 37 40 39 37 40 39 37 40 39 37 40 39 37 40 53 40 59 
53 40 59 39 37 40 39 37 40 39 37 40 73 70 74 73 70 74 39 37 40 39 37 40 39 37 40 39 37 40 39 37 40 39 37 40 39 37 40 39 37 40 39 37 40 53 40 59 
53 40 59 39 37 40 39 37 40 73 70 74 73 70 74 39 37 40 39 37 40 39 37 40 39 37 40 39 37 40 39 37 40 39 37 40 39 37 40 39 37 40 39 37 40 43 32 48 
53 40 59 39 37 40 73 70 74 73 70 74 39 37 40 39 37 40 39 37 40 39 37 40 39 37 40 39 37 40 39 37 40 39 37 40 39 37 40 39 37 40 39 37 40 40 24 46 
43 32 48 73 70 74 73 70 74 39 37 40 39 37 40 39 37 40 39 37 40 39 37 40 39 37 40 39 37 40 39 37 40 39 37 40 39 37 40 39 37 40 39 37 40 43 32 48 
53 40 59 73 70 74 39 37 40 39 37 40 39 37 40 39 37 40 39 37 40 39 37 40 39 37 40 39 37 40 39 37 40 39 37 40 39 37 40 39 37 40 39 37 40 40 24 46 
43 32 48 39 37 40 39 37 40 39 37 40 39 37 40 39 37 40 39 37 40 39 37 40 39 37 40 39 37 40 39 37 40 39 37 40 39 37 40 39 37 40 39 37 40 43 32 48 
43 32 48 39 37 40 39 37 40 39 37 40 39 37 40 39 37 40 39 37 40 39 37 40 39 37 40 39 37 40 39 37 40 39 37 40 39 37 40 39 37 40 39 37 40 43 32 48 
40 24 46 39 37 40 39 37 40 39 37 40 39 37 40 39 37 40 39 37 40 39 37 40 39 37 40 39 37 40 39 37 40 39 37 40 39 37 40 39 37 40 39 37 40 43 32 48 
43 32 48 39 37 40 39 37 40 39 37 40 39 37 40 39 37 40 39 37 40 39 37 40 39 37 40 39 37 40 39 37 40 39 37 40 39 37 40 39 37 40 73 70 74 53 40 59 
43 32 48 39 37 40 39 37 40 39 37 40 39 37 40 39 37 40 39 37 40 39 37 40 39 37 40 39 37 40 39 37 40 39 37 40 39 37 40 73 70 74 73 70 74 43 32 48 
40 24 46 39 37 40 39 37 40 39 37 40 39 37 40 39 37 40 39 37 40 39 37 40 39 37 40 39 37 40 39 37 40 39 37 40 73 70 74 73 70 74 39 37 40 53 40 59 
43 32 48 39 37 40 39 37 40 39 37 40 39 37 40 39 37 40 39 37 40 39 37 40 39 37 40 39 37 40 39 37 40 73 70 74 73 70 74 39 37 40 39 37 40 53 40 59 
53 40 59 39 37 40 39 37 40 39 37 40 39 37 40 39 37 40 39 37 40 39 37 40 39 37 40 39 37 40 73 70 74 73 70 74 39 37 40 39 37 40 39 37 40 53 40 59 
53 40 59 53 40 59 43 32 48 40 24 46 43 32 48 40 24 46 40 24 46 43 32 48 43 32 48 43 32 48 43 32 48 53 40 59 53 40 59 43 32 48 53 40 59 53 40 59 
