P3
16 16
255
0 0 0 0 0 0 0 0 0 0 0 0 0 0 0 0 0 0 0 0 0 0 0 0 252 226 87 0 0 0 0 0 0 0 0 0 0 0 0 0 0 0 0 0 0 0 0 0 
0 0 0 0 0 0 0 0 0 0 0 0 0 0 0 0 0 0 0 0 0 252 226 87 252 226 87 0 0 0 0 0 0 0 0 0 0 0 0 0 0 0 0 0 0 0 0 0 
0 0 0 0 0 0 0 0 0 0 0 0 0 0 0 0 0 0 246 185 39 252 226 87 246 185 39 0 0 0 0 0 0 0 0 0 0 0 0 0 0 0 0 0 0 0 0 0 
0 0 0 0 0 0 0 0 0 0 0 0 0 0 0 0 0 0 222 139 37 252 226 87 246 185 39 252 226 87 0 0 0 0 0 0 0 0 0 0 0 0 0 0 0 0 0 0 
0 0 0 0 0 0 0 0 0 0 0 0 0 0 0 0 0 0 222 139 37 246 185 39 222 139 37 246 185 39 0 0 0 0 0 0 0 0 0 0 0 0 0 0 0 0 0 0 
0 0 0 0 0 0 0 0 0 0 0 0 0 0 0 0 0 0 246 185 39 222 139 37 232 114 114 232 114 114 0 0 0 0 0 0 0 0 0 0 0 0 0 0 0 0 0 0 
0 0 0 0 0 0 0 0 0 0 0 0 101 45 112 0 0 0 232 114 114 208 49 20 232 114 114 208 49 20 0 0 0 0 0 0 0 0 0 0 0 0 0 0 0 0 0 0 
0 0 0 0 0 0 0 0 0 0 0 0 0 0 0 101 45 112 0 0 0 208 49 20 161 38 16 0 0 0 0 0 0 0 0 0 70 88 102 70 88 102 101 45 112 101 45 112 
0 0 0 0 0 0 0 0 0 0 0 0 0 0 0 0 0 0 70 88 102 0 0 0 208 49 20 0 0 0 0 0 0 39 132 93 39 132 93 101 45 112 0 0 0 0 0 0 
101 45 112 101 45 112 101 45 112 101 45 112 70 88 102 0 0 0 28 91 58 39 132 93 163 138 127 0 0 0 39 132 93 39 132 93 70 88 102 0 0 0 0 0 0 0 0 0 
0 0 0 0 0 0 101 45 112 70 88 102 39 132 93 39 132 93 0 0 0 28 91 58 163 138 127 39 132 93 39 132 93 28 91 58 0 0 0 0 0 0 0 0 0 0 0 0 
0 0 0 0 0 0 0 0 0 28 91 58 28 91 58 28 91 58 39 132 93 19 69 50 101 135 110 39 132 93 28 91 58 0 0 0 0 0 0 70 88 102 101 45 112 101 45 112 
0 0 0 101 45 112 101 45 112 0 0 0 0 0 0 28 91 58 28 91 58 39 132 93 19 69 50 28 91 58 19 69 50 28 91 58 70 88 102 101 45 112 0 0 0 0 0 0 
0 0 0 0 0 0 101 45 112 101 45 112 70 88 102 0 0 0 19 69 50 28 91 58 39 132 93 19 69 50 28 91 58 19 69 50 0 0 0 0 0 0 0 0 0 0 0 0 
0 0 0 0 0 0 0 0 0 0 0 0 19 69 50 19 69 50 28 91 58 19 69 50 28 91 58 19 69 50 19 69 50 0 0 0 0 0 0 0 0 0 0 0 0 0 0 0 
0 0 0 0 0 0 0 0 0 0 0 0 0 0 0 0 0 0 19 69 50 19 69 50 28 91 58 19 69 50 0 0 0 0 0 0 0 0 0 0 0 0 0 0 0 0 0 0 
