P3
16 16
255
0 0 0 0 0 0 0 0 0 0 0 0 0 0 0 0 0 0 0 0 0 0 0 0 0 0 0 0 0 0 0 0 0 0 0 0 0 0 0 0 0 0 0 0 0 0 0 0 
0 0 0 0 0 0 0 0 0 0 0 0 0 0 0 0 0 0 0 0 0 0 0 0 0 0 0 0 0 0 0 0 0 0 0 0 0 0 0 0 0 0 0 0 0 0 0 0 
0 0 0 0 0 0 0 0 0 0 0 0 0 0 0 0 0 0 0 0 0 0 0 0 0 0 0 0 0 0 0 0 0 0 0 0 0 0 0 0 0 0 0 0 0 0 0 0 
0 0 0 0 0 0 0 0 0 0 0 0 0 0 0 0 0 0 0 0 0 0 0 0 0 0 0 0 0 0 0 0 0 0 0 0 0 0 0 0 0 0 0 0 0 0 0 0 
0 0 0 0 0 0 0 0 0 0 0 0 0 0 0 0 0 0 0 0 0 0 0 0 0 0 0 0 0 0 0 0 0 0 0 0 0 0 0 0 0 0 0 0 0 0 0 0 
0 0 0 0 0 0 0 0 0 0 0 0 0 0 0 0 0 0 0 0 0 0 0 0 0 0 0 0 0 0 0 0 0 0 0 0 0 0 0 0 0 0 0 0 0 0 0 0 
0 0 0 0 0 0 0 0 0 0 0 0 0 0 0 0 0 0 0 0 0 0 0 0 235 223 93 0 0 0 0 0 0 0 0 0 0 0 0 0 0 0 0 0 0 0 0 0 
0 0 0 0 0 0 0 0 0 0 0 0 0 0 0 0 0 0 0 0 0 235 223 93 235 223 93 184 192 90 0 0 0 0 0 0 0 0 0 0 0 0 0 0 0 0 0 0 
0 0 0 0 0 0 0 0 0 0 0 0 0 0 0 110 78 108 0 0 0 184 192 90 235 223 93 130 158 85 0 0 0 39 132 93 74 105 100 110 78 108 110 78 108 0 0 0 
0 0 0 110 78 108 110 78 108 74 105 100 39 132 93 0 0 0 28 91 58 130 158 85 130 158 85 39 132 93 28 91 58 39 132 93 28 91 58 0 0 0 0 0 0 0 0 0 
0 0 0 0 0 0 19 69 50 28 91 58 39 132 93 39 132 93 28 91 58 39 132 93 130 158 85 39 132 93 28 91 58 19 69 50 0 0 0 0 0 0 0 0 0 0 0 0 
0 0 0 0 0 0 0 0 0 0 0 0 19 69 50 28 91 58 39 132 93 28 91 58 130 158 85 28 91 58 19 69 50 0 0 0 0 0 0 0 0 0 0 0 0 0 0 0 
0 0 0 0 0 0 0 0 0 0 0 0 0 0 0 19 69 50 19 69 50 28 91 58 39 132 93 28 91 58 39 132 93 74 105 100 110 78 108 110 78 108 0 0 0 0 0 0 
0 0 0 0 0 0 0 0 0 110 78 108 74 105 100 0 0 0 28 91 58 19 69 50 28 91 58 39 132 93 28 91 58 19 69 50 0 0 0 0 0 0 0 0 0 0 0 0 
0 0 0 0 0 0 0 0 0 0 0 0 19 69 50 28 91 58 39 132 93 19 69 50 28 91 58 19 69 50 19 69 50 0 0 0 0 0 0 0 0 0 0 0 0 0 0 0 
0 0 0 0 0 0 0 0 0 0 0 0 0 0 0 0 0 0 19 69 50 28 91 58 28 91 58 19 69 50 0 0 0 0 0 0 0 0 0 0 0 0 0 0 0 0 0 0 
