P3
16 16
255
255 193 149 255 106 0 64 98 120 42 68 85 64 98 120 64 98 120 64 98 120 64 98 120 42 68 85 42 68 85 64 98 120 42 68 85 42 68 85 42 68 85 255 106 0 255 193 149 
255 160 94 191 77 0 24 44 57 24 44 57 24 44 57 24 44 57 24 44 57 24 44 57 24 44 57 24 44 57 24 44 57 24 44 57 24 44 57 42 36 53 191 77 0 255 160 94 
64 98 120 0 0 0 24 44 57 0 0 0 0 0 0 0 0 0 0 0 0 64 98 120 24 44 57 0 0 0 0 0 0 0 0 0 0 0 0 24 44 57 0 0 0 24 44 57 
64 98 120 24 44 57 42 68 85 64 98 120 64 98 120 42 68 85 24 44 57 64 98 120 42 68 85 24 44 57 42 68 85 64 98 120 64 98 120 42 68 85 24 44 57 42 68 85 
64 98 120 0 0 0 0 0 0 0 0 0 42 68 85 0 0 0 0 0 0 42 68 85 42 68 85 0 0 0 0 0 0 42 68 85 0 0 0 0 0 0 0 0 0 42 68 85 
42 68 85 42 68 85 0 0 0 0 0 0 0 0 0 0 0 0 64 98 120 64 98 120 42 68 85 42 68 85 0 0 0 0 0 0 0 0 0 0 0 0 64 98 120 64 98 120 
42 68 85 42 68 85 42 68 85 0 0 0 0 0 0 42 68 85 64 98 120 64 98 120 42 68 85 42 68 85 42 68 85 0 0 0 0 0 0 42 68 85 64 98 120 64 98 120 
24 44 57 255 160 94 24 44 57 42 36 53 42 36 53 24 44 57 255 160 94 24 44 57 24 44 57 255 160 94 24 44 57 42 36 53 42 36 53 24 44 57 255 160 94 24 44 57 
42 68 85 42 36 53 42 36 53 0 0 0 0 0 0 42 36 53 42 36 53 64 98 120 42 68 85 42 36 53 42 36 53 0 0 0 0 0 0 42 36 53 42 36 53 64 98 120 
42 36 53 24 44 57 42 68 85 64 98 120 64 98 120 42 68 85 24 44 57 42 36 53 42 36 53 24 44 57 42 68 85 64 98 120 64 98 120 42 68 85 24 44 57 42 36 53 
42 68 85 24 44 57 0 0 0 0 0 0 42 68 85 0 0 0 24 44 57 42 68 85 42 68 85 24 44 57 0 0 0 42 68 85 0 0 0 0 0 0 24 44 57 42 68 85 
42 36 53 0 0 0 64 98 120 0 0 0 0 0 0 0 0 0 0 0 0 24 44 57 42 36 53 0 0 0 0 0 0 0 0 0 0 0 0 24 44 57 0 0 0 24 44 57 
42 36 53 24 44 57 42 68 85 64 98 120 64 98 120 42 68 85 24 44 57 42 36 53 42 68 85 24 44 57 42 68 85 64 98 120 64 98 120 42 68 85 24 44 57 42 68 85 
24 44 57 0 0 0 0 0 0 0 0 0 24 44 57 0 0 0 0 0 0 24 44 57 42 68 85 0 0 0 0 0 0 24 44 57 0 0 0 0 0 0 0 0 0 42 68 85 
42 36 53 42 36 53 42 36 53 42 36 53 42 36 53 42 36 53 42 36 53 42 36 53 42 36 53 42 36 53 42 36 53 42 36 53 42 36 53 42 36 53 42 36 53 42 36 53 
24 44 57 24 44 57 42 68 85 24 44 57 42 68 85 64 98 120 64 98 120 64 98 120 42 68 85 42 68 85 42 68 85 42 68 85 24 44 57 42 68 85 24 44 57 24 44 57 
