P3
16 16
255
255 193 149 255 106 0 42 68 85 42 68 85 42 68 85 64 98 120 42 68 85 42 68 85 64 98 120 64 98 120 64 98 120 64 98 120 42 68 85 64 98 120 255 106 0 255 193 149 
255 160 94 191 77 0 42 36 53 42 36 53 24 44 57 24 44 57 24 44 57 33 56 70 33 56 70 33 56 70 24 44 57 24 44 57 42 36 53 42 36 53 191 77 0 255 160 94 
42 68 85 24 44 57 64 98 120 42 68 85 64 98 120 64 98 120 80 118 135 80 118 135 80 118 135 80 118 135 80 118 135 80 118 135 64 98 120 64 98 120 24 44 57 42 68 85 
42 68 85 42 36 53 64 98 120 42 68 85 42 68 85 42 68 85 42 68 85 42 68 85 42 68 85 42 68 85 42 68 85 42 68 85 42 68 85 64 98 120 42 36 53 64 98 120 
42 68 85 24 44 57 80 118 135 42 68 85 64 98 120 64 98 120 64 98 120 80 118 135 80 118 135 80 118 135 80 118 135 64 98 120 42 68 85 64 98 120 24 44 57 64 98 120 
42 68 85 33 56 70 80 118 135 42 68 85 64 98 120 42 68 85 42 68 85 42 68 85 42 68 85 42 68 85 42 68 85 42 68 85 42 68 85 80 118 135 24 44 57 64 98 120 
42 68 85 33 56 70 80 118 135 42 68 85 80 118 135 42 68 85 64 98 120 42 68 85 64 98 120 80 118 135 42 68 85 64 98 120 42 68 85 80 118 135 33 56 70 64 98 120 
42 68 85 33 56 70 80 118 135 42 68 85 80 118 135 42 68 85 80 118 135 30 24 39 18 15 27 80 118 135 42 68 85 80 118 135 42 68 85 80 118 135 33 56 70 64 98 120 
42 68 85 33 56 70 80 118 135 42 68 85 80 118 135 42 68 85 80 118 135 18 15 27 30 24 39 64 98 120 42 68 85 80 118 135 42 68 85 80 118 135 33 56 70 42 68 85 
42 68 85 24 44 57 80 118 135 42 68 85 64 98 120 42 68 85 64 98 120 64 98 120 42 68 85 64 98 120 42 68 85 80 118 135 42 68 85 80 118 135 24 44 57 64 98 120 
42 68 85 24 44 57 80 118 135 42 68 85 42 68 85 42 68 85 42 68 85 42 68 85 42 68 85 42 68 85 42 68 85 64 98 120 42 68 85 80 118 135 42 36 53 42 68 85 
33 56 70 24 44 57 80 118 135 42 68 85 64 98 120 64 98 120 80 118 135 80 118 135 80 118 135 80 118 135 64 98 120 64 98 120 42 68 85 80 118 135 42 36 53 42 68 85 
33 56 70 42 36 53 64 98 120 42 68 85 42 68 85 42 68 85 42 68 85 42 68 85 42 68 85 42 68 85 42 68 85 42 68 85 42 68 85 64 98 120 42 36 53 42 68 85 
24 44 57 42 36 53 64 98 120 64 98 120 64 98 120 80 118 135 80 118 135 80 118 135 80 118 135 80 118 135 64 98 120 64 98 120 42 68 85 64 98 120 42 36 53 24 44 57 
255 160 94 191 77 0 42 36 53 42 36 53 42 36 53 24 44 57 33 56 70 33 56 70 33 56 70 33 56 70 24 44 57 42 36 53 42 36 53 42 36 53 191 77 0 255 160 94 
255 193 149 255 106 0 24 44 57 24 44 57 42 68 85 42 68 85 42 68 85 42 68 85 64 98 120 64 98 120 64 98 120 42 68 85 24 44 57 24 44 57 255 106 0 255 193 149 
