P3
16 16
255
51 255 255 0 153 156 42 68 85 42 68 85 42 68 85 64 98 120 42 68 85 42 68 85 64 98 120 64 98 120 64 98 120 64 98 120 42 68 85 64 98 120 0 153 156 51 255 255 
39 204 204 2 122 121 42 36 53 42 36 53 24 44 57 24 44 57 24 44 57 33 56 70 33 56 70 33 56 70 24 44 57 24 44 57 42 36 53 42 36 53 2 122 121 39 204 204 
42 68 85 24 44 57 64 98 120 42 68 85 64 98 120 64 98 120 80 118 135 80 118 135 80 118 135 80 118 135 80 118 135 64 98 120 64 98 120 64 98 120 24 44 57 42 68 85 
42 68 85 42 36 53 64 98 120 42 36 53 5 4 14 5 4 14 5 4 14 5 4 14 5 4 14 5 4 14 5 4 14 5 4 14 42 36 53 64 98 120 42 36 53 64 98 120 
42 68 85 24 44 57 80 118 135 5 4 14 5 4 14 5 4 14 5 4 14 5 4 14 5 4 14 5 4 14 5 4 14 5 4 14 5 4 14 80 118 135 24 44 57 64 98 120 
42 68 85 33 56 70 80 118 135 5 4 14 5 4 14 5 4 14 5 4 14 5 4 14 5 4 14 5 4 14 5 4 14 5 4 14 5 4 14 80 118 135 24 44 57 64 98 120 
42 68 85 33 56 70 80 118 135 5 4 14 5 4 14 5 4 14 5 4 14 5 4 14 12 10 21 5 4 14 5 4 14 5 4 14 5 4 14 80 118 135 33 56 70 64 98 120 
42 68 85 33 56 70 80 118 135 5 4 14 5 4 14 5 4 14 12 10 21 5 4 14 12 10 21 12 10 21 5 4 14 12 10 21 5 4 14 80 118 135 33 56 70 64 98 120 
42 68 85 33 56 70 80 118 135 5 4 14 5 4 14 5 4 14 12 10 21 12 10 21 18 15 27 18 15 27 5 4 14 12 10 21 5 4 14 80 118 135 33 56 70 42 68 85 
42 68 85 24 44 57 80 118 135 5 4 14 12 10 21 5 4 14 18 15 27 12 10 21 18 15 27 18 15 27 12 10 21 12 10 21 5 4 14 80 118 135 24 44 57 64 98 120 
42 68 85 24 44 57 80 118 135 5 4 14 12 10 21 12 10 21 18 15 27 18 15 27 18 15 27 18 15 27 18 15 27 12 10 21 12 10 21 80 118 135 42 36 53 42 68 85 
33 56 70 24 44 57 64 98 120 5 4 14 12 10 21 18 15 27 18 15 27 18 15 27 18 15 27 18 15 27 18 15 27 18 15 27 12 10 21 80 118 135 42 36 53 42 68 85 
33 56 70 42 36 53 64 98 120 42 36 53 18 15 27 18 15 27 18 15 27 18 15 27 18 15 27 18 15 27 18 15 27 18 15 27 42 36 53 64 98 120 42 36 53 42 68 85 
24 44 57 42 36 53 64 98 120 64 98 120 80 118 135 80 118 135 80 118 135 80 118 135 80 118 135 80 118 135 64 98 120 64 98 120 42 68 85 64 98 120 42 36 53 24 44 57 
39 204 204 2 122 121 42 36 53 42 36 53 42 36 53 24 44 57 33 56 70 33 56 70 33 56 70 33 56 70 24 44 57 42 36 53 42 36 53 42 36 53 2 122 121 39 204 204 
51 255 255 0 153 156 24 44 57 24 44 57 42 68 85 42 68 85 42 68 85 42 68 85 64 98 120 64 98 120 64 98 120 42 68 85 24 44 57 24 44 57 0 153 156 51 255 255 
