P3
16 16
255
51 255 255 0 153 156 64 98 120 42 68 85 64 98 120 64 98 120 64 98 120 64 98 120 42 68 85 42 68 85 64 98 120 42 68 85 42 68 85 42 68 85 0 153 156 51 255 255 
39 204 204 2 122 121 24 44 57 24 44 57 24 44 57 24 44 57 24 44 57 24 44 57 24 44 57 24 44 57 24 44 57 24 44 57 24 44 57 42 36 53 2 122 121 39 204 204 
64 98 120 0 0 0 24 44 57 0 0 0 0 0 0 0 0 0 0 0 0 64 98 120 24 44 57 0 0 0 0 0 0 0 0 0 0 0 0 24 44 57 0 0 0 24 44 57 
64 98 120 24 44 57 42 68 85 64 98 120 64 98 120 42 68 85 24 44 57 64 98 120 42 68 85 24 44 57 42 68 85 64 98 120 64 98 120 42 68 85 24 44 57 42 68 85 
64 98 120 0 0 0 0 0 0 0 0 0 42 68 85 0 0 0 0 0 0 42 68 85 42 68 85 0 0 0 0 0 0 42 68 85 0 0 0 0 0 0 0 0 0 42 68 85 
42 68 85 42 68 85 0 0 0 0 0 0 0 0 0 0 0 0 64 98 120 64 98 120 42 68 85 42 68 85 0 0 0 0 0 0 0 0 0 0 0 0 64 98 120 64 98 120 
42 68 85 42 68 85 42 68 85 0 0 0 0 0 0 42 68 85 64 98 120 64 98 120 42 68 85 42 68 85 42 68 85 0 0 0 0 0 0 42 68 85 64 98 120 64 98 120 
24 44 57 222 64 88 127 30 51 42 36 53 42 36 53 127 30 51 222 64 88 24 44 57 24 44 57 222 64 88 127 30 51 42 36 53 42 36 53 127 30 51 222 64 88 24 44 57 
42 68 85 42 36 53 42 36 53 0 0 0 0 0 0 42 36 53 42 36 53 64 98 120 42 68 85 42 36 53 42 36 53 0 0 0 0 0 0 42 36 53 42 36 53 64 98 120 
42 36 53 24 44 57 42 68 85 64 98 120 64 98 120 42 68 85 24 44 57 42 36 53 42 36 53 24 44 57 42 68 85 64 98 120 64 98 120 42 68 85 24 44 57 42 36 53 
42 68 85 24 44 57 0 0 0 0 0 0 42 68 85 0 0 0 24 44 57 42 68 85 42 68 85 24 44 57 0 0 0 42 68 85 0 0 0 0 0 0 24 44 57 42 68 85 
42 36 53 0 0 0 64 98 120 0 0 0 0 0 0 0 0 0 0 0 0 24 44 57 42 36 53 0 0 0 0 0 0 0 0 0 0 0 0 24 44 57 0 0 0 24 44 57 
42 36 53 24 44 57 42 68 85 64 98 120 64 98 120 42 68 85 24 44 57 42 36 53 42 68 85 24 44 57 42 68 85 64 98 120 64 98 120 42 68 85 24 44 57 42 68 85 
24 44 57 0 0 0 0 0 0 0 0 0 24 44 57 0 0 0 0 0 0 24 44 57 42 68 85 0 0 0 0 0 0 24 44 57 0 0 0 0 0 0 0 0 0 42 68 85 
42 36 53 42 36 53 42 36 53 42 36 53 42 36 53 42 36 53 42 36 53 42 36 53 42 36 53 42 36 53 42 36 53 42 36 53 42 36 53 42 36 53 42 36 53 42 36 53 
24 44 57 24 44 57 42 68 85 24 44 57 42 68 85 64 98 120 64 98 120 64 98 120 42 68 85 42 68 85 42 68 85 42 68 85 24 44 57 42 68 85 24 44 57 24 44 57 
