P3
16 16
255
0 0 0 0 0 0 143 143 143 164 164 164 0 0 0 0 0 0 0 0 0 147 147 147 0 0 0 0 0 0 149 149 149 118 118 118 0 0 0 0 0 0 164 164 164 0 0 0 
104 104 104 0 0 0 0 0 0 0 0 0 118 118 118 143 143 143 143 143 143 0 0 0 0 0 0 0 0 0 149 149 149 0 0 0 206 206 206 143 143 143 0 0 0 0 0 0 
0 0 0 0 0 0 119 119 119 0 0 0 0 0 0 0 0 0 0 0 0 119 119 119 91 91 91 0 0 0 0 0 0 0 0 0 0 0 0 0 0 0 0 0 0 91 91 91 
0 0 0 0 0 0 99 99 99 0 0 0 91 91 91 0 0 0 0 0 0 0 0 0 0 0 0 0 0 0 0 0 0 91 91 91 0 0 0 0 0 0 119 119 119 0 0 0 
0 0 0 0 0 0 143 143 143 164 164 164 0 0 0 0 0 0 0 0 0 147 147 147 0 0 0 0 0 0 149 149 149 118 118 118 0 0 0 0 0 0 164 164 164 0 0 0 
104 104 104 0 0 0 0 0 0 0 0 0 118 118 118 143 143 143 143 143 143 0 0 0 0 0 0 0 0 0 149 149 149 0 0 0 206 206 206 143 143 143 0 0 0 0 0 0 
0 0 0 0 0 0 119 119 119 0 0 0 0 0 0 0 0 0 0 0 0 119 119 119 91 91 91 0 0 0 0 0 0 0 0 0 0 0 0 0 0 0 0 0 0 91 91 91 
0 0 0 0 0 0 99 99 99 0 0 0 91 91 91 0 0 0 0 0 0 0 0 0 0 0 0 0 0 0 0 0 0 91 91 91 0 0 0 0 0 0 119 119 119 0 0 0 
0 0 0 0 0 0 0 0 0 0 0 0 0 0 0 0 0 0 0 0 0 0 0 0 0 0 0 0 0 0 0 0 0 0 0 0 0 0 0 0 0 0 0 0 0 0 0 0 
0 0 0 0 0 0 0 0 0 0 0 0 0 0 0 0 0 0 0 0 0 0 0 0 0 0 0 0 0 0 0 0 0 0 0 0 0 0 0 0 0 0 0 0 0 0 0 0 
0 0 0 0 0 0 0 0 0 0 0 0 0 0 0 0 0 0 0 0 0 0 0 0 0 0 0 0 0 0 0 0 0 0 0 0 0 0 0 0 0 0 0 0 0 0 0 0 
0 0 0 0 0 0 0 0 0 0 0 0 0 0 0 0 0 0 0 0 0 0 0 0 0 0 0 0 0 0 0 0 0 0 0 0 0 0 0 0 0 0 0 0 0 0 0 0 
0 0 0 0 0 0 0 0 0 0 0 0 0 0 0 0 0 0 0 0 0 0 0 0 0 0 0 0 0 0 0 0 0 0 0 0 0 0 0 0 0 0 0 0 0 0 0 0 
0 0 0 0 0 0 0 0 0 0 0 0 0 0 0 0 0 0 0 0 0 0 0 0 0 0 0 0 0 0 0 0 0 0 0 0 0 0 0 0 0 0 0 0 0 0 0 0 
0 0 0 0 0 0 0 0 0 0 0 0 0 0 0 0 0 0 0 0 0 0 0 0 0 0 0 0 0 0 0 0 0 0 0 0 0 0 0 0 0 0 0 0 0 0 0 0 
0 0 0 0 0 0 0 0 0 0 0 0 0 0 0 0 0 0 0 0 0 0 0 0 0 0 0 0 0 0 0 0 0 0 0 0 0 0 0 0 0 0 0 0 0 0 0 0 
