P3
16 16
255
37 31 46 37 31 46 37 31 46 37 31 46 37 31 46 37 31 46 37 31 46 37 31 46 37 31 46 37 31 46 37 31 46 37 31 46 37 31 46 37 31 46 37 31 46 37 31 46 
37 31 46 44 45 59 44 45 59 50 53 64 58 64 69 50 53 64 58 64 69 58 64 69 58 64 69 58 64 69 58 64 69 58 64 69 50 53 64 44 45 59 44 45 59 37 31 46 
37 31 46 44 45 59 44 45 59 44 45 59 44 45 59 44 45 59 44 45 59 44 45 59 50 53 64 44 45 59 50 53 64 50 53 64 44 45 59 44 45 59 44 45 59 37 31 46 
37 31 46 50 53 64 44 45 59 44 45 59 37 31 46 37 31 46 37 31 46 37 31 46 37 31 46 37 31 46 37 31 46 37 31 46 44 45 59 44 45 59 50 53 64 37 31 46 
37 31 46 58 64 69 44 45 59 37 31 46 37 31 46 44 45 59 44 45 59 44 45 59 44 45 59 44 45 59 44 45 59 37 31 46 37 31 46 50 53 64 58 64 69 37 31 46 
37 31 46 58 64 69 50 53 64 37 31 46 44 45 59 50 53 64 50 53 64 44 45 59 44 45 59 44 45 59 44 45 59 44 45 59 37 31 46 44 45 59 58 64 69 37 31 46 
37 31 46 58 64 69 50 53 64 37 31 46 44 45 59 50 53 64 44 45 59 44 45 59 44 45 59 50 53 64 44 45 59 44 45 59 37 31 46 50 53 64 58 64 69 37 31 46 
37 31 46 58 64 69 50 53 64 37 31 46 50 53 64 44 45 59 50 53 64 44 45 59 44 45 59 50 53 64 50 53 64 44 45 59 37 31 46 50 53 64 58 64 69 37 31 46 
37 31 46 58 64 69 44 45 59 37 31 46 44 45 59 50 53 64 44 45 59 50 53 64 50 53 64 50 53 64 50 53 64 44 45 59 37 31 46 50 53 64 58 64 69 37 31 46 
37 31 46 50 53 64 44 45 59 37 31 46 44 45 59 44 45 59 50 53 64 50 53 64 50 53 64 50 53 64 50 53 64 44 45 59 37 31 46 50 53 64 50 53 64 37 31 46 
37 31 46 58 64 69 44 45 59 37 31 46 44 45 59 50 53 64 44 45 59 50 53 64 50 53 64 50 53 64 50 53 64 44 45 59 37 31 46 44 45 59 58 64 69 37 31 46 
37 31 46 58 64 69 44 45 59 37 31 46 37 31 46 44 45 59 50 53 64 44 45 59 50 53 64 44 45 59 44 45 59 37 31 46 37 31 46 44 45 59 50 53 64 37 31 46 
37 31 46 50 53 64 44 45 59 44 45 59 37 31 46 37 31 46 37 31 46 37 31 46 37 31 46 37 31 46 37 31 46 37 31 46 44 45 59 44 45 59 50 53 64 37 31 46 
37 31 46 44 45 59 44 45 59 44 45 59 44 45 59 44 45 59 44 45 59 50 53 64 50 53 64 50 53 64 44 45 59 44 45 59 44 45 59 44 45 59 44 45 59 37 31 46 
37 31 46 44 45 59 44 45 59 50 53 64 58 64 69 50 53 64 58 64 69 50 53 64 58 64 69 58 64 69 58 64 69 58 64 69 50 53 64 44 45 59 44 45 59 37 31 46 
37 31 46 37 31 46 37 31 46 37 31 46 37 31 46 37 31 46 37 31 46 37 31 46 37 31 46 37 31 46 37 31 46 37 31 46 37 31 46 37 31 46 37 31 46 37 31 46 
