P3
16 16
255
108 113 107 108 113 107 108 113 107 88 96 88 69 74 66 55 59 53 88 96 88 88 96 88 88 96 88 88 96 88 55 59 53 69 74 66 88 96 88 108 113 107 108 113 107 108 113 107 
108 113 107 58 64 69 58 64 69 50 53 64 44 45 59 44 45 59 58 64 69 50 53 64 44 45 59 58 64 69 44 45 59 44 45 59 50 53 64 58 64 69 58 64 69 108 113 107 
108 113 107 58 64 69 41 40 40 55 59 53 69 74 66 12 10 21 12 10 21 12 10 21 12 10 21 12 10 21 12 10 21 69 74 66 55 59 53 41 40 40 58 64 69 108 113 107 
108 113 107 50 53 64 55 59 53 55 59 53 108 113 107 12 10 21 18 15 27 18 15 27 18 15 27 18 15 27 12 10 21 88 96 88 55 59 53 55 59 53 50 53 64 88 96 88 
108 113 107 44 45 59 69 74 66 88 96 88 12 10 21 18 15 27 18 15 27 18 15 27 18 15 27 18 15 27 18 15 27 12 10 21 108 113 107 69 74 66 44 45 59 108 113 107 
88 96 88 44 45 59 5 4 14 12 10 21 12 10 21 18 15 27 18 15 27 18 15 27 18 15 27 18 15 27 12 10 21 12 10 21 5 4 14 5 4 14 44 45 59 88 96 88 
108 113 107 58 64 69 5 4 14 5 4 14 12 10 21 12 10 21 18 15 27 18 15 27 12 10 21 18 15 27 5 4 14 12 10 21 5 4 14 5 4 14 58 64 69 88 96 88 
88 96 88 44 45 59 5 4 14 5 4 14 12 10 21 5 4 14 18 15 27 18 15 27 12 10 21 12 10 21 5 4 14 5 4 14 5 4 14 5 4 14 50 53 64 88 96 88 
88 96 88 50 53 64 5 4 14 5 4 14 12 10 21 5 4 14 12 10 21 12 10 21 5 4 14 12 10 21 5 4 14 5 4 14 5 4 14 5 4 14 44 45 59 88 96 88 
88 96 88 58 64 69 5 4 14 5 4 14 5 4 14 5 4 14 5 4 14 12 10 21 5 4 14 5 4 14 5 4 14 5 4 14 5 4 14 5 4 14 58 64 69 88 96 88 
88 96 88 44 45 59 5 4 14 5 4 14 5 4 14 5 4 14 5 4 14 5 4 14 5 4 14 5 4 14 5 4 14 5 4 14 5 4 14 5 4 14 44 45 59 88 96 88 
88 96 88 44 45 59 69 74 66 108 113 107 12 10 21 5 4 14 5 4 14 5 4 14 5 4 14 5 4 14 5 4 14 12 10 21 88 96 88 69 74 66 44 45 59 108 113 107 
88 96 88 50 53 64 55 59 53 55 59 53 88 96 88 5 4 14 5 4 14 5 4 14 5 4 14 5 4 14 5 4 14 108 113 107 55 59 53 55 59 53 50 53 64 108 113 107 
108 113 107 58 64 69 41 40 40 55 59 53 69 74 66 5 4 14 5 4 14 5 4 14 5 4 14 5 4 14 5 4 14 69 74 66 55 59 53 41 40 40 58 64 69 108 113 107 
108 113 107 58 64 69 58 64 69 50 53 64 44 45 59 44 45 59 58 64 69 44 45 59 50 53 64 58 64 69 44 45 59 44 45 59 50 53 64 58 64 69 58 64 69 108 113 107 
108 113 107 108 113 107 108 113 107 108 113 107 108 113 107 88 96 88 88 96 88 88 96 88 88 96 88 88 96 88 88 96 88 108 113 107 88 96 88 108 113 107 108 113 107 108 113 107 
