P3
16 16
255
108 113 107 88 96 88 108 113 107 88 96 88 41 40 40 55 59 53 108 113 107 108 113 107 88 96 88 88 96 88 55 59 53 41 40 40 88 96 88 108 113 107 88 96 88 108 113 107 
69 74 66 69 74 66 88 96 88 41 40 40 41 40 40 88 96 88 108 113 107 108 113 107 88 96 88 88 96 88 88 96 88 41 40 40 41 40 40 88 96 88 69 74 66 69 74 66 
69 74 66 55 59 53 41 40 40 108 113 107 41 40 40 127 30 51 222 64 88 55 59 53 55 59 53 222 64 88 127 30 51 41 40 40 108 113 107 41 40 40 55 59 53 69 74 66 
24 44 57 16 29 37 41 40 40 69 74 66 55 59 53 41 40 40 41 40 40 108 113 107 88 96 88 41 40 40 41 40 40 55 59 53 69 74 66 41 40 40 16 29 37 24 44 57 
42 68 85 16 29 37 41 40 40 127 30 51 69 74 66 16 29 37 55 59 53 41 40 40 41 40 40 55 59 53 16 29 37 69 74 66 127 30 51 41 40 40 16 29 37 42 68 85 
42 68 85 24 44 57 41 40 40 55 59 53 69 74 66 16 29 37 69 74 66 88 96 88 88 96 88 69 74 66 16 29 37 69 74 66 55 59 53 41 40 40 16 29 37 42 68 85 
64 98 120 24 44 57 16 29 37 41 40 40 55 59 53 16 29 37 16 29 37 41 40 40 41 40 40 16 29 37 16 29 37 55 59 53 41 40 40 16 29 37 16 29 37 64 98 120 
64 98 120 16 29 37 41 40 40 55 59 53 55 59 53 16 29 37 24 20 36 24 20 36 24 20 36 24 20 36 16 29 37 55 59 53 55 59 53 41 40 40 16 29 37 64 98 120 
64 98 120 24 44 57 0 0 0 16 29 37 16 29 37 16 29 37 24 44 57 24 20 36 24 20 36 24 44 57 16 29 37 16 29 37 16 29 37 0 0 0 16 29 37 64 98 120 
64 98 120 24 44 57 24 44 57 42 68 85 64 98 120 24 44 57 42 68 85 24 44 57 24 44 57 42 68 85 24 44 57 64 98 120 42 68 85 24 44 57 16 29 37 42 68 85 
42 68 85 16 29 37 0 0 0 0 0 0 0 0 0 24 44 57 64 98 120 24 44 57 24 44 57 64 98 120 24 44 57 0 0 0 0 0 0 0 0 0 16 29 37 24 44 57 
64 98 120 16 29 37 0 0 0 0 0 0 0 0 0 16 29 37 64 98 120 42 68 85 42 68 85 64 98 120 16 29 37 0 0 0 0 0 0 0 0 0 16 29 37 42 68 85 
42 68 85 16 29 37 16 29 37 24 44 57 24 44 57 24 44 57 42 68 85 42 68 85 42 68 85 42 68 85 24 44 57 24 44 57 24 44 57 16 29 37 16 29 37 24 44 57 
108 113 107 108 113 107 88 96 88 55 59 53 51 255 255 51 255 255 39 204 204 39 204 204 39 204 204 0 153 156 2 122 121 2 122 121 55 59 53 88 96 88 108 113 107 108 113 107 
88 96 88 69 74 66 69 74 66 55 59 53 39 204 204 0 153 156 0 153 156 39 204 204 39 204 204 39 204 204 0 153 156 2 122 121 55 59 53 69 74 66 69 74 66 88 96 88 
50 53 64 50 53 64 50 53 64 50 53 64 50 53 64 44 45 59 50 53 64 44 45 59 44 45 59 44 45 59 44 45 59 44 45 59 50 53 64 50 53 64 50 53 64 50 53 64 
