P3
16 16
255
120 166 92 147 197 132 147 197 132 160 211 155 147 197 132 160 211 155 189 225 183 215 238 213 160 211 155 215 238 213 189 225 183 215 238 213 160 211 155 147 197 132 136 183 127 120 166 92 
147 197 132 160 211 155 189 225 183 215 238 213 160 211 155 215 238 213 235 249 236 215 238 213 189 225 183 235 249 236 189 225 183 215 238 213 215 238 213 189 225 183 160 211 155 136 183 127 
160 211 155 189 225 183 215 238 213 235 249 236 215 238 213 235 249 236 235 249 236 235 249 236 215 238 213 235 249 236 215 238 213 215 238 213 235 249 236 215 238 213 189 225 183 147 197 132 
160 211 155 189 225 183 235 249 236 248 253 248 235 249 236 235 249 236 248 253 248 235 249 236 215 238 213 248 253 248 235 249 236 215 238 213 235 249 236 215 238 213 235 249 236 160 211 155 
189 225 183 215 238 213 235 249 236 248 253 248 235 249 236 235 249 236 248 253 248 235 249 236 235 249 236 248 253 248 235 249 236 235 249 236 248 253 248 235 249 236 248 253 248 160 211 155 
189 225 183 235 249 236 235 249 236 248 253 248 248 253 248 235 249 236 248 253 248 235 249 236 248 253 248 248 253 248 248 253 248 235 249 236 248 253 248 235 249 236 248 253 248 189 225 183 
215 238 213 235 249 236 235 249 236 248 253 248 248 253 248 248 253 248 248 253 248 248 253 248 248 253 248 248 253 248 248 253 248 248 253 248 248 253 248 235 249 236 248 253 248 215 238 213 
215 238 213 248 253 248 235 249 236 248 253 248 248 253 248 248 253 248 248 253 248 248 253 248 248 253 248 235 249 236 248 253 248 248 253 248 248 253 248 235 249 236 248 253 248 189 225 183 
215 238 213 248 253 248 235 249 236 248 253 248 248 253 248 248 253 248 235 249 236 248 253 248 248 253 248 235 249 236 248 253 248 248 253 248 235 249 236 248 253 248 235 249 236 189 225 183 
215 238 213 235 249 236 248 253 248 248 253 248 248 253 248 248 253 248 235 249 236 248 253 248 248 253 248 235 249 236 248 253 248 248 253 248 235 249 236 248 253 248 235 249 236 160 211 155 
189 225 183 235 249 236 235 249 236 248 253 248 248 253 248 235 249 236 235 249 236 248 253 248 235 249 236 235 249 236 248 253 248 235 249 236 215 238 213 235 249 236 215 238 213 160 211 155 
189 225 183 215 238 213 235 249 236 248 253 248 235 249 236 215 238 213 235 249 236 235 249 236 235 249 236 215 238 213 235 249 236 235 249 236 215 238 213 235 249 236 189 225 183 147 197 132 
160 211 155 215 238 213 215 238 213 248 253 248 215 238 213 189 225 183 235 249 236 215 238 213 235 249 236 215 238 213 235 249 236 215 238 213 189 225 183 215 238 213 189 225 183 147 197 132 
147 197 132 189 225 183 215 238 213 235 249 236 215 238 213 189 225 183 215 238 213 189 225 183 215 238 213 189 225 183 215 238 213 215 238 213 189 225 183 215 238 213 160 211 155 136 183 127 
136 183 127 160 211 155 189 225 183 160 211 155 189 225 183 160 211 155 215 238 213 160 211 155 189 225 183 160 211 155 215 238 213 189 225 183 160 211 155 189 225 183 147 197 132 136 183 127 
120 166 92 136 183 127 136 183 127 147 197 132 136 183 127 147 197 132 189 225 183 147 197 132 160 211 155 160 211 155 147 197 132 136 183 127 160 211 155 147 197 132 136 183 127 120 166 92 
