P3
16 16
255
0 0 0 0 0 0 0 0 0 107 107 107 84 84 84 170 170 170 131 131 131 84 84 84 84 84 84 131 131 131 0 0 0 107 107 107 131 131 131 170 170 170 170 170 170 0 0 0 
0 0 0 131 131 131 131 131 131 107 107 107 84 84 84 131 131 131 0 0 0 0 0 0 0 0 0 107 107 107 0 0 0 107 107 107 84 84 84 131 131 131 170 170 170 0 0 0 
170 170 170 170 170 170 131 131 131 84 84 84 107 107 107 0 0 0 0 0 0 0 0 0 0 0 0 0 0 0 170 170 170 131 131 131 84 84 84 84 84 84 0 0 0 0 0 0 
170 170 170 131 131 131 107 107 107 84 84 84 0 0 0 0 0 0 0 0 0 0 0 0 0 0 0 170 170 170 170 170 170 131 131 131 107 107 107 84 84 84 0 0 0 0 0 0 
0 0 0 0 0 0 107 107 107 84 84 84 0 0 0 0 0 0 0 0 0 0 0 0 0 0 0 84 84 84 84 84 84 107 107 107 131 131 131 107 107 107 0 0 0 0 0 0 
0 0 0 131 131 131 107 107 107 107 107 107 84 84 84 0 0 0 0 0 0 107 107 107 107 107 107 84 84 84 0 0 0 0 0 0 131 131 131 107 107 107 84 84 84 84 84 84 
84 84 84 131 131 131 131 131 131 107 107 107 131 131 131 131 131 131 84 84 84 107 107 107 131 131 131 0 0 0 0 0 0 131 131 131 107 107 107 84 84 84 0 0 0 0 0 0 
107 107 107 0 0 0 0 0 0 107 107 107 131 131 131 170 170 170 170 170 170 0 0 0 131 131 131 0 0 0 131 131 131 107 107 107 170 170 170 170 170 170 0 0 0 0 0 0 
0 0 0 0 0 0 0 0 0 0 0 0 84 84 84 131 131 131 170 170 170 0 0 0 0 0 0 0 0 0 0 0 0 107 107 107 131 131 131 170 170 170 0 0 0 0 0 0 
0 0 0 0 0 0 0 0 0 0 0 0 107 107 107 84 84 84 0 0 0 0 0 0 0 0 0 0 0 0 131 131 131 107 107 107 84 84 84 131 131 131 131 131 131 0 0 0 
0 0 0 0 0 0 0 0 0 0 0 0 131 131 131 84 84 84 0 0 0 0 0 0 0 0 0 0 0 0 107 107 107 84 84 84 0 0 0 0 0 0 0 0 0 0 0 0 
0 0 0 0 0 0 84 84 84 131 131 131 107 107 107 84 84 84 131 131 131 0 0 0 0 0 0 170 170 170 170 170 170 84 84 84 0 0 0 0 0 0 0 0 0 0 0 0 
84 84 84 131 131 131 131 131 131 107 107 107 84 84 84 131 131 131 131 131 131 0 0 0 0 0 0 170 170 170 131 131 131 107 107 107 84 84 84 0 0 0 107 107 107 84 84 84 
0 0 0 170 170 170 131 131 131 84 84 84 84 84 84 0 0 0 131 131 131 0 0 0 0 0 0 131 131 131 0 0 0 107 107 107 84 84 84 84 84 84 84 84 84 131 131 131 
0 0 0 131 131 131 107 107 107 84 84 84 84 84 84 0 0 0 0 0 0 0 0 0 0 0 0 0 0 0 84 84 84 107 107 107 107 107 107 0 0 0 0 0 0 107 107 107 
0 0 0 0 0 0 107 107 107 84 84 84 107 107 107 131 131 131 107 107 107 0 0 0 107 107 107 84 84 84 0 0 0 84 84 84 131 131 131 131 131 131 0 0 0 0 0 0 
