P3
16 16
255
68 33 49 68 33 49 69 45 92 22 97 91 75 39 55 75 39 55 22 126 134 69 45 92 17 155 133 69 45 92 68 33 49 75 39 55 68 33 49 22 126 134 69 45 92 68 33 49 
69 45 92 58 142 140 58 142 140 58 142 140 58 142 140 57 131 130 58 142 140 57 131 130 54 157 145 57 131 130 57 131 130 58 142 140 58 142 140 58 142 140 58 142 140 69 45 92 
22 126 134 58 142 140 31 87 82 31 87 82 46 95 81 46 95 81 40 112 103 46 95 81 40 112 103 40 112 103 40 112 103 40 112 103 46 95 81 46 95 81 54 157 145 22 126 134 
68 33 49 58 142 140 31 87 82 54 157 145 54 157 145 58 142 140 58 142 140 58 142 140 58 142 140 57 131 130 58 142 140 58 142 140 58 142 140 46 95 81 58 142 140 68 33 49 
75 39 55 57 131 130 46 95 81 58 142 140 57 131 130 57 131 130 57 131 130 57 131 130 57 131 130 57 131 130 57 131 130 57 131 130 58 142 140 40 112 103 57 131 130 75 39 55 
68 33 49 58 142 140 40 112 103 58 142 140 57 131 130 46 95 81 46 95 81 40 112 103 40 112 103 46 95 81 46 95 81 57 131 130 58 142 140 46 95 81 57 131 130 68 33 49 
69 45 92 57 131 130 46 95 81 57 131 130 57 131 130 31 87 82 57 131 130 57 131 130 57 131 130 57 131 130 46 95 81 57 131 130 57 131 130 46 95 81 58 142 140 69 45 92 
17 155 133 57 131 130 40 112 103 58 142 140 57 131 130 46 95 81 57 131 130 40 112 103 40 112 103 57 131 130 40 112 103 57 131 130 58 142 140 40 112 103 57 131 130 17 155 133 
69 45 92 57 131 130 40 112 103 58 142 140 57 131 130 46 95 81 57 131 130 40 112 103 46 95 81 57 131 130 46 95 81 57 131 130 58 142 140 46 95 81 57 131 130 69 45 92 
22 126 134 57 131 130 40 112 103 58 142 140 57 131 130 46 95 81 57 131 130 57 131 130 57 131 130 57 131 130 40 112 103 57 131 130 57 131 130 46 95 81 57 131 130 22 126 134 
75 39 55 57 131 130 46 95 81 58 142 140 57 131 130 46 95 81 46 95 81 31 87 82 46 95 81 40 112 103 40 112 103 57 131 130 58 142 140 40 112 103 57 131 130 75 39 55 
75 39 55 57 131 130 40 112 103 58 142 140 57 131 130 57 131 130 57 131 130 57 131 130 57 131 130 57 131 130 57 131 130 57 131 130 58 142 140 46 95 81 57 131 130 75 39 55 
22 97 91 58 142 140 40 112 103 58 142 140 58 142 140 57 131 130 58 142 140 58 142 140 58 142 140 58 142 140 58 142 140 54 157 145 58 142 140 46 95 81 57 131 130 22 97 91 
69 45 92 58 142 140 40 112 103 46 95 81 40 112 103 46 95 81 46 95 81 46 95 81 46 95 81 46 95 81 46 95 81 46 95 81 46 95 81 46 95 81 58 142 140 69 45 92 
68 33 49 58 142 140 58 142 140 58 142 140 57 131 130 57 131 130 58 142 140 57 131 130 57 131 130 54 157 145 57 131 130 57 131 130 58 142 140 58 142 140 58 142 140 68 33 49 
68 33 49 68 33 49 69 45 92 22 97 91 75 39 55 75 39 55 22 126 134 69 45 92 17 155 133 69 45 92 68 33 49 75 39 55 68 33 49 22 126 134 69 45 92 68 33 49 
