P3
16 16
255
122 183 150 122 183 150 122 183 150 102 169 119 122 183 150 102 169 119 102 169 119 122 183 150 122 183 150 122 183 150 122 183 150 122 183 150 102 169 119 100 160 118 105 152 95 132 139 112 
122 183 150 100 160 118 100 160 118 105 152 95 199 124 74 199 124 74 199 124 74 102 169 119 100 160 118 199 124 74 199 124 74 199 124 74 105 152 95 105 152 95 110 143 90 98 116 73 
122 183 150 100 160 118 122 183 150 110 143 90 224 151 53 237 172 81 224 151 53 100 160 118 132 139 112 224 150 52 237 172 81 224 151 53 122 183 150 110 143 90 110 143 90 98 116 73 
122 183 150 105 152 95 110 143 90 98 116 73 224 151 53 236 170 79 237 172 81 100 160 118 132 139 112 236 170 79 236 170 79 224 151 53 110 143 90 98 116 73 110 143 90 70 115 95 
122 183 150 199 124 74 224 150 52 224 150 52 237 171 79 245 208 122 245 208 122 100 160 118 100 160 118 245 208 122 245 208 122 237 171 79 224 150 52 224 150 52 199 124 74 70 115 95 
122 183 150 199 124 74 237 171 79 236 170 79 245 208 122 245 208 122 245 208 122 100 160 119 100 160 119 245 208 122 245 208 122 245 208 122 236 170 79 237 171 79 199 124 74 70 115 95 
122 183 150 199 124 74 224 151 53 237 171 79 245 208 122 245 208 122 234 184 91 116 141 87 116 141 87 234 183 90 245 208 122 245 208 122 237 171 79 224 151 53 199 124 74 70 115 95 
122 183 150 102 169 119 102 169 119 102 169 119 100 160 118 100 160 119 116 141 87 217 35 35 176 23 23 112 176 136 100 160 119 105 152 95 132 139 112 110 143 90 105 152 95 70 115 95 
122 183 150 122 183 150 102 169 119 100 160 118 100 160 118 100 160 119 116 141 87 176 23 23 138 24 24 112 176 136 100 160 119 100 160 118 100 160 118 105 152 95 105 152 95 70 115 95 
122 183 150 199 124 74 224 150 52 236 170 79 245 208 122 245 208 122 234 183 90 112 176 136 112 176 136 234 183 90 245 208 122 245 208 122 236 170 79 224 150 52 199 124 74 98 116 73 
122 183 150 199 124 74 237 171 79 236 170 79 245 208 122 245 208 122 245 208 122 100 160 119 100 160 119 245 208 122 245 208 122 245 208 122 236 170 79 237 171 79 209 134 44 98 116 73 
122 183 150 199 124 74 224 151 53 224 151 53 237 172 81 245 208 122 245 208 122 105 152 95 100 160 118 245 208 122 245 208 122 237 172 81 224 151 53 224 151 53 209 134 44 98 116 73 
122 183 150 105 152 95 122 183 150 110 143 90 224 151 53 236 170 79 237 171 79 102 169 119 100 160 118 236 170 79 236 170 79 224 151 53 122 183 150 110 143 90 100 160 118 70 115 95 
122 183 150 110 143 90 110 143 90 98 116 73 224 151 53 237 172 81 224 151 53 100 160 118 132 139 112 224 150 52 237 172 81 224 151 53 110 143 90 98 116 73 105 152 95 70 115 95 
122 183 150 110 143 90 110 143 90 110 143 90 199 124 74 199 124 74 199 124 74 100 160 118 132 139 112 199 124 74 199 124 74 199 124 74 100 160 118 105 152 95 105 152 95 98 116 73 
102 169 119 98 116 73 110 143 90 98 116 73 98 116 73 70 115 95 98 116 73 70 115 95 70 115 95 70 115 95 70 115 95 98 116 73 98 116 73 70 115 95 98 116 73 98 116 73 
