P3
16 16
255
51 51 51 141 135 112 100 160 119 100 160 119 106 113 71 100 160 119 102 169 119 102 169 119 102 169 119 102 169 119 100 160 119 51 51 51 51 51 51 108 151 92 141 135 112 116 141 87 
102 169 119 108 151 92 106 113 71 112 128 80 116 141 87 102 169 119 102 169 119 122 183 153 116 141 87 108 151 92 77 80 70 106 113 71 106 113 71 77 80 70 141 135 112 116 141 87 
122 183 153 116 141 87 106 113 71 100 160 119 102 169 119 122 183 153 102 169 119 116 141 87 106 113 71 108 151 92 77 80 70 116 141 87 106 113 71 77 80 70 108 151 92 116 141 87 
122 183 153 116 141 87 73 113 100 102 169 119 122 183 153 102 169 119 141 135 112 141 135 112 108 151 92 108 151 92 51 51 51 112 128 80 106 113 71 51 51 51 100 160 119 116 141 87 
122 183 153 108 151 92 73 113 100 122 183 153 102 169 119 141 135 112 141 135 112 108 151 92 100 160 119 108 151 92 104 104 104 104 104 104 104 104 104 77 80 70 108 151 92 116 141 87 
122 183 153 100 160 119 73 113 100 102 169 119 100 160 119 100 160 119 108 151 92 100 160 119 108 151 92 108 151 92 77 80 70 77 80 70 77 80 70 77 80 70 108 151 92 116 141 87 
122 183 153 102 169 119 106 113 71 100 160 119 100 160 119 108 151 92 116 141 87 108 151 92 108 151 92 108 151 92 108 151 92 116 141 87 116 141 87 116 141 87 100 160 119 116 141 87 
122 183 153 102 169 119 106 113 71 100 160 119 108 151 92 116 141 87 108 151 92 108 151 92 100 160 119 100 160 119 108 151 92 108 151 92 108 151 92 116 141 87 102 169 119 116 141 87 
122 183 153 100 160 119 106 113 71 108 151 92 116 141 87 116 141 87 108 151 92 116 141 87 141 135 112 108 151 92 108 151 92 100 160 119 100 160 119 116 141 87 102 169 119 112 128 80 
102 169 119 100 160 119 106 113 71 116 141 87 116 141 87 116 141 87 116 141 87 141 135 112 141 135 112 116 141 87 100 160 119 100 160 119 102 169 119 116 141 87 100 160 119 106 113 71 
77 80 70 100 160 119 112 128 80 100 160 119 122 183 153 116 141 87 141 135 112 141 135 112 116 141 87 100 160 119 122 183 153 116 141 87 100 160 119 116 141 87 100 160 119 112 128 80 
51 51 51 116 141 87 112 128 80 100 160 119 116 141 87 106 113 71 116 141 87 116 141 87 100 160 119 100 160 119 116 141 87 106 113 71 100 160 119 116 141 87 100 160 119 106 113 71 
122 183 153 116 141 87 116 141 87 100 160 119 108 151 92 116 141 87 116 141 87 100 160 119 100 160 119 102 169 119 102 169 119 102 169 119 100 160 119 100 160 119 141 135 112 106 113 71 
102 169 119 116 141 87 108 151 92 102 169 119 122 183 153 122 183 153 122 183 153 122 183 153 122 183 153 122 183 153 122 183 153 122 183 153 122 183 153 102 169 119 141 135 112 73 113 100 
102 169 119 116 141 87 108 151 92 108 151 92 116 141 87 108 151 92 108 151 92 100 160 119 102 169 119 102 169 119 100 160 119 141 135 112 141 135 112 141 135 112 141 135 112 73 113 100 
100 160 119 108 151 92 116 141 87 112 128 80 112 128 80 106 113 71 112 128 80 106 113 71 106 113 71 73 113 100 73 113 100 73 113 100 73 113 100 106 113 71 106 113 71 106 113 71 
