P3
16 16
255
0 0 0 0 0 0 0 0 0 0 0 0 0 0 0 0 0 0 0 0 0 0 0 0 0 0 0 0 0 0 0 0 0 0 0 0 0 0 0 0 0 0 0 0 0 0 0 0 
0 0 0 0 0 0 0 0 0 0 0 0 0 0 0 0 0 0 0 0 0 75 118 19 0 0 0 0 0 0 0 0 0 0 0 0 0 0 0 0 0 0 0 0 0 0 0 0 
0 0 0 0 0 0 0 0 0 0 0 0 0 0 0 0 0 0 75 118 19 75 118 19 0 0 0 0 0 0 0 0 0 0 0 0 0 0 0 0 0 0 0 0 0 0 0 0 
0 0 0 0 0 0 0 0 0 0 0 0 0 0 0 0 0 0 75 118 19 75 118 19 0 0 0 0 0 0 0 0 0 0 0 0 0 0 0 0 0 0 0 0 0 0 0 0 
0 0 0 0 0 0 75 118 19 0 0 0 0 0 0 0 0 0 0 0 0 75 118 19 8 136 6 8 136 6 0 0 0 0 0 0 0 0 0 0 0 0 0 0 0 0 0 0 
0 0 0 75 118 19 0 174 25 0 0 0 0 0 0 0 0 0 0 0 0 141 119 61 75 118 19 0 0 0 0 0 0 0 0 0 0 0 0 0 0 0 0 0 0 0 0 0 
0 0 0 0 0 0 21 205 47 0 174 25 8 136 6 0 0 0 0 0 0 159 153 8 0 0 0 0 0 0 0 0 0 0 0 0 0 0 0 0 0 0 0 0 0 0 0 0 
0 0 0 0 0 0 0 174 25 8 136 6 0 0 0 0 0 0 0 0 0 141 119 61 0 0 0 0 0 0 0 0 0 0 174 25 0 0 0 0 0 0 0 0 0 0 0 0 
0 0 0 0 0 0 0 174 25 0 0 0 0 0 0 159 153 8 159 153 8 159 153 8 0 0 0 0 0 0 0 0 0 21 205 47 0 174 25 0 174 25 0 0 0 0 0 0 
0 174 25 0 174 25 8 136 6 0 0 0 5 106 5 75 118 19 159 153 8 159 153 8 0 0 0 91 107 15 0 0 0 0 174 25 8 136 6 0 0 0 0 0 0 0 0 0 
17 118 31 8 136 6 75 118 19 0 0 0 91 107 15 0 0 0 141 119 61 159 153 8 0 0 0 0 174 25 0 174 25 8 136 6 0 0 0 75 118 19 75 118 19 0 0 0 
91 107 15 75 118 19 141 119 61 0 0 0 91 107 15 91 107 15 0 0 0 159 153 8 0 0 0 91 107 15 8 136 6 8 136 6 0 0 0 75 118 19 75 118 19 5 106 5 
91 107 15 91 107 15 159 153 8 0 0 0 91 107 15 91 107 15 0 0 0 141 119 61 0 0 0 91 107 15 17 118 31 17 118 31 0 0 0 5 106 5 8 136 6 0 0 0 
91 107 15 5 106 5 159 153 8 0 0 0 91 107 15 0 0 0 91 107 15 159 153 8 159 153 8 5 106 5 0 0 0 75 118 19 5 106 5 0 0 0 5 106 5 0 0 0 
5 106 5 0 0 0 159 153 8 75 118 19 5 106 5 0 0 0 91 107 15 159 153 8 141 119 61 5 106 5 0 0 0 141 119 61 5 106 5 0 0 0 5 106 5 0 0 0 
5 106 5 0 0 0 141 119 61 0 0 0 5 106 5 0 0 0 5 106 5 141 119 61 0 0 0 5 106 5 0 0 0 141 119 61 5 106 5 0 0 0 5 106 5 5 106 5 
