P3
16 16
255
0 0 0 0 0 0 0 0 0 0 0 0 0 0 0 0 0 0 0 0 0 0 0 0 0 0 0 0 0 0 0 0 0 0 0 0 0 0 0 0 0 0 0 0 0 0 0 0 
0 0 0 0 0 0 0 0 0 0 0 0 0 0 0 0 0 0 0 0 0 0 0 0 0 0 0 0 0 0 0 0 0 0 0 0 0 0 0 0 0 0 0 0 0 0 0 0 
0 0 0 0 0 0 0 0 0 0 0 0 0 0 0 0 0 0 0 0 0 0 0 0 0 0 0 0 0 0 0 0 0 0 0 0 0 0 0 0 0 0 0 0 0 0 0 0 
0 0 0 0 0 0 0 0 0 0 0 0 0 0 0 0 0 0 0 0 0 0 0 0 0 0 0 0 0 0 0 0 0 0 0 0 0 0 0 0 0 0 0 0 0 0 0 0 
0 0 0 0 0 0 0 0 0 0 0 0 0 0 0 0 0 0 0 0 0 0 0 0 0 0 0 0 0 0 0 0 0 0 0 0 0 0 0 0 0 0 0 0 0 0 0 0 
0 0 0 0 0 0 0 0 0 0 0 0 0 0 0 0 0 0 0 0 0 0 0 0 0 0 0 0 0 0 0 0 0 0 0 0 0 0 0 0 0 0 0 0 0 0 0 0 
0 0 0 0 0 0 0 0 0 0 0 0 0 0 0 0 0 0 0 0 0 0 0 0 0 0 0 0 0 0 0 0 0 0 0 0 0 0 0 0 0 0 0 0 0 0 0 0 
0 0 0 0 0 0 0 0 0 0 0 0 0 0 0 0 0 0 0 0 0 0 174 25 0 0 0 0 0 0 0 0 0 0 0 0 0 0 0 0 0 0 0 0 0 0 0 0 
0 0 0 0 0 0 0 0 0 0 0 0 0 0 0 0 0 0 0 0 0 21 205 47 0 174 25 0 174 25 0 0 0 0 0 0 0 0 0 0 0 0 0 0 0 0 0 0 
0 0 0 0 0 0 0 0 0 8 136 6 0 0 0 0 0 0 0 0 0 0 174 25 8 136 6 0 0 0 0 0 0 0 0 0 0 0 0 0 0 0 0 0 0 0 0 0 
0 0 0 0 0 0 21 205 47 0 174 25 0 0 0 0 174 25 0 174 25 8 136 6 0 0 0 0 0 0 0 0 0 0 0 0 0 0 0 0 0 0 0 0 0 0 0 0 
8 136 6 0 174 25 8 136 6 0 174 25 5 106 5 0 0 0 8 136 6 8 136 6 0 0 0 0 0 0 0 0 0 8 136 6 0 0 0 0 0 0 0 0 0 0 0 0 
0 0 0 0 174 25 8 136 6 0 0 0 5 106 5 0 0 0 17 118 31 17 118 31 0 0 0 0 0 0 0 0 0 0 174 25 8 136 6 0 0 0 5 106 5 0 0 0 
0 0 0 8 136 6 17 118 31 0 0 0 5 106 5 0 0 0 0 0 0 75 118 19 0 0 0 5 106 5 8 136 6 8 136 6 0 0 0 0 0 0 5 106 5 0 0 0 
5 106 5 0 0 0 17 118 31 0 0 0 5 106 5 5 106 5 0 0 0 91 107 15 0 0 0 5 106 5 8 136 6 5 106 5 0 0 0 5 106 5 5 106 5 0 0 0 
5 106 5 5 106 5 17 118 31 0 0 0 5 106 5 5 106 5 5 106 5 91 107 15 0 0 0 5 106 5 0 0 0 5 106 5 5 106 5 5 106 5 5 106 5 0 0 0 
